M48
; Excellon, plated vias
METRIC,TZ
T01C0.300
%
G90
T01
X32.0000Y37.8000
X20.0400Y42.0000
X22.5800Y38.0000
X20.0400Y35.4000
X16.4000Y43.4000
X37.2425Y28.0676
X43.6132Y22.7639
X42.1100Y4.9510
X46.7844Y4.6062
X49.2580Y19.3442
X53.9667Y22.5349
X54.1008Y4.7561
X58.4500Y4.5860
X58.7902Y17.9722
X56.7636Y34.0370
X60.3929Y43.2748
X66.5722Y49.1576
X73.4536Y57.2774
X81.6118Y54.9048
X92.6359Y55.8419
X87.5558Y60.5080
X82.4558Y62.6330
X79.8250Y65.3850
X79.4747Y76.3997
X92.2109Y80.0669
X88.5559Y84.9969
X83.7777Y94.7665
X79.8753Y83.8497
X76.9027Y76.2881
X69.7888Y71.9959
X66.4633Y79.4111
X62.7661Y94.4558
X60.0371Y87.0409
X53.0192Y81.4661
X61.0926Y78.5350
X63.3688Y59.8966
X56.5688Y52.2466
X50.5338Y45.8715
X43.2150Y47.7250
X34.7150Y47.7250
X25.9349Y46.7583
X19.2259Y45.1284
X4.6299Y47.5588
X10.2675Y38.1846
X9.5975Y22.7564
X8.2168Y4.8011
X12.7829Y4.6000
X13.5705Y18.0368
X15.0611Y30.0132
X21.4805Y22.7572
X20.1168Y4.8011
X24.6826Y4.5999
X24.7151Y18.0458
X29.2074Y25.6402
M30
