M48
; Excellon, plated vias
METRIC,TZ
T01C0.300
%
G90
T01
X71.0000Y63.5000
X68.0400Y59.8000
X70.5800Y59.8000
X68.0400Y66.9000
X18.9000Y42.6000
X29.8500Y40.0000
X79.8184Y68.0277
X81.7122Y74.9315
X91.6250Y79.8750
X86.3200Y87.6840
X79.9450Y83.0940
X76.1571Y75.8718
X68.7224Y75.9193
X65.3050Y83.2950
X58.7800Y87.6840
X53.0760Y80.6250
X62.3720Y78.7706
X61.9882Y59.6989
X55.5500Y51.8990
X49.9607Y46.1357
X42.7500Y47.6250
X32.6000Y48.9240
X24.1000Y47.6490
X11.9860Y42.6178
X9.5975Y22.2945
X8.0093Y5.2893
X12.7828Y5.0618
X13.8800Y18.4500
X15.4750Y29.7250
X21.0924Y22.3463
X19.9093Y5.2893
X24.6825Y5.0618
X25.7800Y18.4500
X27.1524Y24.6804
X32.8921Y26.1133
X42.9368Y22.2989
X42.0260Y5.6000
X46.7844Y5.0679
X49.5500Y19.9500
X53.0760Y20.7000
X54.0776Y4.9040
X58.3500Y5.0510
X59.1783Y22.2892
X57.8956Y34.4070
X63.9231Y44.9391
X69.3000Y51.5126
X77.7866Y53.5875
X93.7500Y54.0500
M30
