M48
; Excellon, plated vias
METRIC,TZ
T01C0.300
%
G90
T01
X71.0000Y63.5000
X68.0400Y59.8000
X70.5800Y59.8000
X68.0400Y66.9000
X18.9000Y42.6000
X71.9000Y66.1000
X69.5564Y65.2314
X90.2000Y54.5000
X79.4184Y71.2937
X80.3344Y76.8804
X88.3590Y80.3750
X87.4700Y85.4850
X81.0950Y80.8950
X77.6689Y73.5229
X66.9564Y74.0193
X63.5390Y81.3950
X58.4300Y84.6190
X56.2750Y80.7750
X64.2720Y76.3706
X63.5000Y57.3500
X56.7000Y49.7000
X47.1340Y44.6750
X39.3841Y46.9838
X33.7500Y46.7250
X25.2500Y45.4500
X18.2161Y44.2178
X11.1093Y19.9456
X10.9700Y7.2500
X12.8917Y8.2268
X12.1140Y20.4500
X18.8750Y30.6250
X22.9924Y19.9463
X22.8700Y7.2500
X24.7913Y8.2268
X24.0140Y20.4500
X29.4406Y27.0293
X36.2921Y27.0133
X45.2250Y19.9500
X43.8250Y8.1160
X46.8932Y8.2329
X46.2840Y20.4500
X56.2750Y20.8500
X56.3659Y7.2529
X57.3340Y6.8500
X57.0241Y20.4403
X57.4956Y37.6730
X62.2240Y45.9551
X67.6010Y52.5286
X81.1355Y54.0992
X91.8500Y55.8160
X79.7226Y68.4319
X83.2004Y77.2804
X91.2250Y80.7750
X86.2009Y87.2861
X79.8259Y82.6961
X76.3189Y75.3755
X68.9134Y75.5026
X65.7699Y82.7919
X58.6609Y87.2861
X53.4739Y80.5059
X62.5630Y78.3539
X61.9762Y59.2837
X55.4309Y51.5011
X50.0000Y45.0750
X42.3500Y47.6250
X32.4809Y48.5261
X23.9809Y47.2511
X16.9471Y46.0189
X9.6742Y21.8426
X8.1689Y6.9809
X12.9019Y5.4598
X14.7226Y21.5571
X16.0739Y30.3559
X21.2834Y21.9296
X20.0689Y6.9809
X24.8016Y5.4598
X26.6226Y21.5571
X26.4573Y26.3203
X33.2963Y26.2091
X43.1340Y21.9333
X43.5941Y5.4489
X46.9035Y5.4659
X49.1500Y20.8500
X53.4739Y20.5809
X53.7588Y5.5102
X59.8778Y8.0278
X59.4972Y21.6830
X57.7046Y34.8237
X63.6577Y44.5653
X69.0346Y51.1388
X78.2018Y53.5754
X93.3500Y54.0500
M30
