G04 Bottom copper*
%FSLAX46Y46*%
%MOMM*%
%TF.GenerationSoftware,kerstkaart2026-gen2*%
G01*
%LPD*%
X17500000Y40700000D02*
G36*
X12900000Y40700000D01*
X12900000Y44500000D01*
X17500000Y44500000D01*
X17500000Y42750000D01*
X18640567Y42750000D01*
X18687868Y42812132D01*
X18758581Y42864576D01*
X18841473Y42894236D01*
X18929405Y42898555D01*
X18987085Y42887082D01*
X19041419Y42864576D01*
X19112132Y42812132D01*
X19149441Y42766671D01*
X19177164Y42714805D01*
X19194236Y42658527D01*
X19200000Y42600000D01*
X19194236Y42541473D01*
X19177164Y42485195D01*
X19149441Y42433329D01*
X19112132Y42387868D01*
X19041419Y42335424D01*
X18987085Y42312918D01*
X18929405Y42301445D01*
X18841473Y42305764D01*
X18758581Y42335424D01*
X18687868Y42387868D01*
X18640567Y42450000D01*
X17500000Y42450000D01*
X17500000Y40700000D01*
G37*
%LPD*%
X8607592Y37375936D02*
G36*
X8236573Y37846280D01*
X8183558Y37898777D01*
X277095Y44057293D01*
X-125072Y44457511D01*
X-502193Y44991304D01*
X-786807Y45621366D01*
X-942877Y46294031D01*
X-964717Y46984219D01*
X-851489Y47665406D01*
X-607544Y48311414D01*
X-242256Y48897418D01*
X230337Y49400898D01*
X789115Y49800202D01*
X1582077Y50135622D01*
X2438625Y50269601D01*
X3301930Y50190045D01*
X4114000Y49905586D01*
X4739008Y49513132D01*
X11123822Y44551337D01*
X11592444Y44313443D01*
X11651023Y44291104D01*
X12188059Y44196477D01*
X12245548Y44196499D01*
X12580492Y44227437D01*
X12615217Y44222154D01*
X12656341Y44200023D01*
X12679879Y44173953D01*
X12690913Y44153246D01*
X12700000Y44107438D01*
X12700819Y40683339D01*
X12707896Y40644801D01*
X12722356Y40608384D01*
X12760761Y40556600D01*
X12791413Y40532192D01*
X12826237Y40514232D01*
X12863896Y40503411D01*
X12898529Y40500072D01*
X17498527Y40500000D01*
X17560831Y40509604D01*
X17613480Y40535461D01*
X17652624Y40570939D01*
X17683516Y40620800D01*
X17698605Y40677483D01*
X17700000Y42130000D01*
X17709134Y42175922D01*
X17735147Y42214853D01*
X17774078Y42240866D01*
X17820000Y42250000D01*
X18508114Y42249380D01*
X18554348Y42234823D01*
X18615414Y42189099D01*
X18671771Y42155320D01*
X18762909Y42119339D01*
X18862252Y42101613D01*
X18937748Y42101613D01*
X18986416Y42107713D01*
X19055850Y42125105D01*
X19128229Y42155320D01*
X19186994Y42190795D01*
X19247485Y42240719D01*
X19293422Y42291725D01*
X19336816Y42357059D01*
X19365969Y42419204D01*
X19387884Y42491448D01*
X19399759Y42591659D01*
X19392287Y42686416D01*
X19365969Y42780796D01*
X19335365Y42845503D01*
X19281028Y42923491D01*
X19210596Y42991610D01*
X19128229Y43044680D01*
X19037091Y43080661D01*
X18986416Y43092287D01*
X18911284Y43099687D01*
X18842714Y43096535D01*
X18791448Y43087884D01*
X18744150Y43074895D01*
X18674401Y43046004D01*
X18615414Y43010901D01*
X18554348Y42965177D01*
X18508114Y42950620D01*
X17808238Y42950578D01*
X17763432Y42964169D01*
X17727239Y42993873D01*
X17709134Y43024078D01*
X17700000Y43070000D01*
X17699181Y44516661D01*
X17690396Y44560831D01*
X17664539Y44613480D01*
X17629061Y44652624D01*
X17579200Y44683516D01*
X17541876Y44695441D01*
X17498527Y44700000D01*
X14045022Y44700594D01*
X14010427Y44709383D01*
X13979948Y44727960D01*
X13956281Y44754680D01*
X13941521Y44787180D01*
X13936973Y44822584D01*
X13943040Y44857759D01*
X13959186Y44889593D01*
X13983981Y44915269D01*
X15249189Y45698183D01*
X17002666Y46575008D01*
X18912075Y47358617D01*
X20456658Y47888305D01*
X22610894Y48498098D01*
X24882076Y49001342D01*
X27248566Y49391951D01*
X29664165Y49663015D01*
X32132943Y49815379D01*
X34618189Y49845864D01*
X38944918Y49605940D01*
X43123058Y49000080D01*
X45933675Y48356825D01*
X48398932Y47613187D01*
X48457587Y47601548D01*
X49219054Y47589401D01*
X49275674Y47593817D01*
X49333213Y47609680D01*
X49868895Y47820181D01*
X49927562Y47850886D01*
X50391245Y48250080D01*
X50428544Y48288482D01*
X61640288Y61995782D01*
X61863863Y62351705D01*
X61886404Y62394804D01*
X62032749Y62849774D01*
X62039572Y62897291D01*
X62129442Y64279206D01*
X62374202Y65351037D01*
X62704541Y66178428D01*
X63279949Y67249313D01*
X63527385Y68025740D01*
X63951117Y68979983D01*
X63963536Y69036078D01*
X64037624Y69628247D01*
X64039184Y69682405D01*
X64031751Y69733418D01*
X63897196Y70312241D01*
X63879331Y70366336D01*
X60973916Y77059526D01*
X60944815Y77110971D01*
X60921994Y77139815D01*
X60621414Y77473904D01*
X60583289Y77504130D01*
X60233768Y77738834D01*
X60184356Y77765819D01*
X60135943Y77782108D01*
X59402811Y77962770D01*
X59366261Y77969447D01*
X59306570Y77970913D01*
X52926326Y77448038D01*
X52181983Y77498860D01*
X52148258Y77506201D01*
X51538496Y77734774D01*
X51510053Y77750079D01*
X51005678Y78119162D01*
X50592862Y78637109D01*
X50575551Y78666742D01*
X50312129Y79317772D01*
X50243031Y79937906D01*
X50243913Y79970193D01*
X50352002Y80627336D01*
X50612075Y81195648D01*
X50629430Y81222888D01*
X51056029Y81727050D01*
X51077608Y81746986D01*
X51481379Y82036174D01*
X52028828Y82264460D01*
X53825824Y82468637D01*
X54331573Y82612480D01*
X54381811Y82631801D01*
X54432329Y82662905D01*
X55024657Y83111620D01*
X55080380Y83166278D01*
X55111249Y83214149D01*
X55454471Y83873134D01*
X55477780Y83931948D01*
X55488071Y83988420D01*
X55538395Y84565323D01*
X55537837Y84624646D01*
X55527452Y84677460D01*
X55343701Y85312698D01*
X55323677Y85364135D01*
X55291325Y85415657D01*
X53139003Y88192272D01*
X52774964Y88938767D01*
X52608736Y89640118D01*
X52620773Y90637750D01*
X52873461Y91508418D01*
X53397959Y92355916D01*
X54171780Y93045462D01*
X54969458Y93434673D01*
X55817753Y93610033D01*
X56682438Y93573433D01*
X58112459Y93184535D01*
X58168819Y93174683D01*
X58220727Y93174948D01*
X58752268Y93224502D01*
X58807582Y93241146D01*
X59301262Y93443904D01*
X59349292Y93475996D01*
X59762107Y93814247D01*
X59798654Y93858980D01*
X60095688Y94305461D01*
X60118352Y94363514D01*
X60573762Y96000893D01*
X60860211Y96570600D01*
X61416987Y97158298D01*
X62084059Y97517627D01*
X62802719Y97655407D01*
X63519675Y97577917D01*
X64183265Y97295643D01*
X64741891Y96829187D01*
X65017346Y96451744D01*
X65248222Y95931418D01*
X65349784Y95422604D01*
X65346215Y94947274D01*
X63539937Y87598077D01*
X63531909Y87512782D01*
X63568806Y86701701D01*
X63578900Y86636280D01*
X63600021Y86580054D01*
X63851543Y86068424D01*
X63886129Y86013423D01*
X65645432Y83810497D01*
X66052314Y83173391D01*
X70080832Y73820795D01*
X70343989Y73455916D01*
X70378879Y73415729D01*
X70822122Y73065323D01*
X70869277Y73040650D01*
X71282486Y72869521D01*
X71329653Y72858689D01*
X71789250Y72793895D01*
X72822385Y72799248D01*
X73265595Y72885791D01*
X73321194Y72902452D01*
X73867514Y73195198D01*
X73914172Y73226170D01*
X73950986Y73261186D01*
X74363311Y73727208D01*
X74393689Y73781671D01*
X78447600Y83173265D01*
X78854568Y83810497D01*
X80613773Y86013271D01*
X80645126Y86061768D01*
X80871472Y86495356D01*
X80892931Y86547668D01*
X80998045Y87090699D01*
X80998492Y87142540D01*
X80967703Y87549260D01*
X80960088Y87598045D01*
X79150665Y94989220D01*
X79164826Y95545032D01*
X79290496Y96045759D01*
X79546149Y96553076D01*
X79867287Y96944499D01*
X80453804Y97373643D01*
X81135370Y97613232D01*
X81828097Y97646945D01*
X82528679Y97474799D01*
X83170150Y97089916D01*
X83659784Y96541647D01*
X83925972Y96002012D01*
X84381648Y94363514D01*
X84404312Y94305461D01*
X84721903Y93831775D01*
X84763102Y93791286D01*
X85176034Y93457459D01*
X85222594Y93432212D01*
X85604519Y93265824D01*
X85654715Y93248920D01*
X86180428Y93173837D01*
X86235982Y93171140D01*
X86296664Y93179841D01*
X87998964Y93599514D01*
X88546074Y93619968D01*
X89193704Y93532044D01*
X89848715Y93310813D01*
X90447277Y92966488D01*
X90969420Y92510174D01*
X91311843Y92082344D01*
X91695013Y91343872D01*
X91880682Y90640507D01*
X91919117Y89954794D01*
X91787110Y89132527D01*
X91596127Y88618012D01*
X91258418Y88039735D01*
X89250434Y85490771D01*
X89217744Y85439612D01*
X89001906Y84863953D01*
X88986719Y84806604D01*
X88982733Y84752927D01*
X88991522Y84091854D01*
X88998359Y84031262D01*
X89019610Y83967510D01*
X89330005Y83292544D01*
X89358485Y83243214D01*
X89411456Y83185885D01*
X89981025Y82708613D01*
X90029954Y82675064D01*
X90079183Y82653299D01*
X90549072Y82492944D01*
X90610893Y82478672D01*
X92508322Y82253355D01*
X93050292Y82016578D01*
X93577431Y81596915D01*
X94011109Y80971520D01*
X94227056Y80284560D01*
X94232539Y79551802D01*
X94026539Y78859648D01*
X93660025Y78292693D01*
X93211905Y77886884D01*
X92680445Y77604150D01*
X92093319Y77458161D01*
X91563952Y77448628D01*
X85253369Y77971032D01*
X84717768Y77910190D01*
X84660716Y77897940D01*
X84166914Y77681631D01*
X84116024Y77653080D01*
X83708120Y77300597D01*
X83667930Y77258291D01*
X83382110Y76800757D01*
X83360292Y76758814D01*
X81037016Y71332336D01*
X81020899Y71282750D01*
X80919746Y70845831D01*
X80916829Y70797398D01*
X80927217Y70343534D01*
X80940089Y70286782D01*
X81137082Y69694743D01*
X81169432Y69640656D01*
X81493571Y69210125D01*
X81539332Y69170295D01*
X83862011Y67519308D01*
X84692647Y66763784D01*
X85579445Y65777973D01*
X86477532Y64459266D01*
X86915879Y63579104D01*
X87415884Y62197160D01*
X87452054Y62141723D01*
X87916628Y61573854D01*
X87960902Y61529747D01*
X88008055Y61498253D01*
X88510799Y61225718D01*
X88572569Y61200290D01*
X93891225Y59645629D01*
X95075913Y58999628D01*
X95939145Y58242743D01*
X96451365Y57604068D01*
X96852975Y56922504D01*
X97326391Y55563869D01*
X97435300Y54780313D01*
X97430779Y53965356D01*
X97139103Y52560850D01*
X96699261Y51589713D01*
X96236105Y50903543D01*
X95681253Y50296768D01*
X95030521Y49766713D01*
X94279244Y49324868D01*
X93511175Y49017402D01*
X92461243Y48790790D01*
X91641987Y48754662D01*
X90212742Y48977414D01*
X78369193Y52361285D01*
X77204292Y52764081D01*
X77150382Y52771852D01*
X74786638Y52901931D01*
X72404964Y53288570D01*
X72341841Y53286662D01*
X71673462Y53197326D01*
X71611792Y53182499D01*
X71198803Y52981051D01*
X71152910Y52953163D01*
X70752042Y52593283D01*
X70719372Y52558970D01*
X59577225Y38935809D01*
X59550155Y38888583D01*
X59264281Y38268575D01*
X59245335Y38214947D01*
X59236986Y38164026D01*
X59083527Y36228675D01*
X58531499Y34499566D01*
X58519037Y34438646D01*
X58466318Y33908267D01*
X58475605Y33831959D01*
X58639118Y33182394D01*
X58656854Y33131343D01*
X59384762Y31864061D01*
X59615229Y30836536D01*
X60472350Y3328206D01*
X60344969Y2465026D01*
X60015763Y1667346D01*
X59530315Y1003551D01*
X58867772Y446084D01*
X58223548Y116343D01*
X57421519Y-90272D01*
X56697330Y-112903D01*
X55883965Y43231D01*
X55219630Y332404D01*
X54550418Y821769D01*
X54095477Y1336268D01*
X53731230Y1969331D01*
X53513804Y2624569D01*
X53426650Y3299935D01*
X52983232Y17171298D01*
X52972077Y17222319D01*
X52801910Y17772323D01*
X52775486Y17833414D01*
X52409419Y18327080D01*
X52364031Y18375766D01*
X51853560Y18718010D01*
X51794469Y18748647D01*
X51198764Y18899799D01*
X51132819Y18908836D01*
X50520594Y18851343D01*
X50462696Y18839989D01*
X50412933Y18820265D01*
X49824926Y18525774D01*
X49771840Y18492002D01*
X49730563Y18452567D01*
X49299167Y17956204D01*
X49267693Y17912905D01*
X49242305Y17859646D01*
X49045438Y17318522D01*
X49030279Y17258900D01*
X48564997Y3154385D01*
X48432910Y2418565D01*
X48179132Y1784429D01*
X47598481Y970902D01*
X46934318Y425331D01*
X46155061Y56626D01*
X45304683Y-112140D01*
X44439589Y-67790D01*
X43587910Y196805D01*
X42853874Y647485D01*
X42242354Y1272580D01*
X41965112Y1698320D01*
X41707709Y2290888D01*
X41526871Y3384630D01*
X42139772Y23451121D01*
X42130046Y23507577D01*
X41957733Y24145915D01*
X41935059Y24204983D01*
X41904391Y24253511D01*
X41500655Y24777115D01*
X41461521Y24819114D01*
X41410160Y24856062D01*
X40836539Y25185068D01*
X40787685Y25207671D01*
X40730178Y25222267D01*
X40116592Y25313469D01*
X37110942Y25046030D01*
X34613954Y24953913D01*
X32127060Y24984842D01*
X28985357Y25177855D01*
X28924682Y25168456D01*
X28280728Y25001668D01*
X28217508Y24977624D01*
X28165978Y24944290D01*
X27581785Y24477741D01*
X27525228Y24418625D01*
X27256901Y23959668D01*
X27231146Y23902643D01*
X27103192Y23296316D01*
X27096928Y23244824D01*
X26474424Y3326503D01*
X26331810Y2418311D01*
X26012264Y1661169D01*
X25497317Y968711D01*
X24828042Y420667D01*
X24179460Y99583D01*
X23377546Y-95454D01*
X22514605Y-94342D01*
X21675725Y116756D01*
X21032228Y446084D01*
X20373766Y999515D01*
X19865247Y1701679D01*
X19544687Y2502872D01*
X19427568Y3327533D01*
X20104303Y25792729D01*
X20101182Y25846735D01*
X20086813Y25904602D01*
X19836894Y26610403D01*
X19810703Y26666008D01*
X19769641Y26719882D01*
X19309957Y27202165D01*
X19265485Y27240685D01*
X19208950Y27272442D01*
X17932705Y27820636D01*
X17881209Y27833530D01*
X17308144Y27925478D01*
X17254358Y27929330D01*
X17195306Y27922595D01*
X16547363Y27784369D01*
X16495811Y27768549D01*
X16443171Y27740953D01*
X15957566Y27423181D01*
X15917835Y27392269D01*
X15880550Y27351177D01*
X15530868Y26888021D01*
X15499797Y26837354D01*
X15480549Y26786981D01*
X15299058Y26149642D01*
X15288998Y26097776D01*
X14574427Y3326511D01*
X14430424Y2414389D01*
X14092578Y1627231D01*
X13570173Y940382D01*
X12930996Y422947D01*
X12147840Y53627D01*
X11441486Y-100029D01*
X10571670Y-88626D01*
X9742857Y130234D01*
X8986790Y546203D01*
X8381169Y1102538D01*
X7900933Y1823027D01*
X7645296Y2499190D01*
X7526696Y3378227D01*
X8384768Y30836529D01*
X8615238Y31864061D01*
X9343146Y33131343D01*
X9360882Y33182394D01*
X9524395Y33831959D01*
X9533080Y33887378D01*
X9532103Y33938261D01*
X9473806Y34479964D01*
X9056695Y35641663D01*
X8644056Y37289418D01*
X8633007Y37324442D01*
X8607592Y37375936D01*
G37*
%LPC*%
X67668352Y60135314D02*
G36*
X67618256Y60068228D01*
X67575091Y59983544D01*
X67551471Y59905679D01*
X67540241Y59808341D01*
X67548216Y59710682D01*
X67574031Y59619204D01*
X67618256Y59531772D01*
X67660896Y59474279D01*
X67729404Y59408390D01*
X67797059Y59363184D01*
X67886946Y59324182D01*
X67979792Y59303825D01*
X68077748Y59301613D01*
X68148552Y59312116D01*
X68238955Y59341475D01*
X68324586Y59389099D01*
X68401311Y59454647D01*
X68449205Y59513006D01*
X68475365Y59554497D01*
X68498525Y59601045D01*
X68520661Y59662909D01*
X68538387Y59762252D01*
X68536535Y59857286D01*
X68514895Y59955850D01*
X68475365Y60045503D01*
X68405177Y60145652D01*
X68390620Y60191886D01*
X68390000Y60830000D01*
X68392306Y60853411D01*
X68404169Y60886568D01*
X68425147Y60914853D01*
X68443332Y60929776D01*
X68475166Y60944833D01*
X68498238Y60949422D01*
X68991471Y60950072D01*
X69026104Y60953411D01*
X69063763Y60964232D01*
X69119061Y60997376D01*
X69146357Y61025487D01*
X69164870Y61053194D01*
X69185441Y61108124D01*
X69196237Y61188183D01*
X69220009Y61229383D01*
X69247414Y61252386D01*
X69268948Y61262760D01*
X69304017Y61269851D01*
X69339618Y61266287D01*
X69382472Y61245644D01*
X69413939Y61209973D01*
X69427000Y61176663D01*
X69437896Y61094801D01*
X69465461Y61036520D01*
X69500939Y60997376D01*
X69550800Y60966484D01*
X69588124Y60954559D01*
X69628529Y60950072D01*
X70121762Y60949422D01*
X70144834Y60944833D01*
X70176668Y60929776D01*
X70194853Y60914853D01*
X70215831Y60886568D01*
X70227694Y60853411D01*
X70230000Y60830000D01*
X70229380Y60191886D01*
X70214823Y60145652D01*
X70158256Y60068228D01*
X70115091Y59983544D01*
X70091471Y59905679D01*
X70080241Y59808341D01*
X70087713Y59713584D01*
X70105105Y59644150D01*
X70143184Y59557059D01*
X70188390Y59489404D01*
X70256509Y59418972D01*
X70334497Y59364635D01*
X70424150Y59325105D01*
X70493584Y59307713D01*
X70588341Y59300241D01*
X70685679Y59311471D01*
X70778955Y59341475D01*
X70864586Y59389099D01*
X70941311Y59454647D01*
X70989205Y59513006D01*
X71015365Y59554497D01*
X71038525Y59601045D01*
X71060661Y59662909D01*
X71078387Y59762252D01*
X71076535Y59857286D01*
X71054895Y59955850D01*
X71015365Y60045503D01*
X70945177Y60145652D01*
X70930620Y60191886D01*
X70930000Y60830000D01*
X70932306Y60853411D01*
X70944169Y60886568D01*
X70965147Y60914853D01*
X70983332Y60929776D01*
X71015166Y60944833D01*
X71038238Y60949422D01*
X71528527Y60950000D01*
X71585199Y60957896D01*
X71626806Y60975130D01*
X71673400Y61010761D01*
X71704870Y61053194D01*
X71725441Y61108124D01*
X71730000Y61151473D01*
X71730000Y62848527D01*
X71720396Y62910831D01*
X71694539Y62963480D01*
X71659061Y63002624D01*
X71621616Y63027644D01*
X71571876Y63045441D01*
X71531471Y63049928D01*
X69613339Y63049181D01*
X69574801Y63042104D01*
X69538384Y63027644D01*
X69486600Y62989239D01*
X69462192Y62958587D01*
X69444232Y62923763D01*
X69433411Y62886104D01*
X69427000Y62823337D01*
X69407449Y62779974D01*
X69391637Y62762049D01*
X69362078Y62741890D01*
X69339618Y62733713D01*
X69304017Y62730149D01*
X69268948Y62737240D01*
X69247414Y62747614D01*
X69212551Y62779974D01*
X69193000Y62823337D01*
X69186589Y62886104D01*
X69175768Y62923763D01*
X69157808Y62958587D01*
X69133400Y62989239D01*
X69081616Y63027644D01*
X69045199Y63042104D01*
X69012517Y63048605D01*
X67091473Y63050000D01*
X67029169Y63040396D01*
X66976520Y63014539D01*
X66937376Y62979061D01*
X66912356Y62941616D01*
X66894559Y62891876D01*
X66890072Y62851471D01*
X66890000Y61151473D01*
X66894559Y61108124D01*
X66915130Y61053194D01*
X66946600Y61010761D01*
X66993194Y60975130D01*
X67034801Y60957896D01*
X67091473Y60950000D01*
X67581762Y60949422D01*
X67626568Y60935831D01*
X67662761Y60906127D01*
X67680866Y60875922D01*
X67690000Y60830000D01*
X67690000Y60204066D01*
X67684460Y60168026D01*
X67668352Y60135314D01*
G37*
%LPC*%
X68988527Y63550000D02*
G36*
X69026104Y63553411D01*
X69063763Y63564232D01*
X69119061Y63597376D01*
X69146357Y63625487D01*
X69164870Y63653194D01*
X69180396Y63689169D01*
X69188605Y63727483D01*
X69190000Y65448527D01*
X69182104Y65505199D01*
X69164870Y65546806D01*
X69133400Y65589239D01*
X69098587Y65617808D01*
X69045199Y65642104D01*
X68988527Y65650000D01*
X68498238Y65650578D01*
X68453432Y65664169D01*
X68425147Y65685147D01*
X68410224Y65703332D01*
X68395167Y65735166D01*
X68390000Y65770000D01*
X68390620Y66508114D01*
X68405177Y66554348D01*
X68450901Y66615414D01*
X68486004Y66674401D01*
X68505969Y66719204D01*
X68527884Y66791448D01*
X68536535Y66842714D01*
X68539687Y66911284D01*
X68532287Y66986416D01*
X68520661Y67037091D01*
X68484680Y67128229D01*
X68431610Y67210596D01*
X68363491Y67281028D01*
X68282941Y67336816D01*
X68193054Y67375818D01*
X68097286Y67396535D01*
X67999316Y67398170D01*
X67902909Y67380661D01*
X67838353Y67357332D01*
X67769284Y67320168D01*
X67714279Y67279104D01*
X67658972Y67223491D01*
X67618256Y67168228D01*
X67581475Y67098955D01*
X67558554Y67034253D01*
X67543825Y66960208D01*
X67541830Y66859316D01*
X67551471Y66794321D01*
X67564182Y66746946D01*
X67604635Y66654497D01*
X67674823Y66554348D01*
X67689380Y66508114D01*
X67690000Y65770000D01*
X67687694Y65746589D01*
X67675831Y65713432D01*
X67654853Y65685147D01*
X67636668Y65670224D01*
X67615922Y65659134D01*
X67581762Y65650578D01*
X67091473Y65650000D01*
X67034801Y65642104D01*
X66993194Y65624870D01*
X66950761Y65593400D01*
X66922192Y65558587D01*
X66897896Y65505199D01*
X66890000Y65448527D01*
X66890000Y63751473D01*
X66897896Y63694801D01*
X66922192Y63641413D01*
X66960939Y63597376D01*
X67010800Y63566484D01*
X67073339Y63550819D01*
X68988527Y63550000D01*
G37*
%LPD*%
X67890000Y66640567D02*
G36*
X67827868Y66687868D01*
X67790559Y66733329D01*
X67762836Y66785195D01*
X67745764Y66841473D01*
X67740000Y66900000D01*
X67745764Y66958527D01*
X67762836Y67014805D01*
X67790559Y67066671D01*
X67827868Y67112132D01*
X67873329Y67149441D01*
X67925195Y67177164D01*
X67981473Y67194236D01*
X68040000Y67200000D01*
X68098527Y67194236D01*
X68154805Y67177164D01*
X68206671Y67149441D01*
X68271903Y67090318D01*
X68304576Y67041419D01*
X68334236Y66958527D01*
X68340000Y66900000D01*
X68334236Y66841473D01*
X68304576Y66758581D01*
X68252132Y66687868D01*
X68190000Y66640567D01*
X68190000Y65450000D01*
X68990000Y65450000D01*
X68990000Y63750000D01*
X67090000Y63750000D01*
X67090000Y65450000D01*
X67890000Y65450000D01*
X67890000Y66640567D01*
G37*
%LPD*%
X68304576Y59658581D02*
G36*
X68252132Y59587868D01*
X68181419Y59535424D01*
X68098527Y59505764D01*
X68010595Y59501445D01*
X67925195Y59522836D01*
X67849682Y59568097D01*
X67790559Y59633329D01*
X67752918Y59712915D01*
X67740000Y59800000D01*
X67745764Y59858527D01*
X67762836Y59914805D01*
X67808097Y59990318D01*
X67849682Y60031903D01*
X67890000Y60059433D01*
X67890000Y61150000D01*
X67090000Y61150000D01*
X67090000Y62850000D01*
X68990000Y62850000D01*
X68990000Y61150000D01*
X68190000Y61150000D01*
X68190000Y60059433D01*
X68230318Y60031903D01*
X68271903Y59990318D01*
X68304576Y59941419D01*
X68327082Y59887085D01*
X68338555Y59829405D01*
X68338555Y59770595D01*
X68327082Y59712915D01*
X68304576Y59658581D01*
G37*
%LPD*%
X70829441Y59633329D02*
G36*
X70770318Y59568097D01*
X70694805Y59522836D01*
X70609405Y59501445D01*
X70550595Y59501445D01*
X70465195Y59522836D01*
X70389682Y59568097D01*
X70330559Y59633329D01*
X70292918Y59712915D01*
X70280000Y59800000D01*
X70285764Y59858527D01*
X70302836Y59914805D01*
X70348097Y59990318D01*
X70389682Y60031903D01*
X70430000Y60059433D01*
X70430000Y61150000D01*
X69630000Y61150000D01*
X69630000Y62850000D01*
X71530000Y62850000D01*
X71530000Y61150000D01*
X70730000Y61150000D01*
X70730000Y60059433D01*
X70792132Y60012132D01*
X70829441Y59966671D01*
X70857164Y59914805D01*
X70874236Y59858527D01*
X70880000Y59800000D01*
X70874236Y59741473D01*
X70857164Y59685195D01*
X70829441Y59633329D01*
G37*
%LPD*%
M02*
