G04 Bottom mask openings*
%FSLAX46Y46*%
%MOMM*%
%TF.GenerationSoftware,kerstkaart2026-gen2*%
G01*
%LPD*%
X12895099Y35250241D02*
G36*
X12864645Y35264645D01*
X12853806Y35280866D01*
X12850000Y35300000D01*
X12850000Y39100000D01*
X12853806Y39119134D01*
X12868280Y39138651D01*
X12900000Y39150000D01*
X17500000Y39150000D01*
X17519134Y39146194D01*
X17538651Y39131720D01*
X17550000Y39100000D01*
X17550000Y35300000D01*
X17546194Y35280866D01*
X17531720Y35261349D01*
X17500000Y35250000D01*
X12895099Y35250241D01*
G37*
%LPD*%
X12890245Y40650961D02*
G36*
X12861349Y40668280D01*
X12850000Y40700000D01*
X12850000Y44500000D01*
X12853806Y44519134D01*
X12868280Y44538651D01*
X12900000Y44550000D01*
X17500000Y44550000D01*
X17519134Y44546194D01*
X17538651Y44531720D01*
X17550000Y44500000D01*
X17550000Y40700000D01*
X17546194Y40680866D01*
X17531720Y40661349D01*
X17500000Y40650000D01*
X12890245Y40650961D01*
G37*
%LPD*%
X64540245Y61100961D02*
G36*
X64511349Y61118280D01*
X64500000Y61150000D01*
X64500000Y62850000D01*
X64503806Y62869134D01*
X64514645Y62885355D01*
X64530866Y62896194D01*
X64550000Y62900000D01*
X66450000Y62900000D01*
X66469134Y62896194D01*
X66485355Y62885355D01*
X66496194Y62869134D01*
X66500000Y62850000D01*
X66500000Y61150000D01*
X66496194Y61130866D01*
X66485355Y61114645D01*
X66469134Y61103806D01*
X66450000Y61100000D01*
X64540245Y61100961D01*
G37*
%LPD*%
X67085099Y61100241D02*
G36*
X67066430Y61105904D01*
X67051349Y61118280D01*
X67040000Y61150000D01*
X67040000Y62850000D01*
X67043806Y62869134D01*
X67054645Y62885355D01*
X67070866Y62896194D01*
X67090000Y62900000D01*
X68990000Y62900000D01*
X69009134Y62896194D01*
X69025355Y62885355D01*
X69036194Y62869134D01*
X69040000Y62850000D01*
X69040000Y61150000D01*
X69036194Y61130866D01*
X69025355Y61114645D01*
X69009134Y61103806D01*
X68990000Y61100000D01*
X67085099Y61100241D01*
G37*
%LPD*%
X69620245Y61100961D02*
G36*
X69591349Y61118280D01*
X69580000Y61150000D01*
X69580000Y62850000D01*
X69583806Y62869134D01*
X69594645Y62885355D01*
X69610866Y62896194D01*
X69630000Y62900000D01*
X71530000Y62900000D01*
X71549134Y62896194D01*
X71565355Y62885355D01*
X71576194Y62869134D01*
X71580000Y62850000D01*
X71580000Y61150000D01*
X71576194Y61130866D01*
X71565355Y61114645D01*
X71549134Y61103806D01*
X71530000Y61100000D01*
X69620245Y61100961D01*
G37*
%LPD*%
X67080245Y63700961D02*
G36*
X67051349Y63718280D01*
X67040000Y63750000D01*
X67040000Y65450000D01*
X67043806Y65469134D01*
X67054645Y65485355D01*
X67070866Y65496194D01*
X67090000Y65500000D01*
X68990000Y65500000D01*
X69009134Y65496194D01*
X69025355Y65485355D01*
X69036194Y65469134D01*
X69040000Y65450000D01*
X69040000Y63750000D01*
X69036194Y63730866D01*
X69025355Y63714645D01*
X69009134Y63703806D01*
X68990000Y63700000D01*
X67080245Y63700961D01*
G37*
%LPD*%
M02*
