G04 Top silk*
%FSLAX46Y46*%
%MOMM*%
%TF.GenerationSoftware,kerstkaart2026-gen2*%
G01*
%LPD*%
X9772584Y7742583D02*
G36*
X9771153Y7771705D01*
X9780112Y7793334D01*
X9801716Y7812915D01*
X9824119Y7819711D01*
X10480000Y7820000D01*
X10502961Y7815433D01*
X10518064Y7806381D01*
X10535433Y7782961D01*
X10540000Y7760000D01*
X10540000Y7110000D01*
X10535433Y7087039D01*
X10526381Y7071936D01*
X10497417Y7052584D01*
X10462583Y7052584D01*
X10433619Y7071936D01*
X10421153Y7098295D01*
X10420000Y7700000D01*
X9824119Y7700289D01*
X9791936Y7713619D01*
X9772584Y7742583D01*
G37*
%LPD*%
X21670289Y7754119D02*
G36*
X21672584Y7777417D01*
X21683619Y7798064D01*
X21701716Y7812915D01*
X21724119Y7819711D01*
X22380000Y7820000D01*
X22402961Y7815433D01*
X22422426Y7802426D01*
X22435433Y7782961D01*
X22440000Y7760000D01*
X22440000Y7110000D01*
X22435433Y7087039D01*
X22422426Y7067574D01*
X22391705Y7051153D01*
X22362583Y7052584D01*
X22337574Y7067574D01*
X22321153Y7098295D01*
X22320000Y7700000D01*
X21724119Y7700289D01*
X21707039Y7704567D01*
X21687574Y7717574D01*
X21674567Y7737039D01*
X21670289Y7754119D01*
G37*
%LPD*%
X24028410Y7061147D02*
G36*
X24005112Y7063442D01*
X23984465Y7074478D01*
X23969614Y7092575D01*
X23962818Y7114977D01*
X23962529Y7770858D01*
X23967096Y7793819D01*
X23980103Y7813285D01*
X23999568Y7826291D01*
X24022529Y7830858D01*
X24672529Y7830858D01*
X24695490Y7826291D01*
X24714955Y7813285D01*
X24731376Y7782564D01*
X24729945Y7753441D01*
X24710593Y7724478D01*
X24684234Y7712011D01*
X24082529Y7710858D01*
X24082240Y7114977D01*
X24077962Y7097897D01*
X24064955Y7078432D01*
X24050813Y7067943D01*
X24028410Y7061147D01*
G37*
%LPD*%
X12134548Y7062033D02*
G36*
X12111137Y7062033D01*
X12089509Y7070992D01*
X12069928Y7092596D01*
X12063132Y7114999D01*
X12062843Y7770880D01*
X12067410Y7793841D01*
X12076462Y7808944D01*
X12094559Y7823795D01*
X12122843Y7830880D01*
X12772843Y7830880D01*
X12790260Y7828296D01*
X12810906Y7817261D01*
X12830259Y7788297D01*
X12830259Y7753463D01*
X12815269Y7728454D01*
X12784548Y7712033D01*
X12182843Y7710880D01*
X12182554Y7114999D01*
X12169224Y7082816D01*
X12151127Y7067965D01*
X12134548Y7062033D01*
G37*
%LPD*%
X10613391Y20145359D02*
G36*
X10636689Y20143064D01*
X10657335Y20132028D01*
X10672187Y20113932D01*
X10678983Y20091529D01*
X10679272Y19435648D01*
X10674704Y19412687D01*
X10661698Y19393221D01*
X10642233Y19380215D01*
X10619272Y19375648D01*
X9969272Y19375648D01*
X9946311Y19380215D01*
X9926845Y19393221D01*
X9910425Y19423942D01*
X9911855Y19453065D01*
X9926845Y19478074D01*
X9957566Y19494495D01*
X10559272Y19495648D01*
X10559561Y20091529D01*
X10566356Y20113932D01*
X10576845Y20128074D01*
X10596311Y20141081D01*
X10613391Y20145359D01*
G37*
%LPD*%
X22490660Y20145159D02*
G36*
X22514070Y20145159D01*
X22540429Y20132692D01*
X22555280Y20114595D01*
X22562076Y20092193D01*
X22562365Y19436312D01*
X22557798Y19413351D01*
X22548746Y19398248D01*
X22525326Y19380879D01*
X22502365Y19376312D01*
X21852365Y19376312D01*
X21829404Y19380879D01*
X21814301Y19389931D01*
X21796932Y19413351D01*
X21793518Y19448017D01*
X21809939Y19478738D01*
X21840660Y19495159D01*
X22442365Y19496312D01*
X22442654Y20092193D01*
X22446932Y20109273D01*
X22459939Y20128738D01*
X22490660Y20145159D01*
G37*
%LPD*%
X13178847Y19451705D02*
G36*
X13178847Y19428295D01*
X13169888Y19406666D01*
X13148284Y19387085D01*
X13125881Y19380289D01*
X12470000Y19380000D01*
X12447039Y19384567D01*
X12431936Y19393619D01*
X12414567Y19417039D01*
X12410000Y19440000D01*
X12410000Y20090000D01*
X12414567Y20112961D01*
X12423619Y20128064D01*
X12447039Y20145433D01*
X12481705Y20148847D01*
X12512426Y20132426D01*
X12528847Y20101705D01*
X12530000Y19500000D01*
X13125881Y19499711D01*
X13142961Y19495433D01*
X13162426Y19482426D01*
X13178847Y19451705D01*
G37*
%LPD*%
X25079711Y19445881D02*
G36*
X25077416Y19422583D01*
X25066381Y19401936D01*
X25048284Y19387085D01*
X25025881Y19380289D01*
X24370000Y19380000D01*
X24347039Y19384567D01*
X24327574Y19397574D01*
X24314567Y19417039D01*
X24310000Y19440000D01*
X24310000Y20090000D01*
X24314567Y20112961D01*
X24327574Y20132426D01*
X24358295Y20148847D01*
X24387417Y20147416D01*
X24412426Y20132426D01*
X24428847Y20101705D01*
X24430000Y19500000D01*
X25025881Y19499711D01*
X25042961Y19495433D01*
X25062426Y19482426D01*
X25072915Y19468284D01*
X25079711Y19445881D01*
G37*
%LPD*%
X28240893Y27533439D02*
G36*
X28243188Y27556737D01*
X28254224Y27577384D01*
X28272321Y27592236D01*
X28294723Y27599031D01*
X28950604Y27599320D01*
X28973565Y27594753D01*
X28993031Y27581747D01*
X29006037Y27562281D01*
X29010604Y27539320D01*
X29010604Y26889320D01*
X29006037Y26866359D01*
X28993031Y26846894D01*
X28962310Y26830473D01*
X28933187Y26831904D01*
X28908178Y26846894D01*
X28891757Y26877615D01*
X28890604Y27479320D01*
X28294723Y27479609D01*
X28277643Y27483888D01*
X28258178Y27496894D01*
X28247689Y27511037D01*
X28240893Y27533439D01*
G37*
%LPD*%
X17676153Y31123295D02*
G36*
X17676153Y31146705D01*
X17688619Y31173064D01*
X17706716Y31187915D01*
X17729119Y31194711D01*
X18385000Y31195000D01*
X18407961Y31190433D01*
X18423064Y31181381D01*
X18440433Y31157961D01*
X18445000Y31135000D01*
X18445000Y30485000D01*
X18440433Y30462039D01*
X18431381Y30446936D01*
X18407961Y30429567D01*
X18373295Y30426153D01*
X18342574Y30442574D01*
X18326153Y30473295D01*
X18325000Y31075000D01*
X17729119Y31075289D01*
X17712039Y31079567D01*
X17692574Y31092574D01*
X17676153Y31123295D01*
G37*
%LPD*%
X31007947Y33177106D02*
G36*
X31138555Y33148326D01*
X31269625Y33138733D01*
X31489925Y33166588D01*
X31642262Y33250154D01*
X31731376Y33392898D01*
X31761081Y33598288D01*
X31761081Y33709709D01*
X31648735Y33586961D01*
X31525293Y33501661D01*
X31386710Y33451729D01*
X31228016Y33435086D01*
X30957322Y33493339D01*
X30737947Y33668099D01*
X30593007Y33933592D01*
X30544694Y34263116D01*
X30593007Y34592872D01*
X30737947Y34857209D01*
X30957322Y35031276D01*
X31228016Y35089298D01*
X31386710Y35072654D01*
X31525293Y35022723D01*
X31648735Y34937307D01*
X31761081Y34813288D01*
X31761081Y35053236D01*
X32281201Y35053236D01*
X32281201Y33598288D01*
X32265799Y33414714D01*
X32142589Y33116743D01*
X32034780Y33002346D01*
X31732994Y32848044D01*
X31320482Y32796610D01*
X31171265Y32802389D01*
X31026903Y32819726D01*
X30885083Y32848968D01*
X30742571Y32890462D01*
X30742571Y33293613D01*
X30876646Y33225420D01*
X31007947Y33177106D01*
G37*
%LPC*%
X31102840Y34454983D02*
G36*
X31080533Y34263116D01*
X31102147Y34067320D01*
X31166988Y33925616D01*
X31273671Y33839623D01*
X31419882Y33810959D01*
X31563667Y33840548D01*
X31671389Y33929315D01*
X31738658Y34071943D01*
X31761081Y34263116D01*
X31738658Y34454983D01*
X31671389Y34597842D01*
X31563667Y34686956D01*
X31419882Y34716661D01*
X31277138Y34686956D01*
X31169762Y34597842D01*
X31102840Y34454983D01*
G37*
%LPD*%
X25124987Y34101301D02*
G36*
X23915997Y34101301D01*
X23958069Y33941914D01*
X24047299Y33828065D01*
X24182414Y33759756D01*
X24362145Y33736986D01*
X24527312Y33749122D01*
X24696408Y33785531D01*
X24870244Y33846443D01*
X25048703Y33932089D01*
X25048703Y33533562D01*
X24865158Y33472650D01*
X24681614Y33428613D01*
X24498069Y33401914D01*
X24314525Y33393014D01*
X23924204Y33448840D01*
X23631665Y33616318D01*
X23449277Y33884585D01*
X23388480Y34242774D01*
X23448236Y34596224D01*
X23627504Y34865068D01*
X23911605Y35035321D01*
X24285860Y35092072D01*
X24629140Y35034628D01*
X24896134Y34862295D01*
X25067774Y34594144D01*
X25124987Y34248322D01*
X25124987Y34101301D01*
G37*
%LPC*%
X24038515Y34663955D02*
G36*
X23962346Y34560741D01*
X23921545Y34420308D01*
X24593309Y34420308D01*
X24571811Y34553459D01*
X24507316Y34657945D01*
X24408146Y34725908D01*
X24282624Y34748562D01*
X24146468Y34727410D01*
X24038515Y34663955D01*
G37*
%LPD*%
X25922793Y34101301D02*
G36*
X25964865Y33941914D01*
X26054095Y33828065D01*
X26189210Y33759756D01*
X26368940Y33736986D01*
X26534107Y33749122D01*
X26703204Y33785531D01*
X26877040Y33846443D01*
X27055499Y33932089D01*
X27055499Y33533562D01*
X26871954Y33472650D01*
X26688410Y33428613D01*
X26504865Y33401914D01*
X26321321Y33393014D01*
X25931000Y33448840D01*
X25638461Y33616318D01*
X25456072Y33884585D01*
X25395276Y34242774D01*
X25455032Y34596224D01*
X25634300Y34865068D01*
X25918401Y35035321D01*
X26292656Y35092072D01*
X26635935Y35034628D01*
X26902930Y34862295D01*
X27074570Y34594144D01*
X27131783Y34248322D01*
X27131783Y34101301D01*
X25922793Y34101301D01*
G37*
%LPC*%
X26045310Y34663955D02*
G36*
X25969142Y34560741D01*
X25928341Y34420308D01*
X26600105Y34420308D01*
X26578607Y34553459D01*
X26514112Y34657945D01*
X26414942Y34725908D01*
X26289420Y34748562D01*
X26153264Y34727410D01*
X26045310Y34663955D01*
G37*
%LPD*%
X19981580Y34248322D02*
G36*
X19981580Y34101301D01*
X18772590Y34101301D01*
X18814662Y33941914D01*
X18903891Y33828065D01*
X19039007Y33759756D01*
X19218737Y33736986D01*
X19383904Y33749122D01*
X19553001Y33785531D01*
X19726836Y33846443D01*
X19905295Y33932089D01*
X19905295Y33533562D01*
X19721751Y33472650D01*
X19538206Y33428613D01*
X19354662Y33401914D01*
X19171117Y33393014D01*
X18780796Y33448840D01*
X18488258Y33616318D01*
X18305869Y33884585D01*
X18245073Y34242774D01*
X18304829Y34596224D01*
X18484097Y34865068D01*
X18768198Y35035321D01*
X19142453Y35092072D01*
X19485732Y35034628D01*
X19752727Y34862295D01*
X19924366Y34594144D01*
X19981580Y34248322D01*
G37*
%LPC*%
X18818938Y34560741D02*
G36*
X18778138Y34420308D01*
X19449902Y34420308D01*
X19428403Y34553459D01*
X19363908Y34657945D01*
X19264739Y34725908D01*
X19139217Y34748562D01*
X19003061Y34727410D01*
X18895107Y34663955D01*
X18818938Y34560741D01*
G37*
%LPD*%
X21675841Y35049075D02*
G36*
X21854762Y34920086D01*
X21963641Y34709379D01*
X21999934Y34420308D01*
X21999934Y33435086D01*
X21479814Y33435086D01*
X21477502Y34366100D01*
X21470567Y34478099D01*
X21457853Y34547102D01*
X21438204Y34595068D01*
X21402258Y34640261D01*
X21355447Y34674127D01*
X21299968Y34695278D01*
X21237091Y34702329D01*
X21092613Y34671006D01*
X20982810Y34577038D01*
X20913461Y34428168D01*
X20890345Y34231216D01*
X20890345Y33435086D01*
X20373461Y33435086D01*
X20373461Y35053236D01*
X20890345Y35053236D01*
X20890345Y34816524D01*
X21010897Y34939388D01*
X21138615Y35025034D01*
X21277198Y35075312D01*
X21429420Y35092072D01*
X21675841Y35049075D01*
G37*
%LPD*%
X28427402Y35075312D02*
G36*
X28579623Y35092072D01*
X28826045Y35049075D01*
X29004966Y34920086D01*
X29113844Y34709379D01*
X29150137Y34420308D01*
X29150137Y33435086D01*
X28630017Y33435086D01*
X28627705Y34366100D01*
X28620771Y34478099D01*
X28608057Y34547102D01*
X28588408Y34595068D01*
X28552461Y34640261D01*
X28505651Y34674127D01*
X28450171Y34695278D01*
X28387295Y34702329D01*
X28242817Y34671006D01*
X28133014Y34577038D01*
X28063664Y34428168D01*
X28040548Y34231216D01*
X28040548Y33435086D01*
X27523664Y33435086D01*
X27523664Y35053236D01*
X28040548Y35053236D01*
X28040548Y34816524D01*
X28161100Y34939388D01*
X28288818Y35025034D01*
X28427402Y35075312D01*
G37*
%LPD*%
X26076537Y35810668D02*
G36*
X26076537Y36392997D01*
X26270201Y36294495D01*
X26459859Y36224709D01*
X26648515Y36183138D01*
X26837838Y36169281D01*
X27156049Y36209516D01*
X27376092Y36330223D01*
X27504812Y36536408D01*
X27547718Y36833082D01*
X27547718Y36994024D01*
X27385441Y36816721D01*
X27207136Y36693510D01*
X27006961Y36621387D01*
X26777735Y36597346D01*
X26386734Y36681490D01*
X26069859Y36933921D01*
X25860501Y37317410D01*
X25790715Y37793390D01*
X25860501Y38269705D01*
X26069859Y38651524D01*
X26386734Y38902954D01*
X26777735Y38986764D01*
X27006961Y38962723D01*
X27207136Y38890599D01*
X27385441Y38767222D01*
X27547718Y38588082D01*
X27547718Y38934675D01*
X28299003Y38934675D01*
X28299003Y36833082D01*
X28276756Y36567921D01*
X28098785Y36137518D01*
X27943061Y35972277D01*
X27507149Y35749396D01*
X26911297Y35675103D01*
X26695762Y35683450D01*
X26487239Y35708493D01*
X26282389Y35750732D01*
X26076537Y35810668D01*
G37*
%LPC*%
X26564705Y37793390D02*
G36*
X26595925Y37510574D01*
X26689585Y37305890D01*
X26843682Y37181678D01*
X27054876Y37140274D01*
X27262564Y37183014D01*
X27418164Y37311233D01*
X27515330Y37517252D01*
X27547718Y37793390D01*
X27515330Y38070531D01*
X27418164Y38276884D01*
X27262564Y38405604D01*
X27054876Y38448510D01*
X26848690Y38405604D01*
X26693592Y38276884D01*
X26596926Y38070531D01*
X26564705Y37793390D01*
G37*
%LPD*%
X20413022Y38923489D02*
G36*
X20654435Y38960719D01*
X20896682Y38983258D01*
X21138596Y38990771D01*
X21683027Y38928497D01*
X22051490Y38741678D01*
X22262350Y38414452D01*
X22332637Y37930959D01*
X22332637Y36597346D01*
X21579349Y36597346D01*
X21579349Y36943938D01*
X21419576Y36759790D01*
X21240771Y36633408D01*
X21032748Y36560783D01*
X20783990Y36536575D01*
X20454927Y36589499D01*
X20194315Y36748271D01*
X20024525Y36992021D01*
X19967928Y37298545D01*
X20038549Y37654987D01*
X20250411Y37901575D01*
X20614033Y38045822D01*
X21138596Y38093904D01*
X21579349Y38093904D01*
X21579349Y38152003D01*
X21544289Y38305766D01*
X21439110Y38411781D01*
X21260304Y38473887D01*
X21003031Y38494589D01*
X20771468Y38482568D01*
X20556267Y38446507D01*
X20357093Y38386404D01*
X20172277Y38302260D01*
X20172277Y38871901D01*
X20413022Y38923489D01*
G37*
%LPC*%
X20750599Y37471841D02*
G36*
X20721216Y37335942D01*
X20744923Y37209559D01*
X20816045Y37113562D01*
X20929906Y37053459D01*
X21080497Y37033425D01*
X21274328Y37071156D01*
X21435103Y37184349D01*
X21543288Y37354974D01*
X21579349Y37563664D01*
X21579349Y37649144D01*
X21190685Y37649144D01*
X20985835Y37629277D01*
X20838750Y37569675D01*
X20750599Y37471841D01*
G37*
%LPD*%
X25239272Y38934675D02*
G36*
X25239272Y36597346D01*
X24492663Y36597346D01*
X24492663Y38934675D01*
X25239272Y38934675D01*
G37*
%LPD*%
X18549086Y39105634D02*
G36*
X16924976Y39105634D01*
X16924976Y39713339D01*
X19544120Y39713339D01*
X19544120Y39227175D01*
X17872596Y37204384D01*
X19592202Y37204384D01*
X19592202Y36597346D01*
X16877562Y36597346D01*
X16877562Y37083510D01*
X18549086Y39105634D01*
G37*
%LPD*%
X33432695Y39713339D02*
G36*
X31932130Y38237483D01*
X33586958Y36597346D01*
X32581239Y36597346D01*
X31341787Y37824777D01*
X31341787Y36597346D01*
X30538414Y36597346D01*
X30538414Y39713339D01*
X31341787Y39713339D01*
X31341787Y38576062D01*
X32499767Y39713339D01*
X33432695Y39713339D01*
G37*
%LPD*%
X23027658Y36597346D02*
G36*
X23027658Y39844897D01*
X23774268Y39844897D01*
X23774268Y36597346D01*
X23027658Y36597346D01*
G37*
%LPD*%
X24492663Y39235188D02*
G36*
X24492663Y39844897D01*
X25239272Y39844897D01*
X25239272Y39235188D01*
X24492663Y39235188D01*
G37*
%LPD*%
X6839174Y43660759D02*
G36*
X6872280Y43691223D01*
X6930899Y43712697D01*
X6993274Y43710105D01*
X7033000Y43691681D01*
X7033856Y43735463D01*
X7058869Y43792662D01*
X7103867Y43835935D01*
X7145761Y43852336D01*
X7140363Y43866123D01*
X7141583Y43928540D01*
X7166596Y43985739D01*
X7211595Y44029012D01*
X7269727Y44051771D01*
X7332144Y44050550D01*
X7377064Y44030907D01*
X7398799Y44066029D01*
X7449464Y44102503D01*
X7510231Y44116812D01*
X7571848Y44106777D01*
X7624935Y44073926D01*
X7649066Y44040405D01*
X7692507Y44063134D01*
X7754687Y44068706D01*
X7814265Y44050058D01*
X7862172Y44010029D01*
X7891115Y43954715D01*
X7896686Y43892535D01*
X7892263Y43878404D01*
X7935198Y43864965D01*
X7983106Y43824937D01*
X8012048Y43769622D01*
X8015956Y43726007D01*
X8054300Y43747156D01*
X8116342Y43754094D01*
X8176317Y43736761D01*
X8211467Y43708680D01*
X8220709Y43720249D01*
X8275373Y43750401D01*
X8337416Y43757338D01*
X8397390Y43740005D01*
X8446166Y43701040D01*
X8476318Y43646375D01*
X8481766Y43597651D01*
X8523050Y43596390D01*
X8579970Y43570749D01*
X8622745Y43525278D01*
X8644863Y43466898D01*
X8642957Y43404498D01*
X8625993Y43366840D01*
X8667397Y43340584D01*
X8703312Y43289520D01*
X8716951Y43228599D01*
X8706239Y43167096D01*
X8672807Y43114374D01*
X8621743Y43078460D01*
X8607294Y43075225D01*
X8617124Y43031322D01*
X8606412Y42969819D01*
X8572979Y42917097D01*
X8537161Y42891905D01*
X8574649Y42869273D01*
X8611678Y42819011D01*
X8626654Y42758405D01*
X8619911Y42713924D01*
X8634550Y42711705D01*
X8687995Y42679439D01*
X8725024Y42629178D01*
X8740000Y42568572D01*
X8730643Y42506848D01*
X8698378Y42453404D01*
X8658906Y42424324D01*
X8678456Y42387940D01*
X8684710Y42325825D01*
X8666719Y42266045D01*
X8627220Y42217701D01*
X8572227Y42188152D01*
X8531131Y42184014D01*
X8529095Y42135029D01*
X8502830Y42078394D01*
X8456891Y42036121D01*
X8398272Y42014646D01*
X8335897Y42017239D01*
X8279262Y42043504D01*
X8269236Y42054400D01*
X8236130Y42023936D01*
X8177511Y42002461D01*
X8115136Y42005054D01*
X8075409Y42023477D01*
X8074554Y41979695D01*
X8049540Y41922497D01*
X8004542Y41879224D01*
X7962649Y41862823D01*
X7968046Y41849035D01*
X7966826Y41786618D01*
X7941813Y41729419D01*
X7896815Y41686147D01*
X7838682Y41663388D01*
X7776265Y41664608D01*
X7731345Y41684252D01*
X7709611Y41649130D01*
X7658945Y41612656D01*
X7598178Y41598347D01*
X7536561Y41608382D01*
X7483474Y41641233D01*
X7459343Y41674753D01*
X7415903Y41652024D01*
X7353723Y41646453D01*
X7294144Y41665101D01*
X7246237Y41705129D01*
X7217295Y41760444D01*
X7211724Y41822624D01*
X7216146Y41836754D01*
X7173211Y41850193D01*
X7125304Y41890222D01*
X7096361Y41945536D01*
X7092454Y41989152D01*
X7054109Y41968002D01*
X6992067Y41961065D01*
X6932093Y41978398D01*
X6896942Y42006478D01*
X6887701Y41994910D01*
X6833036Y41964758D01*
X6770994Y41957821D01*
X6711019Y41975154D01*
X6662243Y42014119D01*
X6632092Y42068784D01*
X6626643Y42117508D01*
X6585360Y42118769D01*
X6528439Y42144410D01*
X6485664Y42189881D01*
X6463546Y42248260D01*
X6465453Y42310660D01*
X6482417Y42348319D01*
X6441012Y42374575D01*
X6405098Y42425638D01*
X6391458Y42486559D01*
X6402170Y42548062D01*
X6435603Y42600784D01*
X6486666Y42636699D01*
X6501115Y42639934D01*
X6491286Y42683837D01*
X6501998Y42745340D01*
X6535431Y42798062D01*
X6571249Y42823254D01*
X6533761Y42845886D01*
X6496732Y42896147D01*
X6481755Y42956753D01*
X6488498Y43001235D01*
X6473859Y43003454D01*
X6420414Y43035719D01*
X6383385Y43085981D01*
X6368409Y43146586D01*
X6377766Y43208310D01*
X6410031Y43261755D01*
X6449503Y43290835D01*
X6429954Y43327218D01*
X6423699Y43389333D01*
X6441691Y43449113D01*
X6481190Y43497458D01*
X6536183Y43527007D01*
X6577278Y43531145D01*
X6579314Y43580130D01*
X6605579Y43636765D01*
X6651518Y43679037D01*
X6710138Y43700512D01*
X6772513Y43697919D01*
X6829148Y43671654D01*
X6839174Y43660759D01*
G37*
%LPC*%
X6729903Y42828794D02*
G36*
X7024192Y42715059D01*
X7234400Y42846411D01*
X7015542Y42962780D01*
X6729903Y42828794D01*
G37*
%LPC*%
X7732429Y42338483D02*
G36*
X7991285Y42158105D01*
X7942637Y42469835D01*
X7723779Y42586204D01*
X7732429Y42338483D01*
G37*
%LPC*%
X7403974Y42575036D02*
G36*
X7193767Y42443684D01*
X7166982Y42129320D01*
X7412624Y42327315D01*
X7403974Y42575036D01*
G37*
%LPC*%
X8084217Y43000099D02*
G36*
X7874010Y42868747D01*
X8092868Y42752378D01*
X8378507Y42886365D01*
X8084217Y43000099D01*
G37*
%LPC*%
X7914643Y43271475D02*
G36*
X7941427Y43585838D01*
X7695785Y43387843D01*
X7704436Y43140122D01*
X7914643Y43271475D01*
G37*
%LPC*%
X7375980Y43376676D02*
G36*
X7117125Y43557053D01*
X7165773Y43245323D01*
X7384631Y43128955D01*
X7375980Y43376676D01*
G37*
%LPD*%
X33567787Y42748160D02*
G36*
X32985880Y43133286D01*
X32403972Y42748160D01*
X32590430Y43420597D01*
X32044334Y43855013D01*
X32741479Y43885476D01*
X32985880Y44539086D01*
X33230281Y43885476D01*
X33927426Y43855013D01*
X33381329Y43420597D01*
X33567787Y42748160D01*
G37*
%LPD*%
X17720258Y44417555D02*
G36*
X17743556Y44415260D01*
X17764203Y44404224D01*
X17779054Y44386127D01*
X17785850Y44363725D01*
X17786139Y43707844D01*
X17781572Y43684883D01*
X17768565Y43665417D01*
X17749100Y43652411D01*
X17726139Y43647844D01*
X17076139Y43647844D01*
X17053178Y43652411D01*
X17033713Y43665417D01*
X17017292Y43696138D01*
X17018723Y43725261D01*
X17033713Y43750270D01*
X17064434Y43766691D01*
X17666139Y43767844D01*
X17666428Y44363725D01*
X17673224Y44386127D01*
X17683713Y44400270D01*
X17697855Y44410759D01*
X17720258Y44417555D01*
G37*
%LPD*%
X24754119Y45649711D02*
G36*
X24777417Y45647416D01*
X24798064Y45636381D01*
X24812915Y45618284D01*
X24819711Y45595881D01*
X24820000Y44940000D01*
X24815433Y44917039D01*
X24802426Y44897574D01*
X24782961Y44884567D01*
X24760000Y44880000D01*
X24110000Y44880000D01*
X24087039Y44884567D01*
X24067574Y44897574D01*
X24051153Y44928295D01*
X24052584Y44957417D01*
X24067574Y44982426D01*
X24098295Y44998847D01*
X24700000Y45000000D01*
X24700289Y45595881D01*
X24707085Y45618284D01*
X24717574Y45632426D01*
X24731716Y45642915D01*
X24754119Y45649711D01*
G37*
%LPD*%
X33248295Y46923847D02*
G36*
X33271705Y46923847D01*
X33293334Y46914888D01*
X33312915Y46893284D01*
X33319711Y46870881D01*
X33320000Y46215000D01*
X33315433Y46192039D01*
X33306381Y46176936D01*
X33282961Y46159567D01*
X33260000Y46155000D01*
X32610000Y46155000D01*
X32587039Y46159567D01*
X32571936Y46168619D01*
X32552584Y46197583D01*
X32552584Y46232417D01*
X32567574Y46257426D01*
X32598295Y46273847D01*
X33200000Y46275000D01*
X33200289Y46870881D01*
X33207085Y46893284D01*
X33217574Y46907426D01*
X33248295Y46923847D01*
G37*
%LPD*%
X42820881Y7050289D02*
G36*
X42797583Y7052584D01*
X42776936Y7063619D01*
X42762085Y7081716D01*
X42755289Y7104119D01*
X42755000Y7760000D01*
X42759567Y7782961D01*
X42772574Y7802426D01*
X42792039Y7815433D01*
X42815000Y7820000D01*
X43465000Y7820000D01*
X43487961Y7815433D01*
X43507426Y7802426D01*
X43522416Y7777417D01*
X43522416Y7742583D01*
X43503064Y7713619D01*
X43476705Y7701153D01*
X42875000Y7700000D01*
X42874711Y7104119D01*
X42867915Y7081716D01*
X42857426Y7067574D01*
X42837961Y7054567D01*
X42820881Y7050289D01*
G37*
%LPD*%
X46130275Y7067219D02*
G36*
X46106977Y7069513D01*
X46086330Y7080549D01*
X46071478Y7098646D01*
X46064683Y7121049D01*
X46064394Y7776930D01*
X46068961Y7799891D01*
X46081967Y7819356D01*
X46101433Y7832363D01*
X46124394Y7836930D01*
X46774394Y7836930D01*
X46797355Y7832363D01*
X46816820Y7819356D01*
X46831810Y7794347D01*
X46831810Y7759513D01*
X46812457Y7730549D01*
X46786099Y7718083D01*
X46184394Y7716930D01*
X46184105Y7121049D01*
X46177309Y7098646D01*
X46166820Y7084503D01*
X46147355Y7071497D01*
X46130275Y7067219D01*
G37*
%LPD*%
X47348847Y19451705D02*
G36*
X47348847Y19428295D01*
X47339888Y19406666D01*
X47318284Y19387085D01*
X47295881Y19380289D01*
X46640000Y19380000D01*
X46617039Y19384567D01*
X46601936Y19393619D01*
X46584567Y19417039D01*
X46580000Y19440000D01*
X46580000Y20090000D01*
X46584567Y20112961D01*
X46593619Y20128064D01*
X46617039Y20145433D01*
X46651705Y20148847D01*
X46682426Y20132426D01*
X46698847Y20101705D01*
X46700000Y19500000D01*
X47295881Y19499711D01*
X47318284Y19492915D01*
X47332426Y19482426D01*
X47348847Y19451705D01*
G37*
%LPD*%
X44729119Y20149711D02*
G36*
X44752417Y20147416D01*
X44773064Y20136381D01*
X44787915Y20118284D01*
X44794711Y20095881D01*
X44795000Y19440000D01*
X44790433Y19417039D01*
X44777426Y19397574D01*
X44757961Y19384567D01*
X44735000Y19380000D01*
X44085000Y19380000D01*
X44062039Y19384567D01*
X44042574Y19397574D01*
X44027584Y19422583D01*
X44027584Y19457417D01*
X44046936Y19486381D01*
X44073295Y19498847D01*
X44675000Y19500000D01*
X44675289Y20095881D01*
X44682085Y20118284D01*
X44692574Y20132426D01*
X44712039Y20145433D01*
X44729119Y20149711D01*
G37*
%LPD*%
X35092423Y27517390D02*
G36*
X35094717Y27540689D01*
X35105753Y27561335D01*
X35123850Y27576187D01*
X35146253Y27582983D01*
X35802134Y27583271D01*
X35825095Y27578704D01*
X35844560Y27565698D01*
X35857567Y27546232D01*
X35862134Y27523271D01*
X35862134Y26873271D01*
X35857567Y26850310D01*
X35844560Y26830845D01*
X35813839Y26814424D01*
X35784717Y26815855D01*
X35759707Y26830845D01*
X35743287Y26861566D01*
X35742134Y27463271D01*
X35146253Y27463560D01*
X35123850Y27470356D01*
X35109707Y27480845D01*
X35099219Y27494988D01*
X35092423Y27517390D01*
G37*
%LPD*%
X38092430Y29728965D02*
G36*
X38153632Y29716647D01*
X38205461Y29681845D01*
X38524346Y29361508D01*
X38933200Y29418969D01*
X38679011Y29744316D01*
X38227099Y29735401D01*
X38165641Y29746371D01*
X38113059Y29780024D01*
X38077359Y29831237D01*
X38063974Y29892215D01*
X38074944Y29953672D01*
X38108597Y30006254D01*
X38135675Y30025130D01*
X38079543Y30059417D01*
X38043842Y30110631D01*
X38030457Y30171608D01*
X38041427Y30233066D01*
X38075080Y30285647D01*
X38126293Y30321348D01*
X38187271Y30334732D01*
X38225918Y30335495D01*
X38213792Y30359551D01*
X38209166Y30421809D01*
X38228716Y30481097D01*
X38269467Y30528391D01*
X38325215Y30556490D01*
X38387472Y30561117D01*
X38446761Y30541566D01*
X38467169Y30523981D01*
X38477259Y30561296D01*
X38504997Y30617224D01*
X38552027Y30658279D01*
X38611188Y30678212D01*
X38673474Y30673988D01*
X38729402Y30646249D01*
X38770458Y30599219D01*
X38790146Y30536459D01*
X38815013Y30558167D01*
X38874174Y30578100D01*
X38936460Y30573875D01*
X38992388Y30546136D01*
X39033443Y30499107D01*
X39053376Y30439945D01*
X39049152Y30377659D01*
X38931174Y29941328D01*
X39185364Y29615980D01*
X39340028Y29998788D01*
X39106352Y30385698D01*
X39085123Y30444407D01*
X39087976Y30506771D01*
X39114478Y30563295D01*
X39160594Y30605375D01*
X39219302Y30626604D01*
X39281666Y30623751D01*
X39311552Y30609738D01*
X39313179Y30675494D01*
X39339681Y30732018D01*
X39385797Y30774098D01*
X39444506Y30795327D01*
X39506869Y30792474D01*
X39563394Y30765972D01*
X39605474Y30719856D01*
X39625457Y30686768D01*
X39640228Y30709297D01*
X39691831Y30744433D01*
X39752952Y30757146D01*
X39814285Y30745501D01*
X39866494Y30711272D01*
X39901629Y30659669D01*
X39914342Y30598548D01*
X39909317Y30572081D01*
X39946677Y30582001D01*
X40008982Y30585943D01*
X40068052Y30565741D01*
X40114895Y30524473D01*
X40142379Y30468419D01*
X40146321Y30406115D01*
X40126119Y30347045D01*
X40081612Y30298614D01*
X40112844Y30287933D01*
X40159687Y30246664D01*
X40187172Y30190611D01*
X40191113Y30128306D01*
X40170912Y30069236D01*
X40129643Y30022393D01*
X40073590Y29994909D01*
X39636727Y29878914D01*
X39482062Y29496106D01*
X39890916Y29553567D01*
X40109152Y29949392D01*
X40149381Y29997131D01*
X40204816Y30025841D01*
X40267018Y30031152D01*
X40326519Y30012255D01*
X40374258Y29972026D01*
X40402968Y29916591D01*
X40405776Y29883702D01*
X40463536Y29915171D01*
X40525739Y29920482D01*
X40585239Y29901585D01*
X40632978Y29861356D01*
X40661688Y29805921D01*
X40666999Y29743718D01*
X40648102Y29684218D01*
X40629439Y29650368D01*
X40656335Y29648840D01*
X40712565Y29621719D01*
X40754135Y29575143D01*
X40774717Y29516205D01*
X40771178Y29453876D01*
X40744056Y29397646D01*
X40697480Y29356076D01*
X40672047Y29347194D01*
X40699318Y29319800D01*
X40733883Y29267813D01*
X40745924Y29206556D01*
X40733605Y29145355D01*
X40698804Y29093526D01*
X40646818Y29058960D01*
X40585561Y29046920D01*
X40521365Y29061249D01*
X40527731Y29028860D01*
X40515412Y28967659D01*
X40480611Y28915830D01*
X40428625Y28881264D01*
X40367368Y28869224D01*
X40306166Y28881542D01*
X40254337Y28916344D01*
X39935452Y29236681D01*
X39526598Y29179220D01*
X39780787Y28853873D01*
X40232699Y28862788D01*
X40294157Y28851818D01*
X40346739Y28818165D01*
X40382439Y28766952D01*
X40395824Y28705974D01*
X40384854Y28644517D01*
X40351201Y28591935D01*
X40324123Y28573059D01*
X40380255Y28538772D01*
X40415956Y28487558D01*
X40429341Y28426581D01*
X40418371Y28365123D01*
X40384718Y28312542D01*
X40333505Y28276841D01*
X40272527Y28263457D01*
X40233880Y28262694D01*
X40246006Y28238638D01*
X40250632Y28176380D01*
X40231082Y28117092D01*
X40190331Y28069798D01*
X40134583Y28041699D01*
X40072326Y28037072D01*
X40013037Y28056623D01*
X39992629Y28074208D01*
X39982539Y28036893D01*
X39954801Y27980965D01*
X39907771Y27939910D01*
X39848610Y27919977D01*
X39786324Y27924201D01*
X39730396Y27951940D01*
X39689340Y27998970D01*
X39669652Y28061730D01*
X39644785Y28040022D01*
X39585624Y28020089D01*
X39523338Y28024314D01*
X39467410Y28052053D01*
X39426355Y28099083D01*
X39406422Y28158244D01*
X39410646Y28220530D01*
X39528624Y28656861D01*
X39274434Y28982209D01*
X39119770Y28599401D01*
X39353446Y28212491D01*
X39374675Y28153782D01*
X39371822Y28091418D01*
X39345320Y28034894D01*
X39299204Y27992814D01*
X39240496Y27971585D01*
X39178132Y27974438D01*
X39148246Y27988451D01*
X39146619Y27922695D01*
X39120117Y27866171D01*
X39074001Y27824091D01*
X39015292Y27802862D01*
X38952929Y27805715D01*
X38896404Y27832217D01*
X38854324Y27878333D01*
X38834341Y27911421D01*
X38819570Y27888892D01*
X38767967Y27853756D01*
X38706846Y27841043D01*
X38645513Y27852688D01*
X38593304Y27886917D01*
X38558169Y27938520D01*
X38545456Y27999641D01*
X38550481Y28026108D01*
X38513121Y28016188D01*
X38450816Y28012246D01*
X38391746Y28032448D01*
X38344903Y28073716D01*
X38317419Y28129770D01*
X38313477Y28192074D01*
X38333679Y28251144D01*
X38378186Y28299575D01*
X38346954Y28310256D01*
X38300111Y28351525D01*
X38272626Y28407578D01*
X38268685Y28469883D01*
X38288886Y28528953D01*
X38330155Y28575796D01*
X38386208Y28603280D01*
X38823071Y28719275D01*
X38977736Y29102083D01*
X38568882Y29044622D01*
X38350646Y28648798D01*
X38310418Y28601058D01*
X38254982Y28572348D01*
X38192780Y28567037D01*
X38133280Y28585934D01*
X38085540Y28626163D01*
X38056830Y28681598D01*
X38054022Y28714487D01*
X37996262Y28683018D01*
X37934059Y28677707D01*
X37874559Y28696604D01*
X37826820Y28736833D01*
X37798110Y28792268D01*
X37792799Y28854471D01*
X37811696Y28913971D01*
X37830359Y28947821D01*
X37803463Y28949349D01*
X37747233Y28976470D01*
X37705663Y29023046D01*
X37685081Y29081984D01*
X37688620Y29144313D01*
X37715742Y29200543D01*
X37762318Y29242113D01*
X37787751Y29250995D01*
X37760480Y29278389D01*
X37725915Y29330376D01*
X37713874Y29391633D01*
X37726193Y29452834D01*
X37760994Y29504663D01*
X37812980Y29539229D01*
X37874237Y29551269D01*
X37938433Y29536940D01*
X37932067Y29569329D01*
X37944386Y29630530D01*
X37979187Y29682359D01*
X38031173Y29716925D01*
X38092430Y29728965D01*
G37*
%LPD*%
X49203706Y30387210D02*
G36*
X49222449Y30428110D01*
X49208988Y30434278D01*
X49166508Y30480025D01*
X49144767Y30538546D01*
X49147076Y30600932D01*
X49173084Y30657686D01*
X49218830Y30700166D01*
X49264789Y30717240D01*
X49256025Y30757603D01*
X49267134Y30819035D01*
X49300907Y30871541D01*
X49352201Y30907125D01*
X49413209Y30920371D01*
X49453853Y30913021D01*
X49469312Y30959548D01*
X49510170Y31006749D01*
X49565982Y31034721D01*
X49628249Y31039206D01*
X49687493Y31019521D01*
X49734695Y30978663D01*
X49741329Y30965426D01*
X49781550Y30985584D01*
X49843817Y30990070D01*
X49903061Y30970385D01*
X49936170Y30941725D01*
X49949061Y30983575D01*
X49988871Y31031663D01*
X50044054Y31060856D01*
X50088845Y31065075D01*
X50087457Y31079816D01*
X50105834Y31139479D01*
X50145645Y31187567D01*
X50200827Y31216760D01*
X50262981Y31222614D01*
X50322644Y31204237D01*
X50360409Y31172972D01*
X50390983Y31200743D01*
X50449739Y31221839D01*
X50512096Y31218844D01*
X50568560Y31192213D01*
X50610536Y31146002D01*
X50624493Y31107129D01*
X50672515Y31117004D01*
X50733822Y31105220D01*
X50785953Y31070872D01*
X50820971Y31019190D01*
X50833545Y30958040D01*
X50821761Y30896733D01*
X50813615Y30884369D01*
X50851183Y30859617D01*
X50886201Y30807934D01*
X50898775Y30746784D01*
X50890509Y30703781D01*
X50933198Y30713543D01*
X50994749Y30703110D01*
X51047622Y30669917D01*
X51073671Y30633236D01*
X51085743Y30641809D01*
X51146602Y30655725D01*
X51208153Y30645292D01*
X51261026Y30612099D01*
X51297172Y30561199D01*
X51311088Y30500341D01*
X51302895Y30452003D01*
X51342232Y30439411D01*
X51389880Y30399074D01*
X51418464Y30343574D01*
X51423634Y30281360D01*
X51404602Y30221903D01*
X51377915Y30190379D01*
X51410478Y30153727D01*
X51430926Y30094742D01*
X51427246Y30032422D01*
X51399996Y29976254D01*
X51353326Y29934790D01*
X51294341Y29914341D01*
X51279560Y29915214D01*
X51276908Y29870303D01*
X51249658Y29814135D01*
X51202989Y29772671D01*
X51161614Y29758328D01*
X51191412Y29726239D01*
X51213152Y29667718D01*
X51210843Y29605332D01*
X51192101Y29564432D01*
X51205561Y29558264D01*
X51248042Y29512517D01*
X51269783Y29453996D01*
X51267473Y29391610D01*
X51241466Y29334856D01*
X51195719Y29292376D01*
X51149761Y29275302D01*
X51158524Y29234939D01*
X51147415Y29173507D01*
X51113643Y29121001D01*
X51062348Y29085417D01*
X51001341Y29072171D01*
X50960697Y29079521D01*
X50945238Y29032994D01*
X50904379Y28985793D01*
X50848568Y28957821D01*
X50786300Y28953336D01*
X50727056Y28973021D01*
X50679855Y29013879D01*
X50673221Y29027116D01*
X50633000Y29006958D01*
X50570732Y29002472D01*
X50511488Y29022157D01*
X50478379Y29050817D01*
X50465489Y29008967D01*
X50425678Y28960879D01*
X50370496Y28931686D01*
X50325704Y28927467D01*
X50327092Y28912726D01*
X50308715Y28853063D01*
X50268905Y28804975D01*
X50213722Y28775782D01*
X50151568Y28769928D01*
X50091906Y28788305D01*
X50054140Y28819570D01*
X50023567Y28791799D01*
X49964810Y28770703D01*
X49902453Y28773698D01*
X49845989Y28800329D01*
X49804014Y28846540D01*
X49790057Y28885413D01*
X49742034Y28875538D01*
X49680728Y28887322D01*
X49628597Y28921670D01*
X49593579Y28973352D01*
X49581005Y29034502D01*
X49592788Y29095809D01*
X49600935Y29108173D01*
X49563367Y29132925D01*
X49528349Y29184608D01*
X49515774Y29245758D01*
X49524040Y29288761D01*
X49481352Y29278999D01*
X49419801Y29289432D01*
X49366927Y29322625D01*
X49340878Y29359306D01*
X49328806Y29350733D01*
X49267948Y29336817D01*
X49206397Y29347250D01*
X49153524Y29380443D01*
X49117377Y29431343D01*
X49103461Y29492201D01*
X49111654Y29540539D01*
X49072317Y29553131D01*
X49024670Y29593468D01*
X48996085Y29648968D01*
X48990915Y29711182D01*
X49009948Y29770639D01*
X49036635Y29802163D01*
X49004071Y29838815D01*
X48983623Y29897800D01*
X48987304Y29960120D01*
X49014553Y30016288D01*
X49061223Y30057752D01*
X49120208Y30078201D01*
X49134989Y30077328D01*
X49137642Y30122239D01*
X49164891Y30178407D01*
X49211561Y30219871D01*
X49252936Y30234214D01*
X49223138Y30266303D01*
X49201397Y30324824D01*
X49203706Y30387210D01*
G37*
%LPC*%
X50473783Y29516481D02*
G36*
X50295479Y29688667D01*
X50235513Y29448158D01*
X50434622Y29203418D01*
X50473783Y29516481D01*
G37*
%LPC*%
X50517769Y29918856D02*
G36*
X50696073Y29746670D01*
X51007579Y29796733D01*
X50756039Y29987179D01*
X50517769Y29918856D01*
G37*
%LPC*%
X49634317Y29402956D02*
G36*
X49925018Y29525573D01*
X49984984Y29766082D01*
X49746714Y29697760D01*
X49634317Y29402956D01*
G37*
%LPC*%
X49718476Y30245872D02*
G36*
X49406970Y30195809D01*
X49658510Y30005363D01*
X49896780Y30073686D01*
X49718476Y30245872D01*
G37*
%LPC*%
X50489531Y30466969D02*
G36*
X50429565Y30226460D01*
X50667835Y30294782D01*
X50780232Y30589586D01*
X50489531Y30466969D01*
G37*
%LPC*%
X49979928Y30789124D02*
G36*
X49940767Y30476061D01*
X50119071Y30303875D01*
X50179036Y30544384D01*
X49979928Y30789124D01*
G37*
%LPD*%
X43203313Y33177106D02*
G36*
X43333921Y33148326D01*
X43464991Y33138733D01*
X43685291Y33166588D01*
X43837628Y33250154D01*
X43926742Y33392898D01*
X43956447Y33598288D01*
X43956447Y33709709D01*
X43844101Y33586961D01*
X43720659Y33501661D01*
X43582076Y33451729D01*
X43423382Y33435086D01*
X43152688Y33493339D01*
X42933313Y33668099D01*
X42788373Y33933592D01*
X42740060Y34263116D01*
X42788373Y34592872D01*
X42933313Y34857209D01*
X43152688Y35031276D01*
X43423382Y35089298D01*
X43582076Y35072654D01*
X43720659Y35022723D01*
X43844101Y34937307D01*
X43956447Y34813288D01*
X43956447Y35053236D01*
X44476567Y35053236D01*
X44476567Y33598288D01*
X44461165Y33414714D01*
X44337955Y33116743D01*
X44230146Y33002346D01*
X43928360Y32848044D01*
X43515848Y32796610D01*
X43366631Y32802389D01*
X43222269Y32819726D01*
X43080449Y32848968D01*
X42937937Y32890462D01*
X42937937Y33293613D01*
X43072012Y33225420D01*
X43203313Y33177106D01*
G37*
%LPC*%
X43275899Y34263116D02*
G36*
X43297513Y34067320D01*
X43362354Y33925616D01*
X43469037Y33839623D01*
X43615248Y33810959D01*
X43759033Y33840548D01*
X43866755Y33929315D01*
X43934024Y34071943D01*
X43956447Y34263116D01*
X43934024Y34454983D01*
X43866755Y34597842D01*
X43759033Y34686956D01*
X43615248Y34716661D01*
X43472504Y34686956D01*
X43365128Y34597842D01*
X43298206Y34454983D01*
X43275899Y34263116D01*
G37*
%LPD*%
X36506134Y33409773D02*
G36*
X36355531Y33393014D01*
X36108416Y33436010D01*
X35928339Y33565000D01*
X35818420Y33776053D01*
X35781781Y34065240D01*
X35781781Y35053236D01*
X36301901Y35053236D01*
X36301670Y34128579D01*
X36309298Y34015308D01*
X36323052Y33940989D01*
X36343973Y33890017D01*
X36380381Y33845287D01*
X36426729Y33811884D01*
X36481862Y33791426D01*
X36544623Y33784606D01*
X36689101Y33815698D01*
X36798904Y33908973D01*
X36868253Y34057496D01*
X36891370Y34254332D01*
X36891370Y35053236D01*
X37408716Y35053236D01*
X37408716Y33435086D01*
X36891370Y33435086D01*
X36891370Y33669024D01*
X36770933Y33546045D01*
X36643562Y33460051D01*
X36506134Y33409773D01*
G37*
%LPD*%
X33226316Y33941914D02*
G36*
X33315546Y33828065D01*
X33450661Y33759756D01*
X33630392Y33736986D01*
X33795559Y33749122D01*
X33964655Y33785531D01*
X34138491Y33846443D01*
X34316950Y33932089D01*
X34316950Y33533562D01*
X34133405Y33472650D01*
X33949861Y33428613D01*
X33766316Y33401914D01*
X33582772Y33393014D01*
X33192451Y33448840D01*
X32899912Y33616318D01*
X32717524Y33884585D01*
X32656727Y34242774D01*
X32716483Y34596224D01*
X32895751Y34865068D01*
X33179852Y35035321D01*
X33554107Y35092072D01*
X33897387Y35034628D01*
X34164381Y34862295D01*
X34336021Y34594144D01*
X34393234Y34248322D01*
X34393234Y34101301D01*
X33184244Y34101301D01*
X33226316Y33941914D01*
G37*
%LPC*%
X33861556Y34420308D02*
G36*
X33840058Y34553459D01*
X33775563Y34657945D01*
X33676393Y34725908D01*
X33550871Y34748562D01*
X33414715Y34727410D01*
X33306762Y34663955D01*
X33230593Y34560741D01*
X33189792Y34420308D01*
X33861556Y34420308D01*
G37*
%LPD*%
X41841408Y33435086D02*
G36*
X41841408Y35053236D01*
X42358292Y35053236D01*
X42358292Y33435086D01*
X41841408Y33435086D01*
G37*
%LPD*%
X48186524Y35339880D02*
G36*
X48314300Y35467310D01*
X48643016Y35612943D01*
X48843955Y35631147D01*
X49044288Y35612943D01*
X49372311Y35467310D01*
X49500000Y35339880D01*
X49673373Y34987354D01*
X49731164Y34511387D01*
X49673373Y34036691D01*
X49500000Y33684281D01*
X49372311Y33556851D01*
X49044288Y33411218D01*
X48843955Y33393014D01*
X48643016Y33411218D01*
X48314300Y33556851D01*
X48186524Y33684281D01*
X48013151Y34036691D01*
X47955360Y34511387D01*
X48013151Y34987354D01*
X48186524Y35339880D01*
G37*
%LPC*%
X48588288Y35085599D02*
G36*
X48530728Y34860676D01*
X48511541Y34516010D01*
X48530728Y34167183D01*
X48588288Y33939024D01*
X48690578Y33813502D01*
X48843955Y33771661D01*
X48996524Y33813502D01*
X49098236Y33939024D01*
X49155796Y34167183D01*
X49174983Y34516010D01*
X49156027Y34860676D01*
X49099161Y35085599D01*
X48997449Y35209735D01*
X48843955Y35251113D01*
X48690578Y35209735D01*
X48588288Y35085599D01*
G37*
%LPD*%
X51660058Y34985274D02*
G36*
X51637288Y34815021D01*
X51568979Y34656558D01*
X51427738Y34478446D01*
X51186171Y34248322D01*
X50725229Y33843784D01*
X51674390Y33843784D01*
X51674390Y33435086D01*
X50106633Y33435086D01*
X50106633Y33843784D01*
X50893979Y34539127D01*
X50985982Y34633326D01*
X51050246Y34725445D01*
X51088042Y34818258D01*
X51100640Y34914538D01*
X51075212Y35051387D01*
X50998928Y35158647D01*
X50880340Y35227997D01*
X50728003Y35251113D01*
X50591847Y35237243D01*
X50443208Y35195634D01*
X50283358Y35126515D01*
X50112643Y35030120D01*
X50112643Y35504007D01*
X50299309Y35558562D01*
X50483893Y35598322D01*
X50665589Y35622941D01*
X50843585Y35631147D01*
X51187789Y35588497D01*
X51445537Y35460548D01*
X51606428Y35256661D01*
X51660058Y34985274D01*
G37*
%LPD*%
X47451363Y34656558D02*
G36*
X47310122Y34478446D01*
X47068555Y34248322D01*
X46607613Y33843784D01*
X47556774Y33843784D01*
X47556774Y33435086D01*
X45989018Y33435086D01*
X45989018Y33843784D01*
X46776363Y34539127D01*
X46868367Y34633326D01*
X46932631Y34725445D01*
X46970426Y34818258D01*
X46983024Y34914538D01*
X46957596Y35051387D01*
X46881312Y35158647D01*
X46762725Y35227997D01*
X46610387Y35251113D01*
X46474232Y35237243D01*
X46325593Y35195634D01*
X46165743Y35126515D01*
X45995028Y35030120D01*
X45995028Y35504007D01*
X46181693Y35558562D01*
X46366278Y35598322D01*
X46547973Y35622941D01*
X46725970Y35631147D01*
X47070173Y35588497D01*
X47327922Y35460548D01*
X47488812Y35256661D01*
X47542442Y34985274D01*
X47519673Y34815021D01*
X47451363Y34656558D01*
G37*
%LPD*%
X40390505Y33435086D02*
G36*
X39873622Y33435086D01*
X39873622Y35683390D01*
X40390505Y35683390D01*
X40390505Y34459606D01*
X40985985Y35053236D01*
X41587012Y35053236D01*
X40796430Y34310736D01*
X41648964Y33435086D01*
X41022046Y33435086D01*
X40390505Y34109623D01*
X40390505Y33435086D01*
G37*
%LPD*%
X37905835Y33435086D02*
G36*
X37905835Y35683390D01*
X38422718Y35683390D01*
X38422718Y34459606D01*
X39018198Y35053236D01*
X39619225Y35053236D01*
X38828643Y34310736D01*
X39681177Y33435086D01*
X39054259Y33435086D01*
X38422718Y34109623D01*
X38422718Y33435086D01*
X37905835Y33435086D01*
G37*
%LPD*%
X34785116Y33435086D02*
G36*
X34785116Y35683390D01*
X35301999Y35683390D01*
X35301999Y33435086D01*
X34785116Y33435086D01*
G37*
%LPD*%
X41841408Y35261284D02*
G36*
X41841408Y35683390D01*
X42358292Y35683390D01*
X42358292Y35261284D01*
X41841408Y35261284D01*
G37*
%LPD*%
X47445064Y38271541D02*
G36*
X47527705Y37772021D01*
X47527705Y37559658D01*
X45781387Y37559658D01*
X45842158Y37329431D01*
X45971045Y37164983D01*
X46166211Y37066314D01*
X46425822Y37033425D01*
X46664396Y37050955D01*
X46908647Y37103545D01*
X47159743Y37191528D01*
X47417517Y37315240D01*
X47417517Y36739589D01*
X47152397Y36651605D01*
X46887277Y36587997D01*
X46622158Y36549431D01*
X46357038Y36536575D01*
X45793241Y36617213D01*
X45370685Y36859127D01*
X45107235Y37246622D01*
X45019418Y37764007D01*
X45105732Y38274546D01*
X45364675Y38662877D01*
X45775043Y38908797D01*
X46315634Y38990771D01*
X46811481Y38907795D01*
X47197140Y38658870D01*
X47445064Y38271541D01*
G37*
%LPC*%
X45958356Y38372380D02*
G36*
X45848335Y38223292D01*
X45789401Y38020445D01*
X46759726Y38020445D01*
X46728673Y38212774D01*
X46635514Y38363699D01*
X46492269Y38461866D01*
X46310959Y38494589D01*
X46114289Y38464037D01*
X45958356Y38372380D01*
G37*
%LPD*%
X38903380Y36619050D02*
G36*
X38645773Y36682825D01*
X38645773Y37250462D01*
X38872160Y37155634D01*
X39103889Y37087517D01*
X39340627Y37046948D01*
X39580704Y37033425D01*
X39773033Y37048450D01*
X39910601Y37093527D01*
X39993744Y37168990D01*
X40021458Y37273836D01*
X40002425Y37361152D01*
X39945327Y37422757D01*
X39831299Y37466164D01*
X39641475Y37498887D01*
X39509917Y37515582D01*
X39085691Y37604902D01*
X38810721Y37747312D01*
X38660464Y37960176D01*
X38610379Y38260856D01*
X38673988Y38584075D01*
X38864814Y38811130D01*
X39187532Y38945860D01*
X39645482Y38990771D01*
X39857511Y38982924D01*
X40079557Y38959384D01*
X40317130Y38919649D01*
X40574403Y38861884D01*
X40574403Y38294247D01*
X40338667Y38381896D01*
X40110944Y38444503D01*
X39894073Y38482068D01*
X39689557Y38494589D01*
X39503906Y38481233D01*
X39373016Y38441164D01*
X39295884Y38373549D01*
X39270173Y38277551D01*
X39289707Y38197915D01*
X39348307Y38139315D01*
X39457494Y38097911D01*
X39760345Y38049829D01*
X40240499Y37953497D01*
X40532331Y37810086D01*
X40681085Y37595552D01*
X40730670Y37285856D01*
X40661719Y36958797D01*
X40454865Y36724229D01*
X40111946Y36583489D01*
X39633461Y36536575D01*
X39397725Y36545758D01*
X39153975Y36573305D01*
X38903380Y36619050D01*
G37*
%LPD*%
X50426411Y37772021D02*
G36*
X50426411Y37559658D01*
X48680092Y37559658D01*
X48740863Y37329431D01*
X48869750Y37164983D01*
X49064917Y37066314D01*
X49324527Y37033425D01*
X49563101Y37050955D01*
X49807352Y37103545D01*
X50058448Y37191528D01*
X50316222Y37315240D01*
X50316222Y36739589D01*
X50051102Y36651605D01*
X49785982Y36587997D01*
X49520863Y36549431D01*
X49255743Y36536575D01*
X48691946Y36617213D01*
X48269390Y36859127D01*
X48005940Y37246622D01*
X47918123Y37764007D01*
X48004437Y38274546D01*
X48263380Y38662877D01*
X48673748Y38908797D01*
X49214339Y38990771D01*
X49710186Y38907795D01*
X50095845Y38658870D01*
X50343769Y38271541D01*
X50426411Y37772021D01*
G37*
%LPC*%
X48857061Y38372380D02*
G36*
X48747040Y38223292D01*
X48688106Y38020445D01*
X49658431Y38020445D01*
X49627378Y38212774D01*
X49534219Y38363699D01*
X49390974Y38461866D01*
X49209664Y38494589D01*
X49012994Y38464037D01*
X48857061Y38372380D01*
G37*
%LPD*%
X36074795Y37772021D02*
G36*
X36074795Y37559658D01*
X34328476Y37559658D01*
X34389247Y37329431D01*
X34518134Y37164983D01*
X34713301Y37066314D01*
X34972911Y37033425D01*
X35211485Y37050955D01*
X35455736Y37103545D01*
X35706832Y37191528D01*
X35964606Y37315240D01*
X35964606Y36739589D01*
X35699486Y36651605D01*
X35434366Y36587997D01*
X35169247Y36549431D01*
X34904127Y36536575D01*
X34340330Y36617213D01*
X33917774Y36859127D01*
X33654324Y37246622D01*
X33566507Y37764007D01*
X33652821Y38274546D01*
X33911764Y38662877D01*
X34322132Y38908797D01*
X34862723Y38990771D01*
X35358570Y38907795D01*
X35744229Y38658870D01*
X35992153Y38271541D01*
X36074795Y37772021D01*
G37*
%LPC*%
X34336490Y38020445D02*
G36*
X35306815Y38020445D01*
X35275762Y38212774D01*
X35182603Y38363699D01*
X35039358Y38461866D01*
X34858048Y38494589D01*
X34661378Y38464037D01*
X34505445Y38372380D01*
X34395424Y38223292D01*
X34336490Y38020445D01*
G37*
%LPD*%
X38377147Y38298253D02*
G36*
X38279146Y38338155D01*
X38181479Y38365702D01*
X38084313Y38382230D01*
X37986479Y38387740D01*
X37731710Y38341494D01*
X37543054Y38202757D01*
X37426355Y37978540D01*
X37387455Y37674521D01*
X37387455Y36597346D01*
X36640845Y36597346D01*
X36640845Y38934675D01*
X37387455Y38934675D01*
X37387455Y38550685D01*
X37542220Y38749191D01*
X37718020Y38885257D01*
X37923538Y38964392D01*
X38166119Y38990771D01*
X38246924Y38987432D01*
X38374476Y38974075D01*
X38377147Y38298253D01*
G37*
%LPD*%
X42107941Y38934675D02*
G36*
X42878592Y38934675D01*
X42878592Y38400428D01*
X42107941Y38400428D01*
X42107941Y37409401D01*
X42124135Y37272834D01*
X42172718Y37189024D01*
X42269384Y37145950D01*
X42429824Y37131592D01*
X42813814Y37131592D01*
X42813814Y36597346D01*
X42172718Y36597346D01*
X41794906Y36643425D01*
X41545646Y36781661D01*
X41407410Y37031087D01*
X41361331Y37409401D01*
X41361331Y38400428D01*
X40989362Y38400428D01*
X40989362Y38934675D01*
X41361331Y38934675D01*
X41361331Y39598476D01*
X42107941Y39598476D01*
X42107941Y38934675D01*
G37*
%LPD*%
X44325315Y39339700D02*
G36*
X44238500Y39296627D01*
X44191920Y39218159D01*
X44176393Y39097620D01*
X44176393Y38934675D01*
X44814818Y38934675D01*
X44814818Y38400428D01*
X44176393Y38400428D01*
X44176393Y36597346D01*
X43429116Y36597346D01*
X43429116Y38400428D01*
X43057815Y38400428D01*
X43057815Y38934675D01*
X43429116Y38934675D01*
X43429116Y39097620D01*
X43482374Y39429688D01*
X43642147Y39661918D01*
X43913444Y39799152D01*
X44301274Y39844897D01*
X44873585Y39844897D01*
X44873585Y39354058D01*
X44460212Y39354058D01*
X44325315Y39339700D01*
G37*
%LPD*%
X42793952Y44106637D02*
G36*
X42849012Y44136061D01*
X42911141Y44142174D01*
X42953044Y44129459D01*
X42947798Y44172934D01*
X42964608Y44233057D01*
X43003146Y44282171D01*
X43042349Y44304243D01*
X43035085Y44317145D01*
X43027606Y44379125D01*
X43044415Y44439248D01*
X43082953Y44488362D01*
X43137353Y44518990D01*
X43199332Y44526468D01*
X43246549Y44513268D01*
X43263184Y44551073D01*
X43308280Y44594243D01*
X43366464Y44616870D01*
X43428878Y44615508D01*
X43486020Y44590365D01*
X43514582Y44560529D01*
X43554436Y44589083D01*
X43615236Y44603254D01*
X43676830Y44593079D01*
X43729842Y44560107D01*
X43766201Y44509359D01*
X43780371Y44448560D01*
X43777958Y44433951D01*
X43822346Y44426618D01*
X43875358Y44393647D01*
X43911717Y44342899D01*
X43921657Y44300251D01*
X43956684Y44326532D01*
X44017157Y44342036D01*
X44078960Y44333218D01*
X44117677Y44310303D01*
X44125218Y44323046D01*
X44175155Y44360512D01*
X44235628Y44376016D01*
X44297431Y44367198D01*
X44351155Y44335401D01*
X44388621Y44285464D01*
X44400797Y44237973D01*
X44441855Y44242470D01*
X44501790Y44225000D01*
X44550477Y44185924D01*
X44580505Y44131191D01*
X44587301Y44069134D01*
X44575743Y44029480D01*
X44620399Y44009243D01*
X44663071Y43963674D01*
X44685056Y43905245D01*
X44683008Y43842849D01*
X44657238Y43785987D01*
X44611670Y43743315D01*
X44597812Y43738101D01*
X44613655Y43695994D01*
X44611607Y43633598D01*
X44585837Y43576736D01*
X44553874Y43546805D01*
X44594147Y43529610D01*
X44637811Y43484991D01*
X44661076Y43427059D01*
X44660589Y43382072D01*
X44675395Y43381912D01*
X44732810Y43357399D01*
X44776473Y43312780D01*
X44799739Y43254848D01*
X44799063Y43192423D01*
X44774550Y43135008D01*
X44739509Y43100718D01*
X44763932Y43067409D01*
X44778771Y43006769D01*
X44769274Y42945067D01*
X44736887Y42891695D01*
X44686542Y42854781D01*
X44646422Y42844963D01*
X44651224Y42796172D01*
X44633096Y42736433D01*
X44593487Y42688178D01*
X44538427Y42658754D01*
X44476299Y42652640D01*
X44416559Y42670768D01*
X44405115Y42680162D01*
X44376570Y42645387D01*
X44321510Y42615963D01*
X44259382Y42609850D01*
X44217478Y42622565D01*
X44222724Y42579090D01*
X44205915Y42518967D01*
X44167377Y42469853D01*
X44128173Y42447781D01*
X44135438Y42434879D01*
X44142916Y42372899D01*
X44126107Y42312776D01*
X44087569Y42263662D01*
X44033169Y42233034D01*
X43971190Y42225556D01*
X43923973Y42238757D01*
X43907338Y42200951D01*
X43862242Y42157781D01*
X43804058Y42135154D01*
X43741644Y42136516D01*
X43684502Y42161659D01*
X43655940Y42191495D01*
X43616086Y42162941D01*
X43555287Y42148771D01*
X43493692Y42158945D01*
X43440681Y42191917D01*
X43404322Y42242665D01*
X43390151Y42303465D01*
X43392564Y42318073D01*
X43348176Y42325406D01*
X43295164Y42358377D01*
X43258805Y42409125D01*
X43248866Y42451773D01*
X43213838Y42425492D01*
X43153365Y42409988D01*
X43091562Y42418806D01*
X43052846Y42441721D01*
X43045304Y42428979D01*
X42995367Y42391512D01*
X42934895Y42376008D01*
X42873091Y42384826D01*
X42819367Y42416623D01*
X42781901Y42466560D01*
X42769725Y42514051D01*
X42728667Y42509555D01*
X42668732Y42527024D01*
X42620045Y42566100D01*
X42590018Y42620833D01*
X42583221Y42682891D01*
X42594779Y42722544D01*
X42550123Y42742782D01*
X42507452Y42788350D01*
X42485466Y42846780D01*
X42487514Y42909175D01*
X42513284Y42966037D01*
X42558853Y43008709D01*
X42572711Y43013923D01*
X42556867Y43056030D01*
X42558915Y43118426D01*
X42584685Y43175288D01*
X42616649Y43205220D01*
X42576375Y43222414D01*
X42532712Y43267033D01*
X42509446Y43324965D01*
X42509933Y43369952D01*
X42495128Y43370112D01*
X42437713Y43394625D01*
X42394049Y43439244D01*
X42370784Y43497176D01*
X42371459Y43559601D01*
X42395972Y43617016D01*
X42431013Y43651307D01*
X42406590Y43684615D01*
X42391752Y43745255D01*
X42401248Y43806957D01*
X42433635Y43860329D01*
X42483980Y43897243D01*
X42524100Y43907061D01*
X42519299Y43955852D01*
X42537426Y44015592D01*
X42577035Y44063846D01*
X42632095Y44093270D01*
X42694224Y44099384D01*
X42753963Y44081256D01*
X42765408Y44071862D01*
X42793952Y44106637D01*
G37*
%LPC*%
X43080242Y43161116D02*
G36*
X43270123Y43320445D01*
X43037199Y43405222D01*
X42772987Y43232786D01*
X43080242Y43161116D01*
G37*
%LPC*%
X44115435Y42744175D02*
G36*
X44023877Y43046101D01*
X43790953Y43130878D01*
X43833996Y42886772D01*
X44115435Y42744175D01*
G37*
%LPC*%
X43285934Y42915981D02*
G36*
X43303161Y42600949D01*
X43518857Y42831204D01*
X43475815Y43075310D01*
X43285934Y42915981D01*
G37*
%LPC*%
X43900400Y43431579D02*
G36*
X44133323Y43346802D01*
X44397535Y43519238D01*
X44090280Y43590908D01*
X43900400Y43431579D01*
G37*
%LPC*%
X43867361Y44151075D02*
G36*
X43651665Y43920820D01*
X43694708Y43676714D01*
X43884588Y43836043D01*
X43867361Y44151075D01*
G37*
%LPC*%
X43055087Y44007849D02*
G36*
X43146646Y43705923D01*
X43379569Y43621146D01*
X43336527Y43865252D01*
X43055087Y44007849D01*
G37*
%LPD*%
X48198847Y43676705D02*
G36*
X48198847Y43653295D01*
X48189888Y43631666D01*
X48168284Y43612085D01*
X48145881Y43605289D01*
X47490000Y43605000D01*
X47467039Y43609567D01*
X47451936Y43618619D01*
X47434567Y43642039D01*
X47430000Y43665000D01*
X47430000Y44315000D01*
X47434567Y44337961D01*
X47443619Y44353064D01*
X47472583Y44372416D01*
X47507417Y44372416D01*
X47532426Y44357426D01*
X47548847Y44326705D01*
X47550000Y43725000D01*
X48145881Y43724711D01*
X48168284Y43717915D01*
X48182426Y43707426D01*
X48198847Y43676705D01*
G37*
%LPD*%
X40549711Y46220881D02*
G36*
X40547416Y46197583D01*
X40536381Y46176936D01*
X40518284Y46162085D01*
X40495881Y46155289D01*
X39840000Y46155000D01*
X39817039Y46159567D01*
X39797574Y46172574D01*
X39784567Y46192039D01*
X39780000Y46215000D01*
X39780000Y46865000D01*
X39784567Y46887961D01*
X39797574Y46907426D01*
X39822583Y46922416D01*
X39857417Y46922416D01*
X39882426Y46907426D01*
X39898847Y46876705D01*
X39900000Y46275000D01*
X40495881Y46274711D01*
X40518284Y46267915D01*
X40532426Y46257426D01*
X40542915Y46243284D01*
X40549711Y46220881D01*
G37*
%LPD*%
X58399711Y5845881D02*
G36*
X58397416Y5822583D01*
X58386381Y5801936D01*
X58368284Y5787085D01*
X58345881Y5780289D01*
X57690000Y5780000D01*
X57667039Y5784567D01*
X57647574Y5797574D01*
X57634567Y5817039D01*
X57630000Y5840000D01*
X57630000Y6490000D01*
X57634567Y6512961D01*
X57647574Y6532426D01*
X57672583Y6547416D01*
X57707417Y6547416D01*
X57732426Y6532426D01*
X57748847Y6501705D01*
X57750000Y5900000D01*
X58345881Y5899711D01*
X58368284Y5892915D01*
X58382426Y5882426D01*
X58392915Y5868284D01*
X58399711Y5845881D01*
G37*
%LPD*%
X55167031Y7751189D02*
G36*
X55167031Y7774600D01*
X55175990Y7796229D01*
X55197594Y7815810D01*
X55219997Y7822606D01*
X55875878Y7822895D01*
X55893295Y7820311D01*
X55913941Y7809275D01*
X55931310Y7785856D01*
X55935878Y7762895D01*
X55935878Y7112895D01*
X55931310Y7089934D01*
X55922258Y7074831D01*
X55893295Y7055478D01*
X55858461Y7055478D01*
X55833451Y7070468D01*
X55817031Y7101189D01*
X55815878Y7702895D01*
X55219997Y7703184D01*
X55187814Y7716514D01*
X55175990Y7729561D01*
X55167031Y7751189D01*
G37*
%LPD*%
X58088966Y19442045D02*
G36*
X58088966Y19418634D01*
X58080007Y19397005D01*
X58058403Y19377424D01*
X58036000Y19370628D01*
X57380119Y19370339D01*
X57357158Y19374906D01*
X57342056Y19383959D01*
X57324686Y19407378D01*
X57320119Y19430339D01*
X57320119Y20080339D01*
X57324686Y20103300D01*
X57333739Y20118403D01*
X57357158Y20135772D01*
X57391825Y20139186D01*
X57422546Y20122766D01*
X57438966Y20092045D01*
X57440119Y19490339D01*
X58036000Y19490050D01*
X58058403Y19483255D01*
X58072546Y19472766D01*
X58088966Y19442045D01*
G37*
%LPD*%
X55075289Y21354119D02*
G36*
X55077584Y21377417D01*
X55088619Y21398064D01*
X55106716Y21412915D01*
X55129119Y21419711D01*
X55785000Y21420000D01*
X55807961Y21415433D01*
X55827426Y21402426D01*
X55840433Y21382961D01*
X55845000Y21360000D01*
X55845000Y20710000D01*
X55840433Y20687039D01*
X55827426Y20667574D01*
X55796705Y20651153D01*
X55767583Y20652584D01*
X55742574Y20667574D01*
X55726153Y20698295D01*
X55725000Y21300000D01*
X55129119Y21300289D01*
X55106716Y21307085D01*
X55092574Y21317574D01*
X55082085Y21331716D01*
X55075289Y21354119D01*
G37*
%LPD*%
X53754927Y35278853D02*
G36*
X52913951Y33435086D01*
X52372102Y33435086D01*
X53168232Y35183151D01*
X52129379Y35183151D01*
X52129379Y35592312D01*
X53754927Y35592312D01*
X53754927Y35278853D01*
G37*
%LPD*%
X56491457Y36607273D02*
G36*
X56468158Y36609567D01*
X56447512Y36620603D01*
X56432660Y36638700D01*
X56425864Y36661103D01*
X56425575Y37316984D01*
X56430143Y37339945D01*
X56443149Y37359410D01*
X56462614Y37372416D01*
X56485575Y37376984D01*
X57135575Y37376984D01*
X57158536Y37372416D01*
X57178002Y37359410D01*
X57192992Y37334401D01*
X57192992Y37299567D01*
X57178002Y37274557D01*
X57147281Y37258137D01*
X56545575Y37256984D01*
X56545287Y36661103D01*
X56538491Y36638700D01*
X56528002Y36624557D01*
X56513859Y36614068D01*
X56491457Y36607273D01*
G37*
%LPD*%
X51147226Y36619050D02*
G36*
X50889619Y36682825D01*
X50889619Y37250462D01*
X51116006Y37155634D01*
X51347735Y37087517D01*
X51584473Y37046948D01*
X51824551Y37033425D01*
X52016879Y37048450D01*
X52154448Y37093527D01*
X52237590Y37168990D01*
X52265304Y37273836D01*
X52246271Y37361152D01*
X52189174Y37422757D01*
X52075146Y37466164D01*
X51885321Y37498887D01*
X51753763Y37515582D01*
X51329538Y37604902D01*
X51054568Y37747312D01*
X50904311Y37960176D01*
X50854225Y38260856D01*
X50917834Y38584075D01*
X51108660Y38811130D01*
X51431378Y38945860D01*
X51889328Y38990771D01*
X52101357Y38982924D01*
X52323403Y38959384D01*
X52560976Y38919649D01*
X52818249Y38861884D01*
X52818249Y38294247D01*
X52582513Y38381896D01*
X52354790Y38444503D01*
X52137920Y38482068D01*
X51933403Y38494589D01*
X51747753Y38481233D01*
X51616862Y38441164D01*
X51539730Y38373549D01*
X51514020Y38277551D01*
X51533553Y38197915D01*
X51592153Y38139315D01*
X51701340Y38097911D01*
X52004191Y38049829D01*
X52484345Y37953497D01*
X52776177Y37810086D01*
X52924932Y37595552D01*
X52974516Y37285856D01*
X52905565Y36958797D01*
X52698711Y36724229D01*
X52355792Y36583489D01*
X51877307Y36536575D01*
X51641571Y36545758D01*
X51397821Y36573305D01*
X51147226Y36619050D01*
G37*
%LPD*%
X54351787Y39598476D02*
G36*
X54351787Y38934675D01*
X55122438Y38934675D01*
X55122438Y38400428D01*
X54351787Y38400428D01*
X54351787Y37409401D01*
X54367982Y37272834D01*
X54416565Y37189024D01*
X54513230Y37145950D01*
X54673671Y37131592D01*
X55057661Y37131592D01*
X55057661Y36597346D01*
X54416565Y36597346D01*
X54038752Y36643425D01*
X53789493Y36781661D01*
X53651256Y37031087D01*
X53605178Y37409401D01*
X53605178Y38400428D01*
X53233208Y38400428D01*
X53233208Y38934675D01*
X53605178Y38934675D01*
X53605178Y39598476D01*
X54351787Y39598476D01*
G37*
%LPD*%
X61219916Y44889387D02*
G36*
X61196618Y44891682D01*
X61175972Y44902718D01*
X61161120Y44920814D01*
X61154324Y44943217D01*
X61154035Y45599098D01*
X61158602Y45622059D01*
X61171609Y45641525D01*
X61191074Y45654531D01*
X61214035Y45659098D01*
X61864035Y45659098D01*
X61886996Y45654531D01*
X61906462Y45641525D01*
X61921452Y45616515D01*
X61921452Y45581681D01*
X61906462Y45556672D01*
X61875741Y45540251D01*
X61274035Y45539098D01*
X61273746Y44943217D01*
X61266951Y44920814D01*
X61256462Y44906672D01*
X61242319Y44896183D01*
X61219916Y44889387D01*
G37*
%LPD*%
X56204119Y49899711D02*
G36*
X56227417Y49897416D01*
X56248064Y49886381D01*
X56262915Y49868284D01*
X56269711Y49845881D01*
X56270000Y49190000D01*
X56265433Y49167039D01*
X56252426Y49147574D01*
X56232961Y49134567D01*
X56210000Y49130000D01*
X55560000Y49130000D01*
X55537039Y49134567D01*
X55517574Y49147574D01*
X55502584Y49172583D01*
X55502584Y49207417D01*
X55517574Y49232426D01*
X55548295Y49248847D01*
X56150000Y49250000D01*
X56150289Y49845881D01*
X56157085Y49868284D01*
X56167574Y49882426D01*
X56181716Y49892915D01*
X56204119Y49899711D01*
G37*
%LPD*%
X61854055Y48405086D02*
G36*
X61113446Y48895247D01*
X60372836Y48405086D01*
X60610146Y49260915D01*
X59915114Y49813809D01*
X60802390Y49852579D01*
X61113446Y50684447D01*
X61424502Y49852579D01*
X62311777Y49813809D01*
X61616745Y49260915D01*
X61854055Y48405086D01*
G37*
%LPD*%
X66602674Y51463727D02*
G36*
X66579263Y51463727D01*
X66557634Y51472686D01*
X66538053Y51494291D01*
X66531257Y51516693D01*
X66530968Y52172574D01*
X66533552Y52189991D01*
X66544587Y52210638D01*
X66568007Y52228007D01*
X66590968Y52232574D01*
X67240968Y52232574D01*
X67263929Y52228007D01*
X67279032Y52218955D01*
X67298385Y52189991D01*
X67298385Y52155157D01*
X67283395Y52130148D01*
X67252674Y52113727D01*
X66650968Y52112574D01*
X66650679Y51516693D01*
X66646401Y51499613D01*
X66633395Y51480148D01*
X66602674Y51463727D01*
G37*
%LPD*%
X66880334Y57239966D02*
G36*
X66898187Y57281261D01*
X66943004Y57324722D01*
X67001041Y57347724D01*
X67044826Y57347051D01*
X67027800Y57387396D01*
X67027386Y57449823D01*
X67050893Y57507657D01*
X67082494Y57539680D01*
X67071955Y57550080D01*
X67047682Y57607597D01*
X67047268Y57670025D01*
X67070775Y57727859D01*
X67114625Y57772295D01*
X67172142Y57796567D01*
X67221169Y57796892D01*
X67226738Y57837818D01*
X67258188Y57891747D01*
X67307882Y57929534D01*
X67368254Y57945429D01*
X67430112Y57937010D01*
X67465791Y57916203D01*
X67496231Y57954636D01*
X67550769Y57985016D01*
X67612782Y57992213D01*
X67672828Y57975131D01*
X67721767Y57936371D01*
X67752147Y57881832D01*
X67753854Y57867125D01*
X67798544Y57872311D01*
X67858590Y57855229D01*
X67907529Y57816468D01*
X67928839Y57778213D01*
X67955266Y57813130D01*
X68009122Y57844703D01*
X68070962Y57853262D01*
X68114495Y57841906D01*
X68118232Y57856233D01*
X68155907Y57906013D01*
X68209764Y57937585D01*
X68271603Y57946144D01*
X68332011Y57930387D01*
X68381790Y57892712D01*
X68406585Y57850416D01*
X68444812Y57866056D01*
X68507241Y57865783D01*
X68564813Y57841641D01*
X68608764Y57797305D01*
X68632402Y57739525D01*
X68632222Y57698222D01*
X68680726Y57691077D01*
X68734305Y57659036D01*
X68771544Y57608929D01*
X68786774Y57548387D01*
X68777675Y57486624D01*
X68745634Y57433045D01*
X68733750Y57424213D01*
X68760587Y57388104D01*
X68775816Y57327561D01*
X68766718Y57265799D01*
X68744243Y57228216D01*
X68787696Y57222788D01*
X68841967Y57191933D01*
X68880299Y57142658D01*
X68892231Y57099280D01*
X68906507Y57103207D01*
X68968455Y57095469D01*
X69022725Y57064614D01*
X69061058Y57015339D01*
X69077615Y56955146D01*
X69069877Y56893198D01*
X69045646Y56850578D01*
X69078304Y56825291D01*
X69109282Y56771091D01*
X69117160Y56709161D01*
X69100740Y56648930D01*
X69062520Y56599568D01*
X69026660Y56579073D01*
X69044724Y56533495D01*
X69043765Y56471073D01*
X69018992Y56413770D01*
X68974175Y56370310D01*
X68916138Y56347308D01*
X68853716Y56348267D01*
X68840126Y56354142D01*
X68822272Y56312847D01*
X68777456Y56269386D01*
X68719419Y56246384D01*
X68675634Y56247057D01*
X68692660Y56206712D01*
X68693074Y56144285D01*
X68669566Y56086451D01*
X68637966Y56054428D01*
X68648505Y56044028D01*
X68672777Y55986511D01*
X68673191Y55924083D01*
X68649684Y55866249D01*
X68605834Y55821813D01*
X68548317Y55797541D01*
X68499291Y55797215D01*
X68493721Y55756290D01*
X68462271Y55702361D01*
X68412577Y55664573D01*
X68352206Y55648679D01*
X68290347Y55657098D01*
X68254668Y55677905D01*
X68224228Y55639472D01*
X68169690Y55609092D01*
X68107677Y55601895D01*
X68047631Y55618977D01*
X67998692Y55657737D01*
X67968312Y55712275D01*
X67966605Y55726983D01*
X67921915Y55721797D01*
X67861869Y55738879D01*
X67812930Y55777640D01*
X67791620Y55815895D01*
X67765194Y55780978D01*
X67711337Y55749405D01*
X67649497Y55740846D01*
X67605965Y55752202D01*
X67602227Y55737875D01*
X67564552Y55688095D01*
X67510696Y55656523D01*
X67448856Y55647964D01*
X67388449Y55663721D01*
X67338669Y55701396D01*
X67313875Y55743692D01*
X67275647Y55728052D01*
X67213219Y55728325D01*
X67155647Y55752467D01*
X67111696Y55796803D01*
X67088057Y55854583D01*
X67088237Y55895886D01*
X67039733Y55903031D01*
X66986154Y55935072D01*
X66948915Y55985178D01*
X66933685Y56045721D01*
X66942784Y56107484D01*
X66974825Y56161063D01*
X66986709Y56169895D01*
X66959873Y56206004D01*
X66944643Y56266547D01*
X66953741Y56328309D01*
X66976216Y56365892D01*
X66932764Y56371319D01*
X66878493Y56402175D01*
X66840161Y56451450D01*
X66828229Y56494828D01*
X66813952Y56490901D01*
X66752005Y56498639D01*
X66697734Y56529494D01*
X66659402Y56578769D01*
X66642844Y56638962D01*
X66650582Y56700909D01*
X66674814Y56743530D01*
X66642156Y56768817D01*
X66611177Y56823017D01*
X66603299Y56884947D01*
X66619720Y56945178D01*
X66657940Y56994540D01*
X66693799Y57015035D01*
X66675735Y57060613D01*
X66676694Y57123035D01*
X66701468Y57180338D01*
X66746284Y57223798D01*
X66804321Y57246800D01*
X66866743Y57245841D01*
X66880334Y57239966D01*
G37*
%LPC*%
X67118900Y56435483D02*
G36*
X67434007Y56451280D01*
X67572616Y56656775D01*
X67325347Y56674066D01*
X67118900Y56435483D01*
G37*
%LPC*%
X68234182Y56395326D02*
G36*
X68544024Y56335829D01*
X68372790Y56600822D01*
X68125522Y56618112D01*
X68234182Y56395326D01*
G37*
%LPC*%
X67802694Y55974259D02*
G36*
X67946567Y56255048D01*
X67837908Y56477833D01*
X67699299Y56272338D01*
X67802694Y55974259D01*
G37*
%LPC*%
X68286452Y57142828D02*
G36*
X68147844Y56937333D01*
X68395112Y56920042D01*
X68601559Y57158624D01*
X68286452Y57142828D01*
G37*
%LPC*%
X67486278Y57198781D02*
G36*
X67176436Y57258279D01*
X67347670Y56993286D01*
X67594938Y56975996D01*
X67486278Y57198781D01*
G37*
%LPC*%
X68021160Y57321770D02*
G36*
X67917765Y57619849D01*
X67773892Y57339060D01*
X67882552Y57116274D01*
X68021160Y57321770D01*
G37*
%LPD*%
X62998295Y57548847D02*
G36*
X63021705Y57548847D01*
X63043334Y57539888D01*
X63062915Y57518284D01*
X63069711Y57495881D01*
X63070000Y56840000D01*
X63065433Y56817039D01*
X63056381Y56801936D01*
X63032961Y56784567D01*
X63010000Y56780000D01*
X62360000Y56780000D01*
X62337039Y56784567D01*
X62321936Y56793619D01*
X62302584Y56822583D01*
X62302584Y56857417D01*
X62317574Y56882426D01*
X62348295Y56898847D01*
X62950000Y56900000D01*
X62950289Y57495881D01*
X62957085Y57518284D01*
X62967574Y57532426D01*
X62998295Y57548847D01*
G37*
%LPD*%
X72330000Y62890000D02*
G36*
X72330289Y63345881D01*
X72334567Y63362961D01*
X72347574Y63382426D01*
X72367039Y63395433D01*
X72390000Y63400000D01*
X72412961Y63395433D01*
X72428064Y63386381D01*
X72442915Y63368284D01*
X72449711Y63345881D01*
X72450000Y62950000D01*
X72845881Y62949711D01*
X72862961Y62945433D01*
X72882426Y62932426D01*
X72895433Y62912961D01*
X72900000Y62890000D01*
X72895433Y62867039D01*
X72882426Y62847574D01*
X72862961Y62834567D01*
X72840000Y62830000D01*
X72384119Y62830289D01*
X72361716Y62837085D01*
X72347574Y62847574D01*
X72334567Y62867039D01*
X72330000Y62890000D01*
G37*
%LPD*%
X69340580Y63530000D02*
G36*
X69042003Y63532584D01*
X69023320Y63542163D01*
X69040443Y63586088D01*
X69045000Y63648167D01*
X69355000Y63648167D01*
X69359557Y63586088D01*
X69376680Y63542163D01*
X69363541Y63534567D01*
X69340580Y63530000D01*
G37*
%LPD*%
X69045000Y64551833D02*
G36*
X69039251Y64618672D01*
X69023320Y64657837D01*
X69047715Y64668847D01*
X69340580Y64670000D01*
X69357997Y64667416D01*
X69376680Y64657837D01*
X69359557Y64613912D01*
X69352285Y64551153D01*
X69053539Y64550289D01*
X69045000Y64551833D01*
G37*
%LPD*%
X72395881Y65929711D02*
G36*
X72412961Y65925433D01*
X72432426Y65912426D01*
X72448847Y65881705D01*
X72450000Y65660000D01*
X72445433Y65637039D01*
X72432426Y65617574D01*
X72412961Y65604567D01*
X72390000Y65600000D01*
X72367039Y65604567D01*
X72351936Y65613619D01*
X72340112Y65626666D01*
X72331153Y65648295D01*
X72330000Y65870000D01*
X72334567Y65892961D01*
X72347574Y65912426D01*
X72367039Y65925433D01*
X72395881Y65929711D01*
G37*
%LPD*%
X72900000Y66110000D02*
G36*
X72895433Y66087039D01*
X72882426Y66067574D01*
X72862961Y66054567D01*
X72840000Y66050000D01*
X72669342Y66052584D01*
X72648695Y66063619D01*
X72636871Y66076666D01*
X72626759Y66110000D01*
X72631326Y66132961D01*
X72644333Y66152426D01*
X72663798Y66165433D01*
X72686759Y66170000D01*
X72857417Y66167416D01*
X72878064Y66156381D01*
X72889888Y66143334D01*
X72900000Y66110000D01*
G37*
%LPD*%
X72345208Y66070079D02*
G36*
X72098196Y66409729D01*
X72090151Y66444261D01*
X72103007Y66477304D01*
X72121239Y66492658D01*
X72150000Y66500000D01*
X72630000Y66500000D01*
X72647728Y66497321D01*
X72668647Y66485896D01*
X72683467Y66467227D01*
X72689124Y66450213D01*
X72689502Y66432288D01*
X72681804Y66409729D01*
X72438524Y66074710D01*
X72415893Y66055875D01*
X72392974Y66050074D01*
X72364107Y66055875D01*
X72345208Y66070079D01*
G37*
%LPD*%
X71072454Y66891560D02*
G36*
X71023757Y66877366D01*
X70973335Y66882888D01*
X70928864Y66907286D01*
X69779798Y67871467D01*
X69748049Y67911026D01*
X69733855Y67959723D01*
X69739377Y68010145D01*
X69763774Y68054615D01*
X69803333Y68086365D01*
X69852030Y68100558D01*
X69902452Y68095036D01*
X69946922Y68070639D01*
X71095989Y67106457D01*
X71127738Y67066899D01*
X71141932Y67018202D01*
X71136410Y66967780D01*
X71112012Y66923309D01*
X71072454Y66891560D01*
G37*
%LPD*%
X72181521Y67814094D02*
G36*
X72131053Y67819176D01*
X72086371Y67843184D01*
X72054278Y67882464D01*
X71350070Y69206886D01*
X71335452Y69255457D01*
X71340534Y69305925D01*
X71364542Y69350607D01*
X71403822Y69382700D01*
X71452394Y69397319D01*
X71502862Y69392237D01*
X71547544Y69368228D01*
X71579637Y69328948D01*
X72283844Y68004527D01*
X72298462Y67955956D01*
X72293381Y67905487D01*
X72269372Y67860805D01*
X72230092Y67828712D01*
X72181521Y67814094D01*
G37*
%LPD*%
X73070059Y69564168D02*
G36*
X73102491Y69556540D01*
X73134800Y69555000D01*
X73137211Y69543139D01*
X73137211Y69056861D01*
X73134800Y69045000D01*
X73081328Y69039251D01*
X73035796Y69019661D01*
X73022067Y69039781D01*
X73017500Y69062742D01*
X73017789Y69543139D01*
X73024585Y69565542D01*
X73035796Y69580339D01*
X73070059Y69564168D01*
G37*
%LPD*%
X68022095Y73015193D02*
G36*
X68019801Y72991895D01*
X68008765Y72971249D01*
X67990668Y72956397D01*
X67968265Y72949601D01*
X67312384Y72949312D01*
X67289423Y72953879D01*
X67269958Y72966886D01*
X67256952Y72986351D01*
X67252384Y73009312D01*
X67252384Y73659312D01*
X67256952Y73682273D01*
X67269958Y73701739D01*
X67294967Y73716729D01*
X67329801Y73716729D01*
X67354811Y73701739D01*
X67371231Y73671018D01*
X67372384Y73069312D01*
X67968265Y73069023D01*
X67985345Y73064745D01*
X68004811Y73051739D01*
X68017817Y73032273D01*
X68022095Y73015193D01*
G37*
%LPD*%
X63776071Y76570313D02*
G36*
X63799369Y76568018D01*
X63820016Y76556983D01*
X63834867Y76538886D01*
X63841663Y76516483D01*
X63841952Y75860602D01*
X63837385Y75837641D01*
X63824379Y75818176D01*
X63804913Y75805169D01*
X63781952Y75800602D01*
X63131952Y75800602D01*
X63108991Y75805169D01*
X63089526Y75818176D01*
X63074536Y75843185D01*
X63074536Y75878019D01*
X63089526Y75903028D01*
X63120247Y75919449D01*
X63721952Y75920602D01*
X63722241Y76516483D01*
X63729037Y76538886D01*
X63739526Y76553028D01*
X63758991Y76566035D01*
X63776071Y76570313D01*
G37*
%LPD*%
X64602416Y80402417D02*
G36*
X64603847Y80373295D01*
X64594888Y80351666D01*
X64578334Y80335112D01*
X64550881Y80325289D01*
X63895000Y80325000D01*
X63877583Y80327584D01*
X63856936Y80338619D01*
X63839567Y80362039D01*
X63835000Y80385000D01*
X63835000Y81035000D01*
X63839567Y81057961D01*
X63848619Y81073064D01*
X63877583Y81092416D01*
X63912417Y81092416D01*
X63937426Y81077426D01*
X63953847Y81046705D01*
X63955000Y80445000D01*
X64550881Y80444711D01*
X64583064Y80431381D01*
X64602416Y80402417D01*
G37*
%LPD*%
X55075289Y81279119D02*
G36*
X55077584Y81302417D01*
X55088619Y81323064D01*
X55106716Y81337915D01*
X55129119Y81344711D01*
X55785000Y81345000D01*
X55807961Y81340433D01*
X55827426Y81327426D01*
X55840433Y81307961D01*
X55845000Y81285000D01*
X55845000Y80635000D01*
X55840433Y80612039D01*
X55827426Y80592574D01*
X55802417Y80577584D01*
X55767583Y80577584D01*
X55742574Y80592574D01*
X55726153Y80623295D01*
X55725000Y81225000D01*
X55129119Y81225289D01*
X55112039Y81229567D01*
X55092574Y81242574D01*
X55082085Y81256716D01*
X55075289Y81279119D01*
G37*
%LPD*%
X59434119Y85684711D02*
G36*
X59457417Y85682416D01*
X59478064Y85671381D01*
X59492915Y85653284D01*
X59499711Y85630881D01*
X59500000Y84975000D01*
X59495433Y84952039D01*
X59482426Y84932574D01*
X59462961Y84919567D01*
X59440000Y84915000D01*
X58790000Y84915000D01*
X58767039Y84919567D01*
X58747574Y84932574D01*
X58732584Y84957583D01*
X58732584Y84992417D01*
X58747574Y85017426D01*
X58778295Y85033847D01*
X59380000Y85035000D01*
X59380289Y85630881D01*
X59387085Y85653284D01*
X59397574Y85667426D01*
X59417039Y85680433D01*
X59434119Y85684711D01*
G37*
%LPD*%
X89150000Y53040000D02*
G36*
X85844119Y53040289D01*
X85821716Y53047085D01*
X85807574Y53057574D01*
X85794567Y53077039D01*
X85790289Y53094119D01*
X85790289Y53405881D01*
X85803619Y53438064D01*
X85816666Y53449888D01*
X85838295Y53458847D01*
X85861705Y53458847D01*
X85878284Y53452915D01*
X85902915Y53428284D01*
X85910000Y53400000D01*
X85910000Y53160000D01*
X89090000Y53160000D01*
X89091153Y53411705D01*
X89100112Y53433334D01*
X89111936Y53446381D01*
X89132583Y53457416D01*
X89155881Y53459711D01*
X89178284Y53452915D01*
X89192426Y53442426D01*
X89208847Y53411705D01*
X89210000Y53100000D01*
X89205433Y53077039D01*
X89192426Y53057574D01*
X89172961Y53044567D01*
X89150000Y53040000D01*
G37*
%LPD*%
X79935782Y54603343D02*
G36*
X79938076Y54626641D01*
X79949112Y54647288D01*
X79967209Y54662140D01*
X79989612Y54668935D01*
X80645493Y54669224D01*
X80668454Y54664657D01*
X80687919Y54651651D01*
X80700925Y54632185D01*
X80705493Y54609224D01*
X80705493Y53959224D01*
X80700925Y53936263D01*
X80687919Y53916798D01*
X80662910Y53901808D01*
X80628076Y53901808D01*
X80603066Y53916798D01*
X80586646Y53947519D01*
X80585493Y54549224D01*
X79989612Y54549513D01*
X79967209Y54556309D01*
X79953066Y54566798D01*
X79940060Y54586263D01*
X79935782Y54603343D01*
G37*
%LPD*%
X93435353Y51842811D02*
G36*
X93189360Y51523007D01*
X92924140Y51233571D01*
X92626993Y50960640D01*
X92307189Y50714647D01*
X91967162Y50497462D01*
X91609501Y50310739D01*
X91236926Y50155898D01*
X90852274Y50034119D01*
X90447733Y49944435D01*
X90047653Y49892243D01*
X89644548Y49875119D01*
X89252347Y49892243D01*
X88852267Y49944435D01*
X88458259Y50031297D01*
X88063074Y50155898D01*
X87690499Y50310739D01*
X87332838Y50497462D01*
X86992811Y50714647D01*
X86673007Y50960640D01*
X86375860Y51233571D01*
X86110640Y51523007D01*
X85864647Y51842811D01*
X85647462Y52182838D01*
X85460739Y52540499D01*
X85302169Y52923321D01*
X85181297Y53308259D01*
X85094435Y53702267D01*
X85042243Y54102347D01*
X85025119Y54494548D01*
X85042243Y54897653D01*
X85094435Y55297733D01*
X85181297Y55691741D01*
X85302169Y56076679D01*
X85460739Y56459501D01*
X85647462Y56817162D01*
X85864647Y57157189D01*
X86110640Y57476993D01*
X86375860Y57766429D01*
X86673007Y58039360D01*
X86992811Y58285353D01*
X87332838Y58502538D01*
X87690499Y58689261D01*
X88063074Y58844102D01*
X88447726Y58965881D01*
X88852267Y59055565D01*
X89252347Y59107757D01*
X89655452Y59124881D01*
X90047653Y59107757D01*
X90447733Y59055565D01*
X90841741Y58968703D01*
X91236926Y58844102D01*
X91609501Y58689261D01*
X91967162Y58502538D01*
X92307189Y58285353D01*
X92626993Y58039360D01*
X92924140Y57766429D01*
X93189360Y57476993D01*
X93435353Y57157189D01*
X93652538Y56817162D01*
X93839261Y56459501D01*
X93997831Y56076679D01*
X94118703Y55691741D01*
X94205565Y55297733D01*
X94257757Y54897653D01*
X94274881Y54505452D01*
X94257757Y54102347D01*
X94205565Y53702267D01*
X94118703Y53308259D01*
X93997831Y52923321D01*
X93839261Y52540499D01*
X93652538Y52182838D01*
X93435353Y51842811D01*
G37*
%LPC*%
X91146297Y58611043D02*
G36*
X90782303Y58725810D01*
X90409690Y58808417D01*
X90031296Y58858233D01*
X89650000Y58874881D01*
X89268704Y58858233D01*
X88890310Y58808417D01*
X88517697Y58725810D01*
X88153703Y58611043D01*
X87801095Y58464989D01*
X87462560Y58288758D01*
X87140671Y58083693D01*
X86837881Y57851353D01*
X86556492Y57593508D01*
X86298647Y57312119D01*
X86066307Y57009329D01*
X85861242Y56687440D01*
X85685011Y56348905D01*
X85538957Y55996297D01*
X85424190Y55632303D01*
X85405944Y55550000D01*
X85318236Y55547416D01*
X85255721Y55526384D01*
X85223121Y55504602D01*
X85200207Y55482454D01*
X85177245Y55450685D01*
X85162574Y55419668D01*
X85153843Y55389018D01*
X85150000Y55350000D01*
X85150000Y53650000D01*
X85155456Y53603798D01*
X85168208Y53566733D01*
X85187945Y53532867D01*
X85213911Y53503502D01*
X85245106Y53479767D01*
X85273463Y53465224D01*
X85310982Y53453843D01*
X85405944Y53450000D01*
X85424190Y53367697D01*
X85538957Y53003703D01*
X85685011Y52651095D01*
X85861242Y52312560D01*
X86066307Y51990671D01*
X86298647Y51687881D01*
X86556492Y51406492D01*
X86837881Y51148647D01*
X87140671Y50916307D01*
X87462560Y50711242D01*
X87801095Y50535011D01*
X88153703Y50388957D01*
X88517697Y50274190D01*
X88890310Y50191583D01*
X89268704Y50141767D01*
X89650000Y50125119D01*
X90031296Y50141767D01*
X90409690Y50191583D01*
X90782303Y50274190D01*
X91146297Y50388957D01*
X91498905Y50535011D01*
X91837440Y50711242D01*
X92159329Y50916307D01*
X92462119Y51148647D01*
X92743508Y51406492D01*
X93001353Y51687881D01*
X93233693Y51990671D01*
X93438758Y52312560D01*
X93614989Y52651095D01*
X93761043Y53003703D01*
X93875810Y53367697D01*
X93958417Y53740310D01*
X94008233Y54118704D01*
X94024881Y54500000D01*
X94008233Y54881296D01*
X93958417Y55259690D01*
X93875810Y55632303D01*
X93761043Y55996297D01*
X93614989Y56348905D01*
X93438758Y56687440D01*
X93233693Y57009329D01*
X93001353Y57312119D01*
X92743508Y57593508D01*
X92462119Y57851353D01*
X92159329Y58083693D01*
X91837440Y58288758D01*
X91498905Y58464989D01*
X91146297Y58611043D01*
G37*
%LPD*%
X90845881Y54750289D02*
G36*
X90822583Y54752584D01*
X90801936Y54763619D01*
X90787085Y54781716D01*
X90780289Y54804119D01*
X90780000Y55460000D01*
X90784567Y55482961D01*
X90797574Y55502426D01*
X90817039Y55515433D01*
X90840000Y55520000D01*
X91490000Y55520000D01*
X91512961Y55515433D01*
X91532426Y55502426D01*
X91547416Y55477417D01*
X91547416Y55442583D01*
X91532426Y55417574D01*
X91501705Y55401153D01*
X90900000Y55400000D01*
X90899711Y54804119D01*
X90895433Y54787039D01*
X90882426Y54767574D01*
X90868284Y54757085D01*
X90845881Y54750289D01*
G37*
%LPD*%
X85844119Y55959711D02*
G36*
X89155881Y55959711D01*
X89178284Y55952915D01*
X89192426Y55942426D01*
X89205433Y55922961D01*
X89209711Y55905881D01*
X89209711Y55594119D01*
X89196381Y55561936D01*
X89183334Y55550112D01*
X89161705Y55541153D01*
X89138295Y55541153D01*
X89121716Y55547085D01*
X89097085Y55571716D01*
X89090000Y55600000D01*
X89090000Y55840000D01*
X85910000Y55840000D01*
X85908847Y55588295D01*
X85899888Y55566666D01*
X85888064Y55553619D01*
X85867417Y55542584D01*
X85844119Y55540289D01*
X85821716Y55547085D01*
X85807574Y55557574D01*
X85794567Y55577039D01*
X85790000Y55600000D01*
X85791153Y55911705D01*
X85807574Y55942426D01*
X85821716Y55952915D01*
X85844119Y55959711D01*
G37*
%LPD*%
X85194983Y58881286D02*
G36*
X84613076Y59266412D01*
X84031169Y58881286D01*
X84217627Y59553723D01*
X83671530Y59988139D01*
X84368675Y60018602D01*
X84613076Y60672212D01*
X84857477Y60018602D01*
X85554622Y59988139D01*
X85008525Y59553723D01*
X85194983Y58881286D01*
G37*
%LPD*%
X75100289Y62895881D02*
G36*
X75104567Y62912961D01*
X75117574Y62932426D01*
X75137039Y62945433D01*
X75154119Y62949711D01*
X75550000Y62950000D01*
X75551153Y63351705D01*
X75563619Y63378064D01*
X75592583Y63397416D01*
X75627417Y63397416D01*
X75656381Y63378064D01*
X75667416Y63357417D01*
X75670000Y63340000D01*
X75670000Y62890000D01*
X75665433Y62867039D01*
X75648064Y62843619D01*
X75632961Y62834567D01*
X75610000Y62830000D01*
X75154119Y62830289D01*
X75131716Y62837085D01*
X75113619Y62851936D01*
X75102584Y62872583D01*
X75100289Y62895881D01*
G37*
%LPD*%
X76761413Y62559781D02*
G36*
X76581804Y62326491D01*
X76390257Y62117454D01*
X76173509Y61918196D01*
X75940219Y61738587D01*
X75692162Y61579994D01*
X75431228Y61443623D01*
X75159401Y61330514D01*
X74878750Y61241526D01*
X74580672Y61175444D01*
X74288709Y61137486D01*
X73994548Y61125119D01*
X73711291Y61137486D01*
X73419328Y61175444D01*
X73131783Y61238704D01*
X72840599Y61330514D01*
X72568772Y61443623D01*
X72307838Y61579994D01*
X72059781Y61738587D01*
X71826491Y61918196D01*
X71609743Y62117454D01*
X71418196Y62326491D01*
X71232332Y62568714D01*
X71079994Y62807838D01*
X70979013Y63000790D01*
X71039219Y63001685D01*
X71107123Y63011758D01*
X71182183Y63034527D01*
X71231548Y63057094D01*
X71293774Y62937560D01*
X71440247Y62707642D01*
X71606202Y62491365D01*
X71790376Y62290376D01*
X71991365Y62106202D01*
X72207642Y61940247D01*
X72437560Y61793774D01*
X72679368Y61667896D01*
X72931228Y61563572D01*
X73191221Y61481597D01*
X73457370Y61422593D01*
X73727649Y61387010D01*
X74000000Y61375119D01*
X74272351Y61387010D01*
X74542630Y61422593D01*
X74808779Y61481597D01*
X75068772Y61563572D01*
X75320632Y61667896D01*
X75562440Y61793774D01*
X75792358Y61940247D01*
X76008635Y62106202D01*
X76209624Y62290376D01*
X76393798Y62491365D01*
X76559753Y62707642D01*
X76706226Y62937560D01*
X76832104Y63179368D01*
X76936428Y63431228D01*
X77018403Y63691221D01*
X77077407Y63957370D01*
X77112990Y64227649D01*
X77124881Y64500000D01*
X77112990Y64772351D01*
X77077407Y65042630D01*
X77018403Y65308779D01*
X76936428Y65568772D01*
X76832104Y65820632D01*
X76706226Y66062440D01*
X76559753Y66292358D01*
X76393798Y66508635D01*
X76209624Y66709624D01*
X76008635Y66893798D01*
X75792358Y67059753D01*
X75562440Y67206226D01*
X75320632Y67332104D01*
X75068772Y67436428D01*
X74808779Y67518403D01*
X74542630Y67577407D01*
X74272351Y67612990D01*
X74000000Y67624881D01*
X73727649Y67612990D01*
X73457370Y67577407D01*
X73191221Y67518403D01*
X72931228Y67436428D01*
X72679368Y67332104D01*
X72437560Y67206226D01*
X72207642Y67059753D01*
X71991365Y66893798D01*
X71790376Y66709624D01*
X71598232Y66498248D01*
X71553556Y66460322D01*
X71507455Y66409458D01*
X71463878Y66344240D01*
X71435944Y66285603D01*
X71293774Y66062440D01*
X71167896Y65820632D01*
X71063572Y65568772D01*
X70981597Y65308779D01*
X70922593Y65042630D01*
X70887010Y64772351D01*
X70875119Y64500000D01*
X70887010Y64227649D01*
X70917912Y63992929D01*
X70864319Y63981088D01*
X70799684Y63957962D01*
X70730508Y63920987D01*
X70682380Y63885846D01*
X70638437Y64200428D01*
X70625119Y64494548D01*
X70638437Y64799572D01*
X70677338Y65091412D01*
X70741526Y65378750D01*
X70826784Y65649154D01*
X70939015Y65921345D01*
X71074541Y66182719D01*
X71238587Y66440219D01*
X71418196Y66673509D01*
X71617454Y66890257D01*
X71826491Y67081804D01*
X72059781Y67261413D01*
X72307838Y67420006D01*
X72568772Y67556377D01*
X72850846Y67673216D01*
X73131783Y67761296D01*
X73419328Y67824556D01*
X73711291Y67862514D01*
X73994548Y67874881D01*
X74288709Y67862514D01*
X74580672Y67824556D01*
X74868217Y67761296D01*
X75149154Y67673216D01*
X75431228Y67556377D01*
X75692162Y67420006D01*
X75940219Y67261413D01*
X76173509Y67081804D01*
X76390257Y66882546D01*
X76588814Y66665155D01*
X76767668Y66431286D01*
X76925459Y66182719D01*
X77060985Y65921345D01*
X77173216Y65649154D01*
X77258474Y65378750D01*
X77300000Y65193634D01*
X77300963Y64805397D01*
X77308612Y64766943D01*
X77323616Y64730721D01*
X77345398Y64698121D01*
X77367466Y64675280D01*
X77374881Y64505452D01*
X77361563Y64200428D01*
X77322662Y63908588D01*
X77258474Y63621250D01*
X77173216Y63350846D01*
X77060985Y63078655D01*
X76920006Y62807838D01*
X76761413Y62559781D01*
G37*
%LPD*%
X78968139Y64717789D02*
G36*
X78487742Y64717500D01*
X78464781Y64722067D01*
X78444661Y64735796D01*
X78464251Y64781328D01*
X78470000Y64834800D01*
X78476037Y64836347D01*
X78962258Y64837500D01*
X78980000Y64834800D01*
X78985749Y64781328D01*
X79005339Y64735796D01*
X78990542Y64724585D01*
X78968139Y64717789D01*
G37*
%LPD*%
X78985749Y65818672D02*
G36*
X78980000Y65765200D01*
X78968139Y65762789D01*
X78481861Y65762789D01*
X78470000Y65765200D01*
X78464251Y65818672D01*
X78444661Y65864204D01*
X78464781Y65877933D01*
X78487742Y65882500D01*
X78968139Y65882211D01*
X78990542Y65875415D01*
X79005339Y65864204D01*
X78985749Y65818672D01*
G37*
%LPD*%
X75604119Y65600289D02*
G36*
X75587039Y65604567D01*
X75567574Y65617574D01*
X75554567Y65637039D01*
X75550289Y65654119D01*
X75550000Y66050000D01*
X75148295Y66051153D01*
X75117574Y66067574D01*
X75101153Y66098295D01*
X75104567Y66132961D01*
X75121936Y66156381D01*
X75142583Y66167416D01*
X75160000Y66170000D01*
X75610000Y66170000D01*
X75632961Y66165433D01*
X75656381Y66148064D01*
X75667416Y66127417D01*
X75670000Y66110000D01*
X75669711Y65654119D01*
X75662915Y65631716D01*
X75648064Y65613619D01*
X75627417Y65602584D01*
X75604119Y65600289D01*
G37*
%LPD*%
X77298360Y66346864D02*
G36*
X77264916Y66385000D01*
X77248611Y66433032D01*
X77251929Y66483646D01*
X77274363Y66529139D01*
X77312499Y66562583D01*
X78611537Y67312583D01*
X78659569Y67328888D01*
X78710184Y67325570D01*
X78755676Y67303136D01*
X78789120Y67265000D01*
X78805425Y67216968D01*
X78802108Y67166354D01*
X78779673Y67120861D01*
X78741537Y67087417D01*
X77442499Y66337417D01*
X77394467Y66321112D01*
X77343853Y66324430D01*
X77298360Y66346864D01*
G37*
%LPD*%
X76287934Y67509227D02*
G36*
X76272049Y67557399D01*
X76275808Y67607983D01*
X76298638Y67653278D01*
X77591527Y69308101D01*
X77629954Y69341211D01*
X77678126Y69357096D01*
X77728710Y69353336D01*
X77774005Y69330506D01*
X77807115Y69292080D01*
X77823000Y69243908D01*
X77819241Y69193324D01*
X77796410Y69148029D01*
X76503521Y67493206D01*
X76465095Y67460096D01*
X76416923Y67444211D01*
X76366339Y67447970D01*
X76321044Y67470801D01*
X76287934Y67509227D01*
G37*
%LPD*%
X74994059Y68147182D02*
G36*
X74961285Y68185895D01*
X74945821Y68234204D01*
X74950022Y68284753D01*
X75363478Y69726646D01*
X75386703Y69771740D01*
X75425416Y69804514D01*
X75473725Y69819977D01*
X75524275Y69815777D01*
X75569369Y69792552D01*
X75602142Y69753838D01*
X75617606Y69705530D01*
X75613406Y69654980D01*
X75199950Y68213088D01*
X75176725Y68167994D01*
X75138011Y68135220D01*
X75089702Y68119756D01*
X75039153Y68123957D01*
X74994059Y68147182D01*
G37*
%LPD*%
X79470784Y69103301D02*
G36*
X79510385Y69086286D01*
X79548839Y69078637D01*
X79687973Y69077674D01*
X79639694Y69050092D01*
X79581634Y69042717D01*
X79525170Y69058122D01*
X79470784Y69103301D01*
G37*
%LPD*%
X79362185Y69228276D02*
G36*
X79368442Y69277674D01*
X79372285Y69238656D01*
X79382126Y69205328D01*
X79362185Y69228276D01*
G37*
%LPD*%
X73602567Y69525000D02*
G36*
X73649864Y69075000D01*
X73388432Y69075000D01*
X73341135Y69525000D01*
X73602567Y69525000D01*
G37*
%LPD*%
X74182211Y69543139D02*
G36*
X74182500Y69062742D01*
X74177933Y69039781D01*
X74164204Y69019661D01*
X74118672Y69039251D01*
X74065200Y69045000D01*
X74063653Y69051037D01*
X74062500Y69537258D01*
X74065200Y69555000D01*
X74118672Y69560749D01*
X74164204Y69580339D01*
X74175415Y69565542D01*
X74182211Y69543139D01*
G37*
%LPD*%
X78355527Y70965958D02*
G36*
X78380158Y70990590D01*
X78408442Y70997674D01*
X79058442Y70997674D01*
X79091776Y70987563D01*
X79104823Y70975738D01*
X79115859Y70955091D01*
X79117289Y70925969D01*
X79108330Y70904340D01*
X79091776Y70887786D01*
X79064323Y70877963D01*
X78468442Y70877674D01*
X78468442Y70177674D01*
X78472285Y70138656D01*
X78495687Y70076989D01*
X78513840Y70050796D01*
X78541564Y70023072D01*
X78574163Y70001290D01*
X78603395Y69988596D01*
X78668442Y69977674D01*
X78606997Y69967850D01*
X78414247Y70124642D01*
X78217361Y70273738D01*
X78015442Y70415945D01*
X77808733Y70551093D01*
X77597480Y70679022D01*
X77381935Y70799579D01*
X77162354Y70912620D01*
X76939001Y71018010D01*
X76712141Y71115623D01*
X76482045Y71205344D01*
X76248988Y71287064D01*
X76013248Y71360686D01*
X75775105Y71426123D01*
X75534845Y71483297D01*
X75292753Y71532138D01*
X75049120Y71572590D01*
X74804234Y71604603D01*
X74558389Y71628140D01*
X74311878Y71643172D01*
X74064994Y71649682D01*
X73818033Y71647662D01*
X73571289Y71637113D01*
X73325057Y71618050D01*
X73079630Y71590494D01*
X72835301Y71554478D01*
X72592362Y71510045D01*
X72351102Y71457249D01*
X72111809Y71396152D01*
X71874769Y71326828D01*
X71640265Y71249358D01*
X71408576Y71163835D01*
X71179979Y71070362D01*
X70954747Y70969050D01*
X70733148Y70860020D01*
X70515446Y70743402D01*
X70301902Y70619334D01*
X70092770Y70487966D01*
X69888300Y70349453D01*
X69688735Y70203962D01*
X69494315Y70051665D01*
X69305270Y69892744D01*
X69121826Y69727389D01*
X68942339Y69553997D01*
X68893121Y69522327D01*
X68835530Y69511902D01*
X68778333Y69524310D01*
X68730238Y69557661D01*
X68698568Y69606879D01*
X68688143Y69664470D01*
X68700551Y69721667D01*
X68733902Y69769762D01*
X68915253Y69944953D01*
X69110241Y70120715D01*
X69307276Y70286235D01*
X69505776Y70441727D01*
X69717900Y70596375D01*
X69930999Y70740626D01*
X70144519Y70874750D01*
X70371503Y71006626D01*
X70598381Y71128059D01*
X70824630Y71239377D01*
X71059276Y71345021D01*
X71297430Y71442499D01*
X71543700Y71533404D01*
X71788072Y71614039D01*
X72035083Y71686186D01*
X72279396Y71748565D01*
X72530760Y71803664D01*
X72783876Y71850049D01*
X73038444Y71887664D01*
X73294159Y71916466D01*
X73555887Y71936729D01*
X73807809Y71947499D01*
X74065131Y71949693D01*
X74327552Y71942774D01*
X74584401Y71927022D01*
X74840552Y71902408D01*
X75090576Y71869723D01*
X75349543Y71826726D01*
X75601774Y71775747D01*
X75847076Y71717374D01*
X76100206Y71647819D01*
X76345810Y71571022D01*
X76583758Y71487587D01*
X76823540Y71394185D01*
X77064678Y71290429D01*
X77297364Y71180536D01*
X77526117Y71062673D01*
X77746185Y70939586D01*
X77970733Y70803606D01*
X78181780Y70665622D01*
X78348442Y70548354D01*
X78348442Y70937674D01*
X78355527Y70965958D01*
G37*
%LPD*%
X77173010Y73722607D02*
G36*
X77196308Y73720312D01*
X77216954Y73709276D01*
X77231806Y73691179D01*
X77238602Y73668777D01*
X77238891Y73012896D01*
X77234324Y72989935D01*
X77221317Y72970469D01*
X77201852Y72957463D01*
X77178891Y72952896D01*
X76528891Y72952896D01*
X76505930Y72957463D01*
X76486464Y72970469D01*
X76471474Y72995478D01*
X76471474Y73030313D01*
X76486464Y73055322D01*
X76517185Y73071743D01*
X77118891Y73072896D01*
X77119180Y73668777D01*
X77123458Y73685857D01*
X77136464Y73705322D01*
X77155930Y73718328D01*
X77173010Y73722607D01*
G37*
%LPD*%
X81400156Y75876246D02*
G36*
X81397861Y75852948D01*
X81386826Y75832302D01*
X81368729Y75817450D01*
X81346326Y75810654D01*
X80690445Y75810365D01*
X80667484Y75814932D01*
X80648019Y75827939D01*
X80635012Y75847404D01*
X80630445Y75870365D01*
X80630445Y76520365D01*
X80635012Y76543326D01*
X80648019Y76562792D01*
X80673028Y76577782D01*
X80707862Y76577782D01*
X80732871Y76562792D01*
X80749292Y76532071D01*
X80750445Y75930365D01*
X81346326Y75930076D01*
X81363406Y75925798D01*
X81382871Y75912792D01*
X81395878Y75893326D01*
X81400156Y75876246D01*
G37*
%LPD*%
X89424711Y79370881D02*
G36*
X89422416Y79347583D01*
X89411381Y79326936D01*
X89393284Y79312085D01*
X89370881Y79305289D01*
X88715000Y79305000D01*
X88692039Y79309567D01*
X88672574Y79322574D01*
X88659567Y79342039D01*
X88655000Y79365000D01*
X88655000Y80015000D01*
X88659567Y80037961D01*
X88672574Y80057426D01*
X88697583Y80072416D01*
X88732417Y80072416D01*
X88757426Y80057426D01*
X88773847Y80026705D01*
X88775000Y79425000D01*
X89370881Y79424711D01*
X89387961Y79420433D01*
X89407426Y79407426D01*
X89420433Y79387961D01*
X89424711Y79370881D01*
G37*
%LPD*%
X80599119Y81094711D02*
G36*
X80622417Y81092416D01*
X80643064Y81081381D01*
X80657915Y81063284D01*
X80664711Y81040881D01*
X80665000Y80385000D01*
X80660433Y80362039D01*
X80647426Y80342574D01*
X80627961Y80329567D01*
X80605000Y80325000D01*
X79955000Y80325000D01*
X79932039Y80329567D01*
X79912574Y80342574D01*
X79897584Y80367583D01*
X79897584Y80402417D01*
X79912574Y80427426D01*
X79943295Y80443847D01*
X80545000Y80445000D01*
X80545289Y81040881D01*
X80549567Y81057961D01*
X80562574Y81077426D01*
X80582039Y81090433D01*
X80599119Y81094711D01*
G37*
%LPD*%
X86974119Y85684711D02*
G36*
X86997417Y85682416D01*
X87018064Y85671381D01*
X87032915Y85653284D01*
X87039711Y85630881D01*
X87040000Y84975000D01*
X87035433Y84952039D01*
X87022426Y84932574D01*
X87002961Y84919567D01*
X86980000Y84915000D01*
X86330000Y84915000D01*
X86307039Y84919567D01*
X86287574Y84932574D01*
X86272584Y84957583D01*
X86272584Y84992417D01*
X86287574Y85017426D01*
X86318295Y85033847D01*
X86920000Y85035000D01*
X86920289Y85630881D01*
X86924567Y85647961D01*
X86937574Y85667426D01*
X86957039Y85680433D01*
X86974119Y85684711D01*
G37*
%LPD*%
M02*
