G04 Bottom copper*
%FSLAX46Y46*%
%MOMM*%
%TF.GenerationSoftware,kerstkaart2026-gen2*%
G01*
%LPD*%
X20289441Y35233329D02*
G36*
X20230318Y35168097D01*
X20181419Y35135424D01*
X20098527Y35105764D01*
X20010595Y35101445D01*
X19925195Y35122836D01*
X19849682Y35168097D01*
X19790559Y35233329D01*
X19752918Y35312915D01*
X19740000Y35400000D01*
X19745764Y35458527D01*
X19762836Y35514805D01*
X19808097Y35590318D01*
X19849682Y35631903D01*
X19890000Y35659433D01*
X19890000Y36550000D01*
X19090000Y36550000D01*
X19090000Y38250000D01*
X20990000Y38250000D01*
X20990000Y36550000D01*
X20190000Y36550000D01*
X20190000Y35659433D01*
X20252132Y35612132D01*
X20289441Y35566671D01*
X20317164Y35514805D01*
X20334236Y35458527D01*
X20340000Y35400000D01*
X20334236Y35341473D01*
X20317164Y35285195D01*
X20289441Y35233329D01*
G37*
%LPD*%
X22430000Y39150000D02*
G36*
X21630000Y39150000D01*
X21630000Y40850000D01*
X23530000Y40850000D01*
X23530000Y39150000D01*
X22730000Y39150000D01*
X22730000Y38259433D01*
X22792132Y38212132D01*
X22844576Y38141419D01*
X22874236Y38058527D01*
X22878555Y37970595D01*
X22867082Y37912915D01*
X22844576Y37858581D01*
X22792132Y37787868D01*
X22721419Y37735424D01*
X22667085Y37712918D01*
X22609405Y37701445D01*
X22550595Y37701445D01*
X22492915Y37712918D01*
X22438581Y37735424D01*
X22389682Y37768097D01*
X22348097Y37809682D01*
X22315424Y37858581D01*
X22292918Y37912915D01*
X22281445Y37970595D01*
X22285764Y38058527D01*
X22315424Y38141419D01*
X22367868Y38212132D01*
X22430000Y38259433D01*
X22430000Y39150000D01*
G37*
%LPD*%
X19090000Y40850000D02*
G36*
X19890000Y40850000D01*
X19890000Y41740567D01*
X19849682Y41768097D01*
X19808097Y41809682D01*
X19762836Y41885195D01*
X19741445Y41970595D01*
X19745764Y42058527D01*
X19775424Y42141419D01*
X19827868Y42212132D01*
X19873329Y42249441D01*
X19952915Y42287082D01*
X20010595Y42298555D01*
X20098527Y42294236D01*
X20181419Y42264576D01*
X20230318Y42231903D01*
X20271903Y42190318D01*
X20304576Y42141419D01*
X20334236Y42058527D01*
X20340000Y42000000D01*
X20334236Y41941473D01*
X20304576Y41858581D01*
X20252132Y41787868D01*
X20190000Y41740567D01*
X20190000Y40850000D01*
X20990000Y40850000D01*
X20990000Y39150000D01*
X19090000Y39150000D01*
X19090000Y40850000D01*
G37*
%LPD*%
X12700000Y42300000D02*
G36*
X15272738Y42300000D01*
X16117941Y43298876D01*
X16101445Y43370595D01*
X16105764Y43458527D01*
X16135424Y43541419D01*
X16187868Y43612132D01*
X16233329Y43649441D01*
X16285195Y43677164D01*
X16341473Y43694236D01*
X16400000Y43700000D01*
X16458527Y43694236D01*
X16514805Y43677164D01*
X16566671Y43649441D01*
X16612132Y43612132D01*
X16664576Y43541419D01*
X16687082Y43487085D01*
X16698555Y43429405D01*
X16694236Y43341473D01*
X16677164Y43285195D01*
X16649441Y43233329D01*
X16590318Y43168097D01*
X16514805Y43122836D01*
X16429405Y43101445D01*
X16346850Y43104967D01*
X15665724Y42300000D01*
X15700000Y42300000D01*
X15700000Y39300000D01*
X12700000Y39300000D01*
X12700000Y42300000D01*
G37*
%LPD*%
X8607592Y37375936D02*
G36*
X8236573Y37846280D01*
X8183558Y37898777D01*
X277095Y44057293D01*
X-125072Y44457511D01*
X-502193Y44991304D01*
X-786807Y45621366D01*
X-942877Y46294031D01*
X-964717Y46984219D01*
X-851489Y47665406D01*
X-607544Y48311414D01*
X-242256Y48897418D01*
X230337Y49400898D01*
X789115Y49800202D01*
X1582077Y50135622D01*
X2438625Y50269601D01*
X3301930Y50190045D01*
X4114000Y49905586D01*
X4739008Y49513132D01*
X11103531Y44565584D01*
X11152904Y44534639D01*
X11623222Y44300022D01*
X11678099Y44285044D01*
X12162844Y44199818D01*
X12214794Y44195165D01*
X12694913Y44241677D01*
X13149068Y44401264D01*
X15239721Y45692901D01*
X17010783Y46578697D01*
X18905461Y47356128D01*
X20450402Y47886349D01*
X22617629Y48499795D01*
X24888483Y49002579D01*
X27248566Y49391951D01*
X29658175Y49662494D01*
X32127029Y49815160D01*
X34610060Y49846039D01*
X38955508Y49604880D01*
X43132611Y48998296D01*
X45933675Y48356825D01*
X48398932Y47613187D01*
X48457587Y47601548D01*
X49219054Y47589401D01*
X49275674Y47593817D01*
X49333213Y47609680D01*
X49868895Y47820181D01*
X49927562Y47850886D01*
X50391245Y48250080D01*
X50428544Y48288482D01*
X62930281Y63570127D01*
X63200628Y64024633D01*
X63225592Y64077671D01*
X63359668Y64642664D01*
X63359630Y64709402D01*
X63205116Y66125081D01*
X63270863Y67098116D01*
X63470028Y67868311D01*
X63964712Y69036051D01*
X63980762Y69084897D01*
X63988540Y69138371D01*
X64021412Y69856017D01*
X64010296Y69918819D01*
X63881057Y70362031D01*
X61139665Y76758915D01*
X61117892Y76800754D01*
X60851789Y77230162D01*
X60815157Y77278070D01*
X60774390Y77314566D01*
X60169401Y77766235D01*
X60116255Y77798135D01*
X60051579Y77820124D01*
X59395400Y77964538D01*
X59361550Y77970015D01*
X59306445Y77970915D01*
X52924739Y77447908D01*
X52206109Y77492112D01*
X51595585Y77704009D01*
X51030619Y78095683D01*
X50623747Y78584218D01*
X50349153Y79186949D01*
X50339561Y79219900D01*
X50242221Y79915426D01*
X50327835Y80544381D01*
X50599097Y81176055D01*
X51005697Y81681595D01*
X51484729Y82037801D01*
X51990361Y82253222D01*
X53826431Y82468748D01*
X54331573Y82612480D01*
X54386751Y82634273D01*
X54432329Y82662905D01*
X55024657Y83111620D01*
X55080380Y83166278D01*
X55111249Y83214149D01*
X55454471Y83873134D01*
X55477780Y83931948D01*
X55488071Y83988420D01*
X55538395Y84565323D01*
X55537837Y84624646D01*
X55527452Y84677460D01*
X55343701Y85312698D01*
X55323677Y85364135D01*
X55291325Y85415657D01*
X53139003Y88192272D01*
X52774964Y88938767D01*
X52608736Y89640118D01*
X52620773Y90637750D01*
X52873461Y91508418D01*
X53397959Y92355916D01*
X54171780Y93045462D01*
X54969458Y93434673D01*
X55817753Y93610033D01*
X56682438Y93573433D01*
X58112459Y93184535D01*
X58168819Y93174683D01*
X58220727Y93174948D01*
X58752268Y93224502D01*
X58807582Y93241146D01*
X59301262Y93443904D01*
X59349292Y93475996D01*
X59762107Y93814247D01*
X59798654Y93858980D01*
X60095688Y94305461D01*
X60118352Y94363514D01*
X60573762Y96000893D01*
X60860211Y96570600D01*
X61416987Y97158298D01*
X62084059Y97517627D01*
X62802719Y97655407D01*
X63519675Y97577917D01*
X64183265Y97295643D01*
X64741891Y96829187D01*
X65017346Y96451744D01*
X65248222Y95931418D01*
X65349784Y95422604D01*
X65346215Y94947274D01*
X63539937Y87598077D01*
X63531909Y87512782D01*
X63568806Y86701701D01*
X63578900Y86636280D01*
X63600021Y86580054D01*
X63851543Y86068424D01*
X63886129Y86013423D01*
X65645432Y83810497D01*
X66052314Y83173391D01*
X70080832Y73820795D01*
X70343989Y73455916D01*
X70378879Y73415729D01*
X70822122Y73065323D01*
X70869277Y73040650D01*
X71282486Y72869521D01*
X71329653Y72858689D01*
X71789250Y72793895D01*
X72822385Y72799248D01*
X73265595Y72885791D01*
X73321194Y72902452D01*
X73867514Y73195198D01*
X73914172Y73226170D01*
X73950986Y73261186D01*
X74363311Y73727208D01*
X74393689Y73781671D01*
X78447600Y83173265D01*
X78854568Y83810497D01*
X80613773Y86013271D01*
X80645126Y86061768D01*
X80871472Y86495356D01*
X80892931Y86547668D01*
X80998045Y87090699D01*
X80998492Y87142540D01*
X80967703Y87549260D01*
X80960088Y87598045D01*
X79150665Y94989220D01*
X79164826Y95545032D01*
X79290496Y96045759D01*
X79546149Y96553076D01*
X79867287Y96944499D01*
X80453804Y97373643D01*
X81135370Y97613232D01*
X81828097Y97646945D01*
X82528679Y97474799D01*
X83170150Y97089916D01*
X83659784Y96541647D01*
X83925972Y96002012D01*
X84381648Y94363514D01*
X84404312Y94305461D01*
X84721903Y93831775D01*
X84763102Y93791286D01*
X85176034Y93457459D01*
X85222594Y93432212D01*
X85604519Y93265824D01*
X85654715Y93248920D01*
X86180428Y93173837D01*
X86235982Y93171140D01*
X86296664Y93179841D01*
X87998964Y93599514D01*
X88546074Y93619968D01*
X89193704Y93532044D01*
X89848715Y93310813D01*
X90447277Y92966488D01*
X90969420Y92510174D01*
X91311843Y92082344D01*
X91695013Y91343872D01*
X91880682Y90640507D01*
X91919117Y89954794D01*
X91787110Y89132527D01*
X91596127Y88618012D01*
X91258418Y88039735D01*
X89250434Y85490771D01*
X89217744Y85439612D01*
X89001906Y84863953D01*
X88986719Y84806604D01*
X88982733Y84752927D01*
X88991522Y84091854D01*
X88998359Y84031262D01*
X89019610Y83967510D01*
X89330005Y83292544D01*
X89358485Y83243214D01*
X89411456Y83185885D01*
X89981025Y82708613D01*
X90029954Y82675064D01*
X90079183Y82653299D01*
X90549072Y82492944D01*
X90610893Y82478672D01*
X92508322Y82253355D01*
X93050292Y82016578D01*
X93577431Y81596915D01*
X94011109Y80971520D01*
X94227056Y80284560D01*
X94232539Y79551802D01*
X94026539Y78859648D01*
X93660025Y78292693D01*
X93211905Y77886884D01*
X92680445Y77604150D01*
X92093319Y77458161D01*
X91563952Y77448628D01*
X85249999Y77970954D01*
X84592567Y77877349D01*
X84533507Y77854866D01*
X84082715Y77627895D01*
X84037195Y77599777D01*
X83702412Y77295550D01*
X83666229Y77256135D01*
X83382109Y76800756D01*
X83360299Y76758831D01*
X80587704Y70283948D01*
X80566369Y70205077D01*
X80467890Y69459770D01*
X80465862Y69399774D01*
X80474170Y69345946D01*
X80594393Y68858080D01*
X80613961Y68802336D01*
X80983160Y68194339D01*
X81028575Y68147836D01*
X82724637Y66743003D01*
X83938451Y65373525D01*
X84697403Y64122427D01*
X85275376Y62659681D01*
X85309904Y62608338D01*
X85739244Y62090845D01*
X85782139Y62048398D01*
X85827568Y62017836D01*
X86343402Y61733837D01*
X86407299Y61707330D01*
X91722620Y60159837D01*
X92633111Y59663351D01*
X93296767Y59081617D01*
X94010060Y58052671D01*
X94374697Y57010630D01*
X94457644Y55764689D01*
X94231823Y54670852D01*
X93895111Y53927231D01*
X93537706Y53396643D01*
X93074365Y52893894D01*
X92574649Y52494461D01*
X91853945Y52094070D01*
X91258605Y51883196D01*
X90627331Y51758834D01*
X89983688Y51728997D01*
X88862928Y51903375D01*
X77212535Y55228244D01*
X74105535Y55502594D01*
X74042379Y55495950D01*
X73300786Y55339385D01*
X73245306Y55322070D01*
X73176568Y55281854D01*
X72577693Y54817640D01*
X72526804Y54768053D01*
X59521908Y38856190D01*
X59494718Y38803632D01*
X59240827Y38170346D01*
X59224118Y38113235D01*
X59075539Y36188841D01*
X58531727Y34500284D01*
X58519035Y34438627D01*
X58466318Y33908267D01*
X58475605Y33831959D01*
X58639118Y33182394D01*
X58656854Y33131343D01*
X59384762Y31864061D01*
X59615229Y30836536D01*
X60472350Y3328206D01*
X60344969Y2465026D01*
X60015763Y1667346D01*
X59530315Y1003551D01*
X58867772Y446084D01*
X58223548Y116343D01*
X57421519Y-90272D01*
X56697330Y-112903D01*
X55883965Y43231D01*
X55219630Y332404D01*
X54550418Y821769D01*
X54095477Y1336268D01*
X53731230Y1969331D01*
X53513804Y2624569D01*
X53426650Y3299935D01*
X52983232Y17171298D01*
X52972077Y17222319D01*
X52801910Y17772323D01*
X52775486Y17833414D01*
X52409419Y18327080D01*
X52364031Y18375766D01*
X51853560Y18718010D01*
X51794469Y18748647D01*
X51198764Y18899799D01*
X51132819Y18908836D01*
X50520594Y18851343D01*
X50462696Y18839989D01*
X50412933Y18820265D01*
X49824926Y18525774D01*
X49771840Y18492002D01*
X49730563Y18452567D01*
X49299167Y17956204D01*
X49267693Y17912905D01*
X49242305Y17859646D01*
X49045438Y17318522D01*
X49030279Y17258900D01*
X48564997Y3154385D01*
X48432910Y2418565D01*
X48179132Y1784429D01*
X47598481Y970902D01*
X46934318Y425331D01*
X46155061Y56626D01*
X45304683Y-112140D01*
X44439589Y-67790D01*
X43587910Y196805D01*
X42853874Y647485D01*
X42242354Y1272580D01*
X41965112Y1698320D01*
X41707709Y2290888D01*
X41526871Y3384630D01*
X42139772Y23451121D01*
X42130046Y23507577D01*
X41957733Y24145915D01*
X41935059Y24204983D01*
X41904391Y24253511D01*
X41500655Y24777115D01*
X41461521Y24819114D01*
X41410160Y24856062D01*
X40836539Y25185068D01*
X40787685Y25207671D01*
X40730178Y25222267D01*
X40116592Y25313469D01*
X37110942Y25046030D01*
X34613954Y24953913D01*
X32127060Y24984842D01*
X28985357Y25177855D01*
X28924682Y25168456D01*
X28280728Y25001668D01*
X28217508Y24977624D01*
X28165978Y24944290D01*
X27581785Y24477741D01*
X27525228Y24418625D01*
X27256901Y23959668D01*
X27231146Y23902643D01*
X27103192Y23296316D01*
X27096928Y23244824D01*
X26474424Y3326503D01*
X26331810Y2418311D01*
X26012264Y1661169D01*
X25497317Y968711D01*
X24828042Y420667D01*
X24179460Y99583D01*
X23377546Y-95454D01*
X22514605Y-94342D01*
X21675725Y116756D01*
X21032228Y446084D01*
X20373766Y999515D01*
X19865247Y1701679D01*
X19544687Y2502872D01*
X19427568Y3327533D01*
X20104303Y25792729D01*
X20101182Y25846735D01*
X20086813Y25904602D01*
X19836894Y26610403D01*
X19810703Y26666008D01*
X19769641Y26719882D01*
X19309957Y27202165D01*
X19265485Y27240685D01*
X19208950Y27272442D01*
X17932705Y27820636D01*
X17881209Y27833530D01*
X17308144Y27925478D01*
X17254358Y27929330D01*
X17195306Y27922595D01*
X16547363Y27784369D01*
X16495811Y27768549D01*
X16443171Y27740953D01*
X15957566Y27423181D01*
X15917835Y27392269D01*
X15880550Y27351177D01*
X15530868Y26888021D01*
X15499797Y26837354D01*
X15480549Y26786981D01*
X15299058Y26149642D01*
X15288998Y26097776D01*
X14574427Y3326511D01*
X14430424Y2414389D01*
X14092578Y1627231D01*
X13570173Y940382D01*
X12930996Y422947D01*
X12147840Y53627D01*
X11441486Y-100029D01*
X10571670Y-88626D01*
X9742857Y130234D01*
X8986790Y546203D01*
X8381169Y1102538D01*
X7900933Y1823027D01*
X7645296Y2499190D01*
X7526696Y3378227D01*
X8384768Y30836529D01*
X8615238Y31864061D01*
X9343146Y33131343D01*
X9360882Y33182394D01*
X9524395Y33831959D01*
X9533080Y33887378D01*
X9532103Y33938261D01*
X9473806Y34479964D01*
X9056695Y35641663D01*
X8644056Y37289418D01*
X8633007Y37324442D01*
X8607592Y37375936D01*
G37*
%LPC*%
X20988527Y38950000D02*
G36*
X21026104Y38953411D01*
X21063763Y38964232D01*
X21098587Y38982192D01*
X21129239Y39006600D01*
X21154539Y39036520D01*
X21175768Y39076237D01*
X21186589Y39113896D01*
X21193000Y39176663D01*
X21212551Y39220026D01*
X21237528Y39245644D01*
X21257922Y39258110D01*
X21280382Y39266287D01*
X21315983Y39269851D01*
X21351052Y39262760D01*
X21372586Y39252386D01*
X21407449Y39220026D01*
X21423763Y39188183D01*
X21434559Y39108124D01*
X21455130Y39053194D01*
X21473643Y39025487D01*
X21500939Y38997376D01*
X21556237Y38964232D01*
X21593896Y38953411D01*
X21628529Y38950072D01*
X22121762Y38949422D01*
X22144834Y38944833D01*
X22176668Y38929776D01*
X22194853Y38914853D01*
X22215831Y38886568D01*
X22229422Y38841762D01*
X22230000Y38404066D01*
X22227527Y38379831D01*
X22214823Y38345652D01*
X22159832Y38270716D01*
X22122668Y38201647D01*
X22099339Y38137091D01*
X22087713Y38086416D01*
X22080241Y38008341D01*
X22087713Y37913584D01*
X22105105Y37844150D01*
X22135320Y37771771D01*
X22159832Y37729284D01*
X22198972Y37676509D01*
X22271725Y37606578D01*
X22354401Y37553996D01*
X22424150Y37525105D01*
X22471448Y37512116D01*
X22571659Y37500241D01*
X22669318Y37508216D01*
X22733054Y37524182D01*
X22778955Y37541475D01*
X22866994Y37590795D01*
X22941311Y37654647D01*
X22989205Y37713006D01*
X23015365Y37754497D01*
X23055818Y37846946D01*
X23071784Y37910682D01*
X23078387Y37962252D01*
X23076535Y38057286D01*
X23054895Y38155850D01*
X23015365Y38245503D01*
X22945177Y38345652D01*
X22930620Y38391886D01*
X22930000Y38830000D01*
X22935167Y38864834D01*
X22944169Y38886568D01*
X22965147Y38914853D01*
X22983332Y38929776D01*
X23015166Y38944833D01*
X23038238Y38949422D01*
X23528527Y38950000D01*
X23585199Y38957896D01*
X23638587Y38982192D01*
X23673400Y39010761D01*
X23704870Y39053194D01*
X23722104Y39094801D01*
X23730000Y39151473D01*
X23730000Y40848527D01*
X23720396Y40910831D01*
X23694539Y40963480D01*
X23654513Y41006357D01*
X23603763Y41035768D01*
X23546661Y41049181D01*
X21613339Y41049181D01*
X21574801Y41042104D01*
X21538384Y41027644D01*
X21486600Y40989239D01*
X21462192Y40958587D01*
X21444232Y40923763D01*
X21433411Y40886104D01*
X21427000Y40823337D01*
X21407449Y40779974D01*
X21382472Y40754356D01*
X21362078Y40741890D01*
X21339618Y40733713D01*
X21304017Y40730149D01*
X21268948Y40737240D01*
X21247414Y40747614D01*
X21212551Y40779974D01*
X21196237Y40811817D01*
X21185441Y40891876D01*
X21164870Y40946806D01*
X21146357Y40974513D01*
X21119061Y41002624D01*
X21063763Y41035768D01*
X21026104Y41046589D01*
X20991471Y41049928D01*
X20510000Y41050000D01*
X20464078Y41059134D01*
X20433873Y41077239D01*
X20410224Y41103332D01*
X20395167Y41135166D01*
X20390578Y41158238D01*
X20390000Y41595934D01*
X20392473Y41620169D01*
X20405177Y41654348D01*
X20460168Y41729284D01*
X20497332Y41798353D01*
X20515818Y41846946D01*
X20531784Y41910682D01*
X20539687Y41988716D01*
X20538170Y42040684D01*
X20527884Y42108552D01*
X20504909Y42183544D01*
X20460168Y42270716D01*
X20399281Y42347485D01*
X20324586Y42410901D01*
X20241647Y42457332D01*
X20174253Y42481446D01*
X20077748Y42498387D01*
X19982714Y42496535D01*
X19886946Y42475818D01*
X19814401Y42446004D01*
X19769284Y42420168D01*
X19714279Y42379104D01*
X19660896Y42325721D01*
X19619832Y42270716D01*
X19593996Y42225599D01*
X19565105Y42155850D01*
X19547713Y42086416D01*
X19540313Y42011284D01*
X19541613Y41962252D01*
X19559339Y41862909D01*
X19595320Y41771771D01*
X19629099Y41715414D01*
X19674823Y41654348D01*
X19689380Y41608114D01*
X19690000Y41170000D01*
X19684833Y41135166D01*
X19669776Y41103332D01*
X19636668Y41070224D01*
X19604834Y41055167D01*
X19581762Y41050578D01*
X19091473Y41050000D01*
X19034801Y41042104D01*
X18981413Y41017808D01*
X18946600Y40989239D01*
X18915130Y40946806D01*
X18897896Y40905199D01*
X18890000Y40848527D01*
X18890000Y39151473D01*
X18899604Y39089169D01*
X18925461Y39036520D01*
X18965487Y38993643D01*
X19016237Y38964232D01*
X19073339Y38950819D01*
X20988527Y38950000D01*
G37*
%LPC*%
X19593411Y36347694D02*
G36*
X19626568Y36335831D01*
X19654853Y36314853D01*
X19675831Y36286568D01*
X19687694Y36253411D01*
X19690000Y35804066D01*
X19687527Y35779831D01*
X19674823Y35745652D01*
X19619832Y35670716D01*
X19582668Y35601647D01*
X19564182Y35553054D01*
X19548216Y35489318D01*
X19540313Y35411284D01*
X19543465Y35342714D01*
X19558554Y35265747D01*
X19582668Y35198353D01*
X19629099Y35115414D01*
X19692515Y35040719D01*
X19769284Y34979832D01*
X19856456Y34935091D01*
X19950682Y34908216D01*
X20048341Y34900241D01*
X20145679Y34911471D01*
X20241647Y34942668D01*
X20308228Y34978256D01*
X20363491Y35018972D01*
X20401311Y35054647D01*
X20449205Y35113006D01*
X20476816Y35157059D01*
X20505969Y35219204D01*
X20527884Y35291448D01*
X20536175Y35339792D01*
X20538170Y35440684D01*
X20528529Y35505679D01*
X20515818Y35553054D01*
X20475365Y35645503D01*
X20405177Y35745652D01*
X20390620Y35791886D01*
X20390000Y36230000D01*
X20395167Y36264834D01*
X20410224Y36296668D01*
X20443332Y36329776D01*
X20475166Y36344833D01*
X20498238Y36349422D01*
X20988527Y36350000D01*
X21045199Y36357896D01*
X21098587Y36382192D01*
X21133400Y36410761D01*
X21164870Y36453194D01*
X21185441Y36508124D01*
X21190000Y36551473D01*
X21189928Y38251471D01*
X21185441Y38291876D01*
X21167644Y38341616D01*
X21142624Y38379061D01*
X21103480Y38414539D01*
X21050831Y38440396D01*
X20988527Y38450000D01*
X19091473Y38450000D01*
X19048124Y38445441D01*
X18998384Y38427644D01*
X18960939Y38402624D01*
X18925461Y38363480D01*
X18899604Y38310831D01*
X18890000Y38248527D01*
X18890000Y36551473D01*
X18899604Y36489169D01*
X18922192Y36441413D01*
X18960939Y36397376D01*
X18998384Y36372356D01*
X19048124Y36354559D01*
X19091473Y36350000D01*
X19593411Y36347694D01*
G37*
%LPC*%
X15698527Y39100000D02*
G36*
X15736104Y39103411D01*
X15773763Y39114232D01*
X15808587Y39132192D01*
X15839239Y39156600D01*
X15877644Y39208384D01*
X15892104Y39244801D01*
X15899181Y39283339D01*
X15900000Y42223290D01*
X15905394Y42258863D01*
X15928394Y42300803D01*
X16414774Y42874631D01*
X16456398Y42900693D01*
X16553054Y42924182D01*
X16628229Y42955320D01*
X16708275Y43006578D01*
X16761311Y43054647D01*
X16809205Y43113006D01*
X16844680Y43171771D01*
X16874895Y43244150D01*
X16892287Y43313584D01*
X16899759Y43408341D01*
X16888529Y43505679D01*
X16858525Y43598955D01*
X16810901Y43684586D01*
X16747485Y43759281D01*
X16670716Y43820168D01*
X16583544Y43864909D01*
X16486416Y43892287D01*
X16437748Y43898387D01*
X16362252Y43898387D01*
X16310682Y43891784D01*
X16246946Y43875818D01*
X16198353Y43857332D01*
X16131772Y43821744D01*
X16076509Y43781028D01*
X16038689Y43745353D01*
X15979832Y43670716D01*
X15934031Y43580796D01*
X15907713Y43486416D01*
X15897834Y43371261D01*
X15879150Y43327228D01*
X15215929Y42542487D01*
X15189987Y42519560D01*
X15169502Y42508830D01*
X15124322Y42500000D01*
X12683339Y42499181D01*
X12620800Y42483516D01*
X12591413Y42467808D01*
X12560761Y42443400D01*
X12525130Y42396806D01*
X12503411Y42336104D01*
X12500000Y42298527D01*
X12500000Y39301473D01*
X12503411Y39263896D01*
X12514232Y39226237D01*
X12532192Y39191413D01*
X12556600Y39160761D01*
X12586520Y39135461D01*
X12620800Y39116484D01*
X12658124Y39104559D01*
X12701473Y39100000D01*
X15698527Y39100000D01*
G37*
%LPD*%
M02*
