G04 Top paste*
%FSLAX46Y46*%
%MOMM*%
%TF.GenerationSoftware,kerstkaart2026-gen2*%
G01*
%LPD*%
X24682578Y5548982D02*
G36*
X23982578Y5548982D01*
X23982578Y6248982D01*
X24682578Y6248982D01*
X24682578Y5548982D01*
G37*
%LPD*%
X13182892Y5549013D02*
G36*
X13182892Y6249013D01*
X13882892Y6249013D01*
X13882892Y5549013D01*
X13182892Y5549013D01*
G37*
%LPD*%
X12082892Y5549013D02*
G36*
X12082892Y6249013D01*
X12782892Y6249013D01*
X12782892Y5549013D01*
X12082892Y5549013D01*
G37*
%LPD*%
X8255000Y6600000D02*
G36*
X8955000Y6600000D01*
X8955000Y5900000D01*
X8255000Y5900000D01*
X8255000Y6600000D01*
G37*
%LPD*%
X20155000Y6600000D02*
G36*
X20855000Y6600000D01*
X20855000Y5900000D01*
X20155000Y5900000D01*
X20155000Y6600000D01*
G37*
%LPD*%
X21985000Y6600000D02*
G36*
X22685000Y6600000D01*
X22685000Y5900000D01*
X21985000Y5900000D01*
X21985000Y6600000D01*
G37*
%LPD*%
X10085000Y6600000D02*
G36*
X10785000Y6600000D01*
X10785000Y5900000D01*
X10085000Y5900000D01*
X10085000Y6600000D01*
G37*
%LPD*%
X8255000Y7000000D02*
G36*
X8255000Y7700000D01*
X8955000Y7700000D01*
X8955000Y7000000D01*
X8255000Y7000000D01*
G37*
%LPD*%
X20155000Y7700000D02*
G36*
X20855000Y7700000D01*
X20855000Y7000000D01*
X20155000Y7000000D01*
X20155000Y7700000D01*
G37*
%LPD*%
X10085000Y7700000D02*
G36*
X10785000Y7700000D01*
X10785000Y7000000D01*
X10085000Y7000000D01*
X10085000Y7700000D01*
G37*
%LPD*%
X21985000Y7700000D02*
G36*
X22685000Y7700000D01*
X22685000Y7000000D01*
X21985000Y7000000D01*
X21985000Y7700000D01*
G37*
%LPD*%
X23982578Y7378982D02*
G36*
X23982578Y8078982D01*
X24682578Y8078982D01*
X24682578Y7378982D01*
X23982578Y7378982D01*
G37*
%LPD*%
X13182892Y7379013D02*
G36*
X13182892Y8079013D01*
X13882892Y8079013D01*
X13882892Y7379013D01*
X13182892Y7379013D01*
G37*
%LPD*%
X12082892Y7379013D02*
G36*
X12082892Y8079013D01*
X12782892Y8079013D01*
X12782892Y7379013D01*
X12082892Y7379013D01*
G37*
%LPD*%
X9959223Y19827524D02*
G36*
X10659223Y19827524D01*
X10659223Y19127524D01*
X9959223Y19127524D01*
X9959223Y19827524D01*
G37*
%LPD*%
X9559223Y19827524D02*
G36*
X9559223Y19127524D01*
X8859223Y19127524D01*
X8859223Y19827524D01*
X9559223Y19827524D01*
G37*
%LPD*%
X21442320Y19828299D02*
G36*
X21442320Y19128299D01*
X20742320Y19128299D01*
X20742320Y19828299D01*
X21442320Y19828299D01*
G37*
%LPD*%
X22542320Y19828299D02*
G36*
X22542320Y19128299D01*
X21842320Y19128299D01*
X21842320Y19828299D01*
X22542320Y19828299D01*
G37*
%LPD*%
X13608705Y19135667D02*
G36*
X13608705Y19835667D01*
X14308705Y19835667D01*
X14308705Y19135667D01*
X13608705Y19135667D01*
G37*
%LPD*%
X12508705Y19135667D02*
G36*
X12508705Y19835667D01*
X13208705Y19835667D01*
X13208705Y19135667D01*
X12508705Y19135667D01*
G37*
%LPD*%
X23991577Y19576421D02*
G36*
X24259455Y20223137D01*
X24906171Y19955258D01*
X24638293Y19308543D01*
X23991577Y19576421D01*
G37*
%LPD*%
X9959223Y21657524D02*
G36*
X10659223Y21657524D01*
X10659223Y20957524D01*
X9959223Y20957524D01*
X9959223Y21657524D01*
G37*
%LPD*%
X9559223Y21657524D02*
G36*
X9559223Y20957524D01*
X8859223Y20957524D01*
X8859223Y21657524D01*
X9559223Y21657524D01*
G37*
%LPD*%
X22542320Y21658299D02*
G36*
X22542320Y20958299D01*
X21842320Y20958299D01*
X21842320Y21658299D01*
X22542320Y21658299D01*
G37*
%LPD*%
X21442320Y21658299D02*
G36*
X21442320Y20958299D01*
X20742320Y20958299D01*
X20742320Y21658299D01*
X21442320Y21658299D01*
G37*
%LPD*%
X13608705Y20965667D02*
G36*
X13608705Y21665667D01*
X14308705Y21665667D01*
X14308705Y20965667D01*
X13608705Y20965667D01*
G37*
%LPD*%
X12508705Y20965667D02*
G36*
X12508705Y21665667D01*
X13208705Y21665667D01*
X13208705Y20965667D01*
X12508705Y20965667D01*
G37*
%LPD*%
X16160000Y29975000D02*
G36*
X16860000Y29975000D01*
X16860000Y29275000D01*
X16160000Y29275000D01*
X16160000Y29975000D01*
G37*
%LPD*%
X17990000Y29275000D02*
G36*
X17990000Y29975000D01*
X18690000Y29975000D01*
X18690000Y29275000D01*
X17990000Y29275000D01*
G37*
%LPD*%
X16160000Y31075000D02*
G36*
X16860000Y31075000D01*
X16860000Y30375000D01*
X16160000Y30375000D01*
X16160000Y31075000D01*
G37*
%LPD*%
X17990000Y31075000D02*
G36*
X18690000Y31075000D01*
X18690000Y30375000D01*
X17990000Y30375000D01*
X17990000Y31075000D01*
G37*
%LPD*%
X11717457Y35204567D02*
G36*
X11717457Y34504567D01*
X11017457Y34504567D01*
X11017457Y35204567D01*
X11717457Y35204567D01*
G37*
%LPD*%
X10617457Y35204567D02*
G36*
X10617457Y34504567D01*
X9917457Y34504567D01*
X9917457Y35204567D01*
X10617457Y35204567D01*
G37*
%LPD*%
X11717457Y37034567D02*
G36*
X11717457Y36334567D01*
X11017457Y36334567D01*
X11017457Y37034567D01*
X11717457Y37034567D01*
G37*
%LPD*%
X10617457Y37034567D02*
G36*
X10617457Y36334567D01*
X9917457Y36334567D01*
X9917457Y37034567D01*
X10617457Y37034567D01*
G37*
%LPD*%
X18075864Y44378403D02*
G36*
X18075864Y43678403D01*
X17375864Y43678403D01*
X17375864Y44378403D01*
X18075864Y44378403D01*
G37*
%LPD*%
X16245864Y43678403D02*
G36*
X15545864Y43678403D01*
X15545864Y44378403D01*
X16245864Y44378403D01*
X16245864Y43678403D01*
G37*
%LPD*%
X5131440Y44876471D02*
G36*
X5399319Y44229756D01*
X4752603Y43961877D01*
X4484725Y44608593D01*
X5131440Y44876471D01*
G37*
%LPD*%
X6147708Y45297423D02*
G36*
X6415586Y44650707D01*
X5768870Y44382829D01*
X5500992Y45029545D01*
X6147708Y45297423D01*
G37*
%LPD*%
X23622423Y44852292D02*
G36*
X22975707Y44584414D01*
X22707829Y45231130D01*
X23354545Y45499008D01*
X23622423Y44852292D01*
G37*
%LPD*%
X18075864Y44778403D02*
G36*
X17375864Y44778403D01*
X17375864Y45478403D01*
X18075864Y45478403D01*
X18075864Y44778403D01*
G37*
%LPD*%
X16245864Y44778403D02*
G36*
X15545864Y44778403D01*
X15545864Y45478403D01*
X16245864Y45478403D01*
X16245864Y44778403D01*
G37*
%LPD*%
X25045244Y46199319D02*
G36*
X25313123Y45552603D01*
X24666407Y45284725D01*
X24398529Y45931440D01*
X25045244Y46199319D01*
G37*
%LPD*%
X23201471Y45868560D02*
G36*
X22554756Y45600681D01*
X22286877Y46247397D01*
X22933593Y46515275D01*
X23201471Y45868560D01*
G37*
%LPD*%
X4431130Y46567171D02*
G36*
X4699008Y45920455D01*
X4052292Y45652577D01*
X3784414Y46299293D01*
X4431130Y46567171D01*
G37*
%LPD*%
X5447397Y46988123D02*
G36*
X5715275Y46341407D01*
X5068560Y46073529D01*
X4800681Y46720244D01*
X5447397Y46988123D01*
G37*
%LPD*%
X24892171Y46568870D02*
G36*
X24245455Y46300992D01*
X23977577Y46947708D01*
X24624293Y47215586D01*
X24892171Y46568870D01*
G37*
%LPD*%
X25082578Y5548982D02*
G36*
X25082578Y6248982D01*
X25782578Y6248982D01*
X25782578Y5548982D01*
X25082578Y5548982D01*
G37*
%LPD*%
X25082578Y7378982D02*
G36*
X25082578Y8078982D01*
X25782578Y8078982D01*
X25782578Y7378982D01*
X25082578Y7378982D01*
G37*
%LPD*%
X25007845Y19155469D02*
G36*
X25275723Y19802185D01*
X25922439Y19534307D01*
X25654560Y18887591D01*
X25007845Y19155469D01*
G37*
%LPD*%
X25708155Y20846169D02*
G36*
X25976034Y21492885D01*
X26622749Y21225006D01*
X26354871Y20578290D01*
X25708155Y20846169D01*
G37*
%LPD*%
X24691888Y21267121D02*
G36*
X24959766Y21913836D01*
X25606482Y21645958D01*
X25338603Y20999242D01*
X24691888Y21267121D01*
G37*
%LPD*%
X27212462Y25640215D02*
G36*
X27707437Y26135189D01*
X28202412Y25640215D01*
X27707437Y25145240D01*
X27212462Y25640215D01*
G37*
%LPD*%
X26434645Y26418032D02*
G36*
X26929620Y26913007D01*
X27424594Y26418032D01*
X26929620Y25923057D01*
X26434645Y26418032D01*
G37*
%LPD*%
X37803081Y27225823D02*
G36*
X38449796Y26957944D01*
X38181918Y26311229D01*
X37535202Y26579107D01*
X37803081Y27225823D01*
G37*
%LPD*%
X28506468Y26934220D02*
G36*
X29001443Y27429195D01*
X29496417Y26934220D01*
X29001443Y26439245D01*
X28506468Y26934220D01*
G37*
%LPD*%
X27728650Y27712037D02*
G36*
X28223625Y28207012D01*
X28718600Y27712037D01*
X28223625Y27217063D01*
X27728650Y27712037D01*
G37*
%LPD*%
X38500000Y30400000D02*
G36*
X38500000Y29650000D01*
X37500000Y29650000D01*
X37500000Y30400000D01*
X38500000Y30400000D01*
G37*
%LPD*%
X32500000Y29650000D02*
G36*
X31500000Y29650000D01*
X31500000Y30400000D01*
X32500000Y30400000D01*
X32500000Y29650000D01*
G37*
%LPD*%
X32500000Y33400000D02*
G36*
X31500000Y33400000D01*
X31500000Y34150000D01*
X32500000Y34150000D01*
X32500000Y33400000D01*
G37*
%LPD*%
X38500000Y33400000D02*
G36*
X37500000Y33400000D01*
X37500000Y34150000D01*
X38500000Y34150000D01*
X38500000Y33400000D01*
G37*
%LPD*%
X34700000Y36950000D02*
G36*
X34500000Y36950000D01*
X34500000Y37750000D01*
X34700000Y37750000D01*
X34700000Y36950000D01*
G37*
%LPD*%
X35900000Y36950000D02*
G36*
X35700000Y36950000D01*
X35700000Y37750000D01*
X35900000Y37750000D01*
X35900000Y36950000D01*
G37*
%LPD*%
X35500000Y36950000D02*
G36*
X35300000Y36950000D01*
X35300000Y37750000D01*
X35500000Y37750000D01*
X35500000Y36950000D01*
G37*
%LPD*%
X35100000Y37750000D02*
G36*
X35100000Y36950000D01*
X34900000Y36950000D01*
X34900000Y37750000D01*
X35100000Y37750000D01*
G37*
%LPD*%
X34300000Y36950000D02*
G36*
X34100000Y36950000D01*
X34100000Y37750000D01*
X34300000Y37750000D01*
X34300000Y36950000D01*
G37*
%LPD*%
X36850000Y37900000D02*
G36*
X36050000Y37900000D01*
X36050000Y38100000D01*
X36850000Y38100000D01*
X36850000Y37900000D01*
G37*
%LPD*%
X33950000Y37900000D02*
G36*
X33150000Y37900000D01*
X33150000Y38100000D01*
X33950000Y38100000D01*
X33950000Y37900000D01*
G37*
%LPD*%
X29875000Y37925000D02*
G36*
X28975000Y37925000D01*
X28975000Y38875000D01*
X29875000Y38875000D01*
X29875000Y37925000D01*
G37*
%LPD*%
X33950000Y38500000D02*
G36*
X33950000Y38300000D01*
X33150000Y38300000D01*
X33150000Y38500000D01*
X33950000Y38500000D01*
G37*
%LPD*%
X31425000Y37925000D02*
G36*
X30525000Y37925000D01*
X30525000Y38875000D01*
X31425000Y38875000D01*
X31425000Y37925000D01*
G37*
%LPD*%
X36850000Y38300000D02*
G36*
X36050000Y38300000D01*
X36050000Y38500000D01*
X36850000Y38500000D01*
X36850000Y38300000D01*
G37*
%LPD*%
X33950000Y38700000D02*
G36*
X33150000Y38700000D01*
X33150000Y38900000D01*
X33950000Y38900000D01*
X33950000Y38700000D01*
G37*
%LPD*%
X36850000Y38700000D02*
G36*
X36050000Y38700000D01*
X36050000Y38900000D01*
X36850000Y38900000D01*
X36850000Y38700000D01*
G37*
%LPD*%
X35850000Y37950000D02*
G36*
X34150000Y37950000D01*
X34150000Y39650000D01*
X35850000Y39650000D01*
X35850000Y37950000D01*
G37*
%LPD*%
X33950000Y39100000D02*
G36*
X33150000Y39100000D01*
X33150000Y39300000D01*
X33950000Y39300000D01*
X33950000Y39100000D01*
G37*
%LPD*%
X36850000Y39100000D02*
G36*
X36050000Y39100000D01*
X36050000Y39300000D01*
X36850000Y39300000D01*
X36850000Y39100000D01*
G37*
%LPD*%
X36850000Y39500000D02*
G36*
X36050000Y39500000D01*
X36050000Y39700000D01*
X36850000Y39700000D01*
X36850000Y39500000D01*
G37*
%LPD*%
X33950000Y39500000D02*
G36*
X33150000Y39500000D01*
X33150000Y39700000D01*
X33950000Y39700000D01*
X33950000Y39500000D01*
G37*
%LPD*%
X35100000Y39850000D02*
G36*
X34900000Y39850000D01*
X34900000Y40650000D01*
X35100000Y40650000D01*
X35100000Y39850000D01*
G37*
%LPD*%
X35500000Y39850000D02*
G36*
X35300000Y39850000D01*
X35300000Y40650000D01*
X35500000Y40650000D01*
X35500000Y39850000D01*
G37*
%LPD*%
X35900000Y39850000D02*
G36*
X35700000Y39850000D01*
X35700000Y40650000D01*
X35900000Y40650000D01*
X35900000Y39850000D01*
G37*
%LPD*%
X34700000Y40650000D02*
G36*
X34700000Y39850000D01*
X34500000Y39850000D01*
X34500000Y40650000D01*
X34700000Y40650000D01*
G37*
%LPD*%
X34300000Y39850000D02*
G36*
X34100000Y39850000D01*
X34100000Y40650000D01*
X34300000Y40650000D01*
X34300000Y39850000D01*
G37*
%LPD*%
X35075000Y42275000D02*
G36*
X35075000Y41475000D01*
X34125000Y41475000D01*
X34125000Y42275000D01*
X35075000Y42275000D01*
G37*
%LPD*%
X35075000Y43925000D02*
G36*
X35075000Y43125000D01*
X34125000Y43125000D01*
X34125000Y43925000D01*
X35075000Y43925000D01*
G37*
%LPD*%
X33565000Y46275000D02*
G36*
X32865000Y46275000D01*
X32865000Y46975000D01*
X33565000Y46975000D01*
X33565000Y46275000D01*
G37*
%LPD*%
X31735000Y46275000D02*
G36*
X31035000Y46275000D01*
X31035000Y46975000D01*
X31735000Y46975000D01*
X31735000Y46275000D01*
G37*
%LPD*%
X33565000Y47375000D02*
G36*
X32865000Y47375000D01*
X32865000Y48075000D01*
X33565000Y48075000D01*
X33565000Y47375000D01*
G37*
%LPD*%
X31735000Y48075000D02*
G36*
X31735000Y47375000D01*
X31035000Y47375000D01*
X31035000Y48075000D01*
X31735000Y48075000D01*
G37*
%LPD*%
X46084448Y5555212D02*
G36*
X46084448Y6255212D01*
X46784448Y6255212D01*
X46784448Y5555212D01*
X46084448Y5555212D01*
G37*
%LPD*%
X47184448Y5555212D02*
G36*
X47184448Y6255212D01*
X47884448Y6255212D01*
X47884448Y5555212D01*
X47184448Y5555212D01*
G37*
%LPD*%
X44340000Y6600000D02*
G36*
X45040000Y6600000D01*
X45040000Y5900000D01*
X44340000Y5900000D01*
X44340000Y6600000D01*
G37*
%LPD*%
X42510000Y6600000D02*
G36*
X43210000Y6600000D01*
X43210000Y5900000D01*
X42510000Y5900000D01*
X42510000Y6600000D01*
G37*
%LPD*%
X53750827Y6606079D02*
G36*
X54450827Y6606079D01*
X54450827Y5906079D01*
X53750827Y5906079D01*
X53750827Y6606079D01*
G37*
%LPD*%
X55580827Y6606079D02*
G36*
X56280827Y6606079D01*
X56280827Y5906079D01*
X55580827Y5906079D01*
X55580827Y6606079D01*
G37*
%LPD*%
X42510000Y7000000D02*
G36*
X42510000Y7700000D01*
X43210000Y7700000D01*
X43210000Y7000000D01*
X42510000Y7000000D01*
G37*
%LPD*%
X44340000Y7700000D02*
G36*
X45040000Y7700000D01*
X45040000Y7000000D01*
X44340000Y7000000D01*
X44340000Y7700000D01*
G37*
%LPD*%
X55580827Y7706079D02*
G36*
X56280827Y7706079D01*
X56280827Y7006079D01*
X55580827Y7006079D01*
X55580827Y7706079D01*
G37*
%LPD*%
X53750827Y7706079D02*
G36*
X54450827Y7706079D01*
X54450827Y7006079D01*
X53750827Y7006079D01*
X53750827Y7706079D01*
G37*
%LPD*%
X47184448Y7385212D02*
G36*
X47184448Y8085212D01*
X47884448Y8085212D01*
X47884448Y7385212D01*
X47184448Y7385212D01*
G37*
%LPD*%
X46084448Y7385212D02*
G36*
X46084448Y8085212D01*
X46784448Y8085212D01*
X46784448Y7385212D01*
X46084448Y7385212D01*
G37*
%LPD*%
X47300681Y19154756D02*
G36*
X47568560Y19801471D01*
X48215275Y19533593D01*
X47947397Y18886877D01*
X47300681Y19154756D01*
G37*
%LPD*%
X54856440Y19801471D02*
G36*
X55124319Y19154756D01*
X54477603Y18886877D01*
X54209725Y19533593D01*
X54856440Y19801471D01*
G37*
%LPD*%
X43575000Y19835000D02*
G36*
X43575000Y19135000D01*
X42875000Y19135000D01*
X42875000Y19835000D01*
X43575000Y19835000D01*
G37*
%LPD*%
X44675000Y19835000D02*
G36*
X44675000Y19135000D01*
X43975000Y19135000D01*
X43975000Y19835000D01*
X44675000Y19835000D01*
G37*
%LPD*%
X55872708Y20222423D02*
G36*
X56140586Y19575707D01*
X55493870Y19307829D01*
X55225992Y19954545D01*
X55872708Y20222423D01*
G37*
%LPD*%
X46284414Y19575707D02*
G36*
X46552292Y20222423D01*
X47199008Y19954545D01*
X46931130Y19307829D01*
X46284414Y19575707D01*
G37*
%LPD*%
X48000992Y20845455D02*
G36*
X48268870Y21492171D01*
X48915586Y21224293D01*
X48647708Y20577577D01*
X48000992Y20845455D01*
G37*
%LPD*%
X54156130Y21492171D02*
G36*
X54424008Y20845455D01*
X53777292Y20577577D01*
X53509414Y21224293D01*
X54156130Y21492171D01*
G37*
%LPD*%
X44675000Y21665000D02*
G36*
X44675000Y20965000D01*
X43975000Y20965000D01*
X43975000Y21665000D01*
X44675000Y21665000D01*
G37*
%LPD*%
X42875000Y21665000D02*
G36*
X43575000Y21665000D01*
X43575000Y20965000D01*
X42875000Y20965000D01*
X42875000Y21665000D01*
G37*
%LPD*%
X46984725Y21266407D02*
G36*
X47252603Y21913123D01*
X47899319Y21645244D01*
X47631440Y20998529D01*
X46984725Y21266407D01*
G37*
%LPD*%
X55172397Y21913123D02*
G36*
X55440275Y21266407D01*
X54793560Y20998529D01*
X54525681Y21645244D01*
X55172397Y21913123D01*
G37*
%LPD*%
X39493780Y26525512D02*
G36*
X40140496Y26257634D01*
X39872617Y25610918D01*
X39225902Y25878797D01*
X39493780Y26525512D01*
G37*
%LPD*%
X39914732Y27541780D02*
G36*
X40561447Y27273901D01*
X40293569Y26627186D01*
X39646853Y26895064D01*
X39914732Y27541780D01*
G37*
%LPD*%
X38224032Y28242090D02*
G36*
X38870748Y27974212D01*
X38602870Y27327496D01*
X37956154Y27595375D01*
X38224032Y28242090D01*
G37*
%LPD*%
X56040040Y35567547D02*
G36*
X56307919Y36214263D01*
X56954635Y35946385D01*
X56686756Y35299669D01*
X56040040Y35567547D01*
G37*
%LPD*%
X57387067Y36990369D02*
G36*
X56740351Y37258247D01*
X57008230Y37904963D01*
X57654945Y37637084D01*
X57387067Y36990369D01*
G37*
%LPD*%
X39300000Y39125000D02*
G36*
X38500000Y39125000D01*
X38500000Y40075000D01*
X39300000Y40075000D01*
X39300000Y39125000D01*
G37*
%LPD*%
X40950000Y39125000D02*
G36*
X40150000Y39125000D01*
X40150000Y40075000D01*
X40950000Y40075000D01*
X40950000Y39125000D01*
G37*
%LPD*%
X48272423Y43577292D02*
G36*
X47625707Y43309414D01*
X47357829Y43956130D01*
X48004545Y44224008D01*
X48272423Y43577292D01*
G37*
%LPD*%
X49963123Y44277603D02*
G36*
X49316407Y44009725D01*
X49048529Y44656440D01*
X49695244Y44924319D01*
X49963123Y44277603D01*
G37*
%LPD*%
X47851471Y44593560D02*
G36*
X47204756Y44325681D01*
X46936877Y44972397D01*
X47583593Y45240275D01*
X47851471Y44593560D01*
G37*
%LPD*%
X49542171Y45293870D02*
G36*
X48895455Y45025992D01*
X48627577Y45672708D01*
X49274293Y45940586D01*
X49542171Y45293870D01*
G37*
%LPD*%
X42065000Y46975000D02*
G36*
X42065000Y46275000D01*
X41365000Y46275000D01*
X41365000Y46975000D01*
X42065000Y46975000D01*
G37*
%LPD*%
X40235000Y46275000D02*
G36*
X39535000Y46275000D01*
X39535000Y46975000D01*
X40235000Y46975000D01*
X40235000Y46275000D01*
G37*
%LPD*%
X42065000Y47375000D02*
G36*
X41365000Y47375000D01*
X41365000Y48075000D01*
X42065000Y48075000D01*
X42065000Y47375000D01*
G37*
%LPD*%
X40235000Y47375000D02*
G36*
X39535000Y47375000D01*
X39535000Y48075000D01*
X40235000Y48075000D01*
X40235000Y47375000D01*
G37*
%LPD*%
X55486881Y49114089D02*
G36*
X54991906Y48619114D01*
X54496931Y49114089D01*
X54991906Y49609063D01*
X55486881Y49114089D01*
G37*
%LPD*%
X54709063Y49891906D02*
G36*
X54214089Y49396931D01*
X53719114Y49891906D01*
X54214089Y50386881D01*
X54709063Y49891906D01*
G37*
%LPD*%
X56780886Y50408094D02*
G36*
X56285911Y49913119D01*
X55790937Y50408094D01*
X56285911Y50903069D01*
X56780886Y50408094D01*
G37*
%LPD*%
X56003069Y51185911D02*
G36*
X55508094Y50690937D01*
X55013119Y51185911D01*
X55508094Y51680886D01*
X56003069Y51185911D01*
G37*
%LPD*%
X55270455Y79924008D02*
G36*
X55917171Y79656130D01*
X55649293Y79009414D01*
X55002577Y79277292D01*
X55270455Y79924008D01*
G37*
%LPD*%
X53579756Y80624319D02*
G36*
X54226471Y80356440D01*
X53958593Y79709725D01*
X53311877Y79977603D01*
X53579756Y80624319D01*
G37*
%LPD*%
X55691407Y80940275D02*
G36*
X56338123Y80672397D01*
X56070244Y80025681D01*
X55423529Y80293560D01*
X55691407Y80940275D01*
G37*
%LPD*%
X54000707Y81640586D02*
G36*
X54647423Y81372708D01*
X54379545Y80725992D01*
X53732829Y80993870D01*
X54000707Y81640586D01*
G37*
%LPD*%
X57750000Y5535000D02*
G36*
X57750000Y6235000D01*
X58450000Y6235000D01*
X58450000Y5535000D01*
X57750000Y5535000D01*
G37*
%LPD*%
X58850000Y5535000D02*
G36*
X58850000Y6235000D01*
X59550000Y6235000D01*
X59550000Y5535000D01*
X58850000Y5535000D01*
G37*
%LPD*%
X57750000Y7365000D02*
G36*
X57750000Y8065000D01*
X58450000Y8065000D01*
X58450000Y7365000D01*
X57750000Y7365000D01*
G37*
%LPD*%
X59550000Y7365000D02*
G36*
X58850000Y7365000D01*
X58850000Y8065000D01*
X59550000Y8065000D01*
X59550000Y7365000D01*
G37*
%LPD*%
X57340168Y19122223D02*
G36*
X57340168Y19822223D01*
X58040168Y19822223D01*
X58040168Y19122223D01*
X57340168Y19122223D01*
G37*
%LPD*%
X58440168Y19122223D02*
G36*
X58440168Y19822223D01*
X59140168Y19822223D01*
X59140168Y19122223D01*
X58440168Y19122223D01*
G37*
%LPD*%
X57340168Y20952223D02*
G36*
X57340168Y21652223D01*
X58040168Y21652223D01*
X58040168Y20952223D01*
X57340168Y20952223D01*
G37*
%LPD*%
X58440168Y20952223D02*
G36*
X58440168Y21652223D01*
X59140168Y21652223D01*
X59140168Y20952223D01*
X58440168Y20952223D01*
G37*
%LPD*%
X57056308Y35146596D02*
G36*
X57324186Y35793311D01*
X57970902Y35525433D01*
X57703024Y34878717D01*
X57056308Y35146596D01*
G37*
%LPD*%
X57756619Y36837295D02*
G36*
X58024497Y37484011D01*
X58671213Y37216132D01*
X58403334Y36569417D01*
X57756619Y36837295D01*
G37*
%LPD*%
X61841768Y43168053D02*
G36*
X61346794Y43663027D01*
X61841768Y44158002D01*
X62336743Y43663027D01*
X61841768Y43168053D01*
G37*
%LPD*%
X60568976Y44440845D02*
G36*
X61063951Y44935820D01*
X61558926Y44440845D01*
X61063951Y43945870D01*
X60568976Y44440845D01*
G37*
%LPD*%
X62640799Y44957033D02*
G36*
X63135774Y45452008D01*
X63630749Y44957033D01*
X63135774Y44462058D01*
X62640799Y44957033D01*
G37*
%LPD*%
X61862982Y45734850D02*
G36*
X62357956Y46229825D01*
X62852931Y45734850D01*
X62357956Y45239876D01*
X61862982Y45734850D01*
G37*
%LPD*%
X67175561Y50028876D02*
G36*
X67443439Y50675592D01*
X68090155Y50407714D01*
X67822276Y49760998D01*
X67175561Y50028876D01*
G37*
%LPD*%
X66159293Y50449828D02*
G36*
X66427172Y51096544D01*
X67073887Y50828665D01*
X66806009Y50181950D01*
X66159293Y50449828D01*
G37*
%LPD*%
X67875871Y51719576D02*
G36*
X68143750Y52366291D01*
X68790465Y52098413D01*
X68522587Y51451697D01*
X67875871Y51719576D01*
G37*
%LPD*%
X67506320Y51872649D02*
G36*
X66859604Y52140528D01*
X67127482Y52787243D01*
X67774198Y52519365D01*
X67506320Y51872649D01*
G37*
%LPD*%
X62286881Y56764089D02*
G36*
X61791906Y56269114D01*
X61296931Y56764089D01*
X61791906Y57259063D01*
X62286881Y56764089D01*
G37*
%LPD*%
X74713052Y57346492D02*
G36*
X75359768Y57078614D01*
X75091890Y56431898D01*
X74445174Y56699776D01*
X74713052Y57346492D01*
G37*
%LPD*%
X61509063Y57541906D02*
G36*
X61014089Y57046931D01*
X60519114Y57541906D01*
X61014089Y58036881D01*
X61509063Y57541906D01*
G37*
%LPD*%
X75134004Y58362759D02*
G36*
X75780720Y58094881D01*
X75512841Y57448165D01*
X74866126Y57716044D01*
X75134004Y58362759D01*
G37*
%LPD*%
X63580886Y58058094D02*
G36*
X63085911Y57563119D01*
X62590937Y58058094D01*
X63085911Y58553069D01*
X63580886Y58058094D01*
G37*
%LPD*%
X62803069Y58835911D02*
G36*
X62308094Y58340937D01*
X61813119Y58835911D01*
X62308094Y59330886D01*
X62803069Y58835911D01*
G37*
%LPD*%
X67833134Y72416655D02*
G36*
X67565256Y73063370D01*
X68211971Y73331249D01*
X68479850Y72684533D01*
X67833134Y72416655D01*
G37*
%LPD*%
X76925980Y73066861D02*
G36*
X76658101Y72420145D01*
X76011385Y72688024D01*
X76279264Y73334740D01*
X76925980Y73066861D01*
G37*
%LPD*%
X68849402Y72837606D02*
G36*
X68581523Y73484322D01*
X69228239Y73752201D01*
X69496117Y73105485D01*
X68849402Y72837606D01*
G37*
%LPD*%
X75909712Y73487813D02*
G36*
X75641834Y72841097D01*
X74995118Y73108976D01*
X75262996Y73755691D01*
X75909712Y73487813D01*
G37*
%LPD*%
X67132823Y74107354D02*
G36*
X66864945Y74754070D01*
X67511661Y75021948D01*
X67779539Y74375233D01*
X67132823Y74107354D01*
G37*
%LPD*%
X68149091Y74528306D02*
G36*
X67881213Y75175022D01*
X68527928Y75442900D01*
X68795807Y74796184D01*
X68149091Y74528306D01*
G37*
%LPD*%
X76610023Y75178512D02*
G36*
X76342144Y74531797D01*
X75695429Y74799675D01*
X75963307Y75446391D01*
X76610023Y75178512D01*
G37*
%LPD*%
X62741612Y76304977D02*
G36*
X62741612Y75604977D01*
X62041612Y75604977D01*
X62041612Y76304977D01*
X62741612Y76304977D01*
G37*
%LPD*%
X63141612Y76304977D02*
G36*
X63841612Y76304977D01*
X63841612Y75604977D01*
X63141612Y75604977D01*
X63141612Y76304977D01*
G37*
%LPD*%
X62741612Y78134977D02*
G36*
X62741612Y77434977D01*
X62041612Y77434977D01*
X62041612Y78134977D01*
X62741612Y78134977D01*
G37*
%LPD*%
X63841612Y78134977D02*
G36*
X63841612Y77434977D01*
X63141612Y77434977D01*
X63141612Y78134977D01*
X63841612Y78134977D01*
G37*
%LPD*%
X64507603Y79831877D02*
G36*
X64239725Y80478593D01*
X64886440Y80746471D01*
X65154319Y80099756D01*
X64507603Y79831877D01*
G37*
%LPD*%
X65523870Y80252829D02*
G36*
X65255992Y80899545D01*
X65902708Y81167423D01*
X66170586Y80520707D01*
X65523870Y80252829D01*
G37*
%LPD*%
X63807292Y81522577D02*
G36*
X63539414Y82169293D01*
X64186130Y82437171D01*
X64454008Y81790455D01*
X63807292Y81522577D01*
G37*
%LPD*%
X64823560Y81943529D02*
G36*
X64555681Y82590244D01*
X65202397Y82858123D01*
X65470275Y82211407D01*
X64823560Y81943529D01*
G37*
%LPD*%
X58221906Y84714063D02*
G36*
X58716881Y84219089D01*
X58221906Y83724114D01*
X57726931Y84219089D01*
X58221906Y84714063D01*
G37*
%LPD*%
X57939063Y84996906D02*
G36*
X57444089Y84501931D01*
X56949114Y84996906D01*
X57444089Y85491881D01*
X57939063Y84996906D01*
G37*
%LPD*%
X60010886Y85513094D02*
G36*
X59515911Y85018119D01*
X59020937Y85513094D01*
X59515911Y86008069D01*
X60010886Y85513094D01*
G37*
%LPD*%
X59233069Y86290911D02*
G36*
X58738094Y85795937D01*
X58243119Y86290911D01*
X58738094Y86785886D01*
X59233069Y86290911D01*
G37*
%LPD*%
X62240275Y91783593D02*
G36*
X61972397Y91136877D01*
X61325681Y91404756D01*
X61593560Y92051471D01*
X62240275Y91783593D01*
G37*
%LPD*%
X61224008Y92204545D02*
G36*
X60956130Y91557829D01*
X60309414Y91825707D01*
X60577292Y92472423D01*
X61224008Y92204545D01*
G37*
%LPD*%
X62940586Y93474293D02*
G36*
X62672708Y92827577D01*
X62025992Y93095455D01*
X62293870Y93742171D01*
X62940586Y93474293D01*
G37*
%LPD*%
X61277603Y94163123D02*
G36*
X61924319Y93895244D01*
X61656440Y93248529D01*
X61009725Y93516407D01*
X61277603Y94163123D01*
G37*
%LPD*%
X84540653Y54866596D02*
G36*
X85240653Y54866596D01*
X85240653Y54166596D01*
X84540653Y54166596D01*
X84540653Y54866596D01*
G37*
%LPD*%
X82710653Y54866596D02*
G36*
X83410653Y54866596D01*
X83410653Y54166596D01*
X82710653Y54166596D01*
X82710653Y54866596D01*
G37*
%LPD*%
X90358094Y54569114D02*
G36*
X89863119Y55064089D01*
X90358094Y55559063D01*
X90853069Y55064089D01*
X90358094Y54569114D01*
G37*
%LPD*%
X84540653Y55966596D02*
G36*
X85240653Y55966596D01*
X85240653Y55266596D01*
X84540653Y55266596D01*
X84540653Y55966596D01*
G37*
%LPD*%
X82710653Y55966596D02*
G36*
X83410653Y55966596D01*
X83410653Y55266596D01*
X82710653Y55266596D01*
X82710653Y55966596D01*
G37*
%LPD*%
X91135911Y55346931D02*
G36*
X90640937Y55841906D01*
X91135911Y56336881D01*
X91630886Y55841906D01*
X91135911Y55346931D01*
G37*
%LPD*%
X76403752Y56646181D02*
G36*
X77050467Y56378303D01*
X76782589Y55731587D01*
X76135873Y55999466D01*
X76403752Y56646181D01*
G37*
%LPD*%
X89064089Y55863119D02*
G36*
X88569114Y56358094D01*
X89064089Y56853069D01*
X89559063Y56358094D01*
X89064089Y55863119D01*
G37*
%LPD*%
X89841906Y56640937D02*
G36*
X89346931Y57135911D01*
X89841906Y57630886D01*
X90336881Y57135911D01*
X89841906Y56640937D01*
G37*
%LPD*%
X76824704Y57662449D02*
G36*
X77471419Y57394570D01*
X77203541Y56747855D01*
X76556825Y57015733D01*
X76824704Y57662449D01*
G37*
%LPD*%
X85824293Y59034414D02*
G36*
X85177577Y59302292D01*
X85445455Y59949008D01*
X86092171Y59681130D01*
X85824293Y59034414D01*
G37*
%LPD*%
X84133593Y59734725D02*
G36*
X83486877Y60002603D01*
X83754756Y60649319D01*
X84401471Y60381440D01*
X84133593Y59734725D01*
G37*
%LPD*%
X86245244Y60050681D02*
G36*
X85598529Y60318560D01*
X85866407Y60965275D01*
X86513123Y60697397D01*
X86245244Y60050681D01*
G37*
%LPD*%
X84554545Y60750992D02*
G36*
X83907829Y61018870D01*
X84175707Y61665586D01*
X84822423Y61397708D01*
X84554545Y60750992D01*
G37*
%LPD*%
X80992171Y61806130D02*
G36*
X80724293Y61159414D01*
X80077577Y61427292D01*
X80345455Y62074008D01*
X80992171Y61806130D01*
G37*
%LPD*%
X79033593Y61859725D02*
G36*
X78386877Y62127603D01*
X78654756Y62774319D01*
X79301471Y62506440D01*
X79033593Y61859725D01*
G37*
%LPD*%
X81145244Y62175681D02*
G36*
X80498529Y62443560D01*
X80766407Y63090275D01*
X81413123Y62822397D01*
X81145244Y62175681D01*
G37*
%LPD*%
X79454545Y62875992D02*
G36*
X78807829Y63143870D01*
X79075707Y63790586D01*
X79722423Y63522708D01*
X79454545Y62875992D01*
G37*
%LPD*%
X76875000Y65035000D02*
G36*
X76875000Y65735000D01*
X77575000Y65735000D01*
X77575000Y65035000D01*
X76875000Y65035000D01*
G37*
%LPD*%
X77975000Y65035000D02*
G36*
X77975000Y65735000D01*
X78675000Y65735000D01*
X78675000Y65035000D01*
X77975000Y65035000D01*
G37*
%LPD*%
X76875000Y66865000D02*
G36*
X76875000Y67565000D01*
X77575000Y67565000D01*
X77575000Y66865000D01*
X76875000Y66865000D01*
G37*
%LPD*%
X78675000Y66865000D02*
G36*
X77975000Y66865000D01*
X77975000Y67565000D01*
X78675000Y67565000D01*
X78675000Y66865000D01*
G37*
%LPD*%
X77626290Y74757561D02*
G36*
X77358412Y74110845D01*
X76711696Y74378723D01*
X76979575Y75025439D01*
X77626290Y74757561D01*
G37*
%LPD*%
X80466324Y76200895D02*
G36*
X81113040Y76468774D01*
X81380918Y75822058D01*
X80734203Y75554180D01*
X80466324Y76200895D01*
G37*
%LPD*%
X82157024Y76901206D02*
G36*
X82803740Y77169084D01*
X83071618Y76522369D01*
X82424902Y76254490D01*
X82157024Y76901206D01*
G37*
%LPD*%
X80045373Y77217163D02*
G36*
X80692088Y77485041D01*
X80959967Y76838326D01*
X80313251Y76570447D01*
X80045373Y77217163D01*
G37*
%LPD*%
X81736072Y77917474D02*
G36*
X82382788Y78185352D01*
X82650666Y77538636D01*
X82003951Y77270758D01*
X81736072Y77917474D01*
G37*
%LPD*%
X89933094Y78794114D02*
G36*
X89438119Y79289089D01*
X89933094Y79784063D01*
X90428069Y79289089D01*
X89933094Y78794114D01*
G37*
%LPD*%
X91205886Y80066906D02*
G36*
X90710911Y79571931D01*
X90215937Y80066906D01*
X90710911Y80561881D01*
X91205886Y80066906D01*
G37*
%LPD*%
X80260275Y80478593D02*
G36*
X79992397Y79831877D01*
X79345681Y80099756D01*
X79613560Y80746471D01*
X80260275Y80478593D01*
G37*
%LPD*%
X88639089Y80088119D02*
G36*
X88144114Y80583094D01*
X88639089Y81078069D01*
X89134063Y80583094D01*
X88639089Y80088119D01*
G37*
%LPD*%
X79244008Y80899545D02*
G36*
X78976130Y80252829D01*
X78329414Y80520707D01*
X78597292Y81167423D01*
X79244008Y80899545D01*
G37*
%LPD*%
X89416906Y80865937D02*
G36*
X88921931Y81360911D01*
X89416906Y81855886D01*
X89911881Y81360911D01*
X89416906Y80865937D01*
G37*
%LPD*%
X80960586Y82169293D02*
G36*
X80692708Y81522577D01*
X80045992Y81790455D01*
X80313870Y82437171D01*
X80960586Y82169293D01*
G37*
%LPD*%
X79944319Y82590244D02*
G36*
X79676440Y81943529D01*
X79029725Y82211407D01*
X79297603Y82858123D01*
X79944319Y82590244D01*
G37*
%LPD*%
X86278094Y83724114D02*
G36*
X85783119Y84219089D01*
X86278094Y84714063D01*
X86773069Y84219089D01*
X86278094Y83724114D01*
G37*
%LPD*%
X87055911Y84501931D02*
G36*
X86560937Y84996906D01*
X87055911Y85491881D01*
X87550886Y84996906D01*
X87055911Y84501931D01*
G37*
%LPD*%
X84984089Y85018119D02*
G36*
X84489114Y85513094D01*
X84984089Y86008069D01*
X85479063Y85513094D01*
X84984089Y85018119D01*
G37*
%LPD*%
X85761906Y85795937D02*
G36*
X85266931Y86290911D01*
X85761906Y86785886D01*
X86256881Y86290911D01*
X85761906Y85795937D01*
G37*
%LPD*%
X83490275Y91783593D02*
G36*
X83222397Y91136877D01*
X82575681Y91404756D01*
X82843560Y92051471D01*
X83490275Y91783593D01*
G37*
%LPD*%
X82474008Y92204545D02*
G36*
X82206130Y91557829D01*
X81559414Y91825707D01*
X81827292Y92472423D01*
X82474008Y92204545D01*
G37*
%LPD*%
X84190586Y93474293D02*
G36*
X83922708Y92827577D01*
X83275992Y93095455D01*
X83543870Y93742171D01*
X84190586Y93474293D01*
G37*
%LPD*%
X83174319Y93895244D02*
G36*
X82906440Y93248529D01*
X82259725Y93516407D01*
X82527603Y94163123D01*
X83174319Y93895244D01*
G37*
%LPD*%
M02*
