G04 Bottom mask openings*
%FSLAX46Y46*%
%MOMM*%
%TF.GenerationSoftware,kerstkaart2026-gen2*%
G01*
%LPD*%
X12695099Y34450241D02*
G36*
X12664645Y34464645D01*
X12653806Y34480866D01*
X12650000Y34500000D01*
X12650000Y37500000D01*
X12653806Y37519134D01*
X12664645Y37535355D01*
X12680866Y37546194D01*
X12700000Y37550000D01*
X15700000Y37550000D01*
X15719134Y37546194D01*
X15735355Y37535355D01*
X15746194Y37519134D01*
X15750000Y37500000D01*
X15750000Y34500000D01*
X15746194Y34480866D01*
X15735355Y34464645D01*
X15719134Y34453806D01*
X15700000Y34450000D01*
X12695099Y34450241D01*
G37*
%LPD*%
X19080245Y36500961D02*
G36*
X19051349Y36518280D01*
X19040000Y36550000D01*
X19040000Y38250000D01*
X19043806Y38269134D01*
X19054645Y38285355D01*
X19070866Y38296194D01*
X19090000Y38300000D01*
X20990000Y38300000D01*
X21009134Y38296194D01*
X21025355Y38285355D01*
X21036194Y38269134D01*
X21040000Y38250000D01*
X21040000Y36550000D01*
X21036194Y36530866D01*
X21025355Y36514645D01*
X21009134Y36503806D01*
X20990000Y36500000D01*
X19080245Y36500961D01*
G37*
%LPD*%
X16540245Y39100961D02*
G36*
X16511349Y39118280D01*
X16500000Y39150000D01*
X16500000Y40850000D01*
X16503806Y40869134D01*
X16514645Y40885355D01*
X16530866Y40896194D01*
X16550000Y40900000D01*
X18450000Y40900000D01*
X18469134Y40896194D01*
X18485355Y40885355D01*
X18496194Y40869134D01*
X18500000Y40850000D01*
X18500000Y39150000D01*
X18496194Y39130866D01*
X18485355Y39114645D01*
X18469134Y39103806D01*
X18450000Y39100000D01*
X16540245Y39100961D01*
G37*
%LPD*%
X19085099Y39100241D02*
G36*
X19054645Y39114645D01*
X19043806Y39130866D01*
X19040000Y39150000D01*
X19040000Y40850000D01*
X19043806Y40869134D01*
X19054645Y40885355D01*
X19070866Y40896194D01*
X19090000Y40900000D01*
X20990000Y40900000D01*
X21009134Y40896194D01*
X21025355Y40885355D01*
X21036194Y40869134D01*
X21040000Y40850000D01*
X21040000Y39150000D01*
X21036194Y39130866D01*
X21025355Y39114645D01*
X21009134Y39103806D01*
X20990000Y39100000D01*
X19085099Y39100241D01*
G37*
%LPD*%
X21620245Y39100961D02*
G36*
X21591349Y39118280D01*
X21580000Y39150000D01*
X21580000Y40850000D01*
X21583806Y40869134D01*
X21594645Y40885355D01*
X21610866Y40896194D01*
X21630000Y40900000D01*
X23530000Y40900000D01*
X23549134Y40896194D01*
X23565355Y40885355D01*
X23576194Y40869134D01*
X23580000Y40850000D01*
X23580000Y39150000D01*
X23576194Y39130866D01*
X23565355Y39114645D01*
X23549134Y39103806D01*
X23530000Y39100000D01*
X21620245Y39100961D01*
G37*
%LPD*%
X12690245Y39250961D02*
G36*
X12661349Y39268280D01*
X12650000Y39300000D01*
X12650000Y42300000D01*
X12653806Y42319134D01*
X12664645Y42335355D01*
X12680866Y42346194D01*
X12700000Y42350000D01*
X15700000Y42350000D01*
X15719134Y42346194D01*
X15735355Y42335355D01*
X15746194Y42319134D01*
X15750000Y42300000D01*
X15750000Y39300000D01*
X15746194Y39280866D01*
X15735355Y39264645D01*
X15719134Y39253806D01*
X15700000Y39250000D01*
X12690245Y39250961D01*
G37*
%LPD*%
M02*
