G04 Top silk*
%FSLAX46Y46*%
%MOMM*%
%TF.GenerationSoftware,kerstkaart2026-gen2*%
G01*
%LPD*%
X9772584Y7742583D02*
G36*
X9771153Y7771705D01*
X9780112Y7793334D01*
X9801716Y7812915D01*
X9824119Y7819711D01*
X10480000Y7820000D01*
X10502961Y7815433D01*
X10518064Y7806381D01*
X10535433Y7782961D01*
X10540000Y7760000D01*
X10540000Y7110000D01*
X10535433Y7087039D01*
X10526381Y7071936D01*
X10497417Y7052584D01*
X10462583Y7052584D01*
X10433619Y7071936D01*
X10421153Y7098295D01*
X10420000Y7700000D01*
X9824119Y7700289D01*
X9791936Y7713619D01*
X9772584Y7742583D01*
G37*
%LPD*%
X21670289Y7754119D02*
G36*
X21672584Y7777417D01*
X21683619Y7798064D01*
X21701716Y7812915D01*
X21724119Y7819711D01*
X22380000Y7820000D01*
X22402961Y7815433D01*
X22422426Y7802426D01*
X22435433Y7782961D01*
X22440000Y7760000D01*
X22440000Y7110000D01*
X22435433Y7087039D01*
X22422426Y7067574D01*
X22391705Y7051153D01*
X22362583Y7052584D01*
X22337574Y7067574D01*
X22321153Y7098295D01*
X22320000Y7700000D01*
X21724119Y7700289D01*
X21707039Y7704567D01*
X21687574Y7717574D01*
X21674567Y7737039D01*
X21670289Y7754119D01*
G37*
%LPD*%
X24028410Y7061147D02*
G36*
X24005112Y7063442D01*
X23984465Y7074478D01*
X23969614Y7092575D01*
X23962818Y7114977D01*
X23962529Y7770858D01*
X23967096Y7793819D01*
X23980103Y7813285D01*
X23999568Y7826291D01*
X24022529Y7830858D01*
X24672529Y7830858D01*
X24695490Y7826291D01*
X24714955Y7813285D01*
X24731376Y7782564D01*
X24729945Y7753441D01*
X24710593Y7724478D01*
X24684234Y7712011D01*
X24082529Y7710858D01*
X24082240Y7114977D01*
X24077962Y7097897D01*
X24064955Y7078432D01*
X24050813Y7067943D01*
X24028410Y7061147D01*
G37*
%LPD*%
X12128724Y7061169D02*
G36*
X12105426Y7063464D01*
X12084779Y7074499D01*
X12069928Y7092596D01*
X12063132Y7114999D01*
X12062843Y7770880D01*
X12067410Y7793841D01*
X12080416Y7813306D01*
X12099882Y7826313D01*
X12122843Y7830880D01*
X12772843Y7830880D01*
X12795804Y7826313D01*
X12815269Y7813306D01*
X12830259Y7788297D01*
X12830259Y7753463D01*
X12815269Y7728454D01*
X12784548Y7712033D01*
X12182843Y7710880D01*
X12182554Y7114999D01*
X12175758Y7092596D01*
X12165269Y7078454D01*
X12151127Y7067965D01*
X12128724Y7061169D01*
G37*
%LPD*%
X10613391Y20145359D02*
G36*
X10636689Y20143064D01*
X10657335Y20132028D01*
X10672187Y20113932D01*
X10678983Y20091529D01*
X10679272Y19435648D01*
X10674704Y19412687D01*
X10661698Y19393221D01*
X10642233Y19380215D01*
X10619272Y19375648D01*
X9969272Y19375648D01*
X9946311Y19380215D01*
X9926845Y19393221D01*
X9910425Y19423942D01*
X9911855Y19453065D01*
X9926845Y19478074D01*
X9957566Y19494495D01*
X10559272Y19495648D01*
X10559561Y20091529D01*
X10566356Y20113932D01*
X10576845Y20128074D01*
X10596311Y20141081D01*
X10613391Y20145359D01*
G37*
%LPD*%
X22496484Y20146023D02*
G36*
X22519782Y20143728D01*
X22540429Y20132692D01*
X22555280Y20114595D01*
X22562076Y20092193D01*
X22562365Y19436312D01*
X22557798Y19413351D01*
X22544791Y19393885D01*
X22525326Y19380879D01*
X22502365Y19376312D01*
X21852365Y19376312D01*
X21829404Y19380879D01*
X21809939Y19393885D01*
X21793518Y19424606D01*
X21794949Y19453729D01*
X21809939Y19478738D01*
X21840660Y19495159D01*
X22442365Y19496312D01*
X22442654Y20092193D01*
X22446932Y20109273D01*
X22459939Y20128738D01*
X22474081Y20139227D01*
X22496484Y20146023D01*
G37*
%LPD*%
X12475881Y20650289D02*
G36*
X12452583Y20652584D01*
X12431936Y20663619D01*
X12417085Y20681716D01*
X12410289Y20704119D01*
X12410000Y21360000D01*
X12414567Y21382961D01*
X12427574Y21402426D01*
X12447039Y21415433D01*
X12470000Y21420000D01*
X13120000Y21420000D01*
X13142961Y21415433D01*
X13162426Y21402426D01*
X13178847Y21371705D01*
X13177416Y21342583D01*
X13162426Y21317574D01*
X13131705Y21301153D01*
X12530000Y21300000D01*
X12529711Y20704119D01*
X12522915Y20681716D01*
X12512426Y20667574D01*
X12492961Y20654567D01*
X12475881Y20650289D01*
G37*
%LPD*%
X24381705Y20651153D02*
G36*
X24358295Y20651153D01*
X24331936Y20663619D01*
X24317085Y20681716D01*
X24310289Y20704119D01*
X24310000Y21360000D01*
X24314567Y21382961D01*
X24323619Y21398064D01*
X24347039Y21415433D01*
X24370000Y21420000D01*
X25020000Y21420000D01*
X25042961Y21415433D01*
X25058064Y21406381D01*
X25075433Y21382961D01*
X25078847Y21348295D01*
X25062426Y21317574D01*
X25031705Y21301153D01*
X24430000Y21300000D01*
X24429711Y20704119D01*
X24425433Y20687039D01*
X24412426Y20667574D01*
X24381705Y20651153D01*
G37*
%LPD*%
X35092423Y27517390D02*
G36*
X35094717Y27540689D01*
X35105753Y27561335D01*
X35123850Y27576187D01*
X35146253Y27582983D01*
X35802134Y27583271D01*
X35825095Y27578704D01*
X35844560Y27565698D01*
X35857567Y27546232D01*
X35862134Y27523271D01*
X35862134Y26873271D01*
X35857567Y26850310D01*
X35844560Y26830845D01*
X35813839Y26814424D01*
X35784717Y26815855D01*
X35759707Y26830845D01*
X35743287Y26861566D01*
X35742134Y27463271D01*
X35146253Y27463560D01*
X35123850Y27470356D01*
X35109707Y27480845D01*
X35099219Y27494988D01*
X35092423Y27517390D01*
G37*
%LPD*%
X28240893Y27533439D02*
G36*
X28243188Y27556737D01*
X28254224Y27577384D01*
X28272321Y27592236D01*
X28294723Y27599031D01*
X28950604Y27599320D01*
X28973565Y27594753D01*
X28993031Y27581747D01*
X29006037Y27562281D01*
X29010604Y27539320D01*
X29010604Y26889320D01*
X29006037Y26866359D01*
X28993031Y26846894D01*
X28962310Y26830473D01*
X28933187Y26831904D01*
X28908178Y26846894D01*
X28891757Y26877615D01*
X28890604Y27479320D01*
X28294723Y27479609D01*
X28277643Y27483888D01*
X28258178Y27496894D01*
X28247689Y27511037D01*
X28240893Y27533439D01*
G37*
%LPD*%
X31764571Y28657995D02*
G36*
X31182663Y29043122D01*
X30600756Y28657995D01*
X30787214Y29330433D01*
X30241118Y29764849D01*
X30938262Y29795311D01*
X31182663Y30448922D01*
X31427065Y29795311D01*
X32124209Y29764849D01*
X31578113Y29330433D01*
X31764571Y28657995D01*
G37*
%LPD*%
X17675289Y31129119D02*
G36*
X17677584Y31152417D01*
X17688619Y31173064D01*
X17706716Y31187915D01*
X17729119Y31194711D01*
X18385000Y31195000D01*
X18407961Y31190433D01*
X18427426Y31177426D01*
X18440433Y31157961D01*
X18445000Y31135000D01*
X18445000Y30485000D01*
X18440433Y30462039D01*
X18427426Y30442574D01*
X18396705Y30426153D01*
X18367583Y30427584D01*
X18342574Y30442574D01*
X18326153Y30473295D01*
X18325000Y31075000D01*
X17729119Y31075289D01*
X17712039Y31079567D01*
X17692574Y31092574D01*
X17682085Y31106716D01*
X17675289Y31129119D01*
G37*
%LPD*%
X23042583Y34882584D02*
G36*
X23021936Y34893619D01*
X23010112Y34906666D01*
X23001153Y34928295D01*
X23000289Y34945881D01*
X23007085Y34968284D01*
X23021936Y34986381D01*
X23042583Y34997416D01*
X23060000Y35000000D01*
X26786032Y35000000D01*
X26825210Y35104774D01*
X26864387Y35000000D01*
X27250000Y35000000D01*
X27250000Y35900000D01*
X25710000Y35900000D01*
X25681716Y35907085D01*
X25660112Y35926666D01*
X25650000Y35960000D01*
X25650000Y37240000D01*
X25654567Y37262961D01*
X25667574Y37282426D01*
X25687039Y37295433D01*
X25715881Y37299711D01*
X25732961Y37295433D01*
X25752426Y37282426D01*
X25765433Y37262961D01*
X25770000Y37240000D01*
X25770000Y36020000D01*
X27310000Y36020000D01*
X27332961Y36015433D01*
X27348064Y36006381D01*
X27362915Y35988284D01*
X27370000Y35960000D01*
X27370000Y34940000D01*
X27365433Y34917039D01*
X27348064Y34893619D01*
X27315881Y34880289D01*
X26909258Y34880000D01*
X27136265Y34272906D01*
X28023541Y34234136D01*
X27328509Y33681243D01*
X27565819Y32825413D01*
X26825210Y33315574D01*
X26084600Y32825413D01*
X26321910Y33681243D01*
X25626878Y34234136D01*
X26514154Y34272906D01*
X26741161Y34880000D01*
X23042583Y34882584D01*
G37*
%LPD*%
X28122967Y36776466D02*
G36*
X28122967Y36523534D01*
X27577033Y36523534D01*
X27577033Y36776466D01*
X28122967Y36776466D01*
G37*
%LPD*%
X33610901Y37101385D02*
G36*
X32751309Y37101385D01*
X32781223Y36988060D01*
X32844665Y36907114D01*
X32940732Y36858546D01*
X33068520Y36842357D01*
X33185954Y36850986D01*
X33306182Y36876872D01*
X33429779Y36920181D01*
X33556663Y36981075D01*
X33556663Y36697722D01*
X33426163Y36654414D01*
X33295663Y36623104D01*
X33165163Y36604120D01*
X33034662Y36597793D01*
X32757144Y36637485D01*
X32549149Y36756562D01*
X32419471Y36947300D01*
X32376245Y37201972D01*
X32418731Y37453276D01*
X32546191Y37644424D01*
X32748187Y37765473D01*
X33014282Y37805823D01*
X33258354Y37764980D01*
X33448187Y37642451D01*
X33570223Y37451796D01*
X33610901Y37205917D01*
X33610901Y37101385D01*
G37*
%LPC*%
X32755254Y37328199D02*
G36*
X33232878Y37328199D01*
X33217593Y37422869D01*
X33171737Y37497159D01*
X33101227Y37545480D01*
X33011981Y37561587D01*
X32915174Y37546549D01*
X32838419Y37501432D01*
X32784263Y37428047D01*
X32755254Y37328199D01*
G37*
%LPD*%
X34640316Y37805823D02*
G36*
X34815521Y37775253D01*
X34942734Y37683541D01*
X35020147Y37533729D01*
X35045951Y37328199D01*
X35045951Y36627706D01*
X34676146Y36627706D01*
X34674502Y37289657D01*
X34669572Y37369289D01*
X34660532Y37418349D01*
X34646562Y37452454D01*
X34621004Y37484586D01*
X34587721Y37508664D01*
X34548275Y37523703D01*
X34503570Y37528716D01*
X34400846Y37506445D01*
X34322776Y37439634D01*
X34273469Y37333787D01*
X34257033Y37193754D01*
X34257033Y36627706D01*
X33889529Y36627706D01*
X33889529Y37778211D01*
X34257033Y37778211D01*
X34257033Y37609909D01*
X34342746Y37697265D01*
X34433554Y37758159D01*
X34532086Y37793907D01*
X34640316Y37805823D01*
G37*
%LPD*%
X19490000Y36600000D02*
G36*
X19467039Y36604567D01*
X19447574Y36617574D01*
X19434567Y36637039D01*
X19430000Y36660000D01*
X19430000Y41340000D01*
X19434567Y41362961D01*
X19447574Y41382426D01*
X19467039Y41395433D01*
X19490000Y41400000D01*
X19512961Y41395433D01*
X19532426Y41382426D01*
X19545433Y41362961D01*
X19550000Y41340000D01*
X19550000Y36660000D01*
X19545433Y36637039D01*
X19532426Y36617574D01*
X19512961Y36604567D01*
X19490000Y36600000D01*
G37*
%LPD*%
X28407342Y41452536D02*
G36*
X28407342Y41247464D01*
X27953510Y41247464D01*
X27953510Y40820000D01*
X28611705Y40818847D01*
X28633334Y40809888D01*
X28646381Y40798064D01*
X28659711Y40765881D01*
X28658847Y40748295D01*
X28649888Y40726666D01*
X28638064Y40713619D01*
X28617417Y40702584D01*
X25692583Y40702584D01*
X25671936Y40713619D01*
X25660112Y40726666D01*
X25650000Y40760000D01*
X25650000Y42040000D01*
X25660112Y42073334D01*
X25681716Y42092915D01*
X25710000Y42100000D01*
X27250000Y42100000D01*
X27250000Y43000000D01*
X26518520Y43000000D01*
X26518520Y42400642D01*
X26261028Y42400642D01*
X26261028Y43000000D01*
X25800166Y43000000D01*
X26022132Y42400642D01*
X25763356Y42400642D01*
X25700428Y42582577D01*
X25297817Y42582577D01*
X25234247Y42400642D01*
X24975257Y42400642D01*
X25197222Y43000000D01*
X24786980Y43000000D01*
X24755624Y42966513D01*
X24698475Y42935103D01*
X24771945Y42900749D01*
X24826686Y42846062D01*
X24860879Y42773876D01*
X24872276Y42687029D01*
X24847876Y42560905D01*
X24774674Y42471490D01*
X24651600Y42418354D01*
X24477585Y42400642D01*
X24050359Y42400642D01*
X24050359Y43000000D01*
X23054119Y43000289D01*
X23026666Y43010112D01*
X23010112Y43026666D01*
X23001153Y43048295D01*
X23002584Y43077417D01*
X23021936Y43106381D01*
X23037039Y43115433D01*
X23060000Y43120000D01*
X24050359Y43120000D01*
X24050359Y43399358D01*
X24436917Y43399358D01*
X24616283Y43383626D01*
X24738287Y43336430D01*
X24808278Y43254613D01*
X24831609Y43135017D01*
X24829700Y43120000D01*
X25241663Y43120000D01*
X25345120Y43399358D01*
X25652269Y43399358D01*
X25755726Y43120000D01*
X26261028Y43120000D01*
X26261028Y43204580D01*
X25929265Y43204580D01*
X25929265Y43399358D01*
X26849641Y43399358D01*
X26849641Y43204580D01*
X26518520Y43204580D01*
X26518520Y43120000D01*
X27310000Y43120000D01*
X27332961Y43115433D01*
X27356381Y43098064D01*
X27367416Y43077417D01*
X27370000Y43060000D01*
X27370000Y42040000D01*
X27365433Y42017039D01*
X27343334Y41990112D01*
X27310000Y41980000D01*
X25770000Y41980000D01*
X25770000Y40820000D01*
X27746490Y40820000D01*
X27746490Y41247464D01*
X27292658Y41247464D01*
X27292658Y41452536D01*
X27746490Y41452536D01*
X27746490Y41908315D01*
X27953510Y41908315D01*
X27953510Y41452536D01*
X28407342Y41452536D01*
G37*
%LPC*%
X25442051Y43000000D02*
G36*
X25362029Y42767937D01*
X25635574Y42767937D01*
X25555802Y43000000D01*
X25442051Y43000000D01*
G37*
%LPC*%
X24450187Y43224058D02*
G36*
X24307850Y43224058D01*
X24307850Y43120000D01*
X24573612Y43120000D01*
X24566037Y43163752D01*
X24542439Y43196875D01*
X24503751Y43217262D01*
X24450187Y43224058D01*
G37*
%LPC*%
X25499015Y43165197D02*
G36*
X25483430Y43120000D01*
X25514552Y43120000D01*
X25499015Y43165197D01*
G37*
%LPC*%
X24576043Y42804966D02*
G36*
X24527403Y42829366D01*
X24458963Y42837500D01*
X24307850Y42837500D01*
X24307850Y42575942D01*
X24458963Y42575942D01*
X24526868Y42584129D01*
X24575615Y42608690D01*
X24604993Y42649786D01*
X24614785Y42707577D01*
X24605100Y42764458D01*
X24576043Y42804966D01*
G37*
%LPD*%
X34634836Y42411026D02*
G36*
X34798462Y42426250D01*
X34961863Y42431324D01*
X35329599Y42389262D01*
X35578477Y42263075D01*
X35720903Y42042050D01*
X35768378Y41715474D01*
X35768378Y40814685D01*
X35259570Y40814685D01*
X35259570Y41048791D01*
X35151651Y40924408D01*
X35030877Y40839043D01*
X34890368Y40789989D01*
X34722344Y40773638D01*
X34500079Y40809385D01*
X34324048Y40916627D01*
X34209364Y41081268D01*
X34171135Y41288310D01*
X34218836Y41529069D01*
X34361938Y41695627D01*
X34607547Y41793058D01*
X34961863Y41825536D01*
X35259570Y41825536D01*
X35259570Y41864779D01*
X35235889Y41968638D01*
X35164845Y42040245D01*
X35044071Y42082195D01*
X34870296Y42096178D01*
X34713887Y42088059D01*
X34568529Y42063701D01*
X34433997Y42023105D01*
X34309163Y41966270D01*
X34309163Y42351033D01*
X34471774Y42385879D01*
X34634836Y42411026D01*
G37*
%LPC*%
X34679944Y41313570D02*
G36*
X34695957Y41228205D01*
X34743996Y41163363D01*
X34820903Y41122767D01*
X34922620Y41109235D01*
X35053543Y41134720D01*
X35162139Y41211177D01*
X35235212Y41326425D01*
X35259570Y41467385D01*
X35259570Y41525122D01*
X34997047Y41525122D01*
X34858680Y41511703D01*
X34759332Y41471445D01*
X34699791Y41405363D01*
X34679944Y41313570D01*
G37*
%LPD*%
X33212778Y42508908D02*
G36*
X32115773Y42508908D01*
X32115773Y42919383D01*
X33884874Y42919383D01*
X33884874Y42591003D01*
X32755843Y41224709D01*
X33917351Y41224709D01*
X33917351Y40814685D01*
X32083747Y40814685D01*
X32083747Y41143065D01*
X33212778Y42508908D01*
G37*
%LPD*%
X36237830Y40814685D02*
G36*
X36237830Y43008244D01*
X36742128Y43008244D01*
X36742128Y40814685D01*
X36237830Y40814685D01*
G37*
%LPD*%
X6592162Y43341786D02*
G36*
X6636979Y43385247D01*
X6695016Y43408249D01*
X6738801Y43407576D01*
X6721775Y43447921D01*
X6721361Y43510349D01*
X6744868Y43568183D01*
X6776469Y43600205D01*
X6765930Y43610606D01*
X6741657Y43668123D01*
X6741243Y43730550D01*
X6764750Y43788384D01*
X6808600Y43832820D01*
X6866117Y43857092D01*
X6915144Y43857418D01*
X6920713Y43898344D01*
X6952164Y43952272D01*
X7001857Y43990060D01*
X7062229Y44005954D01*
X7124087Y43997536D01*
X7159766Y43976728D01*
X7190206Y44015161D01*
X7244744Y44045542D01*
X7306757Y44052739D01*
X7366804Y44035656D01*
X7415742Y43996896D01*
X7446122Y43942358D01*
X7447829Y43927650D01*
X7492519Y43932836D01*
X7552565Y43915754D01*
X7601504Y43876994D01*
X7622814Y43838738D01*
X7649241Y43873656D01*
X7703098Y43905228D01*
X7764937Y43913787D01*
X7808470Y43902431D01*
X7812207Y43916759D01*
X7849882Y43966538D01*
X7903739Y43998110D01*
X7965578Y44006669D01*
X8025986Y43990912D01*
X8075765Y43953237D01*
X8100560Y43910942D01*
X8138787Y43926581D01*
X8201216Y43926309D01*
X8258788Y43902167D01*
X8302739Y43857830D01*
X8326377Y43800050D01*
X8326197Y43758747D01*
X8374701Y43751602D01*
X8428280Y43719561D01*
X8465519Y43669455D01*
X8480749Y43608912D01*
X8471651Y43547150D01*
X8439609Y43493570D01*
X8427725Y43484738D01*
X8454562Y43448629D01*
X8469791Y43388086D01*
X8460693Y43326324D01*
X8438218Y43288741D01*
X8481671Y43283314D01*
X8535942Y43252459D01*
X8574274Y43203184D01*
X8586206Y43159805D01*
X8600482Y43163732D01*
X8662430Y43155994D01*
X8716701Y43125139D01*
X8755033Y43075864D01*
X8771590Y43015671D01*
X8763852Y42953724D01*
X8739621Y42911103D01*
X8772279Y42885817D01*
X8803257Y42831616D01*
X8811135Y42769686D01*
X8794715Y42709455D01*
X8756495Y42660094D01*
X8720635Y42639598D01*
X8738699Y42594020D01*
X8737740Y42531598D01*
X8712967Y42474295D01*
X8668150Y42430835D01*
X8610113Y42407833D01*
X8547692Y42408792D01*
X8534101Y42414668D01*
X8516248Y42373372D01*
X8471431Y42329911D01*
X8413394Y42306910D01*
X8369609Y42307582D01*
X8386635Y42267237D01*
X8387049Y42204810D01*
X8363541Y42146976D01*
X8331941Y42114953D01*
X8342480Y42104553D01*
X8366752Y42047036D01*
X8367166Y41984608D01*
X8343659Y41926774D01*
X8299809Y41882339D01*
X8242292Y41858066D01*
X8193266Y41857741D01*
X8187696Y41816815D01*
X8156246Y41762887D01*
X8106552Y41725099D01*
X8046181Y41709204D01*
X7984322Y41717623D01*
X7948643Y41738430D01*
X7918203Y41699997D01*
X7863665Y41669617D01*
X7801652Y41662420D01*
X7741606Y41679502D01*
X7692667Y41718263D01*
X7662287Y41772801D01*
X7660580Y41787509D01*
X7615890Y41782322D01*
X7555844Y41799404D01*
X7506905Y41838165D01*
X7485595Y41876420D01*
X7459169Y41841503D01*
X7405312Y41809930D01*
X7343472Y41801371D01*
X7299940Y41812727D01*
X7296202Y41798400D01*
X7258527Y41748621D01*
X7204671Y41717048D01*
X7142831Y41708489D01*
X7082424Y41724247D01*
X7032645Y41761921D01*
X7007850Y41804217D01*
X6969622Y41788578D01*
X6907194Y41788850D01*
X6849622Y41812992D01*
X6805671Y41857328D01*
X6782032Y41915108D01*
X6782212Y41956411D01*
X6733708Y41963556D01*
X6680129Y41995598D01*
X6642890Y42045704D01*
X6627661Y42106246D01*
X6636759Y42168009D01*
X6668800Y42221588D01*
X6680684Y42230420D01*
X6653848Y42266529D01*
X6638618Y42327072D01*
X6647716Y42388834D01*
X6670191Y42426417D01*
X6626739Y42431845D01*
X6572468Y42462700D01*
X6534136Y42511975D01*
X6522204Y42555353D01*
X6507927Y42551426D01*
X6445980Y42559164D01*
X6391709Y42590019D01*
X6353377Y42639294D01*
X6336819Y42699487D01*
X6344557Y42761435D01*
X6368789Y42804055D01*
X6336131Y42829342D01*
X6305152Y42883543D01*
X6297274Y42945472D01*
X6313695Y43005703D01*
X6351915Y43055065D01*
X6387774Y43075560D01*
X6369710Y43121138D01*
X6370669Y43183560D01*
X6395443Y43240863D01*
X6440259Y43284324D01*
X6498296Y43307325D01*
X6560718Y43306367D01*
X6574309Y43300491D01*
X6592162Y43341786D01*
G37*
%LPC*%
X7127982Y42511805D02*
G36*
X7266591Y42717300D01*
X7019323Y42734591D01*
X6812875Y42496009D01*
X7127982Y42511805D01*
G37*
%LPC*%
X8237999Y42396354D02*
G36*
X8066765Y42661347D01*
X7819497Y42678638D01*
X7928157Y42455852D01*
X8237999Y42396354D01*
G37*
%LPC*%
X7640542Y42315573D02*
G36*
X7531883Y42538359D01*
X7393274Y42332864D01*
X7496669Y42034784D01*
X7640542Y42315573D01*
G37*
%LPC*%
X7841819Y42997858D02*
G36*
X8089087Y42980567D01*
X8295534Y43219150D01*
X7980427Y43203353D01*
X7841819Y42997858D01*
G37*
%LPC*%
X6870411Y43318804D02*
G36*
X7041645Y43053812D01*
X7288913Y43036521D01*
X7180253Y43259307D01*
X6870411Y43318804D01*
G37*
%LPC*%
X7611740Y43680375D02*
G36*
X7467867Y43399585D01*
X7576527Y43176800D01*
X7715135Y43382295D01*
X7611740Y43680375D01*
G37*
%LPD*%
X17720258Y44417555D02*
G36*
X17743556Y44415260D01*
X17764203Y44404224D01*
X17779054Y44386127D01*
X17785850Y44363725D01*
X17786139Y43707844D01*
X17781572Y43684883D01*
X17768565Y43665417D01*
X17749100Y43652411D01*
X17726139Y43647844D01*
X17076139Y43647844D01*
X17053178Y43652411D01*
X17033713Y43665417D01*
X17017292Y43696138D01*
X17018723Y43725261D01*
X17033713Y43750270D01*
X17064434Y43766691D01*
X17666139Y43767844D01*
X17666428Y44363725D01*
X17673224Y44386127D01*
X17683713Y44400270D01*
X17697855Y44410759D01*
X17720258Y44417555D01*
G37*
%LPD*%
X24754119Y45649711D02*
G36*
X24777417Y45647416D01*
X24798064Y45636381D01*
X24812915Y45618284D01*
X24819711Y45595881D01*
X24820000Y44940000D01*
X24815433Y44917039D01*
X24802426Y44897574D01*
X24782961Y44884567D01*
X24760000Y44880000D01*
X24110000Y44880000D01*
X24087039Y44884567D01*
X24067574Y44897574D01*
X24051153Y44928295D01*
X24052584Y44957417D01*
X24067574Y44982426D01*
X24098295Y44998847D01*
X24700000Y45000000D01*
X24700289Y45595881D01*
X24707085Y45618284D01*
X24717574Y45632426D01*
X24731716Y45642915D01*
X24754119Y45649711D01*
G37*
%LPD*%
X33248295Y46923847D02*
G36*
X33271705Y46923847D01*
X33293334Y46914888D01*
X33312915Y46893284D01*
X33319711Y46870881D01*
X33320000Y46215000D01*
X33315433Y46192039D01*
X33306381Y46176936D01*
X33282961Y46159567D01*
X33260000Y46155000D01*
X32610000Y46155000D01*
X32587039Y46159567D01*
X32571936Y46168619D01*
X32552584Y46197583D01*
X32552584Y46232417D01*
X32567574Y46257426D01*
X32598295Y46273847D01*
X33200000Y46275000D01*
X33200289Y46870881D01*
X33207085Y46893284D01*
X33217574Y46907426D01*
X33248295Y46923847D01*
G37*
%LPD*%
X44025289Y7754119D02*
G36*
X44027584Y7777417D01*
X44038619Y7798064D01*
X44056716Y7812915D01*
X44079119Y7819711D01*
X44735000Y7820000D01*
X44757961Y7815433D01*
X44777426Y7802426D01*
X44790433Y7782961D01*
X44795000Y7760000D01*
X44795000Y7110000D01*
X44790433Y7087039D01*
X44777426Y7067574D01*
X44752417Y7052584D01*
X44717583Y7052584D01*
X44692574Y7067574D01*
X44676153Y7098295D01*
X44675000Y7700000D01*
X44079119Y7700289D01*
X44056716Y7707085D01*
X44042574Y7717574D01*
X44032085Y7731716D01*
X44025289Y7754119D01*
G37*
%LPD*%
X46130275Y7067219D02*
G36*
X46106977Y7069513D01*
X46086330Y7080549D01*
X46071478Y7098646D01*
X46064683Y7121049D01*
X46064394Y7776930D01*
X46068961Y7799891D01*
X46081967Y7819356D01*
X46101433Y7832363D01*
X46124394Y7836930D01*
X46774394Y7836930D01*
X46797355Y7832363D01*
X46816820Y7819356D01*
X46831810Y7794347D01*
X46831810Y7759513D01*
X46812457Y7730549D01*
X46786099Y7718083D01*
X46184394Y7716930D01*
X46184105Y7121049D01*
X46177309Y7098646D01*
X46166820Y7084503D01*
X46147355Y7071497D01*
X46130275Y7067219D01*
G37*
%LPD*%
X44723295Y20148847D02*
G36*
X44746705Y20148847D01*
X44773064Y20136381D01*
X44787915Y20118284D01*
X44794711Y20095881D01*
X44795000Y19440000D01*
X44790433Y19417039D01*
X44781381Y19401936D01*
X44763284Y19387085D01*
X44735000Y19380000D01*
X44085000Y19380000D01*
X44062039Y19384567D01*
X44046936Y19393619D01*
X44027584Y19422583D01*
X44027584Y19457417D01*
X44046936Y19486381D01*
X44073295Y19498847D01*
X44675000Y19500000D01*
X44675289Y20095881D01*
X44682085Y20118284D01*
X44692574Y20132426D01*
X44723295Y20148847D01*
G37*
%LPD*%
X46645881Y20650289D02*
G36*
X46622583Y20652584D01*
X46601936Y20663619D01*
X46587085Y20681716D01*
X46580289Y20704119D01*
X46580000Y21360000D01*
X46584567Y21382961D01*
X46597574Y21402426D01*
X46617039Y21415433D01*
X46640000Y21420000D01*
X47290000Y21420000D01*
X47312961Y21415433D01*
X47332426Y21402426D01*
X47347416Y21377417D01*
X47347416Y21342583D01*
X47328064Y21313619D01*
X47301705Y21301153D01*
X46700000Y21300000D01*
X46699711Y20704119D01*
X46692915Y20681716D01*
X46682426Y20667574D01*
X46662961Y20654567D01*
X46645881Y20650289D01*
G37*
%LPD*%
X39733198Y29135563D02*
G36*
X39970508Y28279733D01*
X39229899Y28769895D01*
X38489290Y28279733D01*
X38726600Y29135563D01*
X38031568Y29688456D01*
X38918843Y29727226D01*
X39229899Y30559095D01*
X39540955Y29727226D01*
X40428230Y29688456D01*
X39733198Y29135563D01*
G37*
%LPD*%
X50518961Y32401880D02*
G36*
X50575596Y32375615D01*
X50619109Y32326289D01*
X50632997Y32356234D01*
X50678936Y32398507D01*
X50737555Y32419981D01*
X50799930Y32417389D01*
X50856565Y32391124D01*
X50898838Y32345185D01*
X50920312Y32286565D01*
X50990007Y31839971D01*
X51354551Y31646139D01*
X51340142Y32058760D01*
X50969297Y32317175D01*
X50926025Y32362173D01*
X50903266Y32420306D01*
X50904486Y32482723D01*
X50929499Y32539922D01*
X50974498Y32583194D01*
X51032630Y32605953D01*
X51065632Y32605308D01*
X51040374Y32666040D01*
X51041594Y32728457D01*
X51066607Y32785656D01*
X51111605Y32828929D01*
X51169738Y32851688D01*
X51232155Y32850467D01*
X51289354Y32825454D01*
X51321068Y32803355D01*
X51325398Y32829944D01*
X51358249Y32883031D01*
X51408915Y32919505D01*
X51469682Y32933814D01*
X51531299Y32923779D01*
X51584386Y32890928D01*
X51620860Y32840262D01*
X51627034Y32814039D01*
X51657130Y32838297D01*
X51712444Y32867240D01*
X51774624Y32872811D01*
X51834203Y32854163D01*
X51882110Y32814134D01*
X51911052Y32758820D01*
X51916623Y32696640D01*
X51895662Y32634293D01*
X51928539Y32637239D01*
X51988118Y32618591D01*
X52036025Y32578562D01*
X52064967Y32523248D01*
X52070538Y32461068D01*
X52051890Y32401489D01*
X52011862Y32353582D01*
X51659947Y32069928D01*
X51674356Y31657307D01*
X52024491Y31876096D01*
X52062863Y32326464D01*
X52080196Y32386439D01*
X52119161Y32435215D01*
X52173826Y32465366D01*
X52235868Y32472304D01*
X52295843Y32454970D01*
X52344619Y32416005D01*
X52360561Y32387102D01*
X52400528Y32439343D01*
X52455192Y32469495D01*
X52517235Y32476432D01*
X52577209Y32459099D01*
X52625985Y32420134D01*
X52656137Y32365469D01*
X52663074Y32303427D01*
X52659793Y32264912D01*
X52684985Y32274457D01*
X52747385Y32272550D01*
X52804305Y32246909D01*
X52847080Y32201438D01*
X52869198Y32143059D01*
X52867292Y32080659D01*
X52841651Y32023738D01*
X52822029Y32005280D01*
X52858084Y31991345D01*
X52910806Y31957913D01*
X52946721Y31906849D01*
X52960361Y31845928D01*
X52949649Y31784425D01*
X52916216Y31731703D01*
X52865152Y31695788D01*
X52800678Y31682768D01*
X52819667Y31655769D01*
X52833307Y31594848D01*
X52822595Y31533345D01*
X52789162Y31480623D01*
X52738098Y31444708D01*
X52677178Y31431068D01*
X52615675Y31441780D01*
X52194065Y31604721D01*
X51843930Y31385932D01*
X52208474Y31192100D01*
X52617691Y31384053D01*
X52678297Y31399029D01*
X52740020Y31389673D01*
X52793465Y31357408D01*
X52830494Y31307146D01*
X52845470Y31246540D01*
X52836113Y31184816D01*
X52819054Y31156558D01*
X52884279Y31148067D01*
X52937724Y31115802D01*
X52974753Y31065540D01*
X52989729Y31004934D01*
X52980372Y30943210D01*
X52948107Y30889766D01*
X52897845Y30852737D01*
X52862850Y30836321D01*
X52883712Y30819276D01*
X52913260Y30764283D01*
X52919515Y30702168D01*
X52901523Y30642388D01*
X52862024Y30594044D01*
X52807031Y30564495D01*
X52744916Y30558240D01*
X52719120Y30566004D01*
X52725080Y30527812D01*
X52722487Y30465437D01*
X52696222Y30408802D01*
X52650283Y30366530D01*
X52591664Y30345055D01*
X52529289Y30347647D01*
X52472654Y30373913D01*
X52429141Y30423239D01*
X52415253Y30393294D01*
X52369314Y30351021D01*
X52310695Y30329546D01*
X52248320Y30332139D01*
X52191685Y30358404D01*
X52149413Y30404343D01*
X52127938Y30462962D01*
X52058243Y30909557D01*
X51693699Y31103389D01*
X51708108Y30690768D01*
X52078953Y30432353D01*
X52122225Y30387355D01*
X52144984Y30329222D01*
X52143764Y30266805D01*
X52118751Y30209606D01*
X52073752Y30166334D01*
X52015620Y30143575D01*
X51982618Y30144220D01*
X52007877Y30083487D01*
X52006656Y30021070D01*
X51981643Y29963872D01*
X51936645Y29920599D01*
X51878512Y29897840D01*
X51816095Y29899060D01*
X51758896Y29924074D01*
X51727182Y29946173D01*
X51722852Y29919584D01*
X51690001Y29866497D01*
X51639335Y29830023D01*
X51578568Y29815714D01*
X51516951Y29825749D01*
X51463865Y29858600D01*
X51427391Y29909266D01*
X51421216Y29935488D01*
X51391121Y29911231D01*
X51335806Y29882288D01*
X51273626Y29876717D01*
X51214047Y29895365D01*
X51166140Y29935394D01*
X51137198Y29990708D01*
X51131627Y30052888D01*
X51152588Y30115235D01*
X51119711Y30112289D01*
X51060132Y30130937D01*
X51012225Y30170966D01*
X50983283Y30226280D01*
X50977712Y30288460D01*
X50996360Y30348039D01*
X51036388Y30395946D01*
X51388303Y30679600D01*
X51373894Y31092221D01*
X51023759Y30873432D01*
X50985387Y30423064D01*
X50968054Y30363089D01*
X50929089Y30314313D01*
X50874424Y30284162D01*
X50812382Y30277224D01*
X50752407Y30294557D01*
X50703631Y30333523D01*
X50687689Y30362426D01*
X50647723Y30310185D01*
X50593058Y30280033D01*
X50531016Y30273095D01*
X50471041Y30290429D01*
X50422265Y30329394D01*
X50392113Y30384059D01*
X50385176Y30446101D01*
X50388458Y30484616D01*
X50363265Y30475071D01*
X50300866Y30476978D01*
X50243945Y30502618D01*
X50201170Y30548090D01*
X50179052Y30606469D01*
X50180959Y30668869D01*
X50206599Y30725789D01*
X50226221Y30744248D01*
X50190166Y30758182D01*
X50137444Y30791615D01*
X50101529Y30842679D01*
X50087889Y30903600D01*
X50098601Y30965103D01*
X50132034Y31017825D01*
X50183098Y31053739D01*
X50247572Y31066760D01*
X50228583Y31093759D01*
X50214943Y31154680D01*
X50225655Y31216183D01*
X50259088Y31268905D01*
X50310152Y31304820D01*
X50371072Y31318459D01*
X50432575Y31307747D01*
X50854185Y31144807D01*
X51204320Y31363596D01*
X50839776Y31557428D01*
X50430559Y31365475D01*
X50369953Y31350498D01*
X50308230Y31359855D01*
X50254785Y31392120D01*
X50217756Y31442382D01*
X50202780Y31502988D01*
X50212137Y31564712D01*
X50229197Y31592970D01*
X50163971Y31601461D01*
X50110526Y31633726D01*
X50073497Y31683988D01*
X50058521Y31744594D01*
X50067878Y31806317D01*
X50100143Y31859762D01*
X50150405Y31896791D01*
X50185400Y31913207D01*
X50164538Y31930252D01*
X50134990Y31985245D01*
X50128735Y32047359D01*
X50146727Y32107140D01*
X50186226Y32155484D01*
X50241219Y32185033D01*
X50303334Y32191287D01*
X50329130Y32183524D01*
X50323170Y32221716D01*
X50325763Y32284091D01*
X50352028Y32340726D01*
X50397967Y32382998D01*
X50456586Y32404473D01*
X50518961Y32401880D01*
G37*
%LPD*%
X43426361Y32043259D02*
G36*
X43461162Y32095087D01*
X43513148Y32129653D01*
X43574405Y32141693D01*
X43635607Y32129375D01*
X43687436Y32094574D01*
X44113557Y31666512D01*
X44740270Y31754591D01*
X44350635Y32253301D01*
X43746753Y32241388D01*
X43685295Y32252358D01*
X43632713Y32286011D01*
X43597013Y32337224D01*
X43583628Y32398202D01*
X43594597Y32459659D01*
X43628251Y32512241D01*
X43679464Y32547942D01*
X43740441Y32561326D01*
X44104371Y32568505D01*
X44073587Y32607906D01*
X43703659Y32600608D01*
X43642202Y32611578D01*
X43589620Y32645231D01*
X43553919Y32696444D01*
X43540535Y32757422D01*
X43551504Y32818879D01*
X43585157Y32871461D01*
X43636371Y32907162D01*
X43697348Y32920546D01*
X43827323Y32923110D01*
X43802696Y32954631D01*
X43774597Y33010378D01*
X43769971Y33072635D01*
X43789521Y33131924D01*
X43830272Y33179218D01*
X43886020Y33207317D01*
X43948277Y33211944D01*
X44007566Y33192393D01*
X44054860Y33151642D01*
X44079486Y33120122D01*
X44113418Y33245615D01*
X44141156Y33301543D01*
X44188186Y33342599D01*
X44247348Y33362532D01*
X44309633Y33358307D01*
X44365561Y33330569D01*
X44406617Y33283539D01*
X44426550Y33224377D01*
X44422325Y33162092D01*
X44325751Y32804918D01*
X44356534Y32765517D01*
X44451542Y33116899D01*
X44479281Y33172827D01*
X44526311Y33213883D01*
X44585472Y33233815D01*
X44647758Y33229591D01*
X44703686Y33201852D01*
X44744741Y33154822D01*
X44764674Y33095661D01*
X44760450Y33033375D01*
X44602799Y32450313D01*
X44992433Y31951603D01*
X45229511Y32538391D01*
X44917254Y33055413D01*
X44896024Y33114121D01*
X44898878Y33176485D01*
X44925380Y33233009D01*
X44971496Y33275089D01*
X45030204Y33296318D01*
X45092568Y33293465D01*
X45149092Y33266963D01*
X45191172Y33220847D01*
X45379354Y32909265D01*
X45398084Y32955624D01*
X45206801Y33272343D01*
X45185571Y33331051D01*
X45188425Y33393415D01*
X45214927Y33449939D01*
X45261043Y33492019D01*
X45319751Y33513248D01*
X45382115Y33510395D01*
X45438639Y33483893D01*
X45480719Y33437777D01*
X45547927Y33326498D01*
X45562911Y33363585D01*
X45597141Y33415793D01*
X45648744Y33450929D01*
X45709864Y33463642D01*
X45771198Y33451997D01*
X45823406Y33417768D01*
X45858541Y33366165D01*
X45871255Y33305044D01*
X45859610Y33243711D01*
X45844626Y33206624D01*
X45970272Y33239985D01*
X46032577Y33243926D01*
X46091647Y33223725D01*
X46138490Y33182456D01*
X46165974Y33126403D01*
X46169916Y33064099D01*
X46149714Y33005029D01*
X46108446Y32958186D01*
X46052392Y32930701D01*
X45694783Y32835750D01*
X45676053Y32789391D01*
X46027863Y32882802D01*
X46090167Y32886744D01*
X46149237Y32866543D01*
X46196080Y32825274D01*
X46223565Y32769221D01*
X46227506Y32706916D01*
X46207305Y32647846D01*
X46166036Y32601003D01*
X46109983Y32573519D01*
X45526210Y32418517D01*
X45289132Y31831729D01*
X45915845Y31919807D01*
X46207470Y32448741D01*
X46247698Y32496481D01*
X46303134Y32525191D01*
X46365336Y32530502D01*
X46424836Y32511605D01*
X46472575Y32471376D01*
X46501286Y32415941D01*
X46506597Y32353738D01*
X46487700Y32294238D01*
X46311952Y31975477D01*
X46361466Y31982435D01*
X46540110Y32306451D01*
X46580338Y32354190D01*
X46635774Y32382901D01*
X46697976Y32388212D01*
X46757476Y32369314D01*
X46805216Y32329086D01*
X46833926Y32273651D01*
X46839237Y32211448D01*
X46820340Y32151948D01*
X46757573Y32038105D01*
X46797184Y32043672D01*
X46859512Y32040132D01*
X46915742Y32013010D01*
X46957312Y31966435D01*
X46977894Y31907496D01*
X46974355Y31845168D01*
X46947233Y31788938D01*
X46900657Y31747368D01*
X46841719Y31726786D01*
X46802108Y31721219D01*
X46893823Y31629086D01*
X46928389Y31577100D01*
X46940429Y31515843D01*
X46928111Y31454642D01*
X46893309Y31402813D01*
X46841323Y31368247D01*
X46780066Y31356207D01*
X46718865Y31368525D01*
X46667036Y31403327D01*
X46406001Y31665550D01*
X46356488Y31658591D01*
X46613289Y31400620D01*
X46647855Y31348634D01*
X46659895Y31287377D01*
X46647577Y31226176D01*
X46612776Y31174347D01*
X46560789Y31139781D01*
X46499532Y31127741D01*
X46438331Y31140059D01*
X46386502Y31174860D01*
X45960380Y31602922D01*
X45333668Y31514843D01*
X45723302Y31016133D01*
X46327185Y31028046D01*
X46388643Y31017076D01*
X46441224Y30983423D01*
X46476925Y30932210D01*
X46490309Y30871232D01*
X46479340Y30809775D01*
X46445687Y30757193D01*
X46394473Y30721492D01*
X46333496Y30708108D01*
X45969567Y30700929D01*
X46000350Y30661528D01*
X46370278Y30668826D01*
X46431736Y30657856D01*
X46484317Y30624203D01*
X46520018Y30572990D01*
X46533403Y30512012D01*
X46522433Y30450555D01*
X46488780Y30397973D01*
X46437567Y30362272D01*
X46376589Y30348888D01*
X46246615Y30346324D01*
X46271241Y30314804D01*
X46299340Y30259056D01*
X46303967Y30196799D01*
X46284416Y30137510D01*
X46243665Y30090216D01*
X46187918Y30062117D01*
X46125660Y30057490D01*
X46066372Y30077041D01*
X46019078Y30117792D01*
X45994451Y30149312D01*
X45960520Y30023819D01*
X45932781Y29967891D01*
X45885751Y29926835D01*
X45826590Y29906902D01*
X45764304Y29911127D01*
X45708376Y29938865D01*
X45667321Y29985895D01*
X45647388Y30045057D01*
X45651612Y30107342D01*
X45748187Y30464517D01*
X45717404Y30503917D01*
X45622395Y30152535D01*
X45594657Y30096607D01*
X45547627Y30055551D01*
X45488466Y30035619D01*
X45426180Y30039843D01*
X45370252Y30067582D01*
X45329196Y30114612D01*
X45309263Y30173773D01*
X45313488Y30236059D01*
X45471139Y30819121D01*
X45081504Y31317831D01*
X44844426Y30731043D01*
X45156684Y30214021D01*
X45177913Y30155313D01*
X45175060Y30092949D01*
X45148558Y30036425D01*
X45102442Y29994345D01*
X45043733Y29973116D01*
X44981370Y29975969D01*
X44924845Y30002471D01*
X44882765Y30048587D01*
X44694584Y30360169D01*
X44675853Y30313810D01*
X44867137Y29997092D01*
X44888366Y29938383D01*
X44885513Y29876019D01*
X44859011Y29819495D01*
X44812895Y29777415D01*
X44754186Y29756186D01*
X44691823Y29759039D01*
X44635298Y29785541D01*
X44593218Y29831657D01*
X44526011Y29942936D01*
X44511026Y29905849D01*
X44476797Y29853641D01*
X44425194Y29818505D01*
X44364073Y29805792D01*
X44302740Y29817437D01*
X44250531Y29851666D01*
X44215396Y29903269D01*
X44202683Y29964390D01*
X44214327Y30025723D01*
X44229312Y30062811D01*
X44103665Y30029449D01*
X44041361Y30025508D01*
X43982291Y30045709D01*
X43935448Y30086978D01*
X43907964Y30143031D01*
X43904022Y30205335D01*
X43924223Y30264405D01*
X43965492Y30311248D01*
X44021545Y30338733D01*
X44379154Y30433684D01*
X44397885Y30480043D01*
X44046075Y30386632D01*
X43983770Y30382690D01*
X43924700Y30402891D01*
X43877857Y30444160D01*
X43850373Y30500213D01*
X43846431Y30562518D01*
X43866633Y30621588D01*
X43907901Y30668431D01*
X43963955Y30695915D01*
X44547727Y30850917D01*
X44784805Y31437705D01*
X44158093Y31349627D01*
X43866468Y30820693D01*
X43826239Y30772954D01*
X43770804Y30744243D01*
X43708601Y30738932D01*
X43649101Y30757829D01*
X43601362Y30798058D01*
X43572652Y30853493D01*
X43567341Y30915696D01*
X43586238Y30975196D01*
X43761985Y31293957D01*
X43712472Y31286999D01*
X43533828Y30962983D01*
X43493599Y30915244D01*
X43438164Y30886533D01*
X43375961Y30881222D01*
X43316461Y30900120D01*
X43268722Y30940348D01*
X43240011Y30995783D01*
X43234700Y31057986D01*
X43253598Y31117486D01*
X43316365Y31231329D01*
X43276754Y31225763D01*
X43214425Y31229302D01*
X43158196Y31256424D01*
X43116626Y31302999D01*
X43096043Y31361938D01*
X43099583Y31424266D01*
X43126705Y31480496D01*
X43173280Y31522066D01*
X43232219Y31542648D01*
X43271829Y31548215D01*
X43180114Y31640348D01*
X43145549Y31692334D01*
X43133508Y31753591D01*
X43145827Y31814792D01*
X43180628Y31866621D01*
X43232615Y31901187D01*
X43293871Y31913227D01*
X43355073Y31900909D01*
X43406902Y31866107D01*
X43667937Y31603885D01*
X43717450Y31610843D01*
X43460648Y31868814D01*
X43426082Y31920800D01*
X43414042Y31982057D01*
X43426361Y32043259D01*
G37*
%LPD*%
X41450650Y36444282D02*
G36*
X41543512Y36423820D01*
X41636703Y36416999D01*
X41793336Y36436804D01*
X41901648Y36496219D01*
X41965008Y36597710D01*
X41986128Y36743742D01*
X41986128Y36822963D01*
X41906250Y36735689D01*
X41818483Y36675041D01*
X41719950Y36639540D01*
X41607119Y36627706D01*
X41414656Y36669124D01*
X41258680Y36793379D01*
X41155628Y36982144D01*
X41121277Y37216436D01*
X41155628Y37450892D01*
X41258680Y37638836D01*
X41414656Y37762597D01*
X41607119Y37803851D01*
X41719950Y37792017D01*
X41818483Y37756516D01*
X41906250Y37695786D01*
X41986128Y37607608D01*
X41986128Y37778211D01*
X42355933Y37778211D01*
X42355933Y36743742D01*
X42344983Y36613222D01*
X42257380Y36401364D01*
X42180728Y36320028D01*
X41966159Y36210319D01*
X41672862Y36173749D01*
X41566769Y36177858D01*
X41464127Y36190185D01*
X41363294Y36210976D01*
X41261967Y36240479D01*
X41261967Y36527119D01*
X41357295Y36478633D01*
X41450650Y36444282D01*
G37*
%LPC*%
X41518119Y37352853D02*
G36*
X41502258Y37216436D01*
X41517626Y37077225D01*
X41563728Y36976473D01*
X41639579Y36915332D01*
X41743536Y36894952D01*
X41845766Y36915990D01*
X41922357Y36979103D01*
X41970185Y37080512D01*
X41986128Y37216436D01*
X41970185Y37352853D01*
X41922357Y37454426D01*
X41845766Y37517786D01*
X41743536Y37538906D01*
X41642045Y37517786D01*
X41565701Y37454426D01*
X41518119Y37352853D01*
G37*
%LPD*%
X50214419Y36423820D02*
G36*
X50307610Y36416999D01*
X50464243Y36436804D01*
X50572555Y36496219D01*
X50635915Y36597710D01*
X50657035Y36743742D01*
X50657035Y36822963D01*
X50577157Y36735689D01*
X50489390Y36675041D01*
X50390857Y36639540D01*
X50278025Y36627706D01*
X50085562Y36669124D01*
X49929587Y36793379D01*
X49826534Y36982144D01*
X49792183Y37216436D01*
X49826534Y37450892D01*
X49929587Y37638836D01*
X50085562Y37762597D01*
X50278025Y37803851D01*
X50390857Y37792017D01*
X50489390Y37756516D01*
X50577157Y37695786D01*
X50657035Y37607608D01*
X50657035Y37778211D01*
X51026840Y37778211D01*
X51026840Y36743742D01*
X51015890Y36613222D01*
X50928287Y36401364D01*
X50851634Y36320028D01*
X50637065Y36210319D01*
X50343769Y36173749D01*
X50237675Y36177858D01*
X50135034Y36190185D01*
X50034200Y36210976D01*
X49932874Y36240479D01*
X49932874Y36527119D01*
X50028201Y36478633D01*
X50121557Y36444282D01*
X50214419Y36423820D01*
G37*
%LPC*%
X50188532Y37077225D02*
G36*
X50234635Y36976473D01*
X50310486Y36915332D01*
X50414442Y36894952D01*
X50516673Y36915990D01*
X50593264Y36979103D01*
X50641092Y37080512D01*
X50657035Y37216436D01*
X50641092Y37352853D01*
X50593264Y37454426D01*
X50516673Y37517786D01*
X50414442Y37538906D01*
X50312951Y37517786D01*
X50236607Y37454426D01*
X50189026Y37352853D01*
X50173165Y37216436D01*
X50188532Y37077225D01*
G37*
%LPD*%
X45359862Y36609709D02*
G36*
X45252782Y36597793D01*
X45077084Y36628363D01*
X44949049Y36720075D01*
X44870897Y36870134D01*
X44844846Y37075745D01*
X44844846Y37778211D01*
X45214651Y37778211D01*
X45214487Y37120779D01*
X45219911Y37040244D01*
X45229690Y36987403D01*
X45244565Y36951162D01*
X45270451Y36919359D01*
X45303405Y36895609D01*
X45342604Y36881063D01*
X45387227Y36876215D01*
X45489951Y36898321D01*
X45568021Y36964639D01*
X45617328Y37070239D01*
X45633764Y37210190D01*
X45633764Y37778211D01*
X46001597Y37778211D01*
X46001597Y36627706D01*
X45633764Y36627706D01*
X45633764Y36794036D01*
X45548134Y36706598D01*
X45457572Y36645456D01*
X45359862Y36609709D01*
G37*
%LPD*%
X37835105Y37101385D02*
G36*
X37865018Y36988060D01*
X37928460Y36907114D01*
X38024527Y36858546D01*
X38152316Y36842357D01*
X38269749Y36850986D01*
X38389977Y36876872D01*
X38513574Y36920181D01*
X38640459Y36981075D01*
X38640459Y36697722D01*
X38509958Y36654414D01*
X38379458Y36623104D01*
X38248958Y36604120D01*
X38118458Y36597793D01*
X37840940Y36637485D01*
X37632945Y36756562D01*
X37503266Y36947300D01*
X37460040Y37201972D01*
X37502527Y37453276D01*
X37629986Y37644424D01*
X37831982Y37765473D01*
X38098077Y37805823D01*
X38342149Y37764980D01*
X38531982Y37642451D01*
X38654018Y37451796D01*
X38694697Y37205917D01*
X38694697Y37101385D01*
X37835105Y37101385D01*
G37*
%LPC*%
X37922215Y37501432D02*
G36*
X37868059Y37428047D01*
X37839049Y37328199D01*
X38316673Y37328199D01*
X38301388Y37422869D01*
X38255532Y37497159D01*
X38185023Y37545480D01*
X38095776Y37561587D01*
X37998970Y37546549D01*
X37922215Y37501432D01*
G37*
%LPD*%
X36408273Y37101385D02*
G36*
X36438186Y36988060D01*
X36501628Y36907114D01*
X36597695Y36858546D01*
X36725484Y36842357D01*
X36842917Y36850986D01*
X36963145Y36876872D01*
X37086742Y36920181D01*
X37213627Y36981075D01*
X37213627Y36697722D01*
X37083126Y36654414D01*
X36952626Y36623104D01*
X36822126Y36604120D01*
X36691626Y36597793D01*
X36414107Y36637485D01*
X36206113Y36756562D01*
X36076434Y36947300D01*
X36033208Y37201972D01*
X36075695Y37453276D01*
X36203154Y37644424D01*
X36405150Y37765473D01*
X36671245Y37805823D01*
X36915317Y37764980D01*
X37105150Y37642451D01*
X37227186Y37451796D01*
X37267865Y37205917D01*
X37267865Y37101385D01*
X36408273Y37101385D01*
G37*
%LPC*%
X36441227Y37428047D02*
G36*
X36412217Y37328199D01*
X36889841Y37328199D01*
X36874556Y37422869D01*
X36828700Y37497159D01*
X36758191Y37545480D01*
X36668944Y37561587D01*
X36572138Y37546549D01*
X36495382Y37501432D01*
X36441227Y37428047D01*
G37*
%LPD*%
X43027911Y36988060D02*
G36*
X43091353Y36907114D01*
X43187420Y36858546D01*
X43315208Y36842357D01*
X43432642Y36850986D01*
X43552870Y36876872D01*
X43676467Y36920181D01*
X43803351Y36981075D01*
X43803351Y36697722D01*
X43672851Y36654414D01*
X43542351Y36623104D01*
X43411851Y36604120D01*
X43281350Y36597793D01*
X43003832Y36637485D01*
X42795837Y36756562D01*
X42666159Y36947300D01*
X42622933Y37201972D01*
X42665419Y37453276D01*
X42792879Y37644424D01*
X42994875Y37765473D01*
X43260970Y37805823D01*
X43505042Y37764980D01*
X43694875Y37642451D01*
X43816911Y37451796D01*
X43857589Y37205917D01*
X43857589Y37101385D01*
X42997997Y37101385D01*
X43027911Y36988060D01*
G37*
%LPC*%
X43479566Y37328199D02*
G36*
X43464281Y37422869D01*
X43418425Y37497159D01*
X43347915Y37545480D01*
X43258669Y37561587D01*
X43161862Y37546549D01*
X43085107Y37501432D01*
X43030951Y37428047D01*
X43001942Y37328199D01*
X43479566Y37328199D01*
G37*
%LPD*%
X49153242Y36627706D02*
G36*
X49153242Y37778211D01*
X49520746Y37778211D01*
X49520746Y36627706D01*
X49153242Y36627706D01*
G37*
%LPD*%
X39615882Y37793907D02*
G36*
X39724111Y37805823D01*
X39899317Y37775253D01*
X40026530Y37683541D01*
X40103942Y37533729D01*
X40129747Y37328199D01*
X40129747Y36627706D01*
X39759941Y36627706D01*
X39758298Y37289657D01*
X39753367Y37369289D01*
X39744327Y37418349D01*
X39730357Y37452454D01*
X39704799Y37484586D01*
X39671517Y37508664D01*
X39632071Y37523703D01*
X39587366Y37528716D01*
X39484642Y37506445D01*
X39406572Y37439634D01*
X39357264Y37333787D01*
X39340829Y37193754D01*
X39340829Y36627706D01*
X38973324Y36627706D01*
X38973324Y37778211D01*
X39340829Y37778211D01*
X39340829Y37609909D01*
X39426541Y37697265D01*
X39517349Y37758159D01*
X39615882Y37793907D01*
G37*
%LPD*%
X48121650Y37107302D02*
G36*
X48121650Y36627706D01*
X47754145Y36627706D01*
X47754145Y38226251D01*
X48121650Y38226251D01*
X48121650Y37356140D01*
X48545036Y37778211D01*
X48972366Y37778211D01*
X48410262Y37250294D01*
X49016414Y36627706D01*
X48570675Y36627706D01*
X48121650Y37107302D01*
G37*
%LPD*%
X44136217Y38226251D02*
G36*
X44503721Y38226251D01*
X44503721Y36627706D01*
X44136217Y36627706D01*
X44136217Y38226251D01*
G37*
%LPD*%
X46355049Y36627706D02*
G36*
X46355049Y38226251D01*
X46722553Y38226251D01*
X46722553Y37356140D01*
X47145939Y37778211D01*
X47573270Y37778211D01*
X47011165Y37250294D01*
X47617317Y36627706D01*
X47171579Y36627706D01*
X46722553Y37107302D01*
X46722553Y36627706D01*
X46355049Y36627706D01*
G37*
%LPD*%
X49153242Y37926133D02*
G36*
X49153242Y38226251D01*
X49520746Y38226251D01*
X49520746Y37926133D01*
X49153242Y37926133D01*
G37*
%LPD*%
X38297196Y40283323D02*
G36*
X38297196Y40676657D01*
X38428006Y40610124D01*
X38556111Y40562987D01*
X38683538Y40534908D01*
X38811417Y40525549D01*
X39026352Y40552726D01*
X39174980Y40634257D01*
X39261924Y40773525D01*
X39290905Y40973913D01*
X39290905Y41082621D01*
X39181295Y40962862D01*
X39060859Y40879639D01*
X38925651Y40830924D01*
X38770820Y40814685D01*
X38506718Y40871520D01*
X38292685Y41042025D01*
X38151274Y41301053D01*
X38104137Y41622554D01*
X38151274Y41944280D01*
X38292685Y42202180D01*
X38506718Y42372008D01*
X38770820Y42428618D01*
X38925651Y42412379D01*
X39060859Y42363663D01*
X39181295Y42280328D01*
X39290905Y42159328D01*
X39290905Y42393434D01*
X39798360Y42393434D01*
X39798360Y40973913D01*
X39783334Y40794810D01*
X39663124Y40504094D01*
X39557940Y40392483D01*
X39263503Y40241938D01*
X38861035Y40191756D01*
X38715451Y40197394D01*
X38574604Y40214309D01*
X38436238Y40242840D01*
X38297196Y40283323D01*
G37*
%LPC*%
X38626929Y41622554D02*
G36*
X38648016Y41431525D01*
X38711279Y41293272D01*
X38815364Y41209372D01*
X38958015Y41181406D01*
X39098298Y41210275D01*
X39203398Y41296880D01*
X39269028Y41436036D01*
X39290905Y41622554D01*
X39269028Y41809748D01*
X39203398Y41949129D01*
X39098298Y42036073D01*
X38958015Y42065054D01*
X38818747Y42036073D01*
X38713985Y41949129D01*
X38648693Y41809748D01*
X38626929Y41622554D01*
G37*
%LPD*%
X46787087Y40872422D02*
G36*
X46787087Y41255833D01*
X46940001Y41191781D01*
X47096522Y41145771D01*
X47256427Y41118369D01*
X47418587Y41109235D01*
X47548496Y41119384D01*
X47641416Y41149831D01*
X47697575Y41200802D01*
X47716294Y41271620D01*
X47703438Y41330598D01*
X47664872Y41372209D01*
X47587851Y41401529D01*
X47370774Y41434908D01*
X47084231Y41495239D01*
X46898502Y41591430D01*
X46797011Y41735209D01*
X46763181Y41938303D01*
X46806145Y42156622D01*
X46935039Y42309986D01*
X47153019Y42400990D01*
X47462341Y42431324D01*
X47605556Y42426024D01*
X47755537Y42410124D01*
X47916006Y42383285D01*
X48089781Y42344267D01*
X48089781Y41960857D01*
X47930553Y42020060D01*
X47776738Y42062348D01*
X47630252Y42087721D01*
X47492112Y42096178D01*
X47366714Y42087157D01*
X47278304Y42060093D01*
X47226205Y42014422D01*
X47208839Y41949580D01*
X47222033Y41895790D01*
X47261614Y41856208D01*
X47335364Y41828242D01*
X47539925Y41795765D01*
X47864245Y41730698D01*
X48061363Y41633830D01*
X48161840Y41488924D01*
X48195332Y41279739D01*
X48148758Y41058827D01*
X48009039Y40900389D01*
X47777414Y40805325D01*
X47454222Y40773638D01*
X47294994Y40779840D01*
X47130353Y40798447D01*
X46961088Y40829345D01*
X46787087Y40872422D01*
G37*
%LPD*%
X45050520Y41608119D02*
G36*
X45050520Y41464679D01*
X43870969Y41464679D01*
X43912016Y41309172D01*
X43999073Y41198096D01*
X44130899Y41131450D01*
X44306253Y41109235D01*
X44467398Y41121075D01*
X44632377Y41156597D01*
X44801980Y41216026D01*
X44976093Y41299587D01*
X44976093Y40910763D01*
X44797018Y40851335D01*
X44617943Y40808370D01*
X44438868Y40782321D01*
X44259792Y40773638D01*
X43878975Y40828105D01*
X43593560Y40991505D01*
X43415613Y41253239D01*
X43356297Y41602706D01*
X43414598Y41947550D01*
X43589501Y42209848D01*
X43866684Y42375955D01*
X44231826Y42431324D01*
X44566746Y42375279D01*
X44827240Y42207142D01*
X44994700Y41945520D01*
X45050520Y41608119D01*
G37*
%LPC*%
X43876382Y41775918D02*
G36*
X44531788Y41775918D01*
X44510813Y41905826D01*
X44447889Y42007768D01*
X44351134Y42074076D01*
X44228668Y42096178D01*
X44095828Y42075542D01*
X43990503Y42013632D01*
X43916189Y41912931D01*
X43876382Y41775918D01*
G37*
%LPD*%
X37731665Y42393434D02*
G36*
X37731665Y40814685D01*
X37227368Y40814685D01*
X37227368Y42393434D01*
X37731665Y42393434D01*
G37*
%LPD*%
X46605644Y41963563D02*
G36*
X46539449Y41990515D01*
X46473480Y42009122D01*
X46407849Y42020286D01*
X46341767Y42024007D01*
X46169684Y41992770D01*
X46042256Y41899060D01*
X45963432Y41747613D01*
X45937157Y41542263D01*
X45937157Y40814685D01*
X45432859Y40814685D01*
X45432859Y42393434D01*
X45937157Y42393434D01*
X45937157Y42134068D01*
X46041692Y42268149D01*
X46160437Y42360055D01*
X46299254Y42413507D01*
X46463106Y42431324D01*
X46603840Y42420047D01*
X46605644Y41963563D01*
G37*
%LPD*%
X49125609Y42393434D02*
G36*
X49646145Y42393434D01*
X49646145Y42032577D01*
X49125609Y42032577D01*
X49125609Y41363188D01*
X49136548Y41270944D01*
X49169363Y41214334D01*
X49234656Y41185240D01*
X49343026Y41175542D01*
X49602392Y41175542D01*
X49602392Y40814685D01*
X49169363Y40814685D01*
X48914170Y40845809D01*
X48745807Y40939181D01*
X48652436Y41107656D01*
X48621312Y41363188D01*
X48621312Y42032577D01*
X48370065Y42032577D01*
X48370065Y42393434D01*
X48621312Y42393434D01*
X48621312Y42841799D01*
X49125609Y42841799D01*
X49125609Y42393434D01*
G37*
%LPD*%
X43370111Y40814685D02*
G36*
X42690798Y40814685D01*
X41853610Y41643754D01*
X41853610Y40814685D01*
X41310971Y40814685D01*
X41310971Y42919383D01*
X41853610Y42919383D01*
X41853610Y42151209D01*
X42635767Y42919383D01*
X43265913Y42919383D01*
X42252357Y41922516D01*
X43370111Y40814685D01*
G37*
%LPD*%
X50623335Y42667009D02*
G36*
X50564695Y42637915D01*
X50533233Y42584914D01*
X50522746Y42503495D01*
X50522746Y42393434D01*
X50953970Y42393434D01*
X50953970Y42032577D01*
X50522746Y42032577D01*
X50522746Y40814685D01*
X50017997Y40814685D01*
X50017997Y42032577D01*
X49767202Y42032577D01*
X49767202Y42393434D01*
X50017997Y42393434D01*
X50017997Y42503495D01*
X50053970Y42727791D01*
X50161889Y42884651D01*
X50345137Y42977346D01*
X50607096Y43008244D01*
X50993664Y43008244D01*
X50993664Y42676707D01*
X50714451Y42676707D01*
X50623335Y42667009D01*
G37*
%LPD*%
X37731665Y42596416D02*
G36*
X37227368Y42596416D01*
X37227368Y43008244D01*
X37731665Y43008244D01*
X37731665Y42596416D01*
G37*
%LPD*%
X48199711Y43670881D02*
G36*
X48197416Y43647583D01*
X48186381Y43626936D01*
X48168284Y43612085D01*
X48145881Y43605289D01*
X47490000Y43605000D01*
X47467039Y43609567D01*
X47447574Y43622574D01*
X47434567Y43642039D01*
X47430000Y43665000D01*
X47430000Y44315000D01*
X47434567Y44337961D01*
X47447574Y44357426D01*
X47472583Y44372416D01*
X47507417Y44372416D01*
X47532426Y44357426D01*
X47548847Y44326705D01*
X47550000Y43725000D01*
X48145881Y43724711D01*
X48168284Y43717915D01*
X48182426Y43707426D01*
X48192915Y43693284D01*
X48199711Y43670881D01*
G37*
%LPD*%
X40548847Y46226705D02*
G36*
X40548847Y46203295D01*
X40539888Y46181666D01*
X40518284Y46162085D01*
X40495881Y46155289D01*
X39840000Y46155000D01*
X39817039Y46159567D01*
X39801936Y46168619D01*
X39784567Y46192039D01*
X39780000Y46215000D01*
X39780000Y46865000D01*
X39784567Y46887961D01*
X39793619Y46903064D01*
X39822583Y46922416D01*
X39857417Y46922416D01*
X39882426Y46907426D01*
X39898847Y46876705D01*
X39900000Y46275000D01*
X40495881Y46274711D01*
X40518284Y46267915D01*
X40532426Y46257426D01*
X40548847Y46226705D01*
G37*
%LPD*%
X57695881Y7050289D02*
G36*
X57672583Y7052584D01*
X57651936Y7063619D01*
X57637085Y7081716D01*
X57630289Y7104119D01*
X57630000Y7760000D01*
X57634567Y7782961D01*
X57647574Y7802426D01*
X57667039Y7815433D01*
X57690000Y7820000D01*
X58340000Y7820000D01*
X58362961Y7815433D01*
X58382426Y7802426D01*
X58397416Y7777417D01*
X58397416Y7742583D01*
X58378064Y7713619D01*
X58351705Y7701153D01*
X57750000Y7700000D01*
X57749711Y7104119D01*
X57742915Y7081716D01*
X57732426Y7067574D01*
X57712961Y7054567D01*
X57695881Y7050289D01*
G37*
%LPD*%
X55166167Y7757014D02*
G36*
X55168461Y7780312D01*
X55179497Y7800958D01*
X55197594Y7815810D01*
X55219997Y7822606D01*
X55875878Y7822895D01*
X55898839Y7818328D01*
X55918304Y7805321D01*
X55931310Y7785856D01*
X55935878Y7762895D01*
X55935878Y7112895D01*
X55931310Y7089934D01*
X55918304Y7070468D01*
X55893295Y7055478D01*
X55858461Y7055478D01*
X55833451Y7070468D01*
X55817031Y7101189D01*
X55815878Y7702895D01*
X55219997Y7703184D01*
X55197594Y7709980D01*
X55183451Y7720468D01*
X55172962Y7734611D01*
X55166167Y7757014D01*
G37*
%LPD*%
X58089830Y19436220D02*
G36*
X58087536Y19412922D01*
X58076500Y19392276D01*
X58058403Y19377424D01*
X58036000Y19370628D01*
X57380119Y19370339D01*
X57357158Y19374906D01*
X57337693Y19387913D01*
X57324686Y19407378D01*
X57320119Y19430339D01*
X57320119Y20080339D01*
X57324686Y20103300D01*
X57337693Y20122766D01*
X57368414Y20139186D01*
X57397536Y20137756D01*
X57422546Y20122766D01*
X57438966Y20092045D01*
X57440119Y19490339D01*
X58036000Y19490050D01*
X58058403Y19483255D01*
X58072546Y19472766D01*
X58083034Y19458623D01*
X58089830Y19436220D01*
G37*
%LPD*%
X55075289Y21354119D02*
G36*
X55077584Y21377417D01*
X55088619Y21398064D01*
X55106716Y21412915D01*
X55129119Y21419711D01*
X55785000Y21420000D01*
X55807961Y21415433D01*
X55827426Y21402426D01*
X55840433Y21382961D01*
X55845000Y21360000D01*
X55845000Y20710000D01*
X55840433Y20687039D01*
X55827426Y20667574D01*
X55796705Y20651153D01*
X55767583Y20652584D01*
X55742574Y20667574D01*
X55726153Y20698295D01*
X55725000Y21300000D01*
X55129119Y21300289D01*
X55106716Y21307085D01*
X55092574Y21317574D01*
X55082085Y21331716D01*
X55075289Y21354119D01*
G37*
%LPD*%
X56491457Y36607273D02*
G36*
X56468158Y36609567D01*
X56447512Y36620603D01*
X56432660Y36638700D01*
X56425864Y36661103D01*
X56425575Y37316984D01*
X56432660Y37345267D01*
X56452241Y37366872D01*
X56479694Y37376695D01*
X56981814Y37376984D01*
X57206615Y37870580D01*
X56467991Y37870580D01*
X56467991Y38161494D01*
X57623755Y38161494D01*
X57623755Y37938624D01*
X57308200Y37246797D01*
X57245575Y37256984D01*
X56545575Y37256984D01*
X56545287Y36661103D01*
X56538491Y36638700D01*
X56528002Y36624557D01*
X56513859Y36614068D01*
X56491457Y36607273D01*
G37*
%LPD*%
X53664620Y37982015D02*
G36*
X53755469Y38072617D01*
X53989186Y38176163D01*
X54132054Y38189106D01*
X54274490Y38176163D01*
X54507714Y38072617D01*
X54598502Y37982015D01*
X54721770Y37731369D01*
X54762859Y37392956D01*
X54721770Y37055447D01*
X54598502Y36804884D01*
X54507714Y36714281D01*
X54274490Y36610736D01*
X54132054Y36597793D01*
X53989186Y36610736D01*
X53755469Y36714281D01*
X53664620Y36804884D01*
X53541352Y37055447D01*
X53500262Y37392956D01*
X53541352Y37731369D01*
X53664620Y37982015D01*
G37*
%LPC*%
X53950274Y37801221D02*
G36*
X53909349Y37641301D01*
X53895707Y37396243D01*
X53909349Y37148227D01*
X53950274Y36986006D01*
X54023002Y36896760D01*
X54132054Y36867011D01*
X54240530Y36896760D01*
X54312848Y36986006D01*
X54353773Y37148227D01*
X54367414Y37396243D01*
X54353937Y37641301D01*
X54313505Y37801221D01*
X54241187Y37889481D01*
X54132054Y37918901D01*
X54023002Y37889481D01*
X53950274Y37801221D01*
G37*
%LPD*%
X53190488Y37608840D02*
G36*
X53141921Y37496173D01*
X53041498Y37369535D01*
X52869744Y37205917D01*
X52542014Y36918291D01*
X53216868Y36918291D01*
X53216868Y36627706D01*
X52102193Y36627706D01*
X52102193Y36918291D01*
X52661996Y37412679D01*
X52727410Y37479655D01*
X52773102Y37545152D01*
X52799974Y37611141D01*
X52808932Y37679596D01*
X52790852Y37776896D01*
X52736614Y37853158D01*
X52652299Y37902466D01*
X52543987Y37918901D01*
X52447180Y37909040D01*
X52341498Y37879456D01*
X52227844Y37830313D01*
X52106466Y37761775D01*
X52106466Y38098709D01*
X52239185Y38137497D01*
X52370425Y38165767D01*
X52499610Y38183271D01*
X52626166Y38189106D01*
X52870895Y38158782D01*
X53054154Y38067810D01*
X53168547Y37922846D01*
X53206678Y37729890D01*
X53190488Y37608840D01*
G37*
%LPD*%
X56118114Y37608840D02*
G36*
X56069546Y37496173D01*
X55969123Y37369535D01*
X55797369Y37205917D01*
X55469640Y36918291D01*
X56144493Y36918291D01*
X56144493Y36627706D01*
X55029818Y36627706D01*
X55029818Y36918291D01*
X55589621Y37412679D01*
X55655035Y37479655D01*
X55700727Y37545152D01*
X55727599Y37611141D01*
X55736557Y37679596D01*
X55718477Y37776896D01*
X55664239Y37853158D01*
X55579924Y37902466D01*
X55471612Y37918901D01*
X55374805Y37909040D01*
X55269123Y37879456D01*
X55155469Y37830313D01*
X55034091Y37761775D01*
X55034091Y38098709D01*
X55166810Y38137497D01*
X55298050Y38165767D01*
X55427235Y38183271D01*
X55553791Y38189106D01*
X55798520Y38158782D01*
X55981779Y38067810D01*
X56096172Y37922846D01*
X56134303Y37729890D01*
X56118114Y37608840D01*
G37*
%LPD*%
X55231195Y40829345D02*
G36*
X55057195Y40872422D01*
X55057195Y41255833D01*
X55210108Y41191781D01*
X55366630Y41145771D01*
X55526534Y41118369D01*
X55688694Y41109235D01*
X55818603Y41119384D01*
X55911524Y41149831D01*
X55967682Y41200802D01*
X55986401Y41271620D01*
X55973546Y41330598D01*
X55934979Y41372209D01*
X55857959Y41401529D01*
X55640881Y41434908D01*
X55354338Y41495239D01*
X55168609Y41591430D01*
X55067118Y41735209D01*
X55033288Y41938303D01*
X55076253Y42156622D01*
X55205146Y42309986D01*
X55423126Y42400990D01*
X55732448Y42431324D01*
X55875663Y42426024D01*
X56025645Y42410124D01*
X56186113Y42383285D01*
X56359888Y42344267D01*
X56359888Y41960857D01*
X56200660Y42020060D01*
X56046845Y42062348D01*
X55900360Y42087721D01*
X55762219Y42096178D01*
X55636821Y42087157D01*
X55548411Y42060093D01*
X55496313Y42014422D01*
X55478946Y41949580D01*
X55492140Y41895790D01*
X55531722Y41856208D01*
X55605472Y41828242D01*
X55810033Y41795765D01*
X56134353Y41730698D01*
X56331471Y41633830D01*
X56431947Y41488924D01*
X56465439Y41279739D01*
X56418866Y41058827D01*
X56279146Y40900389D01*
X56047521Y40805325D01*
X55724329Y40773638D01*
X55565101Y40779840D01*
X55400460Y40798447D01*
X55231195Y40829345D01*
G37*
%LPD*%
X52786390Y41608119D02*
G36*
X52786390Y41464679D01*
X51606839Y41464679D01*
X51647886Y41309172D01*
X51734943Y41198096D01*
X51866769Y41131450D01*
X52042123Y41109235D01*
X52203268Y41121075D01*
X52368247Y41156597D01*
X52537850Y41216026D01*
X52711963Y41299587D01*
X52711963Y40910763D01*
X52532888Y40851335D01*
X52353813Y40808370D01*
X52174737Y40782321D01*
X51995662Y40773638D01*
X51614845Y40828105D01*
X51329430Y40991505D01*
X51151483Y41253239D01*
X51092167Y41602706D01*
X51150468Y41947550D01*
X51325371Y42209848D01*
X51602554Y42375955D01*
X51967696Y42431324D01*
X52302616Y42375279D01*
X52563110Y42207142D01*
X52730570Y41945520D01*
X52786390Y41608119D01*
G37*
%LPC*%
X51652059Y41912931D02*
G36*
X51612252Y41775918D01*
X52267658Y41775918D01*
X52246683Y41905826D01*
X52183759Y42007768D01*
X52087004Y42074076D01*
X51964538Y42096178D01*
X51831698Y42075542D01*
X51726373Y42013632D01*
X51652059Y41912931D01*
G37*
%LPD*%
X54688501Y41945520D02*
G36*
X54744321Y41608119D01*
X54744321Y41464679D01*
X53564770Y41464679D01*
X53605817Y41309172D01*
X53692874Y41198096D01*
X53824699Y41131450D01*
X54000053Y41109235D01*
X54161198Y41121075D01*
X54326178Y41156597D01*
X54495780Y41216026D01*
X54669894Y41299587D01*
X54669894Y40910763D01*
X54490819Y40851335D01*
X54311743Y40808370D01*
X54132668Y40782321D01*
X53953593Y40773638D01*
X53572776Y40828105D01*
X53287361Y40991505D01*
X53109413Y41253239D01*
X53050097Y41602706D01*
X53108398Y41947550D01*
X53283301Y42209848D01*
X53560484Y42375955D01*
X53925626Y42431324D01*
X54260547Y42375279D01*
X54521040Y42207142D01*
X54688501Y41945520D01*
G37*
%LPC*%
X53789629Y42075542D02*
G36*
X53684303Y42013632D01*
X53609989Y41912931D01*
X53570182Y41775918D01*
X54225589Y41775918D01*
X54204614Y41905826D01*
X54141690Y42007768D01*
X54044935Y42074076D01*
X53922469Y42096178D01*
X53789629Y42075542D01*
G37*
%LPD*%
X57395717Y42393434D02*
G36*
X57916253Y42393434D01*
X57916253Y42032577D01*
X57395717Y42032577D01*
X57395717Y41363188D01*
X57406655Y41270944D01*
X57439471Y41214334D01*
X57504763Y41185240D01*
X57613133Y41175542D01*
X57872499Y41175542D01*
X57872499Y40814685D01*
X57439471Y40814685D01*
X57184277Y40845809D01*
X57015915Y40939181D01*
X56922543Y41107656D01*
X56891419Y41363188D01*
X56891419Y42032577D01*
X56640173Y42032577D01*
X56640173Y42393434D01*
X56891419Y42393434D01*
X56891419Y42841799D01*
X57395717Y42841799D01*
X57395717Y42393434D01*
G37*
%LPD*%
X61225741Y44890251D02*
G36*
X61202330Y44890251D01*
X61180701Y44899210D01*
X61161120Y44920814D01*
X61154324Y44943217D01*
X61154035Y45599098D01*
X61158602Y45622059D01*
X61167655Y45637162D01*
X61191074Y45654531D01*
X61214035Y45659098D01*
X61864035Y45659098D01*
X61886996Y45654531D01*
X61902099Y45645479D01*
X61921452Y45616515D01*
X61921452Y45581681D01*
X61906462Y45556672D01*
X61875741Y45540251D01*
X61274035Y45539098D01*
X61273746Y44943217D01*
X61266951Y44920814D01*
X61256462Y44906672D01*
X61225741Y44890251D01*
G37*
%LPD*%
X59989540Y49688148D02*
G36*
X60045708Y49660899D01*
X60406073Y49388059D01*
X60802951Y49501862D01*
X60505956Y49788667D01*
X60059682Y49716945D01*
X59997296Y49719255D01*
X59940543Y49745262D01*
X59898062Y49791009D01*
X59876321Y49849530D01*
X59878630Y49911916D01*
X59904638Y49968670D01*
X59928826Y49991131D01*
X59868468Y50017272D01*
X59825987Y50063018D01*
X59804246Y50121539D01*
X59806556Y50183926D01*
X59832563Y50240679D01*
X59878310Y50283160D01*
X59936831Y50304901D01*
X59974996Y50311034D01*
X59959640Y50333169D01*
X59946394Y50394177D01*
X59957503Y50455609D01*
X59991275Y50508114D01*
X60042570Y50543699D01*
X60103577Y50556945D01*
X60165010Y50545836D01*
X60187667Y50531262D01*
X60192465Y50569618D01*
X60212150Y50628862D01*
X60253009Y50676063D01*
X60308820Y50704036D01*
X60371088Y50708521D01*
X60430332Y50688836D01*
X60477533Y50647977D01*
X60505765Y50588568D01*
X60527368Y50613525D01*
X60583179Y50641498D01*
X60645447Y50645983D01*
X60704691Y50626298D01*
X60751892Y50585439D01*
X60779865Y50529628D01*
X60784350Y50467361D01*
X60728246Y50018856D01*
X61025242Y49732051D01*
X61125124Y50132659D01*
X60839875Y50483282D01*
X60810681Y50538465D01*
X60804828Y50600618D01*
X60823205Y50660281D01*
X60863016Y50708370D01*
X60918198Y50737563D01*
X60980352Y50743416D01*
X61011898Y50733700D01*
X61004358Y50799042D01*
X61022735Y50858705D01*
X61062546Y50906793D01*
X61117728Y50935986D01*
X61179882Y50941840D01*
X61239545Y50923462D01*
X61287633Y50883652D01*
X61312027Y50853667D01*
X61323519Y50878033D01*
X61369730Y50920008D01*
X61428487Y50941104D01*
X61490844Y50938109D01*
X61547308Y50911478D01*
X61589283Y50865267D01*
X61610379Y50806511D01*
X61609086Y50779602D01*
X61644702Y50794625D01*
X61705852Y50807199D01*
X61767158Y50795415D01*
X61819289Y50761068D01*
X61854307Y50709385D01*
X61866881Y50648235D01*
X61855097Y50586929D01*
X61817763Y50532775D01*
X61850178Y50526544D01*
X61902309Y50492197D01*
X61937327Y50440514D01*
X61949901Y50379364D01*
X61938118Y50318058D01*
X61903770Y50265927D01*
X61852087Y50230909D01*
X61435619Y50055244D01*
X61335736Y49654636D01*
X61732614Y49768439D01*
X61893638Y50190784D01*
X61926831Y50243657D01*
X61977731Y50279804D01*
X62038589Y50293720D01*
X62100140Y50283287D01*
X62153013Y50250094D01*
X62189160Y50199194D01*
X62196518Y50167016D01*
X62249336Y50206217D01*
X62310194Y50220133D01*
X62371745Y50209701D01*
X62424618Y50176508D01*
X62460764Y50125608D01*
X62474680Y50064750D01*
X62464248Y50003199D01*
X62450477Y49967080D01*
X62477324Y49969311D01*
X62536781Y49950279D01*
X62584429Y49909942D01*
X62613014Y49854442D01*
X62618183Y49792227D01*
X62599151Y49732770D01*
X62558814Y49685122D01*
X62534864Y49672787D01*
X62565682Y49649454D01*
X62607147Y49602785D01*
X62627595Y49543800D01*
X62623914Y49481479D01*
X62596665Y49425311D01*
X62549995Y49383847D01*
X62491010Y49363399D01*
X62425444Y49368654D01*
X62436256Y49337466D01*
X62432575Y49275146D01*
X62405326Y49218978D01*
X62358656Y49177514D01*
X62299671Y49157065D01*
X62237351Y49160746D01*
X62181183Y49187996D01*
X61820818Y49460835D01*
X61423940Y49347032D01*
X61720935Y49060227D01*
X62167209Y49131949D01*
X62229595Y49129640D01*
X62286349Y49103632D01*
X62328829Y49057886D01*
X62350570Y48999365D01*
X62348261Y48936978D01*
X62322253Y48880225D01*
X62298065Y48857764D01*
X62358423Y48831623D01*
X62400904Y48785876D01*
X62422645Y48727355D01*
X62420335Y48664969D01*
X62394328Y48608215D01*
X62348581Y48565735D01*
X62290060Y48543994D01*
X62251895Y48537860D01*
X62267251Y48515725D01*
X62280497Y48454718D01*
X62269388Y48393285D01*
X62235616Y48340780D01*
X62184321Y48305196D01*
X62123314Y48291950D01*
X62061881Y48303059D01*
X62039224Y48317632D01*
X62034426Y48279277D01*
X62014741Y48220033D01*
X61973882Y48172831D01*
X61918071Y48144859D01*
X61855803Y48140374D01*
X61796559Y48160059D01*
X61749358Y48200917D01*
X61721126Y48260326D01*
X61699523Y48235369D01*
X61643712Y48207397D01*
X61581444Y48202912D01*
X61522200Y48222597D01*
X61474999Y48263455D01*
X61447026Y48319266D01*
X61442541Y48381534D01*
X61498645Y48830039D01*
X61201650Y49116843D01*
X61101767Y48716236D01*
X61387016Y48365613D01*
X61416210Y48310430D01*
X61422063Y48248276D01*
X61403686Y48188613D01*
X61363875Y48140525D01*
X61308693Y48111332D01*
X61246539Y48105478D01*
X61214993Y48115195D01*
X61222533Y48049853D01*
X61204156Y47990190D01*
X61164346Y47942101D01*
X61109163Y47912908D01*
X61047009Y47907055D01*
X60987346Y47925432D01*
X60939258Y47965242D01*
X60914864Y47995227D01*
X60903372Y47970862D01*
X60857161Y47928886D01*
X60798404Y47907791D01*
X60736047Y47910786D01*
X60679583Y47937416D01*
X60637608Y47983627D01*
X60616512Y48042384D01*
X60617805Y48069292D01*
X60582189Y48054270D01*
X60521040Y48041695D01*
X60459733Y48053479D01*
X60407602Y48087827D01*
X60372584Y48139510D01*
X60360010Y48200659D01*
X60371794Y48261966D01*
X60409128Y48316120D01*
X60376713Y48322350D01*
X60324582Y48356698D01*
X60289564Y48408381D01*
X60276990Y48469530D01*
X60288773Y48530837D01*
X60323121Y48582967D01*
X60374804Y48617985D01*
X60791272Y48793651D01*
X60891155Y49194259D01*
X60494277Y49080456D01*
X60333253Y48658111D01*
X60300060Y48605237D01*
X60249160Y48569091D01*
X60188302Y48555175D01*
X60126751Y48565607D01*
X60073878Y48598800D01*
X60037731Y48649700D01*
X60030373Y48681878D01*
X59977556Y48642677D01*
X59916697Y48628761D01*
X59855146Y48639194D01*
X59802273Y48672387D01*
X59766127Y48723287D01*
X59752211Y48784145D01*
X59762643Y48845696D01*
X59776414Y48881814D01*
X59749567Y48879583D01*
X59690110Y48898616D01*
X59642462Y48938953D01*
X59613877Y48994453D01*
X59608708Y49056667D01*
X59627740Y49116124D01*
X59668077Y49163772D01*
X59692027Y49176107D01*
X59661209Y49199440D01*
X59619744Y49246110D01*
X59599296Y49305095D01*
X59602977Y49367415D01*
X59630226Y49423583D01*
X59676896Y49465048D01*
X59735881Y49485496D01*
X59801447Y49480241D01*
X59790635Y49511428D01*
X59794316Y49573748D01*
X59821565Y49629916D01*
X59868235Y49671381D01*
X59927220Y49691829D01*
X59989540Y49688148D01*
G37*
%LPD*%
X56198295Y49898847D02*
G36*
X56221705Y49898847D01*
X56243334Y49889888D01*
X56262915Y49868284D01*
X56269711Y49845881D01*
X56270000Y49190000D01*
X56265433Y49167039D01*
X56256381Y49151936D01*
X56232961Y49134567D01*
X56210000Y49130000D01*
X55560000Y49130000D01*
X55537039Y49134567D01*
X55521936Y49143619D01*
X55502584Y49172583D01*
X55502584Y49207417D01*
X55517574Y49232426D01*
X55548295Y49248847D01*
X56150000Y49250000D01*
X56150289Y49845881D01*
X56157085Y49868284D01*
X56167574Y49882426D01*
X56198295Y49898847D01*
G37*
%LPD*%
X66596849Y51462863D02*
G36*
X66573551Y51465158D01*
X66552904Y51476194D01*
X66538053Y51494291D01*
X66531257Y51516693D01*
X66530968Y52172574D01*
X66535535Y52195535D01*
X66548542Y52215001D01*
X66568007Y52228007D01*
X66590968Y52232574D01*
X67240968Y52232574D01*
X67263929Y52228007D01*
X67283395Y52215001D01*
X67298385Y52189991D01*
X67298385Y52155157D01*
X67283395Y52130148D01*
X67252674Y52113727D01*
X66650968Y52112574D01*
X66650679Y51516693D01*
X66646401Y51499613D01*
X66633395Y51480148D01*
X66619252Y51469659D01*
X66596849Y51462863D01*
G37*
%LPD*%
X63758204Y54864296D02*
G36*
X63807479Y54825964D01*
X64103242Y54484162D01*
X64515108Y54512963D01*
X64284233Y54855249D01*
X63832800Y54877880D01*
X63772257Y54893110D01*
X63722151Y54930349D01*
X63690110Y54983928D01*
X63681012Y55045690D01*
X63696241Y55106233D01*
X63733480Y55156339D01*
X63761809Y55173280D01*
X63708205Y55211399D01*
X63676164Y55264979D01*
X63667066Y55326741D01*
X63682295Y55387284D01*
X63719534Y55437390D01*
X63773114Y55469431D01*
X63834876Y55478529D01*
X63873482Y55476594D01*
X63863064Y55501438D01*
X63862792Y55563866D01*
X63886430Y55621647D01*
X63930381Y55665983D01*
X63987953Y55690125D01*
X64050382Y55690397D01*
X64108162Y55666758D01*
X64127294Y55647793D01*
X64139962Y55684312D01*
X64171534Y55738169D01*
X64221313Y55775844D01*
X64281721Y55791601D01*
X64343560Y55783042D01*
X64397417Y55751470D01*
X64435092Y55701691D01*
X64450355Y55637710D01*
X64476675Y55657630D01*
X64537083Y55673388D01*
X64598922Y55664829D01*
X64652779Y55633256D01*
X64690454Y55583477D01*
X64706211Y55523069D01*
X64697652Y55461230D01*
X64549525Y55034191D01*
X64780400Y54691905D01*
X64961391Y55062991D01*
X64755274Y55465259D01*
X64738191Y55525306D01*
X64745388Y55587318D01*
X64775769Y55641857D01*
X64824707Y55680617D01*
X64884754Y55697699D01*
X64946766Y55690502D01*
X64975603Y55674439D01*
X64981813Y55739921D01*
X65012193Y55794459D01*
X65061131Y55833220D01*
X65121178Y55850302D01*
X65183191Y55843105D01*
X65237729Y55812725D01*
X65276489Y55763786D01*
X65294116Y55729385D01*
X65310423Y55750829D01*
X65364351Y55782279D01*
X65426210Y55790697D01*
X65486581Y55774803D01*
X65536275Y55737015D01*
X65567725Y55683087D01*
X65576143Y55621228D01*
X65569284Y55595176D01*
X65607245Y55602466D01*
X65669673Y55602051D01*
X65727190Y55577779D01*
X65771040Y55533343D01*
X65794547Y55475509D01*
X65794133Y55413081D01*
X65769861Y55355564D01*
X65722083Y55310356D01*
X65752495Y55297522D01*
X65796345Y55253087D01*
X65819852Y55195253D01*
X65819438Y55132825D01*
X65795165Y55075308D01*
X65750730Y55031458D01*
X65692895Y55007951D01*
X65249005Y54922713D01*
X65068014Y54551626D01*
X65479880Y54580426D01*
X65725196Y54960063D01*
X65768656Y55004880D01*
X65825959Y55029654D01*
X65888381Y55030613D01*
X65946418Y55007611D01*
X65991235Y54964150D01*
X66016008Y54906847D01*
X66016515Y54873843D01*
X66076329Y54901206D01*
X66138751Y54902165D01*
X66196788Y54879163D01*
X66241605Y54835702D01*
X66266378Y54778399D01*
X66267337Y54715978D01*
X66244335Y54657941D01*
X66223356Y54625475D01*
X66250081Y54622075D01*
X66304281Y54591097D01*
X66342501Y54541735D01*
X66358922Y54481504D01*
X66351044Y54419574D01*
X66320065Y54365374D01*
X66270703Y54327154D01*
X66244712Y54320068D01*
X66270006Y54290837D01*
X66300861Y54236566D01*
X66308599Y54174619D01*
X66292041Y54114426D01*
X66253709Y54065151D01*
X66199438Y54034296D01*
X66137491Y54026558D01*
X66074451Y54045330D01*
X66078542Y54012576D01*
X66061984Y53952383D01*
X66023652Y53903108D01*
X65969381Y53872253D01*
X65907434Y53864515D01*
X65847241Y53881073D01*
X65797966Y53919405D01*
X65502202Y54261206D01*
X65090336Y54232405D01*
X65321211Y53890119D01*
X65772644Y53867488D01*
X65833187Y53852259D01*
X65883293Y53815020D01*
X65915334Y53761440D01*
X65924433Y53699678D01*
X65909203Y53639135D01*
X65871964Y53589029D01*
X65843635Y53572088D01*
X65897239Y53533969D01*
X65929280Y53480390D01*
X65938379Y53418627D01*
X65923149Y53358084D01*
X65885910Y53307978D01*
X65832331Y53275937D01*
X65770568Y53266839D01*
X65731962Y53268774D01*
X65742380Y53243930D01*
X65742653Y53181502D01*
X65719014Y53123722D01*
X65675063Y53079386D01*
X65617491Y53055244D01*
X65555063Y53054971D01*
X65497282Y53078610D01*
X65478150Y53097576D01*
X65465483Y53061056D01*
X65433910Y53007199D01*
X65384131Y52969524D01*
X65323723Y52953767D01*
X65261884Y52962326D01*
X65208027Y52993898D01*
X65170352Y53043677D01*
X65155089Y53107658D01*
X65128769Y53087738D01*
X65068362Y53071981D01*
X65006522Y53080540D01*
X64952666Y53112112D01*
X64914991Y53161891D01*
X64899233Y53222299D01*
X64907792Y53284138D01*
X65055919Y53711177D01*
X64825044Y54053464D01*
X64644053Y53682377D01*
X64850171Y53280109D01*
X64867253Y53220062D01*
X64860056Y53158050D01*
X64829676Y53103512D01*
X64780737Y53064751D01*
X64720691Y53047669D01*
X64658678Y53054866D01*
X64629842Y53070929D01*
X64623632Y53005447D01*
X64593251Y52950909D01*
X64544313Y52912148D01*
X64484267Y52895066D01*
X64422254Y52902263D01*
X64367716Y52932644D01*
X64328955Y52981582D01*
X64311328Y53015984D01*
X64295022Y52994540D01*
X64241093Y52963089D01*
X64179235Y52954671D01*
X64118863Y52970565D01*
X64069170Y53008353D01*
X64037720Y53062282D01*
X64029301Y53124140D01*
X64036160Y53150192D01*
X63998199Y53142903D01*
X63935771Y53143317D01*
X63878254Y53167589D01*
X63834404Y53212025D01*
X63810897Y53269859D01*
X63811311Y53332287D01*
X63835584Y53389804D01*
X63883361Y53435012D01*
X63852950Y53447846D01*
X63809100Y53492282D01*
X63785592Y53550116D01*
X63786006Y53612543D01*
X63810279Y53670060D01*
X63854715Y53713910D01*
X63912549Y53737418D01*
X64356439Y53822656D01*
X64537430Y54193742D01*
X64125564Y54164942D01*
X63880249Y53785305D01*
X63836788Y53740488D01*
X63779485Y53715714D01*
X63717063Y53714756D01*
X63659026Y53737757D01*
X63614210Y53781218D01*
X63589436Y53838521D01*
X63588929Y53871525D01*
X63529115Y53844162D01*
X63466693Y53843203D01*
X63408656Y53866205D01*
X63363840Y53909666D01*
X63339066Y53966969D01*
X63338107Y54029390D01*
X63361109Y54087427D01*
X63382088Y54119894D01*
X63355364Y54123293D01*
X63301163Y54154272D01*
X63262943Y54203633D01*
X63246522Y54263864D01*
X63254401Y54325794D01*
X63285379Y54379994D01*
X63334741Y54418215D01*
X63360732Y54425301D01*
X63335439Y54454531D01*
X63304584Y54508802D01*
X63296846Y54570749D01*
X63313403Y54630943D01*
X63351735Y54680218D01*
X63406006Y54711073D01*
X63467954Y54718810D01*
X63530994Y54700038D01*
X63526903Y54732792D01*
X63543460Y54792985D01*
X63581792Y54842260D01*
X63636063Y54873115D01*
X63698010Y54880853D01*
X63758204Y54864296D01*
G37*
%LPD*%
X63004119Y57549711D02*
G36*
X63027417Y57547416D01*
X63048064Y57536381D01*
X63062915Y57518284D01*
X63069711Y57495881D01*
X63070000Y56840000D01*
X63065433Y56817039D01*
X63052426Y56797574D01*
X63032961Y56784567D01*
X63010000Y56780000D01*
X62360000Y56780000D01*
X62337039Y56784567D01*
X62317574Y56797574D01*
X62302584Y56822583D01*
X62302584Y56857417D01*
X62317574Y56882426D01*
X62348295Y56898847D01*
X62950000Y56900000D01*
X62950289Y57495881D01*
X62957085Y57518284D01*
X62967574Y57532426D01*
X62981716Y57542915D01*
X63004119Y57549711D01*
G37*
%LPD*%
X69340580Y63530000D02*
G36*
X69042003Y63532584D01*
X69023320Y63542163D01*
X69040443Y63586088D01*
X69045000Y63648167D01*
X69355000Y63648167D01*
X69359557Y63586088D01*
X69376680Y63542163D01*
X69363541Y63534567D01*
X69340580Y63530000D01*
G37*
%LPD*%
X69045000Y64551833D02*
G36*
X69039251Y64618672D01*
X69023320Y64657837D01*
X69047715Y64668847D01*
X69340580Y64670000D01*
X69357997Y64667416D01*
X69376680Y64657837D01*
X69359557Y64613912D01*
X69352285Y64551153D01*
X69053539Y64550289D01*
X69045000Y64551833D01*
G37*
%LPD*%
X72395881Y65929711D02*
G36*
X72412961Y65925433D01*
X72432426Y65912426D01*
X72448847Y65881705D01*
X72450000Y65660000D01*
X72445433Y65637039D01*
X72432426Y65617574D01*
X72412961Y65604567D01*
X72390000Y65600000D01*
X72367039Y65604567D01*
X72351936Y65613619D01*
X72340112Y65626666D01*
X72331153Y65648295D01*
X72330000Y65870000D01*
X72334567Y65892961D01*
X72347574Y65912426D01*
X72367039Y65925433D01*
X72395881Y65929711D01*
G37*
%LPD*%
X72345208Y66070079D02*
G36*
X72098196Y66409729D01*
X72090151Y66444261D01*
X72103007Y66477304D01*
X72121239Y66492658D01*
X72150000Y66500000D01*
X72630000Y66500000D01*
X72647728Y66497321D01*
X72668647Y66485896D01*
X72683467Y66467227D01*
X72689124Y66450213D01*
X72689502Y66432288D01*
X72681804Y66409729D01*
X72438524Y66074710D01*
X72415893Y66055875D01*
X72392974Y66050074D01*
X72364107Y66055875D01*
X72345208Y66070079D01*
G37*
%LPD*%
X71072454Y66891560D02*
G36*
X71023757Y66877366D01*
X70973335Y66882888D01*
X70928864Y66907286D01*
X69779798Y67871467D01*
X69748049Y67911026D01*
X69733855Y67959723D01*
X69739377Y68010145D01*
X69763774Y68054615D01*
X69803333Y68086365D01*
X69852030Y68100558D01*
X69902452Y68095036D01*
X69946922Y68070639D01*
X71095989Y67106457D01*
X71127738Y67066899D01*
X71141932Y67018202D01*
X71136410Y66967780D01*
X71112012Y66923309D01*
X71072454Y66891560D01*
G37*
%LPD*%
X72181521Y67814094D02*
G36*
X72131053Y67819176D01*
X72086371Y67843184D01*
X72054278Y67882464D01*
X71350070Y69206886D01*
X71335452Y69255457D01*
X71340534Y69305925D01*
X71364542Y69350607D01*
X71403822Y69382700D01*
X71452394Y69397319D01*
X71502862Y69392237D01*
X71547544Y69368228D01*
X71579637Y69328948D01*
X72283844Y68004527D01*
X72298462Y67955956D01*
X72293381Y67905487D01*
X72269372Y67860805D01*
X72230092Y67828712D01*
X72181521Y67814094D01*
G37*
%LPD*%
X68022095Y73015193D02*
G36*
X68019801Y72991895D01*
X68008765Y72971249D01*
X67990668Y72956397D01*
X67968265Y72949601D01*
X67312384Y72949312D01*
X67289423Y72953879D01*
X67269958Y72966886D01*
X67256952Y72986351D01*
X67252384Y73009312D01*
X67252384Y73659312D01*
X67256952Y73682273D01*
X67269958Y73701739D01*
X67294967Y73716729D01*
X67329801Y73716729D01*
X67354811Y73701739D01*
X67371231Y73671018D01*
X67372384Y73069312D01*
X67968265Y73069023D01*
X67985345Y73064745D01*
X68004811Y73051739D01*
X68017817Y73032273D01*
X68022095Y73015193D01*
G37*
%LPD*%
X63776071Y76570313D02*
G36*
X63799369Y76568018D01*
X63820016Y76556983D01*
X63834867Y76538886D01*
X63841663Y76516483D01*
X63841952Y75860602D01*
X63837385Y75837641D01*
X63824379Y75818176D01*
X63804913Y75805169D01*
X63781952Y75800602D01*
X63131952Y75800602D01*
X63108991Y75805169D01*
X63089526Y75818176D01*
X63074536Y75843185D01*
X63074536Y75878019D01*
X63089526Y75903028D01*
X63120247Y75919449D01*
X63721952Y75920602D01*
X63722241Y76516483D01*
X63729037Y76538886D01*
X63739526Y76553028D01*
X63758991Y76566035D01*
X63776071Y76570313D01*
G37*
%LPD*%
X64604711Y80390881D02*
G36*
X64602416Y80367583D01*
X64591381Y80346936D01*
X64573284Y80332085D01*
X64550881Y80325289D01*
X63895000Y80325000D01*
X63872039Y80329567D01*
X63852574Y80342574D01*
X63839567Y80362039D01*
X63835000Y80385000D01*
X63835000Y81035000D01*
X63839567Y81057961D01*
X63852574Y81077426D01*
X63877583Y81092416D01*
X63912417Y81092416D01*
X63937426Y81077426D01*
X63953847Y81046705D01*
X63955000Y80445000D01*
X64550881Y80444711D01*
X64567961Y80440433D01*
X64587426Y80427426D01*
X64600433Y80407961D01*
X64604711Y80390881D01*
G37*
%LPD*%
X55076153Y81273295D02*
G36*
X55076153Y81296705D01*
X55085112Y81318334D01*
X55106716Y81337915D01*
X55129119Y81344711D01*
X55785000Y81345000D01*
X55802417Y81342416D01*
X55823064Y81331381D01*
X55840433Y81307961D01*
X55845000Y81285000D01*
X55845000Y80635000D01*
X55840433Y80612039D01*
X55831381Y80596936D01*
X55802417Y80577584D01*
X55767583Y80577584D01*
X55742574Y80592574D01*
X55726153Y80623295D01*
X55725000Y81225000D01*
X55129119Y81225289D01*
X55112039Y81229567D01*
X55092574Y81242574D01*
X55076153Y81273295D01*
G37*
%LPD*%
X59434119Y85684711D02*
G36*
X59457417Y85682416D01*
X59478064Y85671381D01*
X59492915Y85653284D01*
X59499711Y85630881D01*
X59500000Y84975000D01*
X59495433Y84952039D01*
X59482426Y84932574D01*
X59462961Y84919567D01*
X59440000Y84915000D01*
X58790000Y84915000D01*
X58767039Y84919567D01*
X58747574Y84932574D01*
X58732584Y84957583D01*
X58732584Y84992417D01*
X58747574Y85017426D01*
X58778295Y85033847D01*
X59380000Y85035000D01*
X59380289Y85630881D01*
X59387085Y85653284D01*
X59397574Y85667426D01*
X59417039Y85680433D01*
X59434119Y85684711D01*
G37*
%LPD*%
X89150000Y53040000D02*
G36*
X85844119Y53040289D01*
X85821716Y53047085D01*
X85807574Y53057574D01*
X85794567Y53077039D01*
X85790289Y53094119D01*
X85790289Y53405881D01*
X85803619Y53438064D01*
X85816666Y53449888D01*
X85838295Y53458847D01*
X85861705Y53458847D01*
X85878284Y53452915D01*
X85902915Y53428284D01*
X85910000Y53400000D01*
X85910000Y53160000D01*
X89090000Y53160000D01*
X89091153Y53411705D01*
X89100112Y53433334D01*
X89111936Y53446381D01*
X89132583Y53457416D01*
X89155881Y53459711D01*
X89178284Y53452915D01*
X89192426Y53442426D01*
X89208847Y53411705D01*
X89210000Y53100000D01*
X89205433Y53077039D01*
X89192426Y53057574D01*
X89172961Y53044567D01*
X89150000Y53040000D01*
G37*
%LPD*%
X79935782Y54603343D02*
G36*
X79938076Y54626641D01*
X79949112Y54647288D01*
X79967209Y54662140D01*
X79989612Y54668935D01*
X80645493Y54669224D01*
X80668454Y54664657D01*
X80687919Y54651651D01*
X80700925Y54632185D01*
X80705493Y54609224D01*
X80705493Y53959224D01*
X80700925Y53936263D01*
X80687919Y53916798D01*
X80662910Y53901808D01*
X80628076Y53901808D01*
X80603066Y53916798D01*
X80586646Y53947519D01*
X80585493Y54549224D01*
X79989612Y54549513D01*
X79967209Y54556309D01*
X79953066Y54566798D01*
X79940060Y54586263D01*
X79935782Y54603343D01*
G37*
%LPD*%
X93435353Y51842811D02*
G36*
X93189360Y51523007D01*
X92924140Y51233571D01*
X92626993Y50960640D01*
X92307189Y50714647D01*
X91967162Y50497462D01*
X91609501Y50310739D01*
X91236926Y50155898D01*
X90852274Y50034119D01*
X90447733Y49944435D01*
X90047653Y49892243D01*
X89644548Y49875119D01*
X89252347Y49892243D01*
X88852267Y49944435D01*
X88458259Y50031297D01*
X88063074Y50155898D01*
X87690499Y50310739D01*
X87332838Y50497462D01*
X86992811Y50714647D01*
X86673007Y50960640D01*
X86375860Y51233571D01*
X86110640Y51523007D01*
X85864647Y51842811D01*
X85647462Y52182838D01*
X85460739Y52540499D01*
X85302169Y52923321D01*
X85181297Y53308259D01*
X85094435Y53702267D01*
X85042243Y54102347D01*
X85025119Y54494548D01*
X85042243Y54897653D01*
X85094435Y55297733D01*
X85181297Y55691741D01*
X85302169Y56076679D01*
X85460739Y56459501D01*
X85647462Y56817162D01*
X85864647Y57157189D01*
X86110640Y57476993D01*
X86375860Y57766429D01*
X86673007Y58039360D01*
X86992811Y58285353D01*
X87332838Y58502538D01*
X87690499Y58689261D01*
X88063074Y58844102D01*
X88447726Y58965881D01*
X88852267Y59055565D01*
X89252347Y59107757D01*
X89655452Y59124881D01*
X90047653Y59107757D01*
X90447733Y59055565D01*
X90841741Y58968703D01*
X91236926Y58844102D01*
X91609501Y58689261D01*
X91967162Y58502538D01*
X92307189Y58285353D01*
X92618639Y58046369D01*
X92916429Y57774140D01*
X93196369Y57468639D01*
X93441608Y57148256D01*
X93652538Y56817162D01*
X93843870Y56449618D01*
X93997831Y56076679D01*
X94115881Y55702274D01*
X94205565Y55297733D01*
X94256807Y54908517D01*
X94274881Y54505452D01*
X94257757Y54102347D01*
X94249584Y54036620D01*
X94248315Y54089219D01*
X94238242Y54157123D01*
X94215473Y54232183D01*
X94195374Y54276930D01*
X94170987Y54319492D01*
X94130093Y54374630D01*
X94074630Y54430093D01*
X94023497Y54468310D01*
X94008233Y54881296D01*
X93958417Y55259690D01*
X93875810Y55632303D01*
X93761043Y55996297D01*
X93614989Y56348905D01*
X93438758Y56687440D01*
X93233693Y57009329D01*
X93001353Y57312119D01*
X92743508Y57593508D01*
X92462119Y57851353D01*
X92159329Y58083693D01*
X91837440Y58288758D01*
X91498905Y58464989D01*
X91146297Y58611043D01*
X90782303Y58725810D01*
X90409690Y58808417D01*
X90031296Y58858233D01*
X89650000Y58874881D01*
X89268704Y58858233D01*
X88890310Y58808417D01*
X88517697Y58725810D01*
X88153703Y58611043D01*
X87801095Y58464989D01*
X87462560Y58288758D01*
X87140671Y58083693D01*
X86837881Y57851353D01*
X86556492Y57593508D01*
X86298647Y57312119D01*
X86066307Y57009329D01*
X85861242Y56687440D01*
X85685011Y56348905D01*
X85538957Y55996297D01*
X85424190Y55632303D01*
X85405944Y55550000D01*
X85310982Y55546157D01*
X85249315Y55522755D01*
X85223121Y55504602D01*
X85195398Y55476879D01*
X85173616Y55444279D01*
X85158612Y55408057D01*
X85150000Y55350000D01*
X85150000Y53650000D01*
X85153843Y53610982D01*
X85165224Y53573463D01*
X85183706Y53538886D01*
X85208579Y53508579D01*
X85238886Y53483706D01*
X85273463Y53465224D01*
X85310982Y53453843D01*
X85405944Y53450000D01*
X85424190Y53367697D01*
X85538957Y53003703D01*
X85685011Y52651095D01*
X85861242Y52312560D01*
X86066307Y51990671D01*
X86298647Y51687881D01*
X86556492Y51406492D01*
X86837881Y51148647D01*
X87140671Y50916307D01*
X87462560Y50711242D01*
X87801095Y50535011D01*
X88153703Y50388957D01*
X88517697Y50274190D01*
X88890310Y50191583D01*
X89268704Y50141767D01*
X89650000Y50125119D01*
X90031296Y50141767D01*
X90409690Y50191583D01*
X90782303Y50274190D01*
X91146297Y50388957D01*
X91498905Y50535011D01*
X91837440Y50711242D01*
X92159329Y50916307D01*
X92462119Y51148647D01*
X92743508Y51406492D01*
X93001353Y51687881D01*
X93233693Y51990671D01*
X93438758Y52312560D01*
X93614989Y52651095D01*
X93761043Y53003703D01*
X93875810Y53367697D01*
X93923165Y53581301D01*
X93976930Y53604626D01*
X94035811Y53639918D01*
X94074630Y53669907D01*
X94130093Y53725370D01*
X94170987Y53780508D01*
X94195374Y53823070D01*
X94215473Y53867817D01*
X94236135Y53934466D01*
X94203672Y53691528D01*
X94118703Y53308259D01*
X93994102Y52913074D01*
X93839261Y52540499D01*
X93657991Y52192281D01*
X93435353Y51842811D01*
G37*
%LPD*%
X90845881Y54750289D02*
G36*
X90822583Y54752584D01*
X90801936Y54763619D01*
X90787085Y54781716D01*
X90780289Y54804119D01*
X90780000Y55460000D01*
X90784567Y55482961D01*
X90797574Y55502426D01*
X90817039Y55515433D01*
X90840000Y55520000D01*
X91490000Y55520000D01*
X91512961Y55515433D01*
X91532426Y55502426D01*
X91547416Y55477417D01*
X91547416Y55442583D01*
X91532426Y55417574D01*
X91501705Y55401153D01*
X90900000Y55400000D01*
X90899711Y54804119D01*
X90895433Y54787039D01*
X90882426Y54767574D01*
X90868284Y54757085D01*
X90845881Y54750289D01*
G37*
%LPD*%
X85850000Y55960000D02*
G36*
X89155881Y55959711D01*
X89178284Y55952915D01*
X89192426Y55942426D01*
X89205433Y55922961D01*
X89209711Y55905881D01*
X89209711Y55594119D01*
X89196381Y55561936D01*
X89183334Y55550112D01*
X89161705Y55541153D01*
X89138295Y55541153D01*
X89121716Y55547085D01*
X89097085Y55571716D01*
X89090000Y55600000D01*
X89090000Y55840000D01*
X85910000Y55840000D01*
X85908847Y55588295D01*
X85899888Y55566666D01*
X85888064Y55553619D01*
X85867417Y55542584D01*
X85844119Y55540289D01*
X85821716Y55547085D01*
X85807574Y55557574D01*
X85791153Y55588295D01*
X85790000Y55900000D01*
X85794567Y55922961D01*
X85807574Y55942426D01*
X85827039Y55955433D01*
X85850000Y55960000D01*
G37*
%LPD*%
X83821767Y60412837D02*
G36*
X83876827Y60442261D01*
X83938956Y60448375D01*
X83980859Y60435659D01*
X83975613Y60479134D01*
X83992423Y60539258D01*
X84030960Y60588372D01*
X84070164Y60610444D01*
X84062900Y60623346D01*
X84055421Y60685325D01*
X84072230Y60745449D01*
X84110768Y60794563D01*
X84165168Y60825190D01*
X84227147Y60832669D01*
X84274364Y60819468D01*
X84290999Y60857273D01*
X84336095Y60900444D01*
X84394279Y60923070D01*
X84456693Y60921708D01*
X84513835Y60896565D01*
X84542397Y60866729D01*
X84582251Y60895283D01*
X84643051Y60909454D01*
X84704645Y60899279D01*
X84757657Y60866308D01*
X84794015Y60815559D01*
X84808186Y60754760D01*
X84805773Y60740151D01*
X84850161Y60732819D01*
X84903173Y60699847D01*
X84939532Y60649099D01*
X84949472Y60606452D01*
X84984499Y60632732D01*
X85044972Y60648237D01*
X85106775Y60639419D01*
X85145492Y60616504D01*
X85153033Y60629246D01*
X85202970Y60666712D01*
X85263443Y60682217D01*
X85325246Y60673399D01*
X85378970Y60641601D01*
X85416436Y60591665D01*
X85428612Y60544173D01*
X85469670Y60548670D01*
X85529605Y60531201D01*
X85578292Y60492125D01*
X85608320Y60437392D01*
X85615116Y60375334D01*
X85603558Y60335681D01*
X85648214Y60315443D01*
X85690886Y60269874D01*
X85712871Y60211445D01*
X85710823Y60149050D01*
X85685053Y60092188D01*
X85639484Y60049516D01*
X85625626Y60044301D01*
X85641470Y60002194D01*
X85639422Y59939799D01*
X85613652Y59882937D01*
X85581689Y59853005D01*
X85621962Y59835810D01*
X85665626Y59791192D01*
X85688891Y59733260D01*
X85688404Y59688273D01*
X85703210Y59688112D01*
X85760625Y59663599D01*
X85804288Y59618980D01*
X85827553Y59561049D01*
X85826878Y59498623D01*
X85802365Y59441208D01*
X85767324Y59406918D01*
X85791747Y59373609D01*
X85806586Y59312969D01*
X85797089Y59251267D01*
X85764702Y59197896D01*
X85714357Y59160981D01*
X85674237Y59151164D01*
X85679039Y59102372D01*
X85660911Y59042633D01*
X85621302Y58994378D01*
X85566242Y58964954D01*
X85504113Y58958841D01*
X85444374Y58976968D01*
X85432930Y58986363D01*
X85404385Y58951588D01*
X85349325Y58922164D01*
X85287196Y58916050D01*
X85245293Y58928766D01*
X85250539Y58885291D01*
X85233729Y58825167D01*
X85195192Y58776053D01*
X85155988Y58753981D01*
X85163252Y58741079D01*
X85170731Y58679100D01*
X85153922Y58618976D01*
X85115384Y58569862D01*
X85060984Y58539235D01*
X84999005Y58531756D01*
X84951788Y58544957D01*
X84935153Y58507152D01*
X84890057Y58463981D01*
X84831873Y58441355D01*
X84769459Y58442717D01*
X84712317Y58467860D01*
X84683755Y58497695D01*
X84643901Y58469142D01*
X84583101Y58454971D01*
X84521507Y58465146D01*
X84468495Y58498117D01*
X84432137Y58548866D01*
X84417966Y58609665D01*
X84420379Y58624274D01*
X84375991Y58631606D01*
X84322979Y58664577D01*
X84286620Y58715326D01*
X84276680Y58757973D01*
X84241653Y58731693D01*
X84181180Y58716188D01*
X84119377Y58725006D01*
X84080660Y58747921D01*
X84073119Y58735179D01*
X84023182Y58697713D01*
X83962709Y58682208D01*
X83900906Y58691026D01*
X83847182Y58722824D01*
X83809716Y58772760D01*
X83797540Y58820251D01*
X83756482Y58815755D01*
X83696547Y58833224D01*
X83647860Y58872300D01*
X83617832Y58927033D01*
X83611036Y58989091D01*
X83622594Y59028744D01*
X83577938Y59048982D01*
X83535266Y59094550D01*
X83513281Y59152980D01*
X83515329Y59215375D01*
X83541099Y59272237D01*
X83586668Y59314909D01*
X83600526Y59320123D01*
X83584682Y59362231D01*
X83586730Y59424626D01*
X83612500Y59481488D01*
X83644463Y59511420D01*
X83604190Y59528614D01*
X83560526Y59573233D01*
X83537261Y59631165D01*
X83537748Y59676152D01*
X83522942Y59676312D01*
X83465527Y59700825D01*
X83421864Y59745444D01*
X83398599Y59803376D01*
X83399274Y59865802D01*
X83423787Y59923216D01*
X83458828Y59957507D01*
X83434405Y59990816D01*
X83419566Y60051455D01*
X83429063Y60113158D01*
X83461450Y60166529D01*
X83511795Y60203444D01*
X83551915Y60213261D01*
X83547113Y60262053D01*
X83565241Y60321792D01*
X83604850Y60370047D01*
X83659910Y60399470D01*
X83722039Y60405584D01*
X83781778Y60387457D01*
X83793222Y60378062D01*
X83821767Y60412837D01*
G37*
%LPC*%
X84108057Y59467316D02*
G36*
X84297938Y59626645D01*
X84065014Y59711422D01*
X83800802Y59538987D01*
X84108057Y59467316D01*
G37*
%LPC*%
X85143250Y59050375D02*
G36*
X85051691Y59352301D01*
X84818768Y59437078D01*
X84861811Y59192972D01*
X85143250Y59050375D01*
G37*
%LPC*%
X84313749Y59222182D02*
G36*
X84330976Y58907150D01*
X84546672Y59137405D01*
X84503630Y59381511D01*
X84313749Y59222182D01*
G37*
%LPC*%
X84928214Y59737780D02*
G36*
X85161138Y59653003D01*
X85425350Y59825438D01*
X85118095Y59897109D01*
X84928214Y59737780D01*
G37*
%LPC*%
X84895176Y60457275D02*
G36*
X84679480Y60227020D01*
X84722522Y59982914D01*
X84912403Y60142243D01*
X84895176Y60457275D01*
G37*
%LPC*%
X84082902Y60314049D02*
G36*
X84174461Y60012124D01*
X84407384Y59927347D01*
X84364341Y60171453D01*
X84082902Y60314049D01*
G37*
%LPD*%
X75100289Y62895881D02*
G36*
X75104567Y62912961D01*
X75117574Y62932426D01*
X75137039Y62945433D01*
X75154119Y62949711D01*
X75550000Y62950000D01*
X75551153Y63351705D01*
X75563619Y63378064D01*
X75592583Y63397416D01*
X75627417Y63397416D01*
X75656381Y63378064D01*
X75667416Y63357417D01*
X75670000Y63340000D01*
X75670000Y62890000D01*
X75665433Y62867039D01*
X75648064Y62843619D01*
X75632961Y62834567D01*
X75610000Y62830000D01*
X75154119Y62830289D01*
X75131716Y62837085D01*
X75113619Y62851936D01*
X75102584Y62872583D01*
X75100289Y62895881D01*
G37*
%LPD*%
X72330000Y62890000D02*
G36*
X72330289Y63345881D01*
X72334567Y63362961D01*
X72347574Y63382426D01*
X72367039Y63395433D01*
X72390000Y63400000D01*
X72412961Y63395433D01*
X72428064Y63386381D01*
X72442915Y63368284D01*
X72449711Y63345881D01*
X72450000Y62950000D01*
X72845881Y62949711D01*
X72862961Y62945433D01*
X72882426Y62932426D01*
X72895433Y62912961D01*
X72900000Y62890000D01*
X72895433Y62867039D01*
X72882426Y62847574D01*
X72862961Y62834567D01*
X72840000Y62830000D01*
X72384119Y62830289D01*
X72361716Y62837085D01*
X72347574Y62847574D01*
X72334567Y62867039D01*
X72330000Y62890000D01*
G37*
%LPD*%
X76761413Y62559781D02*
G36*
X76581804Y62326491D01*
X76390257Y62117454D01*
X76173509Y61918196D01*
X75940219Y61738587D01*
X75692162Y61579994D01*
X75431228Y61443623D01*
X75159401Y61330514D01*
X74878750Y61241526D01*
X74580672Y61175444D01*
X74288709Y61137486D01*
X73994548Y61125119D01*
X73711291Y61137486D01*
X73419328Y61175444D01*
X73131783Y61238704D01*
X72840599Y61330514D01*
X72568772Y61443623D01*
X72307838Y61579994D01*
X72059781Y61738587D01*
X71826491Y61918196D01*
X71609743Y62117454D01*
X71418196Y62326491D01*
X71232332Y62568714D01*
X71079994Y62807838D01*
X70979013Y63000790D01*
X71039219Y63001685D01*
X71107123Y63011758D01*
X71182183Y63034527D01*
X71231548Y63057094D01*
X71293774Y62937560D01*
X71440247Y62707642D01*
X71606202Y62491365D01*
X71790376Y62290376D01*
X71991365Y62106202D01*
X72207642Y61940247D01*
X72437560Y61793774D01*
X72679368Y61667896D01*
X72931228Y61563572D01*
X73191221Y61481597D01*
X73457370Y61422593D01*
X73727649Y61387010D01*
X74000000Y61375119D01*
X74272351Y61387010D01*
X74542630Y61422593D01*
X74808779Y61481597D01*
X75068772Y61563572D01*
X75320632Y61667896D01*
X75562440Y61793774D01*
X75792358Y61940247D01*
X76008635Y62106202D01*
X76209624Y62290376D01*
X76393798Y62491365D01*
X76559753Y62707642D01*
X76706226Y62937560D01*
X76832104Y63179368D01*
X76936428Y63431228D01*
X77018403Y63691221D01*
X77077407Y63957370D01*
X77112990Y64227649D01*
X77124881Y64500000D01*
X77112990Y64772351D01*
X77077407Y65042630D01*
X77018403Y65308779D01*
X76936428Y65568772D01*
X76832104Y65820632D01*
X76706226Y66062440D01*
X76559753Y66292358D01*
X76393798Y66508635D01*
X76209624Y66709624D01*
X76008635Y66893798D01*
X75792358Y67059753D01*
X75562440Y67206226D01*
X75320632Y67332104D01*
X75068772Y67436428D01*
X74808779Y67518403D01*
X74542630Y67577407D01*
X74272351Y67612990D01*
X74000000Y67624881D01*
X73727649Y67612990D01*
X73457370Y67577407D01*
X73191221Y67518403D01*
X72931228Y67436428D01*
X72679368Y67332104D01*
X72437560Y67206226D01*
X72207642Y67059753D01*
X71991365Y66893798D01*
X71790376Y66709624D01*
X71606202Y66508635D01*
X71440247Y66292358D01*
X71293774Y66062440D01*
X71167896Y65820632D01*
X71063572Y65568772D01*
X70981597Y65308779D01*
X70922593Y65042630D01*
X70887010Y64772351D01*
X70875119Y64500000D01*
X70887010Y64227649D01*
X70917912Y63992929D01*
X70864319Y63981088D01*
X70799684Y63957962D01*
X70730508Y63920987D01*
X70682380Y63885846D01*
X70638437Y64200428D01*
X70625119Y64494548D01*
X70638437Y64799572D01*
X70677338Y65091412D01*
X70741526Y65378750D01*
X70826784Y65649154D01*
X70939015Y65921345D01*
X71074541Y66182719D01*
X71238587Y66440219D01*
X71418196Y66673509D01*
X71617454Y66890257D01*
X71826491Y67081804D01*
X72059781Y67261413D01*
X72307838Y67420006D01*
X72568772Y67556377D01*
X72850846Y67673216D01*
X73131783Y67761296D01*
X73419328Y67824556D01*
X73711291Y67862514D01*
X73994548Y67874881D01*
X74288709Y67862514D01*
X74580672Y67824556D01*
X74868217Y67761296D01*
X75149154Y67673216D01*
X75431228Y67556377D01*
X75692162Y67420006D01*
X75940219Y67261413D01*
X76173509Y67081804D01*
X76390257Y66882546D01*
X76588814Y66665155D01*
X76767668Y66431286D01*
X76925459Y66182719D01*
X77060985Y65921345D01*
X77173216Y65649154D01*
X77258474Y65378750D01*
X77300000Y65193634D01*
X77300963Y64805397D01*
X77308612Y64766943D01*
X77323616Y64730721D01*
X77345398Y64698121D01*
X77367466Y64675280D01*
X77374881Y64505452D01*
X77361563Y64200428D01*
X77322662Y63908588D01*
X77258474Y63621250D01*
X77173216Y63350846D01*
X77060985Y63078655D01*
X76920006Y62807838D01*
X76761413Y62559781D01*
G37*
%LPD*%
X78968139Y64717789D02*
G36*
X78487742Y64717500D01*
X78464781Y64722067D01*
X78444661Y64735796D01*
X78464251Y64781328D01*
X78470000Y64834800D01*
X78476037Y64836347D01*
X78962258Y64837500D01*
X78980000Y64834800D01*
X78985749Y64781328D01*
X79005339Y64735796D01*
X78990542Y64724585D01*
X78968139Y64717789D01*
G37*
%LPD*%
X78985749Y65818672D02*
G36*
X78980000Y65765200D01*
X78968139Y65762789D01*
X78481861Y65762789D01*
X78470000Y65765200D01*
X78464251Y65818672D01*
X78444661Y65864204D01*
X78464781Y65877933D01*
X78487742Y65882500D01*
X78968139Y65882211D01*
X78990542Y65875415D01*
X79005339Y65864204D01*
X78985749Y65818672D01*
G37*
%LPD*%
X75604119Y65600289D02*
G36*
X75587039Y65604567D01*
X75567574Y65617574D01*
X75554567Y65637039D01*
X75550289Y65654119D01*
X75550000Y66050000D01*
X75148295Y66051153D01*
X75117574Y66067574D01*
X75101153Y66098295D01*
X75104567Y66132961D01*
X75121936Y66156381D01*
X75142583Y66167416D01*
X75160000Y66170000D01*
X75610000Y66170000D01*
X75632961Y66165433D01*
X75656381Y66148064D01*
X75667416Y66127417D01*
X75670000Y66110000D01*
X75669711Y65654119D01*
X75662915Y65631716D01*
X75648064Y65613619D01*
X75627417Y65602584D01*
X75604119Y65600289D01*
G37*
%LPD*%
X72899711Y66104119D02*
G36*
X72886381Y66071936D01*
X72857417Y66052584D01*
X72686759Y66050000D01*
X72663798Y66054567D01*
X72644333Y66067574D01*
X72631326Y66087039D01*
X72626759Y66110000D01*
X72636871Y66143334D01*
X72648695Y66156381D01*
X72669342Y66167416D01*
X72840000Y66170000D01*
X72862961Y66165433D01*
X72882426Y66152426D01*
X72895433Y66132961D01*
X72899711Y66104119D01*
G37*
%LPD*%
X77264916Y66385000D02*
G36*
X77248611Y66433032D01*
X77251929Y66483646D01*
X77274363Y66529139D01*
X77312499Y66562583D01*
X78611537Y67312583D01*
X78659569Y67328888D01*
X78710184Y67325570D01*
X78755676Y67303136D01*
X78789120Y67265000D01*
X78805425Y67216968D01*
X78802108Y67166354D01*
X78779673Y67120861D01*
X78741537Y67087417D01*
X77442499Y66337417D01*
X77394467Y66321112D01*
X77343853Y66324430D01*
X77298360Y66346864D01*
X77264916Y66385000D01*
G37*
%LPD*%
X76287934Y67509227D02*
G36*
X76272049Y67557399D01*
X76275808Y67607983D01*
X76298638Y67653278D01*
X77591527Y69308101D01*
X77629954Y69341211D01*
X77678126Y69357096D01*
X77728710Y69353336D01*
X77774005Y69330506D01*
X77807115Y69292080D01*
X77823000Y69243908D01*
X77819241Y69193324D01*
X77796410Y69148029D01*
X76503521Y67493206D01*
X76465095Y67460096D01*
X76416923Y67444211D01*
X76366339Y67447970D01*
X76321044Y67470801D01*
X76287934Y67509227D01*
G37*
%LPD*%
X74994059Y68147182D02*
G36*
X74961285Y68185895D01*
X74945821Y68234204D01*
X74950022Y68284753D01*
X75363478Y69726646D01*
X75386703Y69771740D01*
X75425416Y69804514D01*
X75473725Y69819977D01*
X75524275Y69815777D01*
X75569369Y69792552D01*
X75602142Y69753838D01*
X75617606Y69705530D01*
X75613406Y69654980D01*
X75199950Y68213088D01*
X75176725Y68167994D01*
X75138011Y68135220D01*
X75089702Y68119756D01*
X75039153Y68123957D01*
X74994059Y68147182D01*
G37*
%LPD*%
X79470784Y69103301D02*
G36*
X79510385Y69086286D01*
X79548839Y69078637D01*
X79687973Y69077674D01*
X79639694Y69050092D01*
X79581634Y69042717D01*
X79525170Y69058122D01*
X79470784Y69103301D01*
G37*
%LPD*%
X79362185Y69228276D02*
G36*
X79368442Y69277674D01*
X79372285Y69238656D01*
X79382126Y69205328D01*
X79362185Y69228276D01*
G37*
%LPD*%
X74182211Y69543139D02*
G36*
X74182500Y69062742D01*
X74177933Y69039781D01*
X74164204Y69019661D01*
X74118672Y69039251D01*
X74065200Y69045000D01*
X74063653Y69051037D01*
X74062500Y69537258D01*
X74065200Y69555000D01*
X74118672Y69560749D01*
X74164204Y69580339D01*
X74175415Y69565542D01*
X74182211Y69543139D01*
G37*
%LPD*%
X73602567Y69525000D02*
G36*
X73649864Y69075000D01*
X73388432Y69075000D01*
X73341135Y69525000D01*
X73602567Y69525000D01*
G37*
%LPD*%
X73081328Y69560749D02*
G36*
X73134800Y69555000D01*
X73137211Y69543139D01*
X73137211Y69056861D01*
X73134800Y69045000D01*
X73081328Y69039251D01*
X73035796Y69019661D01*
X73022067Y69039781D01*
X73017500Y69062742D01*
X73017789Y69543139D01*
X73024585Y69565542D01*
X73035796Y69580339D01*
X73081328Y69560749D01*
G37*
%LPD*%
X78355527Y70965958D02*
G36*
X78380158Y70990590D01*
X78408442Y70997674D01*
X79058442Y70997674D01*
X79091776Y70987563D01*
X79104823Y70975738D01*
X79115859Y70955091D01*
X79117289Y70925969D01*
X79108330Y70904340D01*
X79091776Y70887786D01*
X79064323Y70877963D01*
X78468442Y70877674D01*
X78468442Y70177674D01*
X78472285Y70138656D01*
X78495687Y70076989D01*
X78513840Y70050796D01*
X78541564Y70023072D01*
X78574163Y70001290D01*
X78603395Y69988596D01*
X78668442Y69977674D01*
X78606997Y69967850D01*
X78414247Y70124642D01*
X78217361Y70273738D01*
X78015442Y70415945D01*
X77808733Y70551093D01*
X77597480Y70679022D01*
X77381935Y70799579D01*
X77162354Y70912620D01*
X76939001Y71018010D01*
X76712141Y71115623D01*
X76482045Y71205344D01*
X76248988Y71287064D01*
X76013248Y71360686D01*
X75775105Y71426123D01*
X75534845Y71483297D01*
X75292753Y71532138D01*
X75049120Y71572590D01*
X74804234Y71604603D01*
X74558389Y71628140D01*
X74311878Y71643172D01*
X74064994Y71649682D01*
X73818033Y71647662D01*
X73571289Y71637113D01*
X73325057Y71618050D01*
X73079630Y71590494D01*
X72835301Y71554478D01*
X72592362Y71510045D01*
X72351102Y71457249D01*
X72111809Y71396152D01*
X71874769Y71326828D01*
X71640265Y71249358D01*
X71408576Y71163835D01*
X71179979Y71070362D01*
X70954747Y70969050D01*
X70733148Y70860020D01*
X70515446Y70743402D01*
X70301902Y70619334D01*
X70092770Y70487966D01*
X69888300Y70349453D01*
X69688735Y70203962D01*
X69494315Y70051665D01*
X69305270Y69892744D01*
X69121826Y69727389D01*
X68942339Y69553997D01*
X68893121Y69522327D01*
X68835530Y69511902D01*
X68778333Y69524310D01*
X68730238Y69557661D01*
X68698568Y69606879D01*
X68688143Y69664470D01*
X68700551Y69721667D01*
X68733902Y69769762D01*
X68915253Y69944953D01*
X69110241Y70120715D01*
X69307276Y70286235D01*
X69505776Y70441727D01*
X69717900Y70596375D01*
X69930999Y70740626D01*
X70144519Y70874750D01*
X70371503Y71006626D01*
X70598381Y71128059D01*
X70824630Y71239377D01*
X71059276Y71345021D01*
X71297430Y71442499D01*
X71543700Y71533404D01*
X71788072Y71614039D01*
X72035083Y71686186D01*
X72279396Y71748565D01*
X72530760Y71803664D01*
X72783876Y71850049D01*
X73038444Y71887664D01*
X73294159Y71916466D01*
X73555887Y71936729D01*
X73807809Y71947499D01*
X74065131Y71949693D01*
X74327552Y71942774D01*
X74584401Y71927022D01*
X74840552Y71902408D01*
X75090576Y71869723D01*
X75349543Y71826726D01*
X75601774Y71775747D01*
X75847076Y71717374D01*
X76100206Y71647819D01*
X76345810Y71571022D01*
X76583758Y71487587D01*
X76823540Y71394185D01*
X77064678Y71290429D01*
X77297364Y71180536D01*
X77526117Y71062673D01*
X77746185Y70939586D01*
X77970733Y70803606D01*
X78181780Y70665622D01*
X78348442Y70548354D01*
X78348442Y70937674D01*
X78355527Y70965958D01*
G37*
%LPD*%
X77173010Y73722607D02*
G36*
X77196308Y73720312D01*
X77216954Y73709276D01*
X77231806Y73691179D01*
X77238602Y73668777D01*
X77238891Y73012896D01*
X77234324Y72989935D01*
X77221317Y72970469D01*
X77201852Y72957463D01*
X77178891Y72952896D01*
X76528891Y72952896D01*
X76505930Y72957463D01*
X76486464Y72970469D01*
X76471474Y72995478D01*
X76471474Y73030313D01*
X76486464Y73055322D01*
X76517185Y73071743D01*
X77118891Y73072896D01*
X77119180Y73668777D01*
X77123458Y73685857D01*
X77136464Y73705322D01*
X77155930Y73718328D01*
X77173010Y73722607D01*
G37*
%LPD*%
X80696326Y77080654D02*
G36*
X80673028Y77082949D01*
X80652381Y77093984D01*
X80637530Y77112081D01*
X80630734Y77134484D01*
X80630445Y77790365D01*
X80635012Y77813326D01*
X80648019Y77832792D01*
X80667484Y77845798D01*
X80690445Y77850365D01*
X81340445Y77850365D01*
X81363406Y77845798D01*
X81382871Y77832792D01*
X81397861Y77807782D01*
X81397861Y77772948D01*
X81382871Y77747939D01*
X81352150Y77731518D01*
X80750445Y77730365D01*
X80750156Y77134484D01*
X80745878Y77117404D01*
X80732871Y77097939D01*
X80713406Y77084932D01*
X80696326Y77080654D01*
G37*
%LPD*%
X80599119Y81094711D02*
G36*
X80622417Y81092416D01*
X80643064Y81081381D01*
X80657915Y81063284D01*
X80664711Y81040881D01*
X80665000Y80385000D01*
X80660433Y80362039D01*
X80647426Y80342574D01*
X80627961Y80329567D01*
X80605000Y80325000D01*
X79955000Y80325000D01*
X79932039Y80329567D01*
X79912574Y80342574D01*
X79897584Y80367583D01*
X79897584Y80402417D01*
X79912574Y80427426D01*
X79943295Y80443847D01*
X80545000Y80445000D01*
X80545289Y81040881D01*
X80549567Y81057961D01*
X80562574Y81077426D01*
X80582039Y81090433D01*
X80599119Y81094711D01*
G37*
%LPD*%
X88720881Y80575289D02*
G36*
X88697583Y80577584D01*
X88676936Y80588619D01*
X88662085Y80606716D01*
X88655289Y80629119D01*
X88655000Y81285000D01*
X88659567Y81307961D01*
X88672574Y81327426D01*
X88692039Y81340433D01*
X88715000Y81345000D01*
X89365000Y81345000D01*
X89387961Y81340433D01*
X89407426Y81327426D01*
X89422416Y81302417D01*
X89422416Y81267583D01*
X89407426Y81242574D01*
X89376705Y81226153D01*
X88775000Y81225000D01*
X88774711Y80629119D01*
X88770433Y80612039D01*
X88757426Y80592574D01*
X88737961Y80579567D01*
X88720881Y80575289D01*
G37*
%LPD*%
X86974119Y85684711D02*
G36*
X86997417Y85682416D01*
X87018064Y85671381D01*
X87032915Y85653284D01*
X87039711Y85630881D01*
X87040000Y84975000D01*
X87035433Y84952039D01*
X87022426Y84932574D01*
X87002961Y84919567D01*
X86980000Y84915000D01*
X86330000Y84915000D01*
X86307039Y84919567D01*
X86287574Y84932574D01*
X86272584Y84957583D01*
X86272584Y84992417D01*
X86287574Y85017426D01*
X86318295Y85033847D01*
X86920000Y85035000D01*
X86920289Y85630881D01*
X86924567Y85647961D01*
X86937574Y85667426D01*
X86957039Y85680433D01*
X86974119Y85684711D01*
G37*
%LPD*%
M02*
