G04 Bottom silk*
%FSLAX46Y46*%
%MOMM*%
%TF.GenerationSoftware,kerstkaart2026-gen2*%
G01*
%LPD*%
X27615779Y31713731D02*
G36*
X27668791Y31680760D01*
X27975309Y31393624D01*
X28073789Y31410989D01*
X27752676Y31711798D01*
X27716317Y31762546D01*
X27702146Y31823346D01*
X27712321Y31884940D01*
X27745293Y31937952D01*
X27796041Y31974311D01*
X27856840Y31988481D01*
X27918434Y31978306D01*
X27971446Y31945335D01*
X28467712Y31480448D01*
X29199298Y31609446D01*
X28721790Y32178519D01*
X28042804Y32141389D01*
X27981001Y32150207D01*
X27927277Y32182004D01*
X27889811Y32231941D01*
X27874306Y32292414D01*
X27883124Y32354217D01*
X27914921Y32407941D01*
X27964858Y32445407D01*
X28025331Y32460912D01*
X28464674Y32484937D01*
X28400396Y32561542D01*
X27981022Y32538608D01*
X27919219Y32547426D01*
X27865495Y32579223D01*
X27828029Y32629160D01*
X27812524Y32689633D01*
X27821342Y32751436D01*
X27853140Y32805160D01*
X27903076Y32842626D01*
X27963549Y32858131D01*
X28143281Y32867959D01*
X28091858Y32929243D01*
X28061830Y32983976D01*
X28055034Y33046034D01*
X28072503Y33105969D01*
X28111579Y33154656D01*
X28166312Y33184684D01*
X28228370Y33191480D01*
X28288305Y33174011D01*
X28336992Y33134935D01*
X28388415Y33073651D01*
X28429304Y33248946D01*
X28455074Y33305807D01*
X28500643Y33348479D01*
X28559072Y33370465D01*
X28621467Y33368417D01*
X28678329Y33342647D01*
X28721001Y33297078D01*
X28742987Y33238649D01*
X28740938Y33176253D01*
X28645530Y32767234D01*
X28709809Y32690629D01*
X28809760Y33119126D01*
X28835530Y33175988D01*
X28881099Y33218660D01*
X28939528Y33240645D01*
X29001924Y33238597D01*
X29058786Y33212827D01*
X29101457Y33167259D01*
X29123443Y33108829D01*
X29121395Y33046434D01*
X28966924Y32384211D01*
X29444433Y31815138D01*
X29698510Y32513210D01*
X29326861Y33082663D01*
X29303596Y33140595D01*
X29304271Y33203020D01*
X29328785Y33260435D01*
X29373404Y33304099D01*
X29431335Y33327364D01*
X29493761Y33326689D01*
X29551176Y33302176D01*
X29594839Y33257557D01*
X29835318Y32889087D01*
X29869520Y32983056D01*
X29639972Y33334777D01*
X29616707Y33392709D01*
X29617382Y33455134D01*
X29641896Y33512549D01*
X29686515Y33556213D01*
X29744446Y33579478D01*
X29806872Y33578803D01*
X29864287Y33554290D01*
X29907950Y33509671D01*
X30006328Y33358933D01*
X30033689Y33434108D01*
X30066076Y33487480D01*
X30116421Y33524394D01*
X30177061Y33539233D01*
X30238764Y33529736D01*
X30292135Y33497350D01*
X30329050Y33447004D01*
X30343888Y33386364D01*
X30334391Y33324662D01*
X30307029Y33249487D01*
X30479283Y33301723D01*
X30541412Y33307836D01*
X30601151Y33289709D01*
X30649406Y33250100D01*
X30678830Y33195040D01*
X30684943Y33132911D01*
X30666816Y33073172D01*
X30627207Y33024917D01*
X30572147Y32995493D01*
X30170221Y32873610D01*
X30136019Y32779640D01*
X30557085Y32907328D01*
X30619213Y32913442D01*
X30678953Y32895314D01*
X30727207Y32855705D01*
X30756631Y32800645D01*
X30762745Y32738517D01*
X30744617Y32678777D01*
X30705008Y32630523D01*
X30649948Y32601099D01*
X29999211Y32403763D01*
X29745134Y31705692D01*
X30476720Y31834690D01*
X30784057Y32441274D01*
X30822595Y32490388D01*
X30876995Y32521016D01*
X30938974Y32528495D01*
X30999097Y32511685D01*
X31048211Y32473147D01*
X31078839Y32418748D01*
X31086318Y32356768D01*
X31069508Y32296645D01*
X30870643Y31904150D01*
X30969124Y31921514D01*
X31158950Y32296169D01*
X31197488Y32345283D01*
X31251887Y32375911D01*
X31313867Y32383390D01*
X31373990Y32366580D01*
X31423104Y32328042D01*
X31453732Y32273643D01*
X31461210Y32211663D01*
X31444401Y32151540D01*
X31363047Y31990974D01*
X31441832Y32004866D01*
X31504246Y32003504D01*
X31561388Y31978361D01*
X31604558Y31933264D01*
X31627185Y31875080D01*
X31625823Y31812666D01*
X31600680Y31755524D01*
X31555583Y31712354D01*
X31497399Y31689727D01*
X31418615Y31675835D01*
X31549979Y31552777D01*
X31586338Y31502029D01*
X31600509Y31441229D01*
X31590334Y31379635D01*
X31557363Y31326623D01*
X31506614Y31290264D01*
X31445815Y31276094D01*
X31384221Y31286269D01*
X31331209Y31319240D01*
X31024691Y31606376D01*
X30926211Y31589011D01*
X31247324Y31288202D01*
X31283683Y31237454D01*
X31297854Y31176654D01*
X31287679Y31115060D01*
X31254707Y31062048D01*
X31203959Y31025689D01*
X31143160Y31011519D01*
X31081566Y31021694D01*
X31028554Y31054665D01*
X30532288Y31519552D01*
X29800702Y31390554D01*
X30278210Y30821481D01*
X30957196Y30858611D01*
X31018999Y30849793D01*
X31072723Y30817996D01*
X31110189Y30768059D01*
X31125694Y30707586D01*
X31116876Y30645783D01*
X31085079Y30592059D01*
X31035142Y30554593D01*
X30974669Y30539088D01*
X30535326Y30515063D01*
X30599604Y30438458D01*
X31018978Y30461392D01*
X31080781Y30452574D01*
X31134505Y30420777D01*
X31171971Y30370840D01*
X31187476Y30310367D01*
X31178658Y30248564D01*
X31146860Y30194840D01*
X31096924Y30157374D01*
X31036451Y30141869D01*
X30856719Y30132041D01*
X30908142Y30070757D01*
X30938170Y30016024D01*
X30944966Y29953966D01*
X30927497Y29894031D01*
X30888421Y29845344D01*
X30833688Y29815316D01*
X30771630Y29808520D01*
X30711695Y29825989D01*
X30663008Y29865065D01*
X30611585Y29926349D01*
X30570696Y29751054D01*
X30544926Y29694193D01*
X30499357Y29651521D01*
X30440928Y29629535D01*
X30378533Y29631583D01*
X30321671Y29657353D01*
X30278999Y29702922D01*
X30257013Y29761351D01*
X30259062Y29823747D01*
X30354470Y30232766D01*
X30290191Y30309371D01*
X30190240Y29880874D01*
X30164470Y29824012D01*
X30118901Y29781340D01*
X30060472Y29759355D01*
X29998076Y29761403D01*
X29941214Y29787173D01*
X29898543Y29832741D01*
X29876557Y29891171D01*
X29878605Y29953566D01*
X30033076Y30615789D01*
X29555567Y31184862D01*
X29301490Y30486790D01*
X29673139Y29917337D01*
X29696404Y29859405D01*
X29695729Y29796980D01*
X29671215Y29739565D01*
X29626596Y29695901D01*
X29568665Y29672636D01*
X29506239Y29673311D01*
X29448824Y29697824D01*
X29405161Y29742443D01*
X29164682Y30110913D01*
X29130480Y30016944D01*
X29360028Y29665223D01*
X29383293Y29607291D01*
X29382618Y29544866D01*
X29358104Y29487451D01*
X29313485Y29443787D01*
X29255554Y29420522D01*
X29193128Y29421197D01*
X29135713Y29445710D01*
X29092050Y29490329D01*
X28993672Y29641067D01*
X28966311Y29565892D01*
X28933924Y29512520D01*
X28883579Y29475606D01*
X28822939Y29460767D01*
X28761236Y29470264D01*
X28707865Y29502650D01*
X28670950Y29552996D01*
X28656112Y29613636D01*
X28665609Y29675338D01*
X28692971Y29750513D01*
X28520717Y29698277D01*
X28458588Y29692164D01*
X28398849Y29710291D01*
X28350594Y29749900D01*
X28321170Y29804960D01*
X28315057Y29867089D01*
X28333184Y29926828D01*
X28372793Y29975083D01*
X28427853Y30004507D01*
X28829779Y30126390D01*
X28863981Y30220360D01*
X28442915Y30092672D01*
X28380787Y30086558D01*
X28321047Y30104686D01*
X28272793Y30144295D01*
X28243369Y30199355D01*
X28237255Y30261483D01*
X28255383Y30321223D01*
X28294992Y30369477D01*
X28350052Y30398901D01*
X29000789Y30596237D01*
X29254866Y31294308D01*
X28523280Y31165310D01*
X28215943Y30558726D01*
X28177405Y30509612D01*
X28123005Y30478984D01*
X28061026Y30471505D01*
X28000903Y30488315D01*
X27951789Y30526853D01*
X27921161Y30581252D01*
X27913682Y30643232D01*
X27930492Y30703355D01*
X28129357Y31095850D01*
X28030876Y31078486D01*
X27841050Y30703831D01*
X27802512Y30654717D01*
X27748113Y30624089D01*
X27686133Y30616610D01*
X27626010Y30633420D01*
X27576896Y30671958D01*
X27546268Y30726357D01*
X27538790Y30788337D01*
X27555599Y30848460D01*
X27636953Y31009026D01*
X27558168Y30995134D01*
X27495754Y30996496D01*
X27438612Y31021639D01*
X27395442Y31066736D01*
X27372815Y31124920D01*
X27374177Y31187334D01*
X27399320Y31244476D01*
X27444417Y31287646D01*
X27502601Y31310273D01*
X27581385Y31324165D01*
X27450021Y31447223D01*
X27413662Y31497971D01*
X27399491Y31558771D01*
X27409666Y31620365D01*
X27442637Y31673377D01*
X27493386Y31709736D01*
X27554185Y31723906D01*
X27615779Y31713731D01*
G37*
%LPD*%
X13096864Y33221490D02*
G36*
X13096864Y32800771D01*
X12905768Y32800771D01*
X12905768Y33221490D01*
X12486847Y33221490D01*
X12486847Y33410788D01*
X12905768Y33410788D01*
X12905768Y33831507D01*
X13096864Y33831507D01*
X13096864Y33410788D01*
X13515786Y33410788D01*
X13515786Y33221490D01*
X13096864Y33221490D01*
G37*
%LPD*%
X14096169Y33765497D02*
G36*
X13698823Y33765497D01*
X13698823Y33999229D01*
X14803275Y33999229D01*
X14803275Y33765497D01*
X14405158Y33765497D01*
X14405158Y32800771D01*
X14096169Y32800771D01*
X14096169Y33765497D01*
G37*
%LPD*%
X15087639Y33923716D02*
G36*
X15234043Y33980351D01*
X15449283Y33999229D01*
X15913153Y33999229D01*
X15913153Y32800771D01*
X15400482Y32800771D01*
X15191663Y32822025D01*
X15043975Y32885788D01*
X14956132Y32993086D01*
X14926851Y33144435D01*
X14940529Y33248652D01*
X14981560Y33335274D01*
X15047250Y33400899D01*
X15135413Y33442123D01*
X15066834Y33479816D01*
X15016749Y33533305D01*
X14985927Y33601177D01*
X14975653Y33682021D01*
X15003649Y33825535D01*
X15087639Y33923716D01*
G37*
%LPC*%
X15247464Y33237350D02*
G36*
X15235841Y33169092D01*
X15247592Y33099743D01*
X15282845Y33050428D01*
X15341342Y33020955D01*
X15422827Y33011130D01*
X15604163Y33011130D01*
X15604163Y33325000D01*
X15422827Y33325000D01*
X15340700Y33315240D01*
X15282331Y33285959D01*
X15247464Y33237350D01*
G37*
%LPC*%
X15284899Y33661986D02*
G36*
X15294339Y33606956D01*
X15322656Y33567209D01*
X15369082Y33543129D01*
X15433358Y33535103D01*
X15604163Y33535103D01*
X15604163Y33788870D01*
X15433358Y33788870D01*
X15369082Y33780715D01*
X15322656Y33756250D01*
X15294339Y33716503D01*
X15284899Y33661986D01*
G37*
%LPD*%
X29336016Y34194086D02*
G36*
X29188959Y34280975D01*
X29094573Y34415922D01*
X29063112Y34589058D01*
X29091241Y34746175D01*
X29175631Y34869972D01*
X29305836Y34950517D01*
X29471411Y34977366D01*
X29541640Y34972432D01*
X29606229Y34957630D01*
X29665565Y34933216D01*
X29720543Y34898935D01*
X29691708Y35030870D01*
X29630835Y35125768D01*
X29538756Y35183245D01*
X29416305Y35202405D01*
X29351459Y35198111D01*
X29285075Y35185232D01*
X29215487Y35163317D01*
X29141542Y35131920D01*
X29141542Y35353114D01*
X29218050Y35375541D01*
X29295327Y35391560D01*
X29374206Y35401172D01*
X29455520Y35404376D01*
X29578676Y35393787D01*
X29783467Y35309077D01*
X29865101Y35234956D01*
X29930476Y35142316D01*
X30005190Y34909460D01*
X30014529Y34769243D01*
X29982619Y34512998D01*
X29886887Y34322497D01*
X29816371Y34253646D01*
X29635929Y34174959D01*
X29526005Y34165124D01*
X29336016Y34194086D01*
G37*
%LPC*%
X29522673Y34778726D02*
G36*
X29451419Y34765591D01*
X29400670Y34726183D01*
X29370297Y34660696D01*
X29360173Y34568810D01*
X29370297Y34477051D01*
X29400670Y34411436D01*
X29451419Y34372221D01*
X29522673Y34359149D01*
X29593542Y34372221D01*
X29644163Y34411436D01*
X29674536Y34477051D01*
X29684660Y34568810D01*
X29674536Y34660696D01*
X29644163Y34726183D01*
X29593542Y34765591D01*
X29522673Y34778726D01*
G37*
%LPD*%
X24291263Y36381507D02*
G36*
X24299739Y36500514D01*
X24291177Y36619563D01*
X24265492Y36740068D01*
X24222684Y36862671D01*
X24162753Y36988014D01*
X24321828Y36988014D01*
X24392676Y36859717D01*
X24442547Y36736815D01*
X24471956Y36617466D01*
X24481759Y36499486D01*
X24471999Y36381849D01*
X24442718Y36263185D01*
X24392975Y36140882D01*
X24321828Y36011986D01*
X24162753Y36011986D01*
X24223112Y36137885D01*
X24265835Y36260788D01*
X24291263Y36381507D01*
G37*
%LPD*%
X20687872Y36300000D02*
G36*
X20865668Y36300000D01*
X20874011Y36260788D01*
X20916819Y36137885D01*
X20976751Y36011986D01*
X20817847Y36011986D01*
X20746699Y36140882D01*
X20696956Y36263185D01*
X20687872Y36300000D01*
G37*
%LPD*%
X23974396Y36476541D02*
G36*
X23953164Y36328510D01*
X23889465Y36223801D01*
X23782145Y36161644D01*
X23630390Y36140925D01*
X23478292Y36161644D01*
X23370972Y36223801D01*
X23307145Y36328510D01*
X23285869Y36476541D01*
X23285869Y36955479D01*
X23491862Y36955479D01*
X23491862Y36476541D01*
X23499953Y36391652D01*
X23524225Y36334932D01*
X23566948Y36303082D01*
X23630390Y36292466D01*
X23693446Y36303082D01*
X23736040Y36334932D01*
X23760312Y36391652D01*
X23768403Y36476541D01*
X23768403Y36955479D01*
X23974396Y36955479D01*
X23974396Y36476541D01*
G37*
%LPD*%
X21371657Y36156507D02*
G36*
X21165664Y36156507D01*
X21165664Y36372451D01*
X21192215Y36403082D01*
X21216992Y36445355D01*
X21231853Y36486890D01*
X21239518Y36535286D01*
X21240000Y36955479D01*
X21371657Y36955479D01*
X21371657Y36156507D01*
G37*
%LPD*%
X26622085Y36156507D02*
G36*
X26416092Y36156507D01*
X26416092Y36495205D01*
X26112153Y36495205D01*
X26112153Y36156507D01*
X25906160Y36156507D01*
X25906160Y36955479D01*
X26112153Y36955479D01*
X26112153Y36651027D01*
X26416092Y36651027D01*
X26416092Y36955479D01*
X26622085Y36955479D01*
X26622085Y36156507D01*
G37*
%LPD*%
X25258686Y36156507D02*
G36*
X24962795Y36955479D01*
X25169816Y36955479D01*
X25381289Y36365753D01*
X25593104Y36955479D01*
X25800295Y36955479D01*
X25504405Y36156507D01*
X25258686Y36156507D01*
G37*
%LPD*%
X23084521Y36955479D02*
G36*
X23084521Y36156507D01*
X22878527Y36156507D01*
X22878527Y36433733D01*
X22742740Y36433733D01*
X22607937Y36450642D01*
X22508664Y36501370D01*
X22447406Y36583562D01*
X22426986Y36694863D01*
X22447406Y36805651D01*
X22508664Y36887671D01*
X22607937Y36938527D01*
X22742740Y36955479D01*
X23084521Y36955479D01*
G37*
%LPC*%
X22647491Y36647389D02*
G36*
X22672021Y36612158D01*
X22711533Y36590325D01*
X22764658Y36583048D01*
X22878527Y36583048D01*
X22878527Y36806164D01*
X22764658Y36806164D01*
X22711533Y36798930D01*
X22672021Y36777226D01*
X22647491Y36742166D01*
X22639315Y36694863D01*
X22647491Y36647389D01*
G37*
%LPD*%
X22281331Y36955479D02*
G36*
X22281331Y36156507D01*
X22064208Y36156507D01*
X21906888Y36162971D01*
X21794516Y36182363D01*
X21711040Y36217423D01*
X21640407Y36270548D01*
X21591477Y36328724D01*
X21557016Y36395377D01*
X21536468Y36471190D01*
X21529619Y36556849D01*
X21536468Y36641396D01*
X21557016Y36716610D01*
X21591477Y36783176D01*
X21640407Y36841438D01*
X21710441Y36894521D01*
X21793146Y36929452D01*
X21905432Y36948973D01*
X22064208Y36955479D01*
X22281331Y36955479D01*
G37*
%LPC*%
X21741948Y36556849D02*
G36*
X21758643Y36451670D01*
X21808729Y36374829D01*
X21890235Y36327825D01*
X22001537Y36312158D01*
X22075338Y36312158D01*
X22075338Y36799658D01*
X22001537Y36799658D01*
X21889807Y36784118D01*
X21808386Y36737500D01*
X21758557Y36661344D01*
X21741948Y36556849D01*
G37*
%LPD*%
X23367875Y38038784D02*
G36*
X23427635Y38034846D01*
X23532301Y38052098D01*
X23609998Y38103853D01*
X23658157Y38187414D01*
X23674210Y38299743D01*
X23657558Y38412842D01*
X23607601Y38496318D01*
X23526907Y38547945D01*
X23418046Y38565154D01*
X23351693Y38560445D01*
X23285512Y38546318D01*
X23219244Y38522860D01*
X23152635Y38489812D01*
X23152635Y38655051D01*
X23219458Y38680865D01*
X23290477Y38699401D01*
X23365092Y38710702D01*
X23443046Y38714469D01*
X23540895Y38707545D01*
X23703652Y38652151D01*
X23768560Y38603682D01*
X23820475Y38543140D01*
X23879807Y38391171D01*
X23887224Y38299743D01*
X23879936Y38209236D01*
X23821631Y38057952D01*
X23770614Y37997175D01*
X23707119Y37948330D01*
X23548985Y37892509D01*
X23454347Y37885531D01*
X23367361Y37890197D01*
X23283114Y37904195D01*
X23201693Y37927697D01*
X23123183Y37960531D01*
X23123183Y38344777D01*
X23444244Y38344777D01*
X23444244Y38206592D01*
X23318388Y38206592D01*
X23318388Y38051455D01*
X23367875Y38038784D01*
G37*
%LPD*%
X17517188Y38105394D02*
G36*
X17564448Y38189341D01*
X17580201Y38299743D01*
X17564448Y38410488D01*
X17517188Y38494435D01*
X17442230Y38547474D01*
X17343729Y38565154D01*
X17283711Y38560616D01*
X17226605Y38547003D01*
X17170527Y38523630D01*
X17113592Y38489812D01*
X17113592Y38655051D01*
X17171597Y38680865D01*
X17231914Y38699401D01*
X17294756Y38710702D01*
X17360338Y38714469D01*
X17454976Y38707491D01*
X17613110Y38651670D01*
X17676605Y38602825D01*
X17727622Y38542080D01*
X17785927Y38390539D01*
X17793215Y38299743D01*
X17785927Y38209236D01*
X17727622Y38057952D01*
X17676605Y37997175D01*
X17613110Y37948330D01*
X17454976Y37892509D01*
X17360338Y37885531D01*
X17294756Y37889298D01*
X17231914Y37900599D01*
X17171597Y37919135D01*
X17113592Y37944949D01*
X17113592Y38110360D01*
X17170527Y38076498D01*
X17226605Y38052997D01*
X17283711Y38039384D01*
X17343729Y38034846D01*
X17442230Y38052483D01*
X17517188Y38105394D01*
G37*
%LPD*%
X16637971Y38052483D02*
G36*
X16712928Y38105394D01*
X16760188Y38189341D01*
X16775942Y38299743D01*
X16760188Y38410488D01*
X16712928Y38494435D01*
X16637971Y38547474D01*
X16539469Y38565154D01*
X16479452Y38560616D01*
X16422346Y38547003D01*
X16366267Y38523630D01*
X16309332Y38489812D01*
X16309332Y38655051D01*
X16367337Y38680865D01*
X16427654Y38699401D01*
X16490497Y38710702D01*
X16556079Y38714469D01*
X16650717Y38707491D01*
X16808851Y38651670D01*
X16872346Y38602825D01*
X16923363Y38542080D01*
X16981667Y38390539D01*
X16988955Y38299743D01*
X16981667Y38209236D01*
X16923363Y38057952D01*
X16872346Y37997175D01*
X16808851Y37948330D01*
X16650717Y37892509D01*
X16556079Y37885531D01*
X16490497Y37889298D01*
X16427654Y37900599D01*
X16367337Y37919135D01*
X16309332Y37944949D01*
X16309332Y38110360D01*
X16366267Y38076498D01*
X16422346Y38052997D01*
X16479452Y38039384D01*
X16539469Y38034846D01*
X16637971Y38052483D01*
G37*
%LPD*%
X21334634Y38073330D02*
G36*
X21300173Y38139983D01*
X21279625Y38215796D01*
X21272776Y38301455D01*
X21279625Y38386002D01*
X21300173Y38461216D01*
X21334634Y38527783D01*
X21383564Y38586045D01*
X21453598Y38639127D01*
X21536304Y38674058D01*
X21648589Y38693579D01*
X21807365Y38700086D01*
X22024488Y38700086D01*
X22024488Y37901113D01*
X21807365Y37901113D01*
X21650045Y37907577D01*
X21537673Y37926969D01*
X21454197Y37962029D01*
X21383564Y38015154D01*
X21334634Y38073330D01*
G37*
%LPC*%
X21551886Y38119435D02*
G36*
X21633393Y38072432D01*
X21744694Y38056764D01*
X21818495Y38056764D01*
X21818495Y38544264D01*
X21744694Y38544264D01*
X21632964Y38528724D01*
X21551543Y38482106D01*
X21501714Y38405950D01*
X21485105Y38301455D01*
X21501800Y38196276D01*
X21551886Y38119435D01*
G37*
%LPD*%
X22421107Y38700086D02*
G36*
X22421107Y38473550D01*
X22344302Y38440961D01*
X22302215Y38415735D01*
X22225730Y38352763D01*
X22225730Y38700086D01*
X22421107Y38700086D01*
G37*
%LPD*%
X22711689Y38700086D02*
G36*
X22941655Y38700086D01*
X22941655Y38344615D01*
X22897197Y38386505D01*
X22857785Y38415735D01*
X22771342Y38461940D01*
X22677545Y38490393D01*
X22604931Y38498775D01*
X22711689Y38700086D01*
G37*
%LPD*%
X18483476Y38700086D02*
G36*
X18690668Y38700086D01*
X18394777Y37901113D01*
X18149058Y37901113D01*
X17853168Y38700086D01*
X18060188Y38700086D01*
X18271661Y38110360D01*
X18483476Y38700086D01*
G37*
%LPD*%
X27453336Y40139433D02*
G36*
X27453336Y40392720D01*
X28766841Y40392720D01*
X28766841Y40062102D01*
X27927408Y40062102D01*
X28570712Y38649598D01*
X28132877Y38649598D01*
X27453336Y40139433D01*
G37*
%LPD*%
X20948262Y41313442D02*
G36*
X20840942Y41375599D01*
X20777115Y41480308D01*
X20755839Y41628339D01*
X20755839Y42107277D01*
X20961832Y42107277D01*
X20961832Y41628339D01*
X20969923Y41543450D01*
X20994195Y41486729D01*
X21036918Y41454880D01*
X21100360Y41444264D01*
X21163416Y41454880D01*
X21206010Y41486729D01*
X21230283Y41543450D01*
X21238373Y41628339D01*
X21238373Y42107277D01*
X21444366Y42107277D01*
X21444366Y41628339D01*
X21423134Y41480308D01*
X21359435Y41375599D01*
X21252115Y41313442D01*
X21100360Y41292723D01*
X20948262Y41313442D01*
G37*
%LPD*%
X20554491Y42107277D02*
G36*
X20554491Y41308305D01*
X20348497Y41308305D01*
X20348497Y41585531D01*
X20319492Y41585531D01*
X20393553Y41646447D01*
X20426505Y41682803D01*
X20455735Y41722215D01*
X20501940Y41808658D01*
X20530393Y41902455D01*
X20537592Y41950991D01*
X20537592Y42049009D01*
X20527955Y42107277D01*
X20554491Y42107277D01*
G37*
%LPD*%
X19181010Y41369221D02*
G36*
X19110377Y41422346D01*
X19061447Y41480522D01*
X19026986Y41547175D01*
X19006438Y41622988D01*
X18999589Y41708647D01*
X19006438Y41793193D01*
X19026986Y41868408D01*
X19061447Y41934974D01*
X19110377Y41993236D01*
X19180411Y42046318D01*
X19263116Y42081250D01*
X19375402Y42100771D01*
X19552045Y42107277D01*
X19542408Y42049009D01*
X19542385Y41951455D01*
X19471507Y41951455D01*
X19359777Y41935916D01*
X19278356Y41889298D01*
X19228527Y41813142D01*
X19211918Y41708647D01*
X19228613Y41603467D01*
X19278699Y41526627D01*
X19360205Y41479623D01*
X19471507Y41463955D01*
X19545308Y41463955D01*
X19545308Y41931437D01*
X19561530Y41854858D01*
X19578060Y41808658D01*
X19624265Y41722215D01*
X19686447Y41646447D01*
X19751301Y41592359D01*
X19751301Y41308305D01*
X19534178Y41308305D01*
X19376858Y41314769D01*
X19264486Y41334161D01*
X19181010Y41369221D01*
G37*
%LPD*%
X18841627Y41308305D02*
G36*
X18635634Y41308305D01*
X18635634Y42107277D01*
X18841627Y42107277D01*
X18841627Y41308305D01*
G37*
%LPD*%
X13417027Y43157277D02*
G36*
X12913089Y43157277D01*
X12913089Y43390753D01*
X13417027Y43390753D01*
X13417027Y43157277D01*
G37*
%LPD*%
X14577408Y43825535D02*
G36*
X14661398Y43923716D01*
X14807802Y43980351D01*
X15023042Y43999229D01*
X15486911Y43999229D01*
X15486911Y42800771D01*
X14974240Y42800771D01*
X14765422Y42822025D01*
X14617733Y42885788D01*
X14529891Y42993086D01*
X14500610Y43144435D01*
X14514287Y43248652D01*
X14555319Y43335274D01*
X14621008Y43400899D01*
X14709172Y43442123D01*
X14640593Y43479816D01*
X14590507Y43533305D01*
X14559685Y43601177D01*
X14549411Y43682021D01*
X14577408Y43825535D01*
G37*
%LPC*%
X14821222Y43237350D02*
G36*
X14809600Y43169092D01*
X14821351Y43099743D01*
X14856603Y43050428D01*
X14915101Y43020955D01*
X14996586Y43011130D01*
X15177922Y43011130D01*
X15177922Y43325000D01*
X14996586Y43325000D01*
X14914458Y43315240D01*
X14856089Y43285959D01*
X14821222Y43237350D01*
G37*
%LPC*%
X14858658Y43661986D02*
G36*
X14868097Y43606956D01*
X14896415Y43567209D01*
X14942840Y43543129D01*
X15007117Y43535103D01*
X15177922Y43535103D01*
X15177922Y43788870D01*
X15007117Y43788870D01*
X14942840Y43780715D01*
X14896415Y43756250D01*
X14868097Y43716503D01*
X14858658Y43661986D01*
G37*
%LPD*%
X13669927Y42800771D02*
G36*
X13669927Y43765497D01*
X13272581Y43765497D01*
X13272581Y43999229D01*
X14377033Y43999229D01*
X14377033Y43765497D01*
X13978917Y43765497D01*
X13978917Y42800771D01*
X13669927Y42800771D01*
G37*
%LPD*%
X27602471Y44872142D02*
G36*
X28174644Y44872142D01*
X28174644Y45364984D01*
X28728967Y45364984D01*
X28728967Y44872142D01*
X29005137Y44872142D01*
X29005137Y44475488D01*
X28728967Y44475488D01*
X28728967Y43739696D01*
X28694756Y43458816D01*
X28592122Y43273628D01*
X28407058Y43170994D01*
X28126550Y43136783D01*
X27650566Y43136783D01*
X27650566Y43533436D01*
X27935660Y43533436D01*
X28054780Y43544096D01*
X28126550Y43576077D01*
X28162621Y43638302D01*
X28174644Y43739696D01*
X28174644Y44475488D01*
X27602471Y44475488D01*
X27602471Y44872142D01*
G37*
%LPD*%
X36123711Y30285081D02*
G36*
X36189175Y30278682D01*
X36178909Y30310054D01*
X36183677Y30372300D01*
X36211902Y30427984D01*
X36259289Y30468628D01*
X36318622Y30488044D01*
X36380868Y30483276D01*
X36436552Y30455050D01*
X36792100Y30175963D01*
X37190904Y30282822D01*
X36898959Y30574767D01*
X36451502Y30510844D01*
X36389166Y30514242D01*
X36332875Y30541236D01*
X36291199Y30587717D01*
X36270483Y30646609D01*
X36273880Y30708945D01*
X36300875Y30765236D01*
X36325451Y30787272D01*
X36265558Y30814462D01*
X36223882Y30860943D01*
X36203166Y30919835D01*
X36206564Y30982171D01*
X36233558Y31038462D01*
X36280039Y31080138D01*
X36338931Y31100854D01*
X36377197Y31106321D01*
X36362230Y31128720D01*
X36350051Y31189949D01*
X36362230Y31251179D01*
X36396913Y31303087D01*
X36448821Y31337770D01*
X36510051Y31349949D01*
X36571280Y31337770D01*
X36593679Y31322803D01*
X36599146Y31361069D01*
X36619862Y31419961D01*
X36661538Y31466442D01*
X36717829Y31493436D01*
X36780165Y31496834D01*
X36839057Y31476118D01*
X36885538Y31434442D01*
X36912728Y31374549D01*
X36934764Y31399125D01*
X36991055Y31426120D01*
X37053391Y31429517D01*
X37112283Y31408801D01*
X37158764Y31367125D01*
X37185758Y31310834D01*
X37189156Y31248498D01*
X37125233Y30801041D01*
X37417178Y30509096D01*
X37524037Y30907900D01*
X37244950Y31263448D01*
X37216724Y31319132D01*
X37211956Y31381378D01*
X37231372Y31440711D01*
X37272016Y31488098D01*
X37327700Y31516323D01*
X37389946Y31521091D01*
X37421318Y31510825D01*
X37414919Y31576289D01*
X37434335Y31635622D01*
X37474978Y31683008D01*
X37530662Y31711234D01*
X37592909Y31716002D01*
X37652241Y31696586D01*
X37699628Y31655943D01*
X37723495Y31625537D01*
X37735410Y31649698D01*
X37782347Y31690860D01*
X37841462Y31710927D01*
X37903758Y31706844D01*
X37959748Y31679233D01*
X38000911Y31632296D01*
X38020978Y31573180D01*
X38019216Y31546298D01*
X38055089Y31560697D01*
X38116448Y31572202D01*
X38177540Y31559350D01*
X38229063Y31524098D01*
X38263174Y31471812D01*
X38274679Y31410452D01*
X38261827Y31349361D01*
X38223554Y31295867D01*
X38255855Y31289071D01*
X38307378Y31253819D01*
X38341489Y31201533D01*
X38352994Y31140173D01*
X38340142Y31079082D01*
X38304890Y31027559D01*
X38252604Y30993448D01*
X37833133Y30825078D01*
X37726274Y30426274D01*
X38125078Y30533133D01*
X38293448Y30952604D01*
X38327559Y31004890D01*
X38379082Y31040142D01*
X38440173Y31052994D01*
X38501533Y31041489D01*
X38553819Y31007378D01*
X38589071Y30955855D01*
X38595867Y30923554D01*
X38649361Y30961827D01*
X38710452Y30974679D01*
X38771812Y30963174D01*
X38824098Y30929063D01*
X38859350Y30877540D01*
X38872202Y30816448D01*
X38860697Y30755089D01*
X38846298Y30719216D01*
X38873180Y30720978D01*
X38932296Y30700911D01*
X38979233Y30659748D01*
X39006844Y30603758D01*
X39010927Y30541462D01*
X38990860Y30482347D01*
X38949698Y30435410D01*
X38925537Y30423495D01*
X38955943Y30399628D01*
X38996586Y30352241D01*
X39016002Y30292909D01*
X39011234Y30230662D01*
X38983008Y30174978D01*
X38935622Y30134335D01*
X38876289Y30114919D01*
X38810825Y30121318D01*
X38821091Y30089946D01*
X38816323Y30027700D01*
X38788098Y29972016D01*
X38740711Y29931372D01*
X38681378Y29911956D01*
X38619132Y29916724D01*
X38563448Y29944950D01*
X38207900Y30224037D01*
X37809096Y30117178D01*
X38101041Y29825233D01*
X38548498Y29889156D01*
X38610834Y29885758D01*
X38667125Y29858764D01*
X38708801Y29812283D01*
X38729517Y29753391D01*
X38726120Y29691055D01*
X38699125Y29634764D01*
X38674549Y29612728D01*
X38734442Y29585538D01*
X38776118Y29539057D01*
X38796834Y29480165D01*
X38793436Y29417829D01*
X38766442Y29361538D01*
X38719961Y29319862D01*
X38661069Y29299146D01*
X38622803Y29293679D01*
X38637770Y29271280D01*
X38649949Y29210051D01*
X38637770Y29148821D01*
X38603087Y29096913D01*
X38551179Y29062230D01*
X38489949Y29050051D01*
X38428720Y29062230D01*
X38406321Y29077197D01*
X38400854Y29038931D01*
X38380138Y28980039D01*
X38338462Y28933558D01*
X38282171Y28906564D01*
X38219835Y28903166D01*
X38160943Y28923882D01*
X38114462Y28965558D01*
X38087272Y29025451D01*
X38065236Y29000875D01*
X38008945Y28973880D01*
X37946609Y28970483D01*
X37887717Y28991199D01*
X37841236Y29032875D01*
X37814242Y29089166D01*
X37810844Y29151502D01*
X37874767Y29598959D01*
X37582822Y29890904D01*
X37475963Y29492100D01*
X37755050Y29136552D01*
X37783276Y29080868D01*
X37788044Y29018622D01*
X37768628Y28959289D01*
X37727984Y28911902D01*
X37672300Y28883677D01*
X37610054Y28878909D01*
X37578682Y28889175D01*
X37585081Y28823711D01*
X37565665Y28764378D01*
X37525022Y28716992D01*
X37469338Y28688766D01*
X37407091Y28683998D01*
X37347759Y28703414D01*
X37300372Y28744057D01*
X37276505Y28774463D01*
X37264590Y28750302D01*
X37217653Y28709140D01*
X37158538Y28689073D01*
X37096242Y28693156D01*
X37040252Y28720767D01*
X36999089Y28767704D01*
X36979022Y28826820D01*
X36980784Y28853702D01*
X36944911Y28839303D01*
X36883552Y28827798D01*
X36822460Y28840650D01*
X36770937Y28875902D01*
X36736826Y28928188D01*
X36725321Y28989548D01*
X36738173Y29050639D01*
X36776446Y29104133D01*
X36744145Y29110929D01*
X36692622Y29146181D01*
X36658511Y29198467D01*
X36647006Y29259827D01*
X36659858Y29320918D01*
X36695110Y29372441D01*
X36747396Y29406552D01*
X37166867Y29574922D01*
X37273726Y29973726D01*
X36874922Y29866867D01*
X36706552Y29447396D01*
X36672441Y29395110D01*
X36620918Y29359858D01*
X36559827Y29347006D01*
X36498467Y29358511D01*
X36446181Y29392622D01*
X36410929Y29444145D01*
X36404133Y29476446D01*
X36350639Y29438173D01*
X36289548Y29425321D01*
X36228188Y29436826D01*
X36175902Y29470937D01*
X36140650Y29522460D01*
X36127798Y29583552D01*
X36139303Y29644911D01*
X36153702Y29680784D01*
X36126820Y29679022D01*
X36067704Y29699089D01*
X36020767Y29740252D01*
X35993156Y29796242D01*
X35989073Y29858538D01*
X36009140Y29917653D01*
X36050302Y29964590D01*
X36074463Y29976505D01*
X36044057Y30000372D01*
X36003414Y30047759D01*
X35983998Y30107091D01*
X35988766Y30169338D01*
X36016992Y30225022D01*
X36064378Y30265665D01*
X36123711Y30285081D01*
G37*
%LPD*%
X37242977Y34844149D02*
G36*
X37229521Y34785134D01*
X37229521Y34762835D01*
X37398684Y34762835D01*
X37600015Y34744381D01*
X37739575Y34689018D01*
X37820889Y34594376D01*
X37847993Y34457572D01*
X37826271Y34339926D01*
X37761105Y34246373D01*
X37661080Y34185436D01*
X37534784Y34165124D01*
X37439309Y34174415D01*
X37359469Y34202288D01*
X37290843Y34250795D01*
X37229521Y34321472D01*
X37229521Y34188448D01*
X36940405Y34188448D01*
X36940405Y34700296D01*
X36967381Y34885863D01*
X37048310Y35011455D01*
X37189729Y35083157D01*
X37398684Y35107058D01*
X37584508Y35095524D01*
X37769563Y35061435D01*
X37769563Y34842804D01*
X37698630Y34875098D01*
X37622185Y34898166D01*
X37539590Y34912007D01*
X37450715Y34916620D01*
X37351972Y34908675D01*
X37283345Y34884838D01*
X37242977Y34844149D01*
G37*
%LPC*%
X37243361Y34479230D02*
G36*
X37284883Y34413743D01*
X37346590Y34370299D01*
X37420983Y34355817D01*
X37478781Y34363506D01*
X37522481Y34386574D01*
X37549778Y34423419D01*
X37558877Y34471925D01*
X37547600Y34524084D01*
X37513767Y34561633D01*
X37457315Y34584509D01*
X37378692Y34592134D01*
X37229521Y34592134D01*
X37229521Y34559326D01*
X37243361Y34479230D01*
G37*
%LPD*%
X40431841Y34833320D02*
G36*
X40421973Y34870164D01*
X40392369Y34896116D01*
X40342133Y34911494D01*
X40270879Y34916620D01*
X40192384Y34911815D01*
X40109148Y34897397D01*
X40021747Y34873368D01*
X39931270Y34839728D01*
X39931270Y35057590D01*
X40121195Y35095011D01*
X40287795Y35107058D01*
X40463559Y35089821D01*
X40587420Y35038111D01*
X40660660Y34950966D01*
X40685074Y34826912D01*
X40665850Y34711509D01*
X40608181Y34629811D01*
X40502646Y34575153D01*
X40339826Y34540872D01*
X40216477Y34521905D01*
X40172713Y34505245D01*
X40150798Y34481601D01*
X40143493Y34448088D01*
X40154130Y34407848D01*
X40186041Y34378885D01*
X40238840Y34361584D01*
X40312657Y34355817D01*
X40404800Y34361007D01*
X40495661Y34376578D01*
X40584601Y34402722D01*
X40671489Y34439117D01*
X40671489Y34221255D01*
X40572618Y34196778D01*
X40476438Y34179221D01*
X40382886Y34168648D01*
X40292409Y34165124D01*
X40108764Y34183129D01*
X39977149Y34237146D01*
X39897758Y34327175D01*
X39871294Y34452702D01*
X39890325Y34571565D01*
X39947417Y34653904D01*
X40059424Y34708946D01*
X40359946Y34764373D01*
X40401852Y34780264D01*
X40424344Y34802755D01*
X40431841Y34833320D01*
G37*
%LPD*%
X36136044Y34844149D02*
G36*
X36122588Y34785134D01*
X36122588Y34762835D01*
X36291752Y34762835D01*
X36493082Y34744381D01*
X36632642Y34689018D01*
X36713956Y34594376D01*
X36741061Y34457572D01*
X36719338Y34339926D01*
X36654172Y34246373D01*
X36554147Y34185436D01*
X36427851Y34165124D01*
X36332376Y34174415D01*
X36252536Y34202288D01*
X36183910Y34250795D01*
X36122588Y34321472D01*
X36122588Y34188448D01*
X35833472Y34188448D01*
X35833472Y34700296D01*
X35860448Y34885863D01*
X35941378Y35011455D01*
X36082796Y35083157D01*
X36291752Y35107058D01*
X36477575Y35095524D01*
X36662630Y35061435D01*
X36662630Y34842804D01*
X36591697Y34875098D01*
X36515253Y34898166D01*
X36432657Y34912007D01*
X36343782Y34916620D01*
X36245039Y34908675D01*
X36176413Y34884838D01*
X36136044Y34844149D01*
G37*
%LPC*%
X36136428Y34479230D02*
G36*
X36177950Y34413743D01*
X36239657Y34370299D01*
X36314050Y34355817D01*
X36371848Y34363506D01*
X36415549Y34386574D01*
X36442845Y34423419D01*
X36451944Y34471925D01*
X36440667Y34524084D01*
X36406834Y34561633D01*
X36350382Y34584509D01*
X36271759Y34592134D01*
X36122588Y34592134D01*
X36122588Y34559326D01*
X36136428Y34479230D01*
G37*
%LPD*%
X41139509Y34718558D02*
G36*
X41094719Y34804614D01*
X41022312Y34857862D01*
X40924530Y34875611D01*
X40886981Y34873496D01*
X40812203Y34856580D01*
X40774589Y34841266D01*
X40775615Y35100650D01*
X40855583Y35107058D01*
X40948687Y35096934D01*
X41027566Y35066561D01*
X41095039Y35014338D01*
X41154439Y34938150D01*
X41154439Y35085528D01*
X41440992Y35085528D01*
X41440992Y34188448D01*
X41154439Y34188448D01*
X41154439Y34601873D01*
X41139509Y34718558D01*
G37*
%LPD*%
X35220446Y34804614D02*
G36*
X35148038Y34857862D01*
X35050257Y34875611D01*
X34975415Y34867153D01*
X34900316Y34841266D01*
X34901341Y35100650D01*
X34981310Y35107058D01*
X35074414Y35096934D01*
X35153293Y35066561D01*
X35220766Y35014338D01*
X35280165Y34938150D01*
X35280165Y35085528D01*
X35566719Y35085528D01*
X35566719Y34188448D01*
X35280165Y34188448D01*
X35280165Y34601873D01*
X35265235Y34718558D01*
X35220446Y34804614D01*
G37*
%LPD*%
X39280727Y34399005D02*
G36*
X39317827Y34415537D01*
X39336474Y34447704D01*
X39342689Y34500119D01*
X39342689Y34880481D01*
X39046909Y34880481D01*
X39046909Y35085528D01*
X39342689Y35085528D01*
X39342689Y35340299D01*
X39629242Y35340299D01*
X39629242Y35085528D01*
X39772006Y35085528D01*
X39772006Y34880481D01*
X39629242Y34880481D01*
X39629242Y34500119D01*
X39611557Y34354920D01*
X39558501Y34259189D01*
X39462834Y34206133D01*
X39317827Y34188448D01*
X39071771Y34188448D01*
X39071771Y34393495D01*
X39219148Y34393495D01*
X39280727Y34399005D01*
G37*
%LPD*%
X34419930Y34415537D02*
G36*
X34438576Y34447704D01*
X34444792Y34500119D01*
X34444792Y34880481D01*
X34149011Y34880481D01*
X34149011Y35085528D01*
X34444792Y35085528D01*
X34444792Y35340299D01*
X34731345Y35340299D01*
X34731345Y35085528D01*
X34874109Y35085528D01*
X34874109Y34880481D01*
X34731345Y34880481D01*
X34731345Y34500119D01*
X34713659Y34354920D01*
X34660603Y34259189D01*
X34564936Y34206133D01*
X34419930Y34188448D01*
X34173873Y34188448D01*
X34173873Y34393495D01*
X34321251Y34393495D01*
X34382829Y34399005D01*
X34419930Y34415537D01*
G37*
%LPD*%
X31464275Y34326598D02*
G36*
X31368159Y34521969D01*
X31336120Y34785134D01*
X31368159Y35049004D01*
X31464275Y35244439D01*
X31535064Y35315084D01*
X31716915Y35395821D01*
X31827977Y35405914D01*
X31939375Y35395821D01*
X32121610Y35315084D01*
X32192448Y35244439D01*
X32288563Y35049004D01*
X32320602Y34785134D01*
X32288563Y34521969D01*
X32192448Y34326598D01*
X32121610Y34255953D01*
X31939375Y34175216D01*
X31827977Y34165124D01*
X31716915Y34175216D01*
X31535064Y34255953D01*
X31464275Y34326598D01*
G37*
%LPC*%
X31827977Y35195228D02*
G36*
X31742882Y35172288D01*
X31686494Y35103469D01*
X31654968Y34978775D01*
X31644460Y34787697D01*
X31655097Y34594312D01*
X31687007Y34467824D01*
X31743395Y34398236D01*
X31827977Y34375040D01*
X31913007Y34398236D01*
X31969715Y34467824D01*
X32001626Y34594312D01*
X32012263Y34787697D01*
X32001626Y34978775D01*
X31969715Y35103469D01*
X31913007Y35172288D01*
X31827977Y35195228D01*
G37*
%LPD*%
X30699033Y35182412D02*
G36*
X30633290Y35143966D01*
X30590999Y35084503D01*
X30576902Y35008635D01*
X30583887Y34955259D01*
X30604840Y34903805D01*
X30640467Y34852735D01*
X30691472Y34800513D01*
X31127966Y34415024D01*
X31127966Y34188448D01*
X30258823Y34188448D01*
X30258823Y34415024D01*
X30785025Y34415024D01*
X30529485Y34639294D01*
X30395564Y34766872D01*
X30317262Y34865615D01*
X30279392Y34953465D01*
X30266769Y35047850D01*
X30296501Y35198304D01*
X30385696Y35311336D01*
X30528588Y35382269D01*
X30719410Y35405914D01*
X30818089Y35401364D01*
X30918818Y35387716D01*
X31021149Y35365673D01*
X31124634Y35335429D01*
X31124634Y35072712D01*
X31029992Y35126153D01*
X30941373Y35164471D01*
X30858970Y35187539D01*
X30783487Y35195228D01*
X30699033Y35182412D01*
G37*
%LPD*%
X33066236Y35195228D02*
G36*
X32981782Y35182412D01*
X32916039Y35143966D01*
X32873748Y35084503D01*
X32859651Y35008635D01*
X32866635Y34955259D01*
X32887589Y34903805D01*
X32923215Y34852735D01*
X32974221Y34800513D01*
X33410714Y34415024D01*
X33410714Y34188448D01*
X32541572Y34188448D01*
X32541572Y34415024D01*
X33067774Y34415024D01*
X32812234Y34639294D01*
X32678313Y34766872D01*
X32600010Y34865615D01*
X32562141Y34953465D01*
X32549517Y35047850D01*
X32579249Y35198304D01*
X32668445Y35311336D01*
X32811337Y35382269D01*
X33002159Y35405914D01*
X33100837Y35401364D01*
X33201567Y35387716D01*
X33303898Y35365673D01*
X33407382Y35335429D01*
X33407382Y35072712D01*
X33312740Y35126153D01*
X33224122Y35164471D01*
X33141719Y35187539D01*
X33066236Y35195228D01*
G37*
%LPD*%
X37887273Y34188448D02*
G36*
X38359906Y34673896D01*
X37921618Y35085528D01*
X38254819Y35085528D01*
X38584945Y34756428D01*
X38584945Y35434876D01*
X38871498Y35434876D01*
X38871498Y34188448D01*
X38584945Y34188448D01*
X38584945Y34562402D01*
X38234827Y34188448D01*
X37887273Y34188448D01*
G37*
%LPD*%
X36197616Y39798729D02*
G36*
X36314733Y39585134D01*
X36353772Y39318679D01*
X36314733Y39052410D01*
X36197616Y38837882D01*
X36020353Y38696669D01*
X35801622Y38649598D01*
X35673391Y38663047D01*
X35561410Y38703394D01*
X35461665Y38772319D01*
X35370885Y38871504D01*
X35370885Y38781472D01*
X35394887Y38615509D01*
X35466895Y38500166D01*
X35589989Y38432642D01*
X35768000Y38410134D01*
X35873910Y38417886D01*
X35979446Y38441141D01*
X36085542Y38480180D01*
X36193880Y38535283D01*
X36193880Y38209522D01*
X36078724Y38175993D01*
X35964129Y38152364D01*
X35847479Y38138355D01*
X35726906Y38133685D01*
X35393580Y38175246D01*
X35149726Y38299928D01*
X35062612Y38392365D01*
X34963053Y38633137D01*
X34950608Y38781472D01*
X34950608Y39957126D01*
X35370885Y39957126D01*
X35370885Y39763238D01*
X35461665Y39863451D01*
X35561410Y39932470D01*
X35673391Y39972817D01*
X35801622Y39986265D01*
X36020353Y39939381D01*
X36197616Y39798729D01*
G37*
%LPC*%
X35530403Y39661158D02*
G36*
X35443359Y39589150D01*
X35389003Y39473714D01*
X35370885Y39318679D01*
X35389003Y39164204D01*
X35443359Y39048955D01*
X35530403Y38977227D01*
X35646586Y38953318D01*
X35764731Y38976480D01*
X35850934Y39045966D01*
X35903329Y39160468D01*
X35920794Y39318679D01*
X35902769Y39473714D01*
X35848693Y39589150D01*
X35761929Y39661158D01*
X35646586Y39685160D01*
X35530403Y39661158D01*
G37*
%LPD*%
X41556239Y39209967D02*
G36*
X41556053Y39957126D01*
X41976329Y39957126D01*
X41976329Y39158787D01*
X41946723Y38925113D01*
X41857905Y38754574D01*
X41712396Y38650345D01*
X41512717Y38615602D01*
X41391024Y38629145D01*
X41279977Y38669772D01*
X41177056Y38739257D01*
X41079739Y38838629D01*
X41079739Y38649598D01*
X40661703Y38649598D01*
X40661703Y39957126D01*
X41079739Y39957126D01*
X41079739Y39311581D01*
X41098418Y39152530D01*
X41154455Y39032517D01*
X41243180Y38957147D01*
X41359923Y38932024D01*
X41410637Y38937535D01*
X41455186Y38954065D01*
X41492638Y38981057D01*
X41522057Y39017200D01*
X41538961Y39058388D01*
X41550075Y39118440D01*
X41556239Y39209967D01*
G37*
%LPD*%
X36662256Y38649598D02*
G36*
X36662256Y39957126D01*
X37079917Y39957126D01*
X37079917Y38649598D01*
X36662256Y38649598D01*
G37*
%LPD*%
X32092912Y39903891D02*
G36*
X32139610Y39519291D01*
X32092912Y39135718D01*
X31952820Y38850958D01*
X31849572Y38747990D01*
X31583957Y38630312D01*
X31421590Y38615602D01*
X31259713Y38630312D01*
X30994659Y38747990D01*
X30891481Y38850958D01*
X30751388Y39135718D01*
X30704691Y39519291D01*
X30751388Y39903891D01*
X30891481Y40188745D01*
X30994659Y40291713D01*
X31259713Y40409391D01*
X31421590Y40424100D01*
X31583957Y40409391D01*
X31849572Y40291713D01*
X31952820Y40188745D01*
X32092912Y39903891D01*
G37*
%LPC*%
X31169424Y39801530D02*
G36*
X31154107Y39523027D01*
X31169611Y39241161D01*
X31216121Y39056800D01*
X31298309Y38955373D01*
X31421590Y38921564D01*
X31545525Y38955373D01*
X31628179Y39056800D01*
X31674690Y39241161D01*
X31690194Y39523027D01*
X31674690Y39801530D01*
X31628179Y39983277D01*
X31545525Y40083583D01*
X31421590Y40117018D01*
X31297562Y40083583D01*
X31215374Y39983277D01*
X31169424Y39801530D01*
G37*
%LPD*%
X29690750Y39617823D02*
G36*
X29765092Y39541706D01*
X30401298Y38979842D01*
X30401298Y38649598D01*
X29134490Y38649598D01*
X29134490Y38979842D01*
X29901449Y38979842D01*
X29528990Y39306724D01*
X29333795Y39492674D01*
X29219666Y39636595D01*
X29164470Y39764639D01*
X29146071Y39902210D01*
X29189406Y40121501D01*
X29319412Y40286250D01*
X29527682Y40389638D01*
X29805812Y40424100D01*
X29949640Y40417469D01*
X30096457Y40397576D01*
X30245609Y40365449D01*
X30396441Y40321366D01*
X30396441Y39938447D01*
X30258497Y40016339D01*
X30129332Y40072189D01*
X30009226Y40105811D01*
X29899207Y40117018D01*
X29776113Y40098339D01*
X29680290Y40042302D01*
X29618649Y39955632D01*
X29598102Y39845052D01*
X29608282Y39767254D01*
X29638822Y39692258D01*
X29690750Y39617823D01*
G37*
%LPD*%
X33017942Y39617823D02*
G36*
X33092284Y39541706D01*
X33728490Y38979842D01*
X33728490Y38649598D01*
X32461682Y38649598D01*
X32461682Y38979842D01*
X33228640Y38979842D01*
X32856182Y39306724D01*
X32660986Y39492674D01*
X32546858Y39636595D01*
X32491662Y39764639D01*
X32473263Y39902210D01*
X32516598Y40121501D01*
X32646604Y40286250D01*
X32854874Y40389638D01*
X33133004Y40424100D01*
X33276832Y40417469D01*
X33423649Y40397576D01*
X33572800Y40365449D01*
X33723633Y40321366D01*
X33723633Y39938447D01*
X33585689Y40016339D01*
X33456524Y40072189D01*
X33336418Y40105811D01*
X33226399Y40117018D01*
X33103304Y40098339D01*
X33007481Y40042302D01*
X32945841Y39955632D01*
X32925294Y39845052D01*
X32935474Y39767254D01*
X32966014Y39692258D01*
X33017942Y39617823D01*
G37*
%LPD*%
X40260012Y38649598D02*
G36*
X39842350Y38649598D01*
X39842350Y39194651D01*
X39332041Y38649598D01*
X38825467Y38649598D01*
X39514348Y39357158D01*
X38875527Y39957126D01*
X39361180Y39957126D01*
X39842350Y39477450D01*
X39842350Y40466315D01*
X40260012Y40466315D01*
X40260012Y38649598D01*
G37*
%LPD*%
X38669965Y38649598D02*
G36*
X38252303Y38649598D01*
X38252303Y39194651D01*
X37741993Y38649598D01*
X37235420Y38649598D01*
X37924300Y39357158D01*
X37285479Y39957126D01*
X37771133Y39957126D01*
X38252303Y39477450D01*
X38252303Y40466315D01*
X38669965Y40466315D01*
X38669965Y38649598D01*
G37*
%LPD*%
X36662256Y40125237D02*
G36*
X36662256Y40466315D01*
X37079917Y40466315D01*
X37079917Y40125237D01*
X36662256Y40125237D01*
G37*
%LPD*%
X39060674Y44545398D02*
G36*
X38908830Y44536102D01*
X38747814Y44508212D01*
X38578740Y44461729D01*
X38403717Y44396653D01*
X38403717Y44818098D01*
X38594730Y44860986D01*
X38771117Y44890487D01*
X38935976Y44907965D01*
X39093398Y44913790D01*
X39433404Y44880447D01*
X39673008Y44780416D01*
X39814688Y44611838D01*
X39861914Y44371863D01*
X39824728Y44148621D01*
X39713169Y43990579D01*
X39509016Y43884847D01*
X39194049Y43818531D01*
X38955437Y43781841D01*
X38870776Y43749613D01*
X38828384Y43703873D01*
X38814253Y43639045D01*
X38834830Y43561202D01*
X38896559Y43505175D01*
X38998697Y43471707D01*
X39141492Y43460551D01*
X39319738Y43470592D01*
X39495505Y43500712D01*
X39667554Y43551286D01*
X39835636Y43621692D01*
X39835636Y43200247D01*
X39644374Y43152897D01*
X39458319Y43118934D01*
X39277346Y43098481D01*
X39102323Y43091664D01*
X38747070Y43126495D01*
X38492468Y43230988D01*
X38338889Y43405144D01*
X38287696Y43647970D01*
X38324510Y43877905D01*
X38434953Y44037186D01*
X38651625Y44143663D01*
X39008118Y44215184D01*
X39232970Y44250883D01*
X39314036Y44281624D01*
X39357544Y44325132D01*
X39372047Y44384258D01*
X39352958Y44455532D01*
X39295691Y44505733D01*
X39198511Y44535482D01*
X39060674Y44545398D01*
G37*
%LPD*%
X34252057Y43484970D02*
G36*
X34396959Y43558227D01*
X34492652Y43680322D01*
X34537771Y43851255D01*
X33241210Y43851255D01*
X33241210Y44008925D01*
X33302568Y44379796D01*
X33486639Y44667369D01*
X33772974Y44852185D01*
X34141118Y44913790D01*
X34542481Y44852929D01*
X34847161Y44670344D01*
X35039414Y44382027D01*
X35103498Y44002975D01*
X35038298Y43618841D01*
X34842698Y43331143D01*
X34528970Y43151533D01*
X34110377Y43091664D01*
X33913538Y43101208D01*
X33716698Y43129841D01*
X33519859Y43177068D01*
X33323020Y43242392D01*
X33323020Y43669786D01*
X33514405Y43577936D01*
X33700832Y43512612D01*
X33882177Y43473566D01*
X34059308Y43460551D01*
X34252057Y43484970D01*
G37*
%LPC*%
X34009974Y44521103D02*
G36*
X33903621Y44448218D01*
X33834455Y44336164D01*
X33811400Y44193369D01*
X34531821Y44193369D01*
X34488066Y44343973D01*
X34406380Y44454664D01*
X34290606Y44522715D01*
X34144588Y44545398D01*
X34009974Y44521103D01*
G37*
%LPD*%
X32099902Y43484970D02*
G36*
X32244804Y43558227D01*
X32340497Y43680322D01*
X32385616Y43851255D01*
X31089055Y43851255D01*
X31089055Y44008925D01*
X31150413Y44379796D01*
X31334485Y44667369D01*
X31620819Y44852185D01*
X31988963Y44913790D01*
X32390327Y44852929D01*
X32695006Y44670344D01*
X32887259Y44382027D01*
X32951343Y44002975D01*
X32886143Y43618841D01*
X32690544Y43331143D01*
X32376816Y43151533D01*
X31958222Y43091664D01*
X31761383Y43101208D01*
X31564544Y43129841D01*
X31367704Y43177068D01*
X31170865Y43242392D01*
X31170865Y43669786D01*
X31362250Y43577936D01*
X31548678Y43512612D01*
X31730023Y43473566D01*
X31907153Y43460551D01*
X32099902Y43484970D01*
G37*
%LPC*%
X31751467Y44448218D02*
G36*
X31682300Y44336164D01*
X31659245Y44193369D01*
X32379666Y44193369D01*
X32335911Y44343973D01*
X32254225Y44454664D01*
X32138452Y44522715D01*
X31992434Y44545398D01*
X31857819Y44521103D01*
X31751467Y44448218D01*
G37*
%LPD*%
X29818339Y44536102D02*
G36*
X29657322Y44508212D01*
X29488249Y44461729D01*
X29313225Y44396653D01*
X29313225Y44818098D01*
X29504239Y44860986D01*
X29680626Y44890487D01*
X29845485Y44907965D01*
X30002907Y44913790D01*
X30342913Y44880447D01*
X30582516Y44780416D01*
X30724196Y44611838D01*
X30771423Y44371863D01*
X30734236Y44148621D01*
X30622678Y43990579D01*
X30418525Y43884847D01*
X30103557Y43818531D01*
X29864946Y43781841D01*
X29780285Y43749613D01*
X29737893Y43703873D01*
X29723762Y43639045D01*
X29744338Y43561202D01*
X29806067Y43505175D01*
X29908206Y43471707D01*
X30051001Y43460551D01*
X30229247Y43470592D01*
X30405014Y43500712D01*
X30577062Y43551286D01*
X30745144Y43621692D01*
X30745144Y43200247D01*
X30553883Y43152897D01*
X30367828Y43118934D01*
X30186855Y43098481D01*
X30011831Y43091664D01*
X29656579Y43126495D01*
X29401977Y43230988D01*
X29248397Y43405144D01*
X29197204Y43647970D01*
X29234019Y43877905D01*
X29344462Y44037186D01*
X29561134Y44143663D01*
X29917626Y44215184D01*
X30142479Y44250883D01*
X30223545Y44281624D01*
X30267053Y44325132D01*
X30281556Y44384258D01*
X30262467Y44455532D01*
X30205200Y44505733D01*
X30108020Y44535482D01*
X29970183Y44545398D01*
X29818339Y44536102D01*
G37*
%LPD*%
X40107839Y44429253D02*
G36*
X40035078Y44399628D01*
X40037061Y44901395D01*
X40191756Y44913790D01*
X40371862Y44894206D01*
X40524449Y44835451D01*
X40654973Y44734429D01*
X40769879Y44587047D01*
X40769879Y44872142D01*
X41324202Y44872142D01*
X41324202Y43136783D01*
X40769879Y43136783D01*
X40769879Y43936535D01*
X40740997Y44162256D01*
X40654353Y44328727D01*
X40514285Y44431732D01*
X40325131Y44466068D01*
X40252494Y44461977D01*
X40180352Y44449706D01*
X40107839Y44429253D01*
G37*
%LPD*%
X36692963Y44475488D02*
G36*
X36692963Y44872142D01*
X37265135Y44872142D01*
X37265135Y45364984D01*
X37819459Y45364984D01*
X37819459Y44872142D01*
X38095629Y44872142D01*
X38095629Y44475488D01*
X37819459Y44475488D01*
X37819459Y43739696D01*
X37785247Y43458816D01*
X37682613Y43273628D01*
X37497550Y43170994D01*
X37217041Y43136783D01*
X36741057Y43136783D01*
X36741057Y43533436D01*
X37026152Y43533436D01*
X37145272Y43544096D01*
X37217041Y43576077D01*
X37253112Y43638302D01*
X37265135Y43739696D01*
X37265135Y44475488D01*
X36692963Y44475488D01*
G37*
%LPD*%
X35618838Y45172855D02*
G36*
X35518683Y45183515D01*
X35211772Y45183515D01*
X35211772Y45547940D01*
X35636687Y45547940D01*
X35924633Y45513977D01*
X36126058Y45412086D01*
X36244682Y45239666D01*
X36284224Y44993121D01*
X36284224Y44872142D01*
X36559898Y44872142D01*
X36559898Y44475488D01*
X36284224Y44475488D01*
X36284224Y43136783D01*
X35729405Y43136783D01*
X35729405Y44475488D01*
X35255404Y44475488D01*
X35255404Y44872142D01*
X35729405Y44872142D01*
X35729405Y44993121D01*
X35717877Y45082616D01*
X35683294Y45140874D01*
X35618838Y45172855D01*
G37*
%LPD*%
X44145755Y29701390D02*
G36*
X44112863Y29751808D01*
X44101358Y29813167D01*
X44114210Y29874259D01*
X44149462Y29925782D01*
X44201748Y29959893D01*
X44263108Y29971398D01*
X44324200Y29958546D01*
X44774811Y29766064D01*
X45180000Y30000000D01*
X44774811Y30233936D01*
X44324200Y30041454D01*
X44263108Y30028602D01*
X44201748Y30040107D01*
X44149462Y30074218D01*
X44114210Y30125741D01*
X44101358Y30186833D01*
X44112863Y30248192D01*
X44145755Y30298610D01*
X44117673Y30292702D01*
X44056314Y30304207D01*
X44004028Y30338318D01*
X43968775Y30389841D01*
X43955923Y30450933D01*
X43967429Y30512292D01*
X44001539Y30564578D01*
X44053063Y30599831D01*
X44107621Y30623136D01*
X44074025Y30652598D01*
X44046414Y30708589D01*
X44042331Y30770884D01*
X44062398Y30830000D01*
X44103560Y30876937D01*
X44159551Y30904548D01*
X44221846Y30908631D01*
X44264159Y30894268D01*
X44257063Y30953169D01*
X44261830Y31015416D01*
X44290056Y31071099D01*
X44337442Y31111743D01*
X44396775Y31131159D01*
X44459022Y31126391D01*
X44514706Y31098165D01*
X44555349Y31050779D01*
X44564274Y31023506D01*
X44591491Y31077199D01*
X44638877Y31117843D01*
X44698210Y31137259D01*
X44760456Y31132491D01*
X44816140Y31104265D01*
X44856784Y31056879D01*
X44876200Y30997546D01*
X44934811Y30511064D01*
X45340000Y30277128D01*
X45340000Y30745000D01*
X44948000Y31039000D01*
X44906324Y31085481D01*
X44885608Y31144373D01*
X44889006Y31206709D01*
X44916000Y31263000D01*
X44962481Y31304676D01*
X45021373Y31325392D01*
X45081481Y31322116D01*
X45062324Y31343481D01*
X45041608Y31402373D01*
X45045006Y31464709D01*
X45072000Y31521000D01*
X45118481Y31562676D01*
X45177373Y31583392D01*
X45239709Y31579994D01*
X45296000Y31553000D01*
X45343462Y31517404D01*
X45352179Y31561229D01*
X45386863Y31613137D01*
X45438771Y31647821D01*
X45500000Y31660000D01*
X45561229Y31647821D01*
X45613137Y31613137D01*
X45647821Y31561229D01*
X45656538Y31517404D01*
X45704000Y31553000D01*
X45760291Y31579994D01*
X45822627Y31583392D01*
X45881519Y31562676D01*
X45928000Y31521000D01*
X45954994Y31464709D01*
X45958392Y31402373D01*
X45937676Y31343481D01*
X45918519Y31322116D01*
X45978627Y31325392D01*
X46037519Y31304676D01*
X46084000Y31263000D01*
X46110994Y31206709D01*
X46114392Y31144373D01*
X46093676Y31085481D01*
X46052000Y31039000D01*
X45660000Y30745000D01*
X45660000Y30277128D01*
X46065189Y30511064D01*
X46123800Y30997546D01*
X46143216Y31056879D01*
X46183860Y31104265D01*
X46239544Y31132491D01*
X46301790Y31137259D01*
X46361123Y31117843D01*
X46408509Y31077199D01*
X46435726Y31023506D01*
X46444651Y31050779D01*
X46485294Y31098165D01*
X46540978Y31126391D01*
X46603225Y31131159D01*
X46662558Y31111743D01*
X46709944Y31071099D01*
X46738170Y31015416D01*
X46742937Y30953169D01*
X46735841Y30894268D01*
X46778154Y30908631D01*
X46840449Y30904548D01*
X46896440Y30876937D01*
X46937602Y30830000D01*
X46957669Y30770884D01*
X46953586Y30708589D01*
X46925975Y30652598D01*
X46892379Y30623136D01*
X46946937Y30599831D01*
X46998461Y30564578D01*
X47032571Y30512292D01*
X47044077Y30450933D01*
X47031225Y30389841D01*
X46995972Y30338318D01*
X46943686Y30304207D01*
X46882327Y30292702D01*
X46854245Y30298610D01*
X46887137Y30248192D01*
X46898642Y30186833D01*
X46885790Y30125741D01*
X46850538Y30074218D01*
X46798252Y30040107D01*
X46736892Y30028602D01*
X46675800Y30041454D01*
X46225189Y30233936D01*
X45820000Y30000000D01*
X46225189Y29766064D01*
X46675800Y29958546D01*
X46736892Y29971398D01*
X46798252Y29959893D01*
X46850538Y29925782D01*
X46885790Y29874259D01*
X46898642Y29813167D01*
X46887137Y29751808D01*
X46854245Y29701390D01*
X46882327Y29707298D01*
X46943686Y29695793D01*
X46995972Y29661682D01*
X47031225Y29610159D01*
X47044077Y29549067D01*
X47032571Y29487708D01*
X46998461Y29435422D01*
X46946937Y29400169D01*
X46892379Y29376864D01*
X46925975Y29347402D01*
X46953586Y29291411D01*
X46957669Y29229116D01*
X46937602Y29170000D01*
X46896440Y29123063D01*
X46840449Y29095452D01*
X46778154Y29091369D01*
X46735841Y29105732D01*
X46742937Y29046831D01*
X46738170Y28984584D01*
X46709944Y28928901D01*
X46662558Y28888257D01*
X46603225Y28868841D01*
X46540978Y28873609D01*
X46485294Y28901835D01*
X46444651Y28949221D01*
X46435726Y28976494D01*
X46408509Y28922801D01*
X46361123Y28882157D01*
X46301790Y28862741D01*
X46239544Y28867509D01*
X46183860Y28895735D01*
X46143216Y28943121D01*
X46123800Y29002454D01*
X46065189Y29488936D01*
X45660000Y29722872D01*
X45660000Y29255000D01*
X46052000Y28961000D01*
X46093676Y28914519D01*
X46114392Y28855627D01*
X46110994Y28793291D01*
X46084000Y28737000D01*
X46037519Y28695324D01*
X45978627Y28674608D01*
X45918519Y28677884D01*
X45937676Y28656519D01*
X45958392Y28597627D01*
X45954994Y28535291D01*
X45928000Y28479000D01*
X45881519Y28437324D01*
X45822627Y28416608D01*
X45760291Y28420006D01*
X45704000Y28447000D01*
X45656538Y28482596D01*
X45647821Y28438771D01*
X45613137Y28386863D01*
X45561229Y28352179D01*
X45500000Y28340000D01*
X45438771Y28352179D01*
X45386863Y28386863D01*
X45352179Y28438771D01*
X45343462Y28482596D01*
X45296000Y28447000D01*
X45239709Y28420006D01*
X45177373Y28416608D01*
X45118481Y28437324D01*
X45072000Y28479000D01*
X45045006Y28535291D01*
X45041608Y28597627D01*
X45062324Y28656519D01*
X45081481Y28677884D01*
X45021373Y28674608D01*
X44962481Y28695324D01*
X44916000Y28737000D01*
X44889006Y28793291D01*
X44885608Y28855627D01*
X44906324Y28914519D01*
X44948000Y28961000D01*
X45340000Y29255000D01*
X45340000Y29722872D01*
X44934811Y29488936D01*
X44876200Y29002454D01*
X44856784Y28943121D01*
X44816140Y28895735D01*
X44760456Y28867509D01*
X44698210Y28862741D01*
X44638877Y28882157D01*
X44591491Y28922801D01*
X44564274Y28976494D01*
X44555349Y28949221D01*
X44514706Y28901835D01*
X44459022Y28873609D01*
X44396775Y28868841D01*
X44337442Y28888257D01*
X44290056Y28928901D01*
X44261830Y28984584D01*
X44257063Y29046831D01*
X44264159Y29105732D01*
X44221846Y29091369D01*
X44159551Y29095452D01*
X44103560Y29123063D01*
X44062398Y29170000D01*
X44042331Y29229116D01*
X44046414Y29291411D01*
X44074025Y29347402D01*
X44107621Y29376864D01*
X44053063Y29400169D01*
X44001539Y29435422D01*
X43967429Y29487708D01*
X43955923Y29549067D01*
X43968775Y29610159D01*
X44004028Y29661682D01*
X44056314Y29695793D01*
X44117673Y29707298D01*
X44145755Y29701390D01*
G37*
%LPD*%
X52813768Y30762822D02*
G36*
X52873507Y30744694D01*
X53199802Y30570248D01*
X53245118Y30591379D01*
X52924114Y30762996D01*
X52875859Y30802605D01*
X52846435Y30857665D01*
X52840322Y30919794D01*
X52858449Y30979533D01*
X52898058Y31027788D01*
X52953118Y31057212D01*
X53015247Y31063325D01*
X53074986Y31045198D01*
X53607641Y30760427D01*
X54181218Y31027890D01*
X53662799Y31390890D01*
X53088787Y31202940D01*
X53026807Y31195462D01*
X52966684Y31212271D01*
X52917570Y31250809D01*
X52886942Y31305208D01*
X52879464Y31367188D01*
X52896273Y31427311D01*
X52934811Y31476425D01*
X52989210Y31507053D01*
X53335139Y31620321D01*
X53294181Y31649000D01*
X52942551Y31533865D01*
X52880571Y31526386D01*
X52820448Y31543195D01*
X52771334Y31581733D01*
X52740706Y31636133D01*
X52733228Y31698112D01*
X52750037Y31758236D01*
X52788575Y31807350D01*
X52842974Y31837977D01*
X52966520Y31878430D01*
X52933754Y31901373D01*
X52890584Y31946470D01*
X52867957Y32004654D01*
X52869319Y32067068D01*
X52894462Y32124210D01*
X52939558Y32167380D01*
X52997743Y32190007D01*
X53060157Y32188645D01*
X53117299Y32163502D01*
X53150065Y32140559D01*
X53145823Y32270490D01*
X53155998Y32332084D01*
X53188969Y32385096D01*
X53239717Y32421455D01*
X53300517Y32435625D01*
X53362111Y32425450D01*
X53415123Y32392479D01*
X53451482Y32341731D01*
X53465652Y32280931D01*
X53477725Y31911128D01*
X53518683Y31882449D01*
X53506806Y32246256D01*
X53516981Y32307850D01*
X53549952Y32360862D01*
X53600700Y32397221D01*
X53661500Y32411391D01*
X53723094Y32401216D01*
X53776106Y32368245D01*
X53812465Y32317497D01*
X53826635Y32256697D01*
X53846344Y31653019D01*
X54364762Y31290018D01*
X54419921Y31920482D01*
X53970145Y32323617D01*
X53932678Y32373553D01*
X53917174Y32434026D01*
X53925992Y32495829D01*
X53957789Y32549553D01*
X54007726Y32587020D01*
X54068199Y32602524D01*
X54130002Y32593706D01*
X54183726Y32561909D01*
X54454783Y32318960D01*
X54459141Y32368770D01*
X54183616Y32615723D01*
X54146149Y32665659D01*
X54130645Y32726132D01*
X54139463Y32787935D01*
X54171260Y32841660D01*
X54221197Y32879126D01*
X54281670Y32894630D01*
X54343473Y32885813D01*
X54397197Y32854015D01*
X54494003Y32767248D01*
X54497489Y32807095D01*
X54514959Y32867030D01*
X54554034Y32915718D01*
X54608767Y32945745D01*
X54670825Y32952542D01*
X54730760Y32935072D01*
X54779447Y32895996D01*
X54809475Y32841263D01*
X54816271Y32779206D01*
X54812785Y32739358D01*
X54923188Y32807997D01*
X54981617Y32829982D01*
X55044012Y32827934D01*
X55100874Y32802164D01*
X55143546Y32756596D01*
X55165532Y32698166D01*
X55163483Y32635771D01*
X55137714Y32578909D01*
X55092145Y32536237D01*
X54777923Y32340880D01*
X54773565Y32291070D01*
X55082692Y32483259D01*
X55141121Y32505245D01*
X55203517Y32503197D01*
X55260379Y32477427D01*
X55303051Y32431858D01*
X55325036Y32373429D01*
X55322988Y32311033D01*
X55297218Y32254171D01*
X55251649Y32211500D01*
X54738703Y31892592D01*
X54683544Y31262129D01*
X55257121Y31529592D01*
X55381358Y32120677D01*
X55405871Y32178092D01*
X55450490Y32221755D01*
X55508422Y32245020D01*
X55570847Y32244345D01*
X55628262Y32219832D01*
X55671926Y32175213D01*
X55695191Y32117281D01*
X55694515Y32054856D01*
X55619644Y31698639D01*
X55664960Y31719770D01*
X55741065Y32081858D01*
X55765578Y32139273D01*
X55810197Y32182937D01*
X55868129Y32206202D01*
X55930554Y32205527D01*
X55987969Y32181014D01*
X56031633Y32136395D01*
X56054898Y32078463D01*
X56054222Y32016038D01*
X56027483Y31888817D01*
X56063735Y31905722D01*
X56124375Y31920561D01*
X56186077Y31911064D01*
X56239448Y31878677D01*
X56276363Y31828332D01*
X56291202Y31767692D01*
X56281705Y31705990D01*
X56249318Y31652618D01*
X56198973Y31615704D01*
X56162721Y31598799D01*
X56277365Y31537507D01*
X56325620Y31497898D01*
X56355043Y31442838D01*
X56361157Y31380710D01*
X56343030Y31320970D01*
X56303421Y31272716D01*
X56248361Y31243292D01*
X56186232Y31237178D01*
X56126493Y31255306D01*
X55800198Y31429752D01*
X55754882Y31408621D01*
X56075886Y31237004D01*
X56124141Y31197395D01*
X56153565Y31142335D01*
X56159678Y31080206D01*
X56141551Y31020467D01*
X56101942Y30972212D01*
X56046882Y30942788D01*
X55984753Y30936675D01*
X55925014Y30954802D01*
X55392359Y31239573D01*
X54818782Y30972110D01*
X55337201Y30609110D01*
X55911213Y30797060D01*
X55973193Y30804538D01*
X56033316Y30787729D01*
X56082430Y30749191D01*
X56113058Y30694792D01*
X56120536Y30632812D01*
X56103727Y30572689D01*
X56065189Y30523575D01*
X56010790Y30492947D01*
X55664861Y30379679D01*
X55705819Y30351000D01*
X56057449Y30466135D01*
X56119429Y30473614D01*
X56179552Y30456805D01*
X56228666Y30418267D01*
X56259294Y30363867D01*
X56266772Y30301888D01*
X56249963Y30241764D01*
X56211425Y30192650D01*
X56157026Y30162023D01*
X56033480Y30121570D01*
X56066246Y30098627D01*
X56109416Y30053530D01*
X56132043Y29995346D01*
X56130681Y29932932D01*
X56105538Y29875790D01*
X56060442Y29832620D01*
X56002257Y29809993D01*
X55939843Y29811355D01*
X55882701Y29836498D01*
X55849935Y29859441D01*
X55854177Y29729510D01*
X55844002Y29667916D01*
X55811031Y29614904D01*
X55760283Y29578545D01*
X55699483Y29564375D01*
X55637889Y29574550D01*
X55584877Y29607521D01*
X55548518Y29658269D01*
X55534348Y29719069D01*
X55522275Y30088872D01*
X55481317Y30117551D01*
X55493194Y29753744D01*
X55483019Y29692150D01*
X55450048Y29639138D01*
X55399300Y29602779D01*
X55338500Y29588609D01*
X55276906Y29598784D01*
X55223894Y29631755D01*
X55187535Y29682503D01*
X55173365Y29743303D01*
X55153656Y30346981D01*
X54635238Y30709982D01*
X54580079Y30079518D01*
X55029855Y29676383D01*
X55067322Y29626447D01*
X55082826Y29565974D01*
X55074008Y29504171D01*
X55042211Y29450447D01*
X54992274Y29412980D01*
X54931801Y29397476D01*
X54869998Y29406294D01*
X54816274Y29438091D01*
X54545217Y29681040D01*
X54540859Y29631230D01*
X54816384Y29384277D01*
X54853851Y29334341D01*
X54869355Y29273868D01*
X54860537Y29212065D01*
X54828740Y29158340D01*
X54778803Y29120874D01*
X54718330Y29105370D01*
X54656527Y29114187D01*
X54602803Y29145985D01*
X54505997Y29232752D01*
X54502511Y29192905D01*
X54485041Y29132970D01*
X54445966Y29084282D01*
X54391233Y29054255D01*
X54329175Y29047458D01*
X54269240Y29064928D01*
X54220553Y29104004D01*
X54190525Y29158737D01*
X54183729Y29220794D01*
X54187215Y29260642D01*
X54076812Y29192003D01*
X54018383Y29170018D01*
X53955988Y29172066D01*
X53899126Y29197836D01*
X53856454Y29243404D01*
X53834468Y29301834D01*
X53836517Y29364229D01*
X53862286Y29421091D01*
X53907855Y29463763D01*
X54222077Y29659120D01*
X54226435Y29708930D01*
X53917308Y29516741D01*
X53858879Y29494755D01*
X53796483Y29496803D01*
X53739621Y29522573D01*
X53696949Y29568142D01*
X53674964Y29626571D01*
X53677012Y29688967D01*
X53702782Y29745829D01*
X53748351Y29788500D01*
X54261297Y30107408D01*
X54316456Y30737871D01*
X53742879Y30470408D01*
X53618642Y29879323D01*
X53594129Y29821908D01*
X53549510Y29778245D01*
X53491578Y29754980D01*
X53429153Y29755655D01*
X53371738Y29780168D01*
X53328074Y29824787D01*
X53304809Y29882719D01*
X53305485Y29945144D01*
X53380356Y30301361D01*
X53335040Y30280230D01*
X53258935Y29918142D01*
X53234422Y29860727D01*
X53189803Y29817063D01*
X53131871Y29793798D01*
X53069446Y29794473D01*
X53012031Y29818986D01*
X52968367Y29863605D01*
X52945102Y29921537D01*
X52945778Y29983962D01*
X52972517Y30111183D01*
X52936265Y30094278D01*
X52875625Y30079439D01*
X52813923Y30088936D01*
X52760552Y30121323D01*
X52723637Y30171668D01*
X52708798Y30232308D01*
X52718295Y30294010D01*
X52750682Y30347382D01*
X52801027Y30384296D01*
X52837279Y30401201D01*
X52722635Y30462493D01*
X52674380Y30502102D01*
X52644957Y30557162D01*
X52638843Y30619290D01*
X52656970Y30679030D01*
X52696579Y30727284D01*
X52751639Y30756708D01*
X52813768Y30762822D01*
G37*
%LPD*%
X42005800Y34170057D02*
G36*
X41904045Y34184859D01*
X41802291Y34209273D01*
X41700536Y34243041D01*
X41700536Y34463979D01*
X41799471Y34416498D01*
X41895843Y34382730D01*
X41989588Y34362545D01*
X42081155Y34355817D01*
X42180795Y34368440D01*
X42255701Y34406310D01*
X42305168Y34469426D01*
X42328492Y34557788D01*
X41658245Y34557788D01*
X41658245Y34639294D01*
X41689964Y34831013D01*
X41785118Y34979672D01*
X41933136Y35075211D01*
X42123445Y35107058D01*
X42330927Y35075596D01*
X42488429Y34981210D01*
X42587813Y34832167D01*
X42620940Y34636219D01*
X42587236Y34437644D01*
X42486122Y34288921D01*
X42323943Y34196073D01*
X42107554Y34165124D01*
X42005800Y34170057D01*
G37*
%LPC*%
X42000674Y34866384D02*
G36*
X41964919Y34808458D01*
X41953000Y34734641D01*
X42325417Y34734641D01*
X42302797Y34812495D01*
X42260571Y34869716D01*
X42200723Y34904894D01*
X42125240Y34916620D01*
X42055652Y34904061D01*
X42000674Y34866384D01*
G37*
%LPD*%
X52044447Y34165124D02*
G36*
X51942693Y34170057D01*
X51840938Y34184859D01*
X51739184Y34209273D01*
X51637429Y34243041D01*
X51637429Y34463979D01*
X51736364Y34416498D01*
X51832736Y34382730D01*
X51926481Y34362545D01*
X52018048Y34355817D01*
X52117688Y34368440D01*
X52192594Y34406310D01*
X52242061Y34469426D01*
X52265385Y34557788D01*
X51595138Y34557788D01*
X51595138Y34639294D01*
X51626857Y34831013D01*
X51722011Y34979672D01*
X51870029Y35075211D01*
X52060338Y35107058D01*
X52267820Y35075596D01*
X52425322Y34981210D01*
X52524706Y34832167D01*
X52557834Y34636219D01*
X52524129Y34437644D01*
X52423015Y34288921D01*
X52260836Y34196073D01*
X52044447Y34165124D01*
G37*
%LPC*%
X51992545Y34904061D02*
G36*
X51937567Y34866384D01*
X51901812Y34808458D01*
X51889893Y34734641D01*
X52262310Y34734641D01*
X52239690Y34812495D01*
X52197464Y34869716D01*
X52137616Y34904894D01*
X52062133Y34916620D01*
X51992545Y34904061D01*
G37*
%LPD*%
X48607253Y34908675D02*
G36*
X48538626Y34884838D01*
X48498257Y34844149D01*
X48484801Y34785134D01*
X48484801Y34762835D01*
X48653965Y34762835D01*
X48855295Y34744381D01*
X48994855Y34689018D01*
X49076169Y34594376D01*
X49103274Y34457572D01*
X49081552Y34339926D01*
X49016385Y34246373D01*
X48916361Y34185436D01*
X48790065Y34165124D01*
X48694590Y34174415D01*
X48614750Y34202288D01*
X48546123Y34250795D01*
X48484801Y34321472D01*
X48484801Y34188448D01*
X48195685Y34188448D01*
X48195685Y34700296D01*
X48222662Y34885863D01*
X48303591Y35011455D01*
X48445009Y35083157D01*
X48653965Y35107058D01*
X48839789Y35095524D01*
X49024843Y35061435D01*
X49024843Y34842804D01*
X48953910Y34875098D01*
X48877466Y34898166D01*
X48794871Y34912007D01*
X48705996Y34916620D01*
X48607253Y34908675D01*
G37*
%LPC*%
X48540164Y34413743D02*
G36*
X48601870Y34370299D01*
X48676264Y34355817D01*
X48734061Y34363506D01*
X48777762Y34386574D01*
X48805059Y34423419D01*
X48814158Y34471925D01*
X48802880Y34524084D01*
X48769047Y34561633D01*
X48712595Y34584509D01*
X48633973Y34592134D01*
X48484801Y34592134D01*
X48484801Y34559326D01*
X48498642Y34479230D01*
X48540164Y34413743D01*
G37*
%LPD*%
X52782937Y34875611D02*
G36*
X52708094Y34867153D01*
X52632996Y34841266D01*
X52634021Y35100650D01*
X52713990Y35107058D01*
X52807094Y35096934D01*
X52885973Y35066561D01*
X52953446Y35014338D01*
X53012845Y34938150D01*
X53012845Y35085528D01*
X53299398Y35085528D01*
X53299398Y34188448D01*
X53012845Y34188448D01*
X53012845Y34601873D01*
X52997915Y34718558D01*
X52953125Y34804614D01*
X52880718Y34857862D01*
X52782937Y34875611D01*
G37*
%LPD*%
X47415289Y34887081D02*
G36*
X47384532Y34875355D01*
X47358581Y34856580D01*
X47338653Y34831526D01*
X47327760Y34804934D01*
X47320711Y34766680D01*
X47315585Y34606487D01*
X47315585Y34188448D01*
X47027238Y34188448D01*
X47027238Y34734641D01*
X47047358Y34894898D01*
X47107719Y35011711D01*
X47206910Y35083221D01*
X47343523Y35107058D01*
X47427913Y35097767D01*
X47504741Y35069893D01*
X47575546Y35022412D01*
X47642379Y34954298D01*
X47642379Y35085528D01*
X47928932Y35085528D01*
X47928932Y34188448D01*
X47642379Y34188448D01*
X47642379Y34629811D01*
X47629563Y34738999D01*
X47591117Y34821530D01*
X47530244Y34873625D01*
X47450147Y34890990D01*
X47415289Y34887081D01*
G37*
%LPD*%
X50864242Y34887081D02*
G36*
X50833485Y34875355D01*
X50807534Y34856580D01*
X50787606Y34831526D01*
X50776713Y34804934D01*
X50769664Y34766680D01*
X50764538Y34606487D01*
X50764538Y34188448D01*
X50476191Y34188448D01*
X50476191Y34734641D01*
X50496311Y34894898D01*
X50556672Y35011711D01*
X50655863Y35083221D01*
X50792476Y35107058D01*
X50876865Y35097767D01*
X50953694Y35069893D01*
X51024499Y35022412D01*
X51091332Y34954298D01*
X51091332Y35085528D01*
X51377885Y35085528D01*
X51377885Y34188448D01*
X51091332Y34188448D01*
X51091332Y34629811D01*
X51078516Y34738999D01*
X51040070Y34821530D01*
X50979197Y34873625D01*
X50899100Y34890990D01*
X50864242Y34887081D01*
G37*
%LPD*%
X45165028Y34544204D02*
G36*
X45165028Y34777189D01*
X45667905Y34777189D01*
X45667905Y34544204D01*
X45165028Y34544204D01*
G37*
%LPD*%
X43783140Y34188448D02*
G36*
X43474801Y34188448D01*
X43474801Y34659543D01*
X42999092Y34188448D01*
X42613091Y34188448D01*
X43248224Y34817942D01*
X42672298Y35384384D01*
X43030361Y35384384D01*
X43474801Y34947890D01*
X43474801Y35384384D01*
X43783140Y35384384D01*
X43783140Y34188448D01*
G37*
%LPD*%
X53607257Y34721826D02*
G36*
X53672808Y34787313D01*
X53760786Y34828450D01*
X53692352Y34866064D01*
X53642371Y34919440D01*
X53611614Y34987169D01*
X53601362Y35067843D01*
X53629300Y35211055D01*
X53713113Y35309029D01*
X53859208Y35365545D01*
X54073995Y35384384D01*
X54536888Y35384384D01*
X54536888Y34188448D01*
X54025296Y34188448D01*
X53816918Y34209657D01*
X53669540Y34273286D01*
X53581883Y34380359D01*
X53552663Y34531389D01*
X53566312Y34635386D01*
X53607257Y34721826D01*
G37*
%LPC*%
X54228549Y34398364D02*
G36*
X54228549Y34711574D01*
X54047595Y34711574D01*
X53965641Y34701834D01*
X53907395Y34672615D01*
X53872601Y34624108D01*
X53861003Y34555994D01*
X53872729Y34486791D01*
X53907907Y34437580D01*
X53966281Y34408168D01*
X54047595Y34398364D01*
X54228549Y34398364D01*
G37*
%LPC*%
X54228549Y35174467D02*
G36*
X54058104Y35174467D01*
X53993963Y35166329D01*
X53947635Y35141916D01*
X53919377Y35102252D01*
X53909958Y35047850D01*
X53919377Y34992936D01*
X53947635Y34953273D01*
X53993963Y34929244D01*
X54058104Y34921234D01*
X54228549Y34921234D01*
X54228549Y35174467D01*
G37*
%LPD*%
X49599808Y34954298D02*
G36*
X49662155Y35022412D01*
X49730781Y35069893D01*
X49807802Y35097767D01*
X49895332Y35107058D01*
X50046361Y35074122D01*
X50167788Y34975315D01*
X50247564Y34824670D01*
X50274156Y34636219D01*
X50247564Y34447704D01*
X50167788Y34296866D01*
X50046361Y34198059D01*
X49895332Y34165124D01*
X49807354Y34174351D01*
X49730525Y34202032D01*
X49662091Y34249513D01*
X49599808Y34318140D01*
X49599808Y34188448D01*
X49311461Y34188448D01*
X49311461Y35434876D01*
X49599808Y35434876D01*
X49599808Y34954298D01*
G37*
%LPC*%
X49648250Y34440655D02*
G36*
X49707650Y34390291D01*
X49788964Y34373502D01*
X49869508Y34390291D01*
X49928652Y34440655D01*
X49964983Y34523251D01*
X49977094Y34636219D01*
X49964983Y34749123D01*
X49928652Y34831526D01*
X49869508Y34882083D01*
X49788964Y34898935D01*
X49707650Y34882083D01*
X49648250Y34831526D01*
X49611918Y34749123D01*
X49599808Y34636219D01*
X49611918Y34523251D01*
X49648250Y34440655D01*
G37*
%LPD*%
X45874678Y39939381D02*
G36*
X46051941Y39798729D01*
X46169058Y39585134D01*
X46208097Y39318679D01*
X46169058Y39052410D01*
X46051941Y38837882D01*
X45874678Y38696669D01*
X45655947Y38649598D01*
X45527716Y38663047D01*
X45415735Y38703394D01*
X45315989Y38772319D01*
X45225210Y38871504D01*
X45225210Y38781472D01*
X45249212Y38615509D01*
X45321220Y38500166D01*
X45444314Y38432642D01*
X45622325Y38410134D01*
X45728234Y38417886D01*
X45833771Y38441141D01*
X45939867Y38480180D01*
X46048205Y38535283D01*
X46048205Y38209522D01*
X45933049Y38175993D01*
X45818454Y38152364D01*
X45701804Y38138355D01*
X45581231Y38133685D01*
X45247905Y38175246D01*
X45004051Y38299928D01*
X44916937Y38392365D01*
X44817378Y38633137D01*
X44804933Y38781472D01*
X44804933Y39957126D01*
X45225210Y39957126D01*
X45225210Y39763238D01*
X45315989Y39863451D01*
X45415735Y39932470D01*
X45527716Y39972817D01*
X45655947Y39986265D01*
X45874678Y39939381D01*
G37*
%LPC*%
X45384728Y39661158D02*
G36*
X45297684Y39589150D01*
X45243328Y39473714D01*
X45225210Y39318679D01*
X45243328Y39164204D01*
X45297684Y39048955D01*
X45384728Y38977227D01*
X45500911Y38953318D01*
X45619056Y38976480D01*
X45705259Y39045966D01*
X45757654Y39160468D01*
X45775119Y39318679D01*
X45757093Y39473714D01*
X45703018Y39589150D01*
X45616254Y39661158D01*
X45500911Y39685160D01*
X45384728Y39661158D01*
G37*
%LPD*%
X55226445Y38903352D02*
G36*
X55359906Y38893546D01*
X55505135Y38911944D01*
X55614313Y38967141D01*
X55686414Y39059135D01*
X55720410Y39187926D01*
X54743500Y39187926D01*
X54743500Y39306724D01*
X54789730Y39586162D01*
X54928422Y39802838D01*
X55144164Y39942090D01*
X55421546Y39988507D01*
X55723959Y39942650D01*
X55953524Y39805079D01*
X56098379Y39587843D01*
X56146664Y39302241D01*
X56097538Y39012811D01*
X55950161Y38796041D01*
X55713779Y38660712D01*
X55398385Y38615602D01*
X55250074Y38622794D01*
X55101762Y38644368D01*
X54953451Y38679952D01*
X54805140Y38729171D01*
X54805140Y39051196D01*
X54949342Y38981991D01*
X55089808Y38932771D01*
X55226445Y38903352D01*
G37*
%LPC*%
X55534181Y39693846D02*
G36*
X55424162Y39710937D01*
X55322735Y39692632D01*
X55242602Y39637716D01*
X55190488Y39553287D01*
X55173116Y39445696D01*
X55715927Y39445696D01*
X55682959Y39559171D01*
X55621411Y39642572D01*
X55534181Y39693846D01*
G37*
%LPD*%
X50933737Y38932771D02*
G36*
X51070373Y38903352D01*
X51203835Y38893546D01*
X51349064Y38911944D01*
X51458242Y38967141D01*
X51530343Y39059135D01*
X51564339Y39187926D01*
X50587429Y39187926D01*
X50587429Y39306724D01*
X50633659Y39586162D01*
X50772350Y39802838D01*
X50988093Y39942090D01*
X51265475Y39988507D01*
X51567888Y39942650D01*
X51797452Y39805079D01*
X51942308Y39587843D01*
X51990593Y39302241D01*
X51941467Y39012811D01*
X51794090Y38796041D01*
X51557708Y38660712D01*
X51242313Y38615602D01*
X51094002Y38622794D01*
X50945691Y38644368D01*
X50797380Y38679952D01*
X50649069Y38729171D01*
X50649069Y39051196D01*
X50793271Y38981991D01*
X50933737Y38932771D01*
G37*
%LPC*%
X51268090Y39710937D02*
G36*
X51166664Y39692632D01*
X51086531Y39637716D01*
X51034416Y39553287D01*
X51017045Y39445696D01*
X51559856Y39445696D01*
X51526888Y39559171D01*
X51465340Y39642572D01*
X51378110Y39693846D01*
X51268090Y39710937D01*
G37*
%LPD*%
X49448805Y38903352D02*
G36*
X49582267Y38893546D01*
X49727496Y38911944D01*
X49836674Y38967141D01*
X49908775Y39059135D01*
X49942771Y39187926D01*
X48965860Y39187926D01*
X48965860Y39306724D01*
X49012091Y39586162D01*
X49150782Y39802838D01*
X49366524Y39942090D01*
X49643907Y39988507D01*
X49946320Y39942650D01*
X50175884Y39805079D01*
X50320740Y39587843D01*
X50369025Y39302241D01*
X50319899Y39012811D01*
X50172522Y38796041D01*
X49936140Y38660712D01*
X49620745Y38615602D01*
X49472434Y38622794D01*
X49324123Y38644368D01*
X49175812Y38679952D01*
X49027501Y38729171D01*
X49027501Y39051196D01*
X49171703Y38981991D01*
X49312169Y38932771D01*
X49448805Y38903352D01*
G37*
%LPC*%
X49464963Y39637716D02*
G36*
X49412848Y39553287D01*
X49395477Y39445696D01*
X49938288Y39445696D01*
X49905319Y39559171D01*
X49843772Y39642572D01*
X49756541Y39693846D01*
X49646522Y39710937D01*
X49545095Y39692632D01*
X49464963Y39637716D01*
G37*
%LPD*%
X43444637Y38932771D02*
G36*
X43581273Y38903352D01*
X43714735Y38893546D01*
X43859964Y38911944D01*
X43969142Y38967141D01*
X44041243Y39059135D01*
X44075239Y39187926D01*
X43098329Y39187926D01*
X43098329Y39306724D01*
X43144559Y39586162D01*
X43283250Y39802838D01*
X43498993Y39942090D01*
X43776375Y39988507D01*
X44078788Y39942650D01*
X44308352Y39805079D01*
X44453208Y39587843D01*
X44501493Y39302241D01*
X44452367Y39012811D01*
X44304990Y38796041D01*
X44068608Y38660712D01*
X43753213Y38615602D01*
X43604902Y38622794D01*
X43456591Y38644368D01*
X43308280Y38679952D01*
X43159969Y38729171D01*
X43159969Y39051196D01*
X43304171Y38981991D01*
X43444637Y38932771D01*
G37*
%LPC*%
X43889009Y39693846D02*
G36*
X43778990Y39710937D01*
X43677564Y39692632D01*
X43597431Y39637716D01*
X43545316Y39553287D01*
X43527945Y39445696D01*
X44070756Y39445696D01*
X44037787Y39559171D01*
X43976240Y39642572D01*
X43889009Y39693846D01*
G37*
%LPD*%
X47755230Y39258906D02*
G36*
X47755230Y38649598D01*
X47334953Y38649598D01*
X47334953Y39445696D01*
X47364279Y39679277D01*
X47452257Y39849535D01*
X47596832Y39953764D01*
X47795950Y39988507D01*
X47918951Y39974965D01*
X48030931Y39934338D01*
X48134133Y39865132D01*
X48231543Y39765854D01*
X48231543Y39957126D01*
X48649205Y39957126D01*
X48649205Y38649598D01*
X48231543Y38649598D01*
X48231543Y39292902D01*
X48212864Y39452047D01*
X48156828Y39572339D01*
X48068102Y39648269D01*
X47951359Y39673579D01*
X47900552Y39667882D01*
X47855723Y39650791D01*
X47817898Y39623426D01*
X47788852Y39586909D01*
X47772975Y39548150D01*
X47762701Y39492393D01*
X47755230Y39258906D01*
G37*
%LPD*%
X53534737Y39401894D02*
G36*
X53532869Y38649598D01*
X53112592Y38649598D01*
X53112592Y39445696D01*
X53141918Y39679277D01*
X53229896Y39849535D01*
X53374471Y39953764D01*
X53573589Y39988507D01*
X53696590Y39974965D01*
X53808571Y39934338D01*
X53911772Y39865132D01*
X54009183Y39765854D01*
X54009183Y39957126D01*
X54426845Y39957126D01*
X54426845Y38649598D01*
X54009183Y38649598D01*
X54009183Y39292902D01*
X53990504Y39452047D01*
X53934467Y39572339D01*
X53845742Y39648269D01*
X53728998Y39673579D01*
X53678191Y39667882D01*
X53633362Y39650791D01*
X53595537Y39623426D01*
X53566491Y39586909D01*
X53550614Y39548150D01*
X53540341Y39492393D01*
X53534737Y39401894D01*
G37*
%LPD*%
X42781673Y38649598D02*
G36*
X42364012Y38649598D01*
X42364012Y40466315D01*
X42781673Y40466315D01*
X42781673Y38649598D01*
G37*
%LPD*%
X49172672Y43386675D02*
G36*
X48937407Y43199256D01*
X48647106Y43136783D01*
X48476917Y43154632D01*
X48328296Y43208181D01*
X48195913Y43299659D01*
X48075429Y43431298D01*
X48075429Y43311806D01*
X48107286Y43091540D01*
X48202854Y42938456D01*
X48366226Y42848837D01*
X48602483Y42818964D01*
X48743047Y42829253D01*
X48883115Y42860117D01*
X49023927Y42911930D01*
X49167714Y42985063D01*
X49167714Y42552711D01*
X49014878Y42508211D01*
X48862787Y42476851D01*
X48707968Y42458258D01*
X48547943Y42452060D01*
X48105550Y42507220D01*
X47781906Y42672698D01*
X47666288Y42795382D01*
X47534152Y43114936D01*
X47517636Y43311806D01*
X47517636Y44872142D01*
X48075429Y44872142D01*
X48075429Y44614813D01*
X48195913Y44747816D01*
X48328296Y44839418D01*
X48476917Y44892966D01*
X48647106Y44910815D01*
X48937407Y44848590D01*
X49172672Y44661915D01*
X49328111Y44378432D01*
X49379923Y44024791D01*
X49328111Y43671397D01*
X49172672Y43386675D01*
G37*
%LPC*%
X48171618Y44383762D02*
G36*
X48099477Y44230555D01*
X48075429Y44024791D01*
X48099477Y43819771D01*
X48171618Y43666811D01*
X48287143Y43571614D01*
X48441342Y43539882D01*
X48598144Y43570623D01*
X48712554Y43662845D01*
X48782092Y43814812D01*
X48805272Y44024791D01*
X48781349Y44230555D01*
X48709579Y44383762D01*
X48594426Y44479331D01*
X48441342Y44511187D01*
X48287143Y44479331D01*
X48171618Y44383762D01*
G37*
%LPD*%
X52912494Y43109637D02*
G36*
X52758047Y43163557D01*
X52625292Y43257390D01*
X52506668Y43394112D01*
X52506668Y43136783D01*
X51947387Y43136783D01*
X51947387Y44126929D01*
X51999572Y44485900D01*
X52156126Y44728851D01*
X52429693Y44867555D01*
X52833907Y44913790D01*
X53013517Y44908212D01*
X53193375Y44891479D01*
X53372612Y44863837D01*
X53551354Y44825535D01*
X53551354Y44402603D01*
X53414137Y44465076D01*
X53266260Y44509700D01*
X53106483Y44536474D01*
X52934558Y44545398D01*
X52743545Y44530028D01*
X52610790Y44483917D01*
X52532699Y44405206D01*
X52506668Y44291044D01*
X52506668Y44247908D01*
X52833907Y44247908D01*
X53223371Y44212210D01*
X53493344Y44105113D01*
X53650642Y43922033D01*
X53703074Y43657391D01*
X53661054Y43429811D01*
X53534992Y43248838D01*
X53341500Y43130957D01*
X53097186Y43091664D01*
X52912494Y43109637D01*
G37*
%LPC*%
X52613765Y43572606D02*
G36*
X52733133Y43488565D01*
X52877043Y43460551D01*
X52988850Y43475426D01*
X53073387Y43520049D01*
X53126191Y43591323D01*
X53143793Y43685156D01*
X53121977Y43786055D01*
X53056529Y43858692D01*
X52947325Y43902944D01*
X52795234Y43917694D01*
X52506668Y43917694D01*
X52506668Y43854230D01*
X52533442Y43699287D01*
X52613765Y43572606D01*
G37*
%LPD*%
X42562566Y43460551D02*
G36*
X42755315Y43484970D01*
X42900218Y43558227D01*
X42995910Y43680322D01*
X43041029Y43851255D01*
X41744469Y43851255D01*
X41744469Y44008925D01*
X41805826Y44379796D01*
X41989898Y44667369D01*
X42276232Y44852185D01*
X42644376Y44913790D01*
X43045740Y44852929D01*
X43350419Y44670344D01*
X43542672Y44382027D01*
X43606756Y44002975D01*
X43541557Y43618841D01*
X43345957Y43331143D01*
X43032229Y43151533D01*
X42613635Y43091664D01*
X42416796Y43101208D01*
X42219957Y43129841D01*
X42023118Y43177068D01*
X41826278Y43242392D01*
X41826278Y43669786D01*
X42017664Y43577936D01*
X42204091Y43512612D01*
X42385436Y43473566D01*
X42562566Y43460551D01*
G37*
%LPC*%
X42793865Y44522715D02*
G36*
X42647847Y44545398D01*
X42513232Y44521103D01*
X42406880Y44448218D01*
X42337713Y44336164D01*
X42314658Y44193369D01*
X43035080Y44193369D01*
X42991324Y44343973D01*
X42909638Y44454664D01*
X42793865Y44522715D01*
G37*
%LPD*%
X50343667Y43136783D02*
G36*
X49789344Y43136783D01*
X49789344Y44872142D01*
X50343667Y44872142D01*
X50343667Y43136783D01*
G37*
%LPD*%
X43591572Y43136783D02*
G36*
X44820206Y44354509D01*
X43706106Y45450264D01*
X44398762Y45450264D01*
X45258508Y44605888D01*
X45258508Y45450264D01*
X45854976Y45450264D01*
X45854976Y43136783D01*
X45258508Y43136783D01*
X45258508Y44048094D01*
X44338272Y43136783D01*
X43591572Y43136783D01*
G37*
%LPD*%
X55997529Y43497738D02*
G36*
X55997529Y43136783D01*
X53982033Y43136783D01*
X53982033Y43587480D01*
X55258761Y43587480D01*
X54017732Y45089310D01*
X54017732Y45450264D01*
X55962326Y45450264D01*
X55962326Y44999071D01*
X54756499Y44999071D01*
X55997529Y43497738D01*
G37*
%LPD*%
X50877042Y45508653D02*
G36*
X50914485Y45547940D01*
X51431366Y45547940D01*
X51431366Y43136783D01*
X50877042Y43136783D01*
X50877042Y45508653D01*
G37*
%LPD*%
X49789344Y45547940D02*
G36*
X50153041Y45547940D01*
X50216566Y45485012D01*
X50255978Y45455783D01*
X50343667Y45409132D01*
X50343667Y45095259D01*
X49789344Y45095259D01*
X49789344Y45547940D01*
G37*
%LPD*%
M02*
