G04 Outline*
%FSLAX46Y46*%
%MOMM*%
%TF.GenerationSoftware,kerstkaart2026-gen2*%
G01*
%ADD10C,0.100*%
D10*
X8770862Y35548097D02*
X8352655Y37218091D01*
X8000612Y37661008D01*
X72506Y43836382D01*
X-355493Y44262983D01*
X-764238Y44841343D01*
X-1072916Y45524593D01*
X-1242368Y46254935D01*
X-1266081Y47004302D01*
X-1143144Y47743896D01*
X-878282Y48445295D01*
X-481673Y49081545D01*
X31442Y49628195D01*
X641343Y50064238D01*
X1503837Y50428680D01*
X2429036Y50572631D01*
X3361485Y50487464D01*
X4245295Y50178282D01*
X4906557Y49762868D01*
X11286460Y44803274D01*
X11728608Y44580765D01*
X12216111Y44495054D01*
X12627228Y44533737D01*
X13016890Y44670400D01*
X15098028Y45958012D01*
X16882455Y46850314D01*
X18803025Y47638369D01*
X20363908Y48173838D01*
X22540884Y48790067D01*
X24828356Y49296714D01*
X27204287Y49688865D01*
X29635162Y49961796D01*
X32118871Y50115228D01*
X34620583Y50146192D01*
X38980142Y49904447D01*
X43182988Y49294525D01*
X46014558Y48646068D01*
X48486935Y47899992D01*
X49224840Y47889349D01*
X49760723Y48100006D01*
X50195548Y48477465D01*
X61385253Y62153771D01*
X61610488Y62512338D01*
X61740119Y62915447D01*
X61831242Y64322627D01*
X62086569Y65440627D01*
X62428993Y66299500D01*
X63002687Y67363566D01*
X63243690Y68126176D01*
X63665677Y69071886D01*
X63739842Y69664201D01*
X63604680Y70245637D01*
X60699438Y76938640D01*
X60417083Y77254376D01*
X60065436Y77490508D01*
X59329461Y77671870D01*
X52919000Y77146431D01*
X52100108Y77203865D01*
X51379781Y77473885D01*
X50799365Y77895854D01*
X50320338Y78497780D01*
X50015762Y79248938D01*
X49938638Y79962375D01*
X50062940Y80721540D01*
X50363568Y81373125D01*
X50860474Y81960378D01*
X51333877Y82300567D01*
X51958108Y82560566D01*
X53770019Y82763303D01*
X54250075Y82901201D01*
X54844562Y83351553D01*
X55189078Y84013022D01*
X55239650Y84592771D01*
X55055121Y85230698D01*
X52882410Y88032571D01*
X52490055Y88836892D01*
X52307394Y89606764D01*
X52320888Y90687755D01*
X52593399Y91626726D01*
X53160714Y92546986D01*
X53997601Y93294849D01*
X54876340Y93723507D01*
X55793452Y93912240D01*
X56728938Y93872477D01*
X58192618Y93473631D01*
X58693225Y93518499D01*
X59158833Y93707788D01*
X59548741Y94024950D01*
X59828868Y94442263D01*
X60292023Y96109653D01*
X60614367Y96750773D01*
X61236922Y97405263D01*
X61987957Y97807142D01*
X62784043Y97959632D01*
X63590115Y97874463D01*
X64336754Y97558972D01*
X64959662Y97040328D01*
X65279116Y96603146D01*
X65536626Y96022930D01*
X65650618Y95451226D01*
X65646777Y94909780D01*
X63831534Y87527847D01*
X63868566Y86713792D01*
X64121487Y86199317D01*
X65893743Y83980313D01*
X66318620Y83314483D01*
X70339745Y73972003D01*
X70587462Y73631195D01*
X70983632Y73318003D01*
X71372410Y73155629D01*
X71789181Y73093854D01*
X72795196Y73097887D01*
X73208383Y73180289D01*
X73726148Y73459806D01*
X74117614Y73899082D01*
X78181380Y83314483D01*
X78606257Y83980313D01*
X80378513Y86199317D01*
X80606201Y86635474D01*
X80699449Y87118568D01*
X80668466Y87527847D01*
X78849153Y94951295D01*
X78865023Y95585890D01*
X79006929Y96151312D01*
X79292599Y96718194D01*
X79662630Y97168657D01*
X80317523Y97646276D01*
X81082862Y97913223D01*
X81851226Y97950618D01*
X82638871Y97759250D01*
X83369281Y97321004D01*
X83908792Y96716079D01*
X84207977Y96109653D01*
X84671132Y94442263D01*
X84951259Y94024950D01*
X85341167Y93707788D01*
X85725586Y93540314D01*
X86223363Y93470752D01*
X87956927Y93898793D01*
X88560807Y93921163D01*
X89262602Y93825998D01*
X89972933Y93586119D01*
X90622818Y93212270D01*
X91187281Y92718818D01*
X91564979Y92247103D01*
X91977290Y91452826D01*
X92179112Y90687755D01*
X92221163Y89939193D01*
X92079184Y89055611D01*
X91868756Y88489138D01*
X91512270Y87877182D01*
X89485130Y85303901D01*
X89282688Y84758297D01*
X89291516Y84094275D01*
X89603120Y83416680D01*
X90174766Y82937668D01*
X90647468Y82776354D01*
X92581987Y82549058D01*
X93202220Y82279662D01*
X93804146Y81800635D01*
X94287973Y81099585D01*
X94529063Y80325711D01*
X94535127Y79515175D01*
X94305645Y78737780D01*
X93887923Y78091800D01*
X93385994Y77638665D01*
X92789004Y77321069D01*
X92132736Y77158048D01*
X91560192Y77147909D01*
X85255463Y77671174D01*
X84751211Y77612056D01*
X84286906Y77406669D01*
X83903957Y77073331D01*
X83636521Y76641772D01*
X81313263Y71215480D01*
X81216753Y70804231D01*
X81224620Y70381882D01*
X81408833Y69821459D01*
X81711796Y69415771D01*
X84045094Y67758298D01*
X84901532Y66980152D01*
X85821426Y65957549D01*
X86733282Y64618633D01*
X87189793Y63703926D01*
X87683173Y62333000D01*
X88149746Y61762687D01*
X88655172Y61488698D01*
X94006690Y59925157D01*
X95249159Y59247695D01*
X96157133Y58451201D01*
X96704409Y57768029D01*
X97127074Y57049363D01*
X97619972Y55634817D01*
X97735442Y54809109D01*
X97731229Y53933771D01*
X97426779Y52467074D01*
X96962429Y51442607D01*
X96472614Y50717131D01*
X95881650Y50071378D01*
X95202332Y49519326D01*
X94411949Y49054482D01*
X93599328Y48729086D01*
X92499855Y48491782D01*
X91625364Y48453039D01*
X90155379Y48681798D01*
X78275439Y52076067D01*
X77135381Y52472224D01*
X74760561Y52602225D01*
X72383045Y52989502D01*
X71711592Y52899754D01*
X71330435Y52711468D01*
X70952298Y52369902D01*
X59823121Y38764120D01*
X59536161Y38141757D01*
X59380652Y36170263D01*
X58817640Y34409694D01*
X58766210Y33906460D01*
X58930381Y33254282D01*
X59666560Y31980868D01*
X59913830Y30886091D01*
X60773507Y3310892D01*
X60637270Y2384526D01*
X60280027Y1519025D01*
X59751751Y796668D01*
X59035228Y193917D01*
X58330868Y-166560D01*
X57464247Y-389814D01*
X56673389Y-414529D01*
X55794519Y-245820D01*
X55069025Y69973D01*
X54346668Y598249D01*
X53850096Y1159969D01*
X53455492Y1845793D01*
X53219428Y2557401D01*
X53127448Y3270112D01*
X52685877Y17132367D01*
X52514808Y17685286D01*
X52168156Y18148769D01*
X51686101Y18469092D01*
X51124519Y18609127D01*
X50548504Y18552641D01*
X49957957Y18256878D01*
X49524697Y17758371D01*
X49326820Y17214470D01*
X48863830Y3113909D01*
X48723340Y2335238D01*
X48445033Y1639064D01*
X47816636Y759381D01*
X47092105Y166279D01*
X46245176Y-233001D01*
X45326611Y-414529D01*
X44391466Y-367423D01*
X43457772Y-77348D01*
X42660562Y413743D01*
X42006569Y1083824D01*
X41699656Y1555457D01*
X41416999Y2204824D01*
X41225749Y3352599D01*
X41840796Y23427972D01*
X41667715Y24069155D01*
X41262179Y24595095D01*
X40686080Y24925523D01*
X40110806Y25013722D01*
X37126735Y24746243D01*
X34620583Y24653808D01*
X32118871Y24684772D01*
X29001429Y24878435D01*
X28354421Y24710855D01*
X27767909Y24242455D01*
X27515555Y23807680D01*
X27396685Y23234159D01*
X26773460Y3290953D01*
X26623340Y2335238D01*
X26275342Y1510755D01*
X25716636Y759381D01*
X24992105Y166279D01*
X24282981Y-184732D01*
X23413448Y-396361D01*
X22477118Y-395198D01*
X21569132Y-166560D01*
X20864772Y193917D01*
X20148249Y796668D01*
X19599656Y1555457D01*
X19251874Y2424803D01*
X19126493Y3310892D01*
X19804482Y25803157D01*
X19553572Y26511756D01*
X19091756Y26996276D01*
X17834903Y27537123D01*
X17259250Y27629485D01*
X16608599Y27490682D01*
X16120753Y27171444D01*
X15769458Y26706150D01*
X15587250Y26066296D01*
X14873460Y3290953D01*
X14723340Y2335238D01*
X14354538Y1474599D01*
X13787671Y729363D01*
X13092105Y166279D01*
X12245176Y-233001D01*
X11472014Y-401190D01*
X10535753Y-389814D01*
X9630315Y-151287D01*
X8809969Y300096D01*
X8150919Y905512D01*
X7631689Y1684688D01*
X7351874Y2424803D01*
X7225749Y3352599D01*
X8086170Y30886091D01*
X8333440Y31980868D01*
X9069619Y33254282D01*
X9233790Y33906460D01*
X9182360Y34409694D01*
X8770862Y35548097D01*
M02*
