G04 Bottom silk*
%FSLAX46Y46*%
%MOMM*%
%TF.GenerationSoftware,kerstkaart2026-gen2*%
G01*
%LPD*%
X28503898Y30200933D02*
G36*
X28556910Y30167962D01*
X28580264Y30146085D01*
X28543905Y30196833D01*
X28529734Y30257632D01*
X28539909Y30319227D01*
X28572880Y30372238D01*
X28623629Y30408597D01*
X28684428Y30422768D01*
X28746022Y30412593D01*
X28799034Y30379622D01*
X29184370Y30018651D01*
X29699298Y30109446D01*
X29363203Y30509990D01*
X28835991Y30481159D01*
X28774187Y30489977D01*
X28720463Y30521774D01*
X28682997Y30571711D01*
X28667493Y30632184D01*
X28676310Y30693987D01*
X28708108Y30747711D01*
X28758044Y30785177D01*
X28818517Y30800682D01*
X28786565Y30798934D01*
X28724762Y30807752D01*
X28671038Y30839550D01*
X28633572Y30889486D01*
X28618067Y30949959D01*
X28626885Y31011762D01*
X28658683Y31065486D01*
X28708619Y31102952D01*
X28769092Y31118457D01*
X28848973Y31122825D01*
X28818945Y31177558D01*
X28812149Y31239616D01*
X28829618Y31299551D01*
X28868694Y31348238D01*
X28923427Y31378266D01*
X28985485Y31385062D01*
X29045420Y31367593D01*
X29094107Y31328517D01*
X29112280Y31406426D01*
X29138050Y31463288D01*
X29183618Y31505959D01*
X29242048Y31527945D01*
X29304443Y31525897D01*
X29361305Y31500127D01*
X29403977Y31454558D01*
X29425962Y31396129D01*
X29423914Y31333734D01*
X29416645Y31302570D01*
X29442415Y31359432D01*
X29487983Y31402104D01*
X29546413Y31424089D01*
X29608808Y31422041D01*
X29665670Y31396271D01*
X29708342Y31350703D01*
X29730327Y31292273D01*
X29728279Y31229878D01*
X29608337Y30715682D01*
X29944433Y30315138D01*
X30123265Y30806477D01*
X29834691Y31248641D01*
X29811426Y31306573D01*
X29812101Y31368998D01*
X29836615Y31426413D01*
X29881233Y31470077D01*
X29939165Y31493342D01*
X30001591Y31492667D01*
X30059006Y31468154D01*
X30102669Y31423535D01*
X30085180Y31450333D01*
X30061915Y31508264D01*
X30062590Y31570690D01*
X30087103Y31628105D01*
X30131722Y31671768D01*
X30189654Y31695033D01*
X30252079Y31694358D01*
X30309494Y31669845D01*
X30353158Y31625226D01*
X30396881Y31558231D01*
X30429268Y31611603D01*
X30479613Y31648517D01*
X30540253Y31663356D01*
X30601955Y31653859D01*
X30655327Y31621473D01*
X30692241Y31571127D01*
X30707080Y31510487D01*
X30697583Y31448785D01*
X30774140Y31472001D01*
X30836269Y31478114D01*
X30896008Y31459987D01*
X30944263Y31420378D01*
X30973687Y31365318D01*
X30979800Y31303189D01*
X30961673Y31243450D01*
X30922064Y31195196D01*
X30867004Y31165772D01*
X30836381Y31156485D01*
X30898510Y31162599D01*
X30958249Y31144471D01*
X31006504Y31104863D01*
X31035928Y31049803D01*
X31042041Y30987674D01*
X31023914Y30927935D01*
X30984305Y30879680D01*
X30929245Y30850256D01*
X30423967Y30697031D01*
X30245134Y30205692D01*
X30760062Y30296488D01*
X30998701Y30767482D01*
X31037239Y30816596D01*
X31091638Y30847224D01*
X31153617Y30854703D01*
X31213741Y30837893D01*
X31262855Y30799355D01*
X31293483Y30744956D01*
X31300961Y30682977D01*
X31284152Y30622853D01*
X31298615Y30651398D01*
X31337153Y30700512D01*
X31391552Y30731140D01*
X31453532Y30738619D01*
X31513655Y30721809D01*
X31562769Y30683271D01*
X31593397Y30628872D01*
X31600875Y30566892D01*
X31584066Y30506769D01*
X31547909Y30435406D01*
X31610323Y30434044D01*
X31667465Y30408901D01*
X31710635Y30363805D01*
X31733262Y30305621D01*
X31731900Y30243207D01*
X31706757Y30186065D01*
X31661660Y30142894D01*
X31603476Y30120268D01*
X31661860Y30065575D01*
X31698219Y30014827D01*
X31712390Y29954028D01*
X31702215Y29892433D01*
X31669244Y29839422D01*
X31618495Y29803063D01*
X31557696Y29788892D01*
X31496102Y29799067D01*
X31443090Y29832038D01*
X31419736Y29853915D01*
X31456095Y29803167D01*
X31470266Y29742368D01*
X31460091Y29680773D01*
X31427120Y29627762D01*
X31376371Y29591403D01*
X31315572Y29577232D01*
X31253978Y29587407D01*
X31200966Y29620378D01*
X30815630Y29981349D01*
X30300702Y29890554D01*
X30636797Y29490010D01*
X31164009Y29518841D01*
X31225813Y29510023D01*
X31279537Y29478226D01*
X31317003Y29428289D01*
X31332507Y29367816D01*
X31323690Y29306013D01*
X31291892Y29252289D01*
X31241956Y29214823D01*
X31181483Y29199318D01*
X31213435Y29201066D01*
X31275238Y29192248D01*
X31328962Y29160450D01*
X31366428Y29110514D01*
X31381933Y29050041D01*
X31373115Y28988238D01*
X31341317Y28934514D01*
X31291381Y28897048D01*
X31230908Y28881543D01*
X31151027Y28877175D01*
X31181055Y28822442D01*
X31187851Y28760384D01*
X31170382Y28700449D01*
X31131306Y28651762D01*
X31076573Y28621734D01*
X31014515Y28614938D01*
X30954580Y28632407D01*
X30905893Y28671483D01*
X30887720Y28593574D01*
X30861950Y28536712D01*
X30816382Y28494041D01*
X30757952Y28472055D01*
X30695557Y28474103D01*
X30638695Y28499873D01*
X30596023Y28545442D01*
X30574038Y28603871D01*
X30576086Y28666266D01*
X30583355Y28697430D01*
X30557585Y28640568D01*
X30512017Y28597896D01*
X30453587Y28575911D01*
X30391192Y28577959D01*
X30334330Y28603729D01*
X30291658Y28649297D01*
X30269673Y28707727D01*
X30271721Y28770122D01*
X30391663Y29284318D01*
X30055567Y29684862D01*
X29876735Y29193523D01*
X30165309Y28751359D01*
X30188574Y28693427D01*
X30187899Y28631002D01*
X30163385Y28573587D01*
X30118767Y28529923D01*
X30060835Y28506658D01*
X29998409Y28507333D01*
X29940994Y28531846D01*
X29897331Y28576465D01*
X29914820Y28549667D01*
X29938085Y28491736D01*
X29937410Y28429310D01*
X29912897Y28371895D01*
X29868278Y28328232D01*
X29810346Y28304967D01*
X29747921Y28305642D01*
X29690506Y28330155D01*
X29646842Y28374774D01*
X29603119Y28441769D01*
X29570732Y28388397D01*
X29520387Y28351483D01*
X29459747Y28336644D01*
X29398045Y28346141D01*
X29344673Y28378527D01*
X29307759Y28428873D01*
X29292920Y28489513D01*
X29302417Y28551215D01*
X29225860Y28527999D01*
X29163731Y28521886D01*
X29103992Y28540013D01*
X29055737Y28579622D01*
X29026313Y28634682D01*
X29020200Y28696811D01*
X29038327Y28756550D01*
X29077936Y28804804D01*
X29132996Y28834228D01*
X29163619Y28843515D01*
X29101490Y28837401D01*
X29041751Y28855529D01*
X28993496Y28895137D01*
X28964072Y28950197D01*
X28957959Y29012326D01*
X28976086Y29072065D01*
X29015695Y29120320D01*
X29070755Y29149744D01*
X29576033Y29302969D01*
X29754866Y29794308D01*
X29239938Y29703512D01*
X29001299Y29232518D01*
X28962761Y29183404D01*
X28908362Y29152776D01*
X28846383Y29145297D01*
X28786259Y29162107D01*
X28737145Y29200645D01*
X28706517Y29255044D01*
X28699039Y29317023D01*
X28715848Y29377147D01*
X28701385Y29348602D01*
X28662847Y29299488D01*
X28608448Y29268860D01*
X28546468Y29261381D01*
X28486345Y29278191D01*
X28437231Y29316729D01*
X28406603Y29371128D01*
X28399125Y29433108D01*
X28415934Y29493231D01*
X28452091Y29564594D01*
X28389677Y29565956D01*
X28332535Y29591099D01*
X28289365Y29636195D01*
X28266738Y29694379D01*
X28268100Y29756793D01*
X28293243Y29813935D01*
X28338340Y29857106D01*
X28396524Y29879732D01*
X28338140Y29934425D01*
X28301781Y29985173D01*
X28287610Y30045972D01*
X28297785Y30107567D01*
X28330756Y30160578D01*
X28381505Y30196937D01*
X28442304Y30211108D01*
X28503898Y30200933D01*
G37*
%LPD*%
X30370098Y32034634D02*
G36*
X30232882Y32115708D01*
X30144813Y32241624D01*
X30115456Y32403174D01*
X30141704Y32549777D01*
X30220446Y32665290D01*
X30341937Y32740445D01*
X30496433Y32765496D01*
X30561962Y32760893D01*
X30622229Y32747081D01*
X30677594Y32724302D01*
X30728893Y32692314D01*
X30701988Y32815420D01*
X30645188Y32903968D01*
X30559271Y32957599D01*
X30445014Y32975476D01*
X30384507Y32971470D01*
X30322566Y32959452D01*
X30257635Y32939004D01*
X30188638Y32909708D01*
X30188638Y33116100D01*
X30332132Y33151973D01*
X30405732Y33160942D01*
X30481605Y33163931D01*
X30596520Y33154051D01*
X30787606Y33075010D01*
X30863777Y33005849D01*
X30924777Y32919409D01*
X30994491Y32702135D01*
X31003205Y32571301D01*
X30973430Y32332204D01*
X30884105Y32154451D01*
X30818308Y32090208D01*
X30649941Y32016787D01*
X30547373Y32007609D01*
X30370098Y32034634D01*
G37*
%LPC*%
X30544264Y32580150D02*
G36*
X30477778Y32567893D01*
X30430425Y32531123D01*
X30402085Y32470018D01*
X30392639Y32384281D01*
X30402085Y32298663D01*
X30430425Y32237439D01*
X30477778Y32200848D01*
X30544264Y32188651D01*
X30610391Y32200848D01*
X30657624Y32237439D01*
X30685964Y32298663D01*
X30695411Y32384281D01*
X30685964Y32470018D01*
X30657624Y32531123D01*
X30610391Y32567893D01*
X30544264Y32580150D01*
G37*
%LPD*%
X31641903Y32956822D02*
G36*
X31580559Y32920948D01*
X31541099Y32865464D01*
X31527945Y32794673D01*
X31534462Y32744869D01*
X31554013Y32696858D01*
X31587256Y32649206D01*
X31634848Y32600478D01*
X32042132Y32240787D01*
X32042132Y32029372D01*
X31231152Y32029372D01*
X31231152Y32240787D01*
X31722140Y32240787D01*
X31483701Y32450049D01*
X31358742Y32569089D01*
X31285679Y32661224D01*
X31250344Y32743195D01*
X31238565Y32831264D01*
X31266308Y32971649D01*
X31349534Y33077117D01*
X31482864Y33143304D01*
X31660916Y33165366D01*
X31752991Y33161121D01*
X31846980Y33148386D01*
X31942463Y33127819D01*
X32039023Y33099598D01*
X32039023Y32854463D01*
X31950714Y32904327D01*
X31868026Y32940081D01*
X31791137Y32961605D01*
X31720705Y32968779D01*
X31641903Y32956822D01*
G37*
%LPD*%
X30747770Y36264520D02*
G36*
X30188299Y37491111D01*
X30188299Y37699643D01*
X31269716Y37699643D01*
X31269716Y37427444D01*
X30578606Y37427444D01*
X31108242Y36264520D01*
X30747770Y36264520D01*
G37*
%LPD*%
X20087158Y36769007D02*
G36*
X20094799Y36678467D01*
X20117723Y36623630D01*
X20161130Y36595890D01*
X20230223Y36586644D01*
X20280051Y36586644D01*
X20280051Y36398116D01*
X20137757Y36398116D01*
X19992830Y36421875D01*
X19886815Y36493151D01*
X19821704Y36609632D01*
X19800000Y36769007D01*
X19800000Y37651798D01*
X20087158Y37651798D01*
X20087158Y36769007D01*
G37*
%LPD*%
X24415101Y36752825D02*
G36*
X24415101Y37265753D01*
X24442134Y37451712D01*
X24523234Y37577568D01*
X24664951Y37649422D01*
X24874347Y37673373D01*
X25060563Y37661815D01*
X25246008Y37627654D01*
X25246008Y37408562D01*
X25174925Y37440925D01*
X25098320Y37464041D01*
X25015550Y37477911D01*
X24926488Y37482534D01*
X24827536Y37474572D01*
X24758765Y37450685D01*
X24718311Y37409910D01*
X24704827Y37350771D01*
X24704827Y37328425D01*
X24874347Y37328425D01*
X25076102Y37309932D01*
X25215957Y37254452D01*
X25297442Y37159610D01*
X25324604Y37022517D01*
X25302836Y36904623D01*
X25237532Y36810873D01*
X25137297Y36749807D01*
X25010734Y36729452D01*
X24915058Y36738763D01*
X24835049Y36766695D01*
X24766278Y36815304D01*
X24704827Y36886130D01*
X24704827Y36752825D01*
X24415101Y36752825D01*
G37*
%LPC*%
X24896693Y36920548D02*
G36*
X24954613Y36928253D01*
X24998405Y36951370D01*
X25025760Y36988292D01*
X25034878Y37036901D01*
X25023577Y37089170D01*
X24989673Y37126798D01*
X24933101Y37149722D01*
X24854313Y37157363D01*
X24704827Y37157363D01*
X24704827Y37124486D01*
X24718696Y37044221D01*
X24760306Y36978596D01*
X24822143Y36935060D01*
X24896693Y36920548D01*
G37*
%LPD*%
X22350674Y37122945D02*
G36*
X21679013Y37122945D01*
X21679013Y37204623D01*
X21710798Y37396747D01*
X21806154Y37545719D01*
X21954484Y37641460D01*
X22145195Y37673373D01*
X22353114Y37641845D01*
X22510948Y37547260D01*
X22610542Y37397902D01*
X22643739Y37201541D01*
X22609964Y37002547D01*
X22508637Y36853510D01*
X22346115Y36760467D01*
X22129270Y36729452D01*
X22027301Y36734396D01*
X21925332Y36749229D01*
X21823363Y36773694D01*
X21721393Y36807534D01*
X21721393Y37028938D01*
X21820537Y36981357D01*
X21917113Y36947517D01*
X22011055Y36927290D01*
X22102815Y36920548D01*
X22202665Y36933198D01*
X22277729Y36971147D01*
X22327301Y37034396D01*
X22350674Y37122945D01*
G37*
%LPC*%
X22077258Y37469949D02*
G36*
X22022164Y37432192D01*
X21986333Y37374144D01*
X21974390Y37300171D01*
X22347592Y37300171D01*
X22324925Y37378189D01*
X22282609Y37435531D01*
X22222635Y37470783D01*
X22146993Y37482534D01*
X22077258Y37469949D01*
G37*
%LPD*%
X20363463Y36752825D02*
G36*
X20363463Y37651798D01*
X20650621Y37651798D01*
X20650621Y36752825D01*
X20363463Y36752825D01*
G37*
%LPD*%
X20794521Y37666952D02*
G36*
X20874658Y37673373D01*
X20967958Y37663228D01*
X21047003Y37632791D01*
X21114619Y37580458D01*
X21174144Y37504110D01*
X21174144Y37651798D01*
X21461301Y37651798D01*
X21461301Y36752825D01*
X21174144Y36752825D01*
X21174144Y37167123D01*
X21159182Y37284054D01*
X21114298Y37370291D01*
X21041738Y37423652D01*
X20943750Y37441438D01*
X20906122Y37439319D01*
X20831186Y37422367D01*
X20793493Y37407021D01*
X20794521Y37666952D01*
G37*
%LPD*%
X27928510Y37783562D02*
G36*
X27928510Y37362842D01*
X28347432Y37362842D01*
X28347432Y37173545D01*
X27928510Y37173545D01*
X27928510Y36752825D01*
X27737414Y36752825D01*
X27737414Y37173545D01*
X27318493Y37173545D01*
X27318493Y37362842D01*
X27737414Y37362842D01*
X27737414Y37783562D01*
X27928510Y37783562D01*
G37*
%LPD*%
X23048373Y37907106D02*
G36*
X23335531Y37907106D01*
X23335531Y37651798D01*
X23478596Y37651798D01*
X23478596Y37446318D01*
X23335531Y37446318D01*
X23335531Y37065154D01*
X23317808Y36919649D01*
X23264640Y36823716D01*
X23168771Y36770548D01*
X23023459Y36752825D01*
X22776884Y36752825D01*
X22776884Y36958305D01*
X22924572Y36958305D01*
X22986280Y36963827D01*
X23023459Y36980394D01*
X23042145Y37012628D01*
X23048373Y37065154D01*
X23048373Y37446318D01*
X22751969Y37446318D01*
X22751969Y37651798D01*
X23048373Y37651798D01*
X23048373Y37907106D01*
G37*
%LPD*%
X23834172Y37651798D02*
G36*
X23834172Y37907106D01*
X24121329Y37907106D01*
X24121329Y37651798D01*
X24264394Y37651798D01*
X24264394Y37446318D01*
X24121329Y37446318D01*
X24121329Y37065154D01*
X24103607Y36919649D01*
X24050439Y36823716D01*
X23954570Y36770548D01*
X23809257Y36752825D01*
X23562682Y36752825D01*
X23562682Y36958305D01*
X23710370Y36958305D01*
X23772078Y36963827D01*
X23809257Y36980394D01*
X23827943Y37012628D01*
X23834172Y37065154D01*
X23834172Y37446318D01*
X23537768Y37446318D01*
X23537768Y37651798D01*
X23834172Y37651798D01*
G37*
%LPD*%
X26083851Y37588549D02*
G36*
X26146586Y37520291D01*
X26146586Y38001884D01*
X26433744Y38001884D01*
X26433744Y36752825D01*
X26146586Y36752825D01*
X26146586Y36882791D01*
X26083851Y36814469D01*
X26014822Y36766695D01*
X25937190Y36738763D01*
X25848641Y36729452D01*
X25697357Y36762457D01*
X25575867Y36861473D01*
X25495730Y37012628D01*
X25469018Y37201541D01*
X25495730Y37390390D01*
X25575867Y37541353D01*
X25697357Y37640368D01*
X25848641Y37673373D01*
X25937190Y37664062D01*
X26014822Y37636130D01*
X26083851Y37588549D01*
G37*
%LPC*%
X26134257Y37088848D02*
G36*
X26146586Y37201541D01*
X26134257Y37314234D01*
X26097271Y37397003D01*
X26037040Y37447860D01*
X25955490Y37464812D01*
X25874197Y37447924D01*
X25814737Y37397260D01*
X25778136Y37314683D01*
X25765935Y37201541D01*
X25778136Y37088335D01*
X25814737Y37005565D01*
X25874197Y36955094D01*
X25955490Y36938271D01*
X26037040Y36955223D01*
X26097271Y37006079D01*
X26134257Y37088848D01*
G37*
%LPD*%
X20363463Y38001884D02*
G36*
X20650621Y38001884D01*
X20650621Y37767380D01*
X20363463Y37767380D01*
X20363463Y38001884D01*
G37*
%LPD*%
X20087158Y37767380D02*
G36*
X19800000Y37767380D01*
X19800000Y38001884D01*
X20087158Y38001884D01*
X20087158Y37767380D01*
G37*
%LPD*%
X30624713Y41728118D02*
G36*
X30624713Y42139572D01*
X31087497Y42139572D01*
X31087497Y41728118D01*
X31318060Y41728118D01*
X31318060Y41396967D01*
X31087497Y41396967D01*
X31087497Y40782682D01*
X31058935Y40548186D01*
X30973250Y40393580D01*
X30818747Y40307895D01*
X30584561Y40279333D01*
X30264587Y40279333D01*
X30236505Y40317197D01*
X30187181Y40368393D01*
X30187181Y40610484D01*
X30425195Y40610484D01*
X30524644Y40619384D01*
X30584561Y40646083D01*
X30614675Y40698032D01*
X30624713Y40782682D01*
X30624713Y41396967D01*
X30147028Y41396967D01*
X30147028Y41728118D01*
X30624713Y41728118D01*
G37*
%LPD*%
X20087158Y43051798D02*
G36*
X20087158Y42169007D01*
X20094799Y42078467D01*
X20117723Y42023630D01*
X20161130Y41995890D01*
X20230223Y41986644D01*
X20280051Y41986644D01*
X20280051Y41798116D01*
X20137757Y41798116D01*
X19992830Y41821875D01*
X19886815Y41893151D01*
X19821704Y42009632D01*
X19800000Y42169007D01*
X19800000Y43051798D01*
X20087158Y43051798D01*
G37*
%LPD*%
X21679013Y42522945D02*
G36*
X21679013Y42604623D01*
X21710798Y42796747D01*
X21806154Y42945719D01*
X21954484Y43041460D01*
X22145195Y43073373D01*
X22353114Y43041845D01*
X22510948Y42947260D01*
X22610542Y42797902D01*
X22643739Y42601541D01*
X22609964Y42402547D01*
X22508637Y42253510D01*
X22346115Y42160467D01*
X22129270Y42129452D01*
X22027301Y42134396D01*
X21925332Y42149229D01*
X21823363Y42173694D01*
X21721393Y42207534D01*
X21721393Y42428938D01*
X21820537Y42381357D01*
X21917113Y42347517D01*
X22011055Y42327290D01*
X22102815Y42320548D01*
X22202665Y42333198D01*
X22277729Y42371147D01*
X22327301Y42434396D01*
X22350674Y42522945D01*
X21679013Y42522945D01*
G37*
%LPC*%
X22022164Y42832192D02*
G36*
X21986333Y42774144D01*
X21974390Y42700171D01*
X22347592Y42700171D01*
X22324925Y42778189D01*
X22282609Y42835531D01*
X22222635Y42870783D01*
X22146993Y42882534D01*
X22077258Y42869949D01*
X22022164Y42832192D01*
G37*
%LPD*%
X24415101Y42152825D02*
G36*
X24415101Y42665753D01*
X24442134Y42851712D01*
X24523234Y42977568D01*
X24664951Y43049422D01*
X24874347Y43073373D01*
X25060563Y43061815D01*
X25246008Y43027654D01*
X25246008Y42808562D01*
X25174925Y42840925D01*
X25098320Y42864041D01*
X25015550Y42877911D01*
X24926488Y42882534D01*
X24827536Y42874572D01*
X24758765Y42850685D01*
X24718311Y42809910D01*
X24704827Y42750771D01*
X24704827Y42728425D01*
X24874347Y42728425D01*
X25076102Y42709932D01*
X25215957Y42654452D01*
X25297442Y42559610D01*
X25324604Y42422517D01*
X25302836Y42304623D01*
X25237532Y42210873D01*
X25137297Y42149807D01*
X25010734Y42129452D01*
X24915058Y42138763D01*
X24835049Y42166695D01*
X24766278Y42215304D01*
X24704827Y42286130D01*
X24704827Y42152825D01*
X24415101Y42152825D01*
G37*
%LPC*%
X24896693Y42320548D02*
G36*
X24954613Y42328253D01*
X24998405Y42351370D01*
X25025760Y42388292D01*
X25034878Y42436901D01*
X25023577Y42489170D01*
X24989673Y42526798D01*
X24933101Y42549722D01*
X24854313Y42557363D01*
X24704827Y42557363D01*
X24704827Y42524486D01*
X24718696Y42444221D01*
X24760306Y42378596D01*
X24822143Y42335060D01*
X24896693Y42320548D01*
G37*
%LPD*%
X20650621Y42152825D02*
G36*
X20363463Y42152825D01*
X20363463Y43051798D01*
X20650621Y43051798D01*
X20650621Y42152825D01*
G37*
%LPD*%
X20794521Y43066952D02*
G36*
X20874658Y43073373D01*
X20967958Y43063228D01*
X21047003Y43032791D01*
X21114619Y42980458D01*
X21174144Y42904110D01*
X21174144Y43051798D01*
X21461301Y43051798D01*
X21461301Y42152825D01*
X21174144Y42152825D01*
X21174144Y42567123D01*
X21159182Y42684054D01*
X21114298Y42770291D01*
X21041738Y42823652D01*
X20943750Y42841438D01*
X20906122Y42839319D01*
X20831186Y42822367D01*
X20793493Y42807021D01*
X20794521Y43066952D01*
G37*
%LPD*%
X27737350Y42742808D02*
G36*
X27737350Y42509332D01*
X27233412Y42509332D01*
X27233412Y42742808D01*
X27737350Y42742808D01*
G37*
%LPD*%
X23048373Y43307106D02*
G36*
X23335531Y43307106D01*
X23335531Y43051798D01*
X23478596Y43051798D01*
X23478596Y42846318D01*
X23335531Y42846318D01*
X23335531Y42465154D01*
X23317808Y42319649D01*
X23264640Y42223716D01*
X23168771Y42170548D01*
X23023459Y42152825D01*
X22776884Y42152825D01*
X22776884Y42358305D01*
X22924572Y42358305D01*
X22986280Y42363827D01*
X23023459Y42380394D01*
X23042145Y42412628D01*
X23048373Y42465154D01*
X23048373Y42846318D01*
X22751969Y42846318D01*
X22751969Y43051798D01*
X23048373Y43051798D01*
X23048373Y43307106D01*
G37*
%LPD*%
X23834172Y43051798D02*
G36*
X23834172Y43307106D01*
X24121329Y43307106D01*
X24121329Y43051798D01*
X24264394Y43051798D01*
X24264394Y42846318D01*
X24121329Y42846318D01*
X24121329Y42465154D01*
X24103607Y42319649D01*
X24050439Y42223716D01*
X23954570Y42170548D01*
X23809257Y42152825D01*
X23562682Y42152825D01*
X23562682Y42358305D01*
X23710370Y42358305D01*
X23772078Y42363827D01*
X23809257Y42380394D01*
X23827943Y42412628D01*
X23834172Y42465154D01*
X23834172Y42846318D01*
X23537768Y42846318D01*
X23537768Y43051798D01*
X23834172Y43051798D01*
G37*
%LPD*%
X26083851Y42988549D02*
G36*
X26146586Y42920291D01*
X26146586Y43401884D01*
X26433744Y43401884D01*
X26433744Y42152825D01*
X26146586Y42152825D01*
X26146586Y42282791D01*
X26083851Y42214469D01*
X26014822Y42166695D01*
X25937190Y42138763D01*
X25848641Y42129452D01*
X25697357Y42162457D01*
X25575867Y42261473D01*
X25495730Y42412628D01*
X25469018Y42601541D01*
X25495730Y42790390D01*
X25575867Y42941353D01*
X25697357Y43040368D01*
X25848641Y43073373D01*
X25937190Y43064062D01*
X26014822Y43036130D01*
X26083851Y42988549D01*
G37*
%LPC*%
X26134257Y42488848D02*
G36*
X26146586Y42601541D01*
X26134257Y42714234D01*
X26097271Y42797003D01*
X26037040Y42847860D01*
X25955490Y42864812D01*
X25874197Y42847924D01*
X25814737Y42797260D01*
X25778136Y42714683D01*
X25765935Y42601541D01*
X25778136Y42488335D01*
X25814737Y42405565D01*
X25874197Y42355094D01*
X25955490Y42338271D01*
X26037040Y42355223D01*
X26097271Y42406079D01*
X26134257Y42488848D01*
G37*
%LPD*%
X20087158Y43167380D02*
G36*
X19800000Y43167380D01*
X19800000Y43401884D01*
X20087158Y43401884D01*
X20087158Y43167380D01*
G37*
%LPD*%
X20363463Y43401884D02*
G36*
X20650621Y43401884D01*
X20650621Y43167380D01*
X20363463Y43167380D01*
X20363463Y43401884D01*
G37*
%LPD*%
X37747930Y32641195D02*
G36*
X37735374Y32586129D01*
X37735374Y32565322D01*
X37893218Y32565322D01*
X38081075Y32548103D01*
X38211296Y32496445D01*
X38287168Y32408137D01*
X38312459Y32280487D01*
X38292191Y32170714D01*
X38231385Y32083422D01*
X38138054Y32026562D01*
X38020210Y32007609D01*
X37931124Y32016279D01*
X37856627Y32042287D01*
X37792593Y32087547D01*
X37735374Y32153495D01*
X37735374Y32029372D01*
X37465606Y32029372D01*
X37465606Y32506968D01*
X37490777Y32680117D01*
X37566291Y32797304D01*
X37698245Y32864208D01*
X37893218Y32886510D01*
X38066606Y32875748D01*
X38239277Y32843940D01*
X38239277Y32639939D01*
X38173091Y32670073D01*
X38101762Y32691597D01*
X38024694Y32704511D01*
X37941766Y32708816D01*
X37849631Y32701402D01*
X37785597Y32679161D01*
X37747930Y32641195D01*
G37*
%LPC*%
X37748289Y32300696D02*
G36*
X37787032Y32239591D01*
X37844609Y32199054D01*
X37914024Y32185542D01*
X37967954Y32192716D01*
X38008730Y32214240D01*
X38034200Y32248619D01*
X38042691Y32293880D01*
X38032168Y32342548D01*
X38000599Y32377584D01*
X37947925Y32398929D01*
X37874563Y32406044D01*
X37735374Y32406044D01*
X37735374Y32375432D01*
X37748289Y32300696D01*
G37*
%LPD*%
X42192028Y32012213D02*
G36*
X42097083Y32026024D01*
X42002137Y32048804D01*
X41907192Y32080313D01*
X41907192Y32286466D01*
X41999507Y32242162D01*
X42089430Y32210653D01*
X42176901Y32191819D01*
X42262340Y32185542D01*
X42355312Y32197320D01*
X42425206Y32232655D01*
X42471363Y32291548D01*
X42493126Y32373997D01*
X41867731Y32373997D01*
X41867731Y32450049D01*
X41897327Y32628938D01*
X41986114Y32767649D01*
X42124227Y32856794D01*
X42301801Y32886510D01*
X42495398Y32857153D01*
X42642360Y32769084D01*
X42735093Y32630014D01*
X42766004Y32447179D01*
X42734555Y32261892D01*
X42640207Y32123122D01*
X42488881Y32036487D01*
X42286973Y32007609D01*
X42192028Y32012213D01*
G37*
%LPC*%
X42187245Y32661942D02*
G36*
X42153882Y32607892D01*
X42142762Y32539015D01*
X42490256Y32539015D01*
X42469151Y32611659D01*
X42429749Y32665051D01*
X42373906Y32697875D01*
X42303475Y32708816D01*
X42238544Y32697098D01*
X42187245Y32661942D01*
G37*
%LPD*%
X40716402Y32602571D02*
G36*
X40723397Y32631090D01*
X40714189Y32665469D01*
X40686567Y32689684D01*
X40639692Y32704033D01*
X40573207Y32708816D01*
X40499965Y32704332D01*
X40422299Y32690880D01*
X40340746Y32668459D01*
X40256324Y32637069D01*
X40256324Y32840352D01*
X40433539Y32875269D01*
X40588991Y32886510D01*
X40752993Y32870426D01*
X40868565Y32822176D01*
X40936904Y32740863D01*
X40959684Y32625111D01*
X40941747Y32517431D01*
X40887937Y32441200D01*
X40789464Y32390200D01*
X40637540Y32358213D01*
X40522446Y32340515D01*
X40481610Y32324970D01*
X40461162Y32302908D01*
X40454346Y32271638D01*
X40464271Y32234090D01*
X40494046Y32207066D01*
X40543312Y32190923D01*
X40612189Y32185542D01*
X40698166Y32190385D01*
X40782947Y32204913D01*
X40865934Y32229307D01*
X40947008Y32263267D01*
X40947008Y32059984D01*
X40765010Y32020763D01*
X40677718Y32010897D01*
X40593296Y32007609D01*
X40421940Y32024410D01*
X40299133Y32074812D01*
X40225054Y32158816D01*
X40200361Y32275943D01*
X40218119Y32386852D01*
X40271391Y32463681D01*
X40375902Y32515040D01*
X40656314Y32566757D01*
X40695416Y32581585D01*
X40716402Y32602571D01*
G37*
%LPD*%
X36702517Y32586129D02*
G36*
X36702517Y32565322D01*
X36860360Y32565322D01*
X37048218Y32548103D01*
X37178438Y32496445D01*
X37254311Y32408137D01*
X37279602Y32280487D01*
X37259333Y32170714D01*
X37198528Y32083422D01*
X37105197Y32026562D01*
X36987352Y32007609D01*
X36898266Y32016279D01*
X36823769Y32042287D01*
X36759735Y32087547D01*
X36702517Y32153495D01*
X36702517Y32029372D01*
X36432748Y32029372D01*
X36432748Y32506968D01*
X36457919Y32680117D01*
X36533433Y32797304D01*
X36665388Y32864208D01*
X36860360Y32886510D01*
X37033749Y32875748D01*
X37206420Y32843940D01*
X37206420Y32639939D01*
X37140233Y32670073D01*
X37068905Y32691597D01*
X36991836Y32704511D01*
X36908909Y32708816D01*
X36816774Y32701402D01*
X36752740Y32679161D01*
X36715072Y32641195D01*
X36702517Y32586129D01*
G37*
%LPC*%
X36754175Y32239591D02*
G36*
X36811751Y32199054D01*
X36881167Y32185542D01*
X36935097Y32192716D01*
X36975873Y32214240D01*
X37001343Y32248619D01*
X37009833Y32293880D01*
X36999310Y32342548D01*
X36967741Y32377584D01*
X36915067Y32398929D01*
X36841706Y32406044D01*
X36702517Y32406044D01*
X36702517Y32375432D01*
X36715431Y32300696D01*
X36754175Y32239591D01*
G37*
%LPD*%
X41341916Y32604305D02*
G36*
X41274354Y32653990D01*
X41183116Y32670551D01*
X41113282Y32662659D01*
X41043209Y32638504D01*
X41044166Y32880531D01*
X41118783Y32886510D01*
X41205656Y32877063D01*
X41279257Y32848723D01*
X41342215Y32799995D01*
X41397639Y32728905D01*
X41397639Y32866420D01*
X41665016Y32866420D01*
X41665016Y32029372D01*
X41397639Y32029372D01*
X41397639Y32415132D01*
X41383708Y32524008D01*
X41341916Y32604305D01*
G37*
%LPD*%
X35860745Y32604305D02*
G36*
X35793183Y32653990D01*
X35701945Y32670551D01*
X35632112Y32662659D01*
X35562039Y32638504D01*
X35562995Y32880531D01*
X35637612Y32886510D01*
X35724486Y32877063D01*
X35798086Y32848723D01*
X35861044Y32799995D01*
X35916469Y32728905D01*
X35916469Y32866420D01*
X36183846Y32866420D01*
X36183846Y32029372D01*
X35916469Y32029372D01*
X35916469Y32415132D01*
X35902538Y32524008D01*
X35860745Y32604305D01*
G37*
%LPD*%
X39649315Y32225839D02*
G36*
X39683933Y32241265D01*
X39701331Y32271279D01*
X39707131Y32320187D01*
X39707131Y32675095D01*
X39431144Y32675095D01*
X39431144Y32866420D01*
X39707131Y32866420D01*
X39707131Y33104142D01*
X39974508Y33104142D01*
X39974508Y32866420D01*
X40107718Y32866420D01*
X40107718Y32675095D01*
X39974508Y32675095D01*
X39974508Y32320187D01*
X39958006Y32184705D01*
X39908501Y32095380D01*
X39819236Y32045874D01*
X39683933Y32029372D01*
X39454342Y32029372D01*
X39454342Y32220698D01*
X39591857Y32220698D01*
X39649315Y32225839D01*
G37*
%LPD*%
X35113799Y32241265D02*
G36*
X35131198Y32271279D01*
X35136998Y32320187D01*
X35136998Y32675095D01*
X34861011Y32675095D01*
X34861011Y32866420D01*
X35136998Y32866420D01*
X35136998Y33104142D01*
X35404375Y33104142D01*
X35404375Y32866420D01*
X35537585Y32866420D01*
X35537585Y32675095D01*
X35404375Y32675095D01*
X35404375Y32320187D01*
X35387873Y32184705D01*
X35338367Y32095380D01*
X35249102Y32045874D01*
X35113799Y32029372D01*
X34884209Y32029372D01*
X34884209Y32220698D01*
X35021724Y32220698D01*
X35079181Y32225839D01*
X35113799Y32241265D01*
G37*
%LPD*%
X32266251Y32340575D02*
G36*
X32236357Y32586129D01*
X32266251Y32832341D01*
X32355935Y33014698D01*
X32421987Y33080615D01*
X32591669Y33155949D01*
X32695298Y33165366D01*
X32799242Y33155949D01*
X32969282Y33080615D01*
X33035379Y33014698D01*
X33125063Y32832341D01*
X33154957Y32586129D01*
X33125063Y32340575D01*
X33035379Y32158278D01*
X32969282Y32092360D01*
X32799242Y32017026D01*
X32695298Y32007609D01*
X32591669Y32017026D01*
X32421987Y32092360D01*
X32355935Y32158278D01*
X32266251Y32340575D01*
G37*
%LPC*%
X32615898Y32947375D02*
G36*
X32563284Y32883161D01*
X32533868Y32766812D01*
X32524062Y32588520D01*
X32533987Y32408077D01*
X32563762Y32290053D01*
X32616377Y32225122D01*
X32695298Y32203478D01*
X32774638Y32225122D01*
X32827552Y32290053D01*
X32857327Y32408077D01*
X32867252Y32588520D01*
X32857327Y32766812D01*
X32827552Y32883161D01*
X32774638Y32947375D01*
X32695298Y32968779D01*
X32615898Y32947375D01*
G37*
%LPD*%
X33850694Y32968779D02*
G36*
X33771892Y32956822D01*
X33710548Y32920948D01*
X33671087Y32865464D01*
X33657934Y32794673D01*
X33664451Y32744869D01*
X33684002Y32696858D01*
X33717244Y32649206D01*
X33764837Y32600478D01*
X34172120Y32240787D01*
X34172120Y32029372D01*
X33361140Y32029372D01*
X33361140Y32240787D01*
X33852129Y32240787D01*
X33613690Y32450049D01*
X33488730Y32569089D01*
X33415668Y32661224D01*
X33380332Y32743195D01*
X33368554Y32831264D01*
X33396296Y32971649D01*
X33479523Y33077117D01*
X33612852Y33143304D01*
X33790905Y33165366D01*
X33882980Y33161121D01*
X33976968Y33148386D01*
X34072452Y33127819D01*
X34169011Y33099598D01*
X34169011Y32854463D01*
X34080703Y32904327D01*
X33998014Y32940081D01*
X33921125Y32961605D01*
X33850694Y32968779D01*
G37*
%LPD*%
X38790115Y32482335D02*
G36*
X38381157Y32866420D01*
X38692061Y32866420D01*
X39000094Y32559343D01*
X39000094Y33192391D01*
X39267471Y33192391D01*
X39267471Y32029372D01*
X39000094Y32029372D01*
X39000094Y32378302D01*
X38673406Y32029372D01*
X38349110Y32029372D01*
X38790115Y32482335D01*
G37*
%LPD*%
X37387521Y37210606D02*
G36*
X37483945Y37034753D01*
X37516086Y36815379D01*
X37483945Y36596158D01*
X37387521Y36419535D01*
X37241579Y36303274D01*
X37061497Y36264520D01*
X36955923Y36275593D01*
X36863729Y36308810D01*
X36781608Y36365557D01*
X36706868Y36447217D01*
X36706868Y36373092D01*
X36726630Y36236454D01*
X36785914Y36141492D01*
X36887258Y36085899D01*
X37033815Y36067367D01*
X37121012Y36073750D01*
X37207900Y36092896D01*
X37295250Y36125037D01*
X37384446Y36170404D01*
X37384446Y35902202D01*
X37289637Y35874598D01*
X37195290Y35855144D01*
X37099251Y35843610D01*
X36999983Y35839765D01*
X36725553Y35873983D01*
X36524786Y35976634D01*
X36453065Y36052739D01*
X36371097Y36250968D01*
X36360852Y36373092D01*
X36360852Y37341016D01*
X36706868Y37341016D01*
X36706868Y37181387D01*
X36781608Y37263893D01*
X36863729Y37320717D01*
X36955923Y37353934D01*
X37061497Y37365007D01*
X37241579Y37326407D01*
X37387521Y37210606D01*
G37*
%LPC*%
X36838201Y37097344D02*
G36*
X36766537Y37038059D01*
X36721785Y36943020D01*
X36706868Y36815379D01*
X36721785Y36688198D01*
X36766537Y36593313D01*
X36838201Y36534259D01*
X36933855Y36514575D01*
X37031124Y36533644D01*
X37102096Y36590852D01*
X37145233Y36685122D01*
X37159612Y36815379D01*
X37144771Y36943020D01*
X37100251Y37038059D01*
X37028817Y37097344D01*
X36933855Y37117105D01*
X36838201Y37097344D01*
G37*
%LPD*%
X41799310Y36725876D02*
G36*
X41799157Y37341016D01*
X42145173Y37341016D01*
X42145173Y36683738D01*
X42120798Y36491353D01*
X42047673Y36350947D01*
X41927875Y36265135D01*
X41763478Y36236531D01*
X41663287Y36247681D01*
X41571862Y36281129D01*
X41487126Y36338337D01*
X41407004Y36420151D01*
X41407004Y36264520D01*
X41062833Y36264520D01*
X41062833Y37341016D01*
X41407004Y37341016D01*
X41407004Y36809535D01*
X41422383Y36678587D01*
X41468518Y36579780D01*
X41541566Y36517727D01*
X41637682Y36497043D01*
X41679435Y36501580D01*
X41716113Y36515190D01*
X41746946Y36537412D01*
X41771168Y36567169D01*
X41785085Y36601079D01*
X41794235Y36650521D01*
X41799310Y36725876D01*
G37*
%LPD*%
X37770062Y37341016D02*
G36*
X38113926Y37341016D01*
X38113926Y36264520D01*
X37770062Y36264520D01*
X37770062Y37341016D01*
G37*
%LPD*%
X34046538Y36980544D02*
G36*
X34008092Y36664746D01*
X33892753Y36430300D01*
X33807749Y36345526D01*
X33589066Y36248642D01*
X33455388Y36236531D01*
X33322114Y36248642D01*
X33103893Y36345526D01*
X33018946Y36430300D01*
X32903607Y36664746D01*
X32865161Y36980544D01*
X32903607Y37297187D01*
X33018946Y37531710D01*
X33103893Y37616484D01*
X33322114Y37713369D01*
X33455388Y37725479D01*
X33589066Y37713369D01*
X33807749Y37616484D01*
X33892753Y37531710D01*
X34008092Y37297187D01*
X34046538Y36980544D01*
G37*
%LPC*%
X33235168Y36983619D02*
G36*
X33247932Y36751558D01*
X33286225Y36599772D01*
X33353890Y36516266D01*
X33455388Y36488431D01*
X33557425Y36516266D01*
X33625475Y36599772D01*
X33663767Y36751558D01*
X33676531Y36983619D01*
X33663767Y37212913D01*
X33625475Y37362546D01*
X33557425Y37445129D01*
X33455388Y37472656D01*
X33353275Y37445129D01*
X33285609Y37362546D01*
X33247778Y37212913D01*
X33235168Y36983619D01*
G37*
%LPD*%
X34769675Y37061665D02*
G36*
X34830881Y36998998D01*
X35354674Y36536412D01*
X35354674Y36264520D01*
X34311703Y36264520D01*
X34311703Y36536412D01*
X34943144Y36536412D01*
X34636497Y36805536D01*
X34475791Y36958629D01*
X34381829Y37077121D01*
X34336385Y37182541D01*
X34321237Y37295803D01*
X34356915Y37476347D01*
X34463950Y37611986D01*
X34635420Y37697106D01*
X34864406Y37725479D01*
X34982821Y37720020D01*
X35103696Y37703642D01*
X35226494Y37677191D01*
X35350675Y37640897D01*
X35350675Y37325638D01*
X35237105Y37389766D01*
X35130762Y37435748D01*
X35031878Y37463429D01*
X34941299Y37472656D01*
X34839955Y37457278D01*
X34761063Y37411142D01*
X34710314Y37339786D01*
X34693397Y37248745D01*
X34701779Y37184694D01*
X34726922Y37122949D01*
X34769675Y37061665D01*
G37*
%LPD*%
X32091583Y36998998D02*
G36*
X32615375Y36536412D01*
X32615375Y36264520D01*
X31572404Y36264520D01*
X31572404Y36536412D01*
X32203846Y36536412D01*
X31897198Y36805536D01*
X31736493Y36958629D01*
X31642530Y37077121D01*
X31597087Y37182541D01*
X31581939Y37295803D01*
X31617617Y37476347D01*
X31724651Y37611986D01*
X31896122Y37697106D01*
X32125108Y37725479D01*
X32243523Y37720020D01*
X32364398Y37703642D01*
X32487195Y37677191D01*
X32611377Y37640897D01*
X32611377Y37325638D01*
X32497806Y37389766D01*
X32391464Y37435748D01*
X32292580Y37463429D01*
X32202001Y37472656D01*
X32100656Y37457278D01*
X32021764Y37411142D01*
X31971015Y37339786D01*
X31954099Y37248745D01*
X31962480Y37184694D01*
X31987624Y37122949D01*
X32030376Y37061665D01*
X32091583Y36998998D01*
G37*
%LPD*%
X39079158Y36264520D02*
G36*
X39079158Y36713265D01*
X38659017Y36264520D01*
X38241952Y36264520D01*
X38809111Y36847058D01*
X38283166Y37341016D01*
X38683008Y37341016D01*
X39079158Y36946096D01*
X39079158Y37760235D01*
X39423022Y37760235D01*
X39423022Y36264520D01*
X39079158Y36264520D01*
G37*
%LPD*%
X40732118Y36264520D02*
G36*
X40388254Y36264520D01*
X40388254Y36713265D01*
X39968113Y36264520D01*
X39551048Y36264520D01*
X40118208Y36847058D01*
X39592262Y37341016D01*
X39992104Y37341016D01*
X40388254Y36946096D01*
X40388254Y37760235D01*
X40732118Y37760235D01*
X40732118Y36264520D01*
G37*
%LPD*%
X37770062Y37479423D02*
G36*
X37770062Y37760235D01*
X38113926Y37760235D01*
X38113926Y37479423D01*
X37770062Y37479423D01*
G37*
%LPD*%
X31862545Y41424287D02*
G36*
X31721392Y41385480D01*
X31575271Y41331151D01*
X31575271Y41682998D01*
X31734741Y41718804D01*
X31882000Y41743433D01*
X32019634Y41758025D01*
X32151060Y41762889D01*
X32434918Y41735051D01*
X32634954Y41651539D01*
X32753237Y41510800D01*
X32792664Y41310454D01*
X32761619Y41124078D01*
X32668483Y40992135D01*
X32498043Y40903863D01*
X32235089Y40848499D01*
X32035881Y40817867D01*
X31965201Y40790961D01*
X31929810Y40752775D01*
X31918012Y40698653D01*
X31935191Y40633664D01*
X31986726Y40586889D01*
X32071997Y40558949D01*
X32191212Y40549635D01*
X32340022Y40558017D01*
X32486764Y40583164D01*
X32630400Y40625386D01*
X32770725Y40684165D01*
X32770725Y40332317D01*
X32611049Y40292786D01*
X32455718Y40264431D01*
X32304631Y40247356D01*
X32158511Y40241665D01*
X31861924Y40270744D01*
X31649366Y40357982D01*
X31521149Y40503377D01*
X31478410Y40706104D01*
X31509145Y40898068D01*
X31601349Y41031045D01*
X31782240Y41119939D01*
X32079862Y41179649D01*
X32267583Y41209453D01*
X32335262Y41235117D01*
X32371585Y41271440D01*
X32383693Y41320802D01*
X32367756Y41380306D01*
X32319946Y41422217D01*
X32238815Y41447053D01*
X32123740Y41455332D01*
X31996971Y41447571D01*
X31862545Y41424287D01*
G37*
%LPD*%
X39586273Y41447571D02*
G36*
X39451847Y41424287D01*
X39310694Y41385480D01*
X39164574Y41331151D01*
X39164574Y41682998D01*
X39324043Y41718804D01*
X39471302Y41743433D01*
X39608936Y41758025D01*
X39740362Y41762889D01*
X40024220Y41735051D01*
X40224256Y41651539D01*
X40342539Y41510800D01*
X40381966Y41310454D01*
X40350921Y41124078D01*
X40257785Y40992135D01*
X40087346Y40903863D01*
X39824391Y40848499D01*
X39625184Y40817867D01*
X39554504Y40790961D01*
X39519112Y40752775D01*
X39507315Y40698653D01*
X39524493Y40633664D01*
X39576028Y40586889D01*
X39661300Y40558949D01*
X39780514Y40549635D01*
X39929325Y40558017D01*
X40076066Y40583164D01*
X40219703Y40625386D01*
X40360028Y40684165D01*
X40360028Y40332317D01*
X40200351Y40292786D01*
X40045021Y40264431D01*
X39893933Y40247356D01*
X39747813Y40241665D01*
X39451226Y40270744D01*
X39238669Y40357982D01*
X39110451Y40503377D01*
X39067712Y40706104D01*
X39098447Y40898068D01*
X39190652Y41031045D01*
X39371543Y41119939D01*
X39669164Y41179649D01*
X39856886Y41209453D01*
X39924564Y41235117D01*
X39960888Y41271440D01*
X39972995Y41320802D01*
X39957059Y41380306D01*
X39909249Y41422217D01*
X39828117Y41447053D01*
X39713042Y41455332D01*
X39586273Y41447571D01*
G37*
%LPD*%
X35698512Y40570021D02*
G36*
X35819485Y40631181D01*
X35899376Y40733113D01*
X35937044Y40875818D01*
X34854595Y40875818D01*
X34854595Y41007451D01*
X34905820Y41317077D01*
X35059494Y41557161D01*
X35298544Y41711457D01*
X35605893Y41762889D01*
X35940976Y41712078D01*
X36195341Y41559645D01*
X36355846Y41318940D01*
X36409348Y41002484D01*
X36354915Y40681785D01*
X36191616Y40441597D01*
X35929697Y40291648D01*
X35580229Y40241665D01*
X35415895Y40249633D01*
X35251562Y40273538D01*
X35087228Y40312966D01*
X34922895Y40367502D01*
X34922895Y40724317D01*
X35082675Y40647635D01*
X35238316Y40593099D01*
X35389714Y40560501D01*
X35537593Y40549635D01*
X35698512Y40570021D01*
G37*
%LPC*%
X35496406Y41435049D02*
G36*
X35407617Y41374200D01*
X35349872Y41280650D01*
X35330624Y41161436D01*
X35932077Y41161436D01*
X35895547Y41287170D01*
X35827350Y41379582D01*
X35730696Y41436395D01*
X35608791Y41455332D01*
X35496406Y41435049D01*
G37*
%LPD*%
X33901760Y40570021D02*
G36*
X34022734Y40631181D01*
X34102624Y40733113D01*
X34140292Y40875818D01*
X33057843Y40875818D01*
X33057843Y41007451D01*
X33109068Y41317077D01*
X33262743Y41557161D01*
X33501792Y41711457D01*
X33809142Y41762889D01*
X34144225Y41712078D01*
X34398590Y41559645D01*
X34559095Y41318940D01*
X34612596Y41002484D01*
X34558163Y40681785D01*
X34394865Y40441597D01*
X34132945Y40291648D01*
X33783478Y40241665D01*
X33619144Y40249633D01*
X33454810Y40273538D01*
X33290477Y40312966D01*
X33126143Y40367502D01*
X33126143Y40724317D01*
X33285924Y40647635D01*
X33441564Y40593099D01*
X33592962Y40560501D01*
X33740842Y40549635D01*
X33901760Y40570021D01*
G37*
%LPC*%
X33610865Y41374200D02*
G36*
X33553121Y41280650D01*
X33533873Y41161436D01*
X34135325Y41161436D01*
X34098795Y41287170D01*
X34030599Y41379582D01*
X33933944Y41436395D01*
X33812039Y41455332D01*
X33699655Y41435049D01*
X33610865Y41374200D01*
G37*
%LPD*%
X40526534Y41333634D02*
G36*
X40528190Y41752540D01*
X40657339Y41762889D01*
X40807702Y41746538D01*
X40935092Y41697486D01*
X41044061Y41613146D01*
X41139991Y41490103D01*
X41139991Y41728118D01*
X41602774Y41728118D01*
X41602774Y40279333D01*
X41139991Y40279333D01*
X41139991Y40947016D01*
X41115879Y41135461D01*
X41043544Y41274441D01*
X40926606Y41360437D01*
X40768688Y41389102D01*
X40708046Y41385687D01*
X40647818Y41375442D01*
X40587280Y41358367D01*
X40526534Y41333634D01*
G37*
%LPD*%
X37736331Y41728118D02*
G36*
X38214016Y41728118D01*
X38214016Y42139572D01*
X38676799Y42139572D01*
X38676799Y41728118D01*
X38907363Y41728118D01*
X38907363Y41396967D01*
X38676799Y41396967D01*
X38676799Y40782682D01*
X38648237Y40548186D01*
X38562552Y40393580D01*
X38408049Y40307895D01*
X38173864Y40279333D01*
X37776483Y40279333D01*
X37776483Y40610484D01*
X38014497Y40610484D01*
X38113946Y40619384D01*
X38173864Y40646083D01*
X38203978Y40698032D01*
X38214016Y40782682D01*
X38214016Y41396967D01*
X37736331Y41396967D01*
X37736331Y41728118D01*
G37*
%LPD*%
X36893397Y41952472D02*
G36*
X36839585Y41979171D01*
X36755969Y41988071D01*
X36499741Y41988071D01*
X36499741Y42292316D01*
X36854487Y42292316D01*
X37094881Y42263961D01*
X37263044Y42178897D01*
X37362079Y42034950D01*
X37395090Y41829119D01*
X37395090Y41728118D01*
X37625240Y41728118D01*
X37625240Y41396967D01*
X37395090Y41396967D01*
X37395090Y40279333D01*
X36931893Y40279333D01*
X36931893Y41396967D01*
X36536168Y41396967D01*
X36536168Y41728118D01*
X36931893Y41728118D01*
X36931893Y41829119D01*
X36922269Y41903835D01*
X36893397Y41952472D01*
G37*
%LPD*%
X51558895Y32007609D02*
G36*
X51463950Y32012213D01*
X51369005Y32026024D01*
X51274060Y32048804D01*
X51179115Y32080313D01*
X51179115Y32286466D01*
X51271429Y32242162D01*
X51361352Y32210653D01*
X51448823Y32191819D01*
X51534262Y32185542D01*
X51627234Y32197320D01*
X51697128Y32232655D01*
X51743285Y32291548D01*
X51765048Y32373997D01*
X51139654Y32373997D01*
X51139654Y32450049D01*
X51169249Y32628938D01*
X51258036Y32767649D01*
X51396149Y32856794D01*
X51573723Y32886510D01*
X51767320Y32857153D01*
X51914282Y32769084D01*
X52007015Y32630014D01*
X52037926Y32447179D01*
X52006477Y32261892D01*
X51912130Y32123122D01*
X51760803Y32036487D01*
X51558895Y32007609D01*
G37*
%LPC*%
X51510466Y32697098D02*
G36*
X51459167Y32661942D01*
X51425805Y32607892D01*
X51414684Y32539015D01*
X51762178Y32539015D01*
X51741073Y32611659D01*
X51701672Y32665051D01*
X51645829Y32697875D01*
X51575397Y32708816D01*
X51510466Y32697098D01*
G37*
%LPD*%
X48287681Y32679161D02*
G36*
X48250014Y32641195D01*
X48237458Y32586129D01*
X48237458Y32565322D01*
X48395302Y32565322D01*
X48583159Y32548103D01*
X48713380Y32496445D01*
X48789253Y32408137D01*
X48814543Y32280487D01*
X48794275Y32170714D01*
X48733469Y32083422D01*
X48640138Y32026562D01*
X48522294Y32007609D01*
X48433208Y32016279D01*
X48358711Y32042287D01*
X48294677Y32087547D01*
X48237458Y32153495D01*
X48237458Y32029372D01*
X47967690Y32029372D01*
X47967690Y32506968D01*
X47992861Y32680117D01*
X48068375Y32797304D01*
X48200329Y32864208D01*
X48395302Y32886510D01*
X48568690Y32875748D01*
X48741361Y32843940D01*
X48741361Y32639939D01*
X48675175Y32670073D01*
X48603846Y32691597D01*
X48526778Y32704511D01*
X48443851Y32708816D01*
X48351716Y32701402D01*
X48287681Y32679161D01*
G37*
%LPC*%
X48346693Y32199054D02*
G36*
X48416108Y32185542D01*
X48470038Y32192716D01*
X48510814Y32214240D01*
X48536285Y32248619D01*
X48544775Y32293880D01*
X48534252Y32342548D01*
X48502683Y32377584D01*
X48450009Y32398929D01*
X48376648Y32406044D01*
X48237458Y32406044D01*
X48237458Y32375432D01*
X48250373Y32300696D01*
X48289116Y32239591D01*
X48346693Y32199054D01*
G37*
%LPD*%
X50457669Y32681253D02*
G36*
X50428970Y32670312D01*
X50404755Y32652794D01*
X50386161Y32629416D01*
X50375997Y32604604D01*
X50369420Y32568910D01*
X50364637Y32419437D01*
X50364637Y32029372D01*
X50095586Y32029372D01*
X50095586Y32539015D01*
X50114360Y32688548D01*
X50170681Y32797543D01*
X50263234Y32864268D01*
X50390705Y32886510D01*
X50469447Y32877840D01*
X50541134Y32851832D01*
X50607201Y32807528D01*
X50669562Y32743972D01*
X50669562Y32866420D01*
X50936939Y32866420D01*
X50936939Y32029372D01*
X50669562Y32029372D01*
X50669562Y32441200D01*
X50657604Y32543081D01*
X50621730Y32620089D01*
X50564931Y32668698D01*
X50490194Y32684901D01*
X50457669Y32681253D01*
G37*
%LPD*%
X52247965Y32670551D02*
G36*
X52178132Y32662659D01*
X52108059Y32638504D01*
X52109015Y32880531D01*
X52183632Y32886510D01*
X52270506Y32877063D01*
X52344106Y32848723D01*
X52407064Y32799995D01*
X52462489Y32728905D01*
X52462489Y32866420D01*
X52729866Y32866420D01*
X52729866Y32029372D01*
X52462489Y32029372D01*
X52462489Y32415132D01*
X52448558Y32524008D01*
X52406765Y32604305D01*
X52339204Y32653990D01*
X52247965Y32670551D01*
G37*
%LPD*%
X47239518Y32681253D02*
G36*
X47210819Y32670312D01*
X47186604Y32652794D01*
X47168010Y32629416D01*
X47157846Y32604604D01*
X47151269Y32568910D01*
X47146486Y32419437D01*
X47146486Y32029372D01*
X46877435Y32029372D01*
X46877435Y32539015D01*
X46896208Y32688548D01*
X46952530Y32797543D01*
X47045083Y32864268D01*
X47172554Y32886510D01*
X47251296Y32877840D01*
X47322983Y32851832D01*
X47389050Y32807528D01*
X47451410Y32743972D01*
X47451410Y32866420D01*
X47718788Y32866420D01*
X47718788Y32029372D01*
X47451410Y32029372D01*
X47451410Y32441200D01*
X47439453Y32543081D01*
X47403579Y32620089D01*
X47346779Y32668698D01*
X47272043Y32684901D01*
X47239518Y32681253D01*
G37*
%LPD*%
X45139842Y32361322D02*
G36*
X45139842Y32578715D01*
X45609068Y32578715D01*
X45609068Y32361322D01*
X45139842Y32361322D01*
G37*
%LPD*%
X53017123Y32527057D02*
G36*
X53078287Y32588162D01*
X53160378Y32626546D01*
X53096523Y32661643D01*
X53049887Y32711447D01*
X53021189Y32774644D01*
X53011622Y32849919D01*
X53037690Y32983547D01*
X53115895Y33074965D01*
X53252214Y33127699D01*
X53452627Y33145277D01*
X53884544Y33145277D01*
X53884544Y32029372D01*
X53407187Y32029372D01*
X53212753Y32049163D01*
X53075238Y32108533D01*
X52993446Y32208441D01*
X52966182Y32349364D01*
X52978918Y32446402D01*
X53017123Y32527057D01*
G37*
%LPC*%
X53596838Y32225242D02*
G36*
X53596838Y32517491D01*
X53427994Y32517491D01*
X53351524Y32508403D01*
X53297175Y32481139D01*
X53264710Y32435879D01*
X53253888Y32372323D01*
X53264829Y32307751D01*
X53297654Y32261833D01*
X53352121Y32234389D01*
X53427994Y32225242D01*
X53596838Y32225242D01*
G37*
%LPC*%
X53596838Y32949408D02*
G36*
X53437799Y32949408D01*
X53377950Y32941815D01*
X53334723Y32919035D01*
X53308356Y32882025D01*
X53299567Y32831264D01*
X53308356Y32780025D01*
X53334723Y32743016D01*
X53377950Y32720595D01*
X53437799Y32713121D01*
X53596838Y32713121D01*
X53596838Y32949408D01*
G37*
%LPD*%
X43562724Y32029372D02*
G36*
X43562724Y32468942D01*
X43118849Y32029372D01*
X42758679Y32029372D01*
X43351310Y32616741D01*
X42813925Y33145277D01*
X43148026Y33145277D01*
X43562724Y32737993D01*
X43562724Y33145277D01*
X43850429Y33145277D01*
X43850429Y32029372D01*
X43562724Y32029372D01*
G37*
%LPD*%
X49277849Y32743972D02*
G36*
X49336024Y32807528D01*
X49400059Y32851832D01*
X49471925Y32877840D01*
X49553597Y32886510D01*
X49694520Y32855778D01*
X49807821Y32763583D01*
X49882258Y32623019D01*
X49907071Y32447179D01*
X49882258Y32271279D01*
X49807821Y32130536D01*
X49694520Y32038341D01*
X49553597Y32007609D01*
X49471507Y32016219D01*
X49399819Y32042048D01*
X49335965Y32086351D01*
X49277849Y32150386D01*
X49277849Y32029372D01*
X49008798Y32029372D01*
X49008798Y33192391D01*
X49277849Y33192391D01*
X49277849Y32743972D01*
G37*
%LPC*%
X49323050Y32264702D02*
G36*
X49378475Y32217708D01*
X49454347Y32202043D01*
X49529502Y32217708D01*
X49584687Y32264702D01*
X49618588Y32341771D01*
X49629888Y32447179D01*
X49618588Y32552527D01*
X49584687Y32629416D01*
X49529502Y32676590D01*
X49454347Y32692314D01*
X49378475Y32676590D01*
X49323050Y32629416D01*
X49289150Y32552527D01*
X49277849Y32447179D01*
X49289150Y32341771D01*
X49323050Y32264702D01*
G37*
%LPD*%
X45500650Y37210606D02*
G36*
X45597074Y37034753D01*
X45629215Y36815379D01*
X45597074Y36596158D01*
X45500650Y36419535D01*
X45354708Y36303274D01*
X45174626Y36264520D01*
X45069052Y36275593D01*
X44976858Y36308810D01*
X44894737Y36365557D01*
X44819997Y36447217D01*
X44819997Y36373092D01*
X44839759Y36236454D01*
X44899043Y36141492D01*
X45000387Y36085899D01*
X45146944Y36067367D01*
X45234141Y36073750D01*
X45321029Y36092896D01*
X45408379Y36125037D01*
X45497575Y36170404D01*
X45497575Y35902202D01*
X45402766Y35874598D01*
X45308419Y35855144D01*
X45212380Y35843610D01*
X45113112Y35839765D01*
X44838682Y35873983D01*
X44637916Y35976634D01*
X44566194Y36052739D01*
X44484226Y36250968D01*
X44473981Y36373092D01*
X44473981Y37341016D01*
X44819997Y37341016D01*
X44819997Y37181387D01*
X44894737Y37263893D01*
X44976858Y37320717D01*
X45069052Y37353934D01*
X45174626Y37365007D01*
X45354708Y37326407D01*
X45500650Y37210606D01*
G37*
%LPC*%
X44879666Y37038059D02*
G36*
X44834914Y36943020D01*
X44819997Y36815379D01*
X44834914Y36688198D01*
X44879666Y36593313D01*
X44951330Y36534259D01*
X45046984Y36514575D01*
X45144253Y36533644D01*
X45215225Y36590852D01*
X45258362Y36685122D01*
X45272741Y36815379D01*
X45257900Y36943020D01*
X45213380Y37038059D01*
X45141946Y37097344D01*
X45046984Y37117105D01*
X44951330Y37097344D01*
X44879666Y37038059D01*
G37*
%LPD*%
X53163958Y36465363D02*
G36*
X53283526Y36480511D01*
X53373413Y36525955D01*
X53432774Y36601694D01*
X53460763Y36707729D01*
X52656467Y36707729D01*
X52656467Y36805536D01*
X52694528Y37035599D01*
X52808714Y37213990D01*
X52986336Y37328637D01*
X53214707Y37366852D01*
X53463685Y37329098D01*
X53652687Y37215835D01*
X53771947Y37036983D01*
X53811701Y36801845D01*
X53771255Y36563555D01*
X53649919Y36385088D01*
X53455304Y36273670D01*
X53195637Y36236531D01*
X53073532Y36242452D01*
X52951427Y36260214D01*
X52829321Y36289510D01*
X52707216Y36330033D01*
X52707216Y36595158D01*
X52825938Y36538181D01*
X52941584Y36497658D01*
X53054078Y36473437D01*
X53163958Y36465363D01*
G37*
%LPC*%
X53216860Y37138327D02*
G36*
X53133354Y37123256D01*
X53067381Y37078044D01*
X53024475Y37008533D01*
X53010173Y36919952D01*
X53457072Y36919952D01*
X53429929Y37013377D01*
X53379257Y37082042D01*
X53307439Y37124256D01*
X53216860Y37138327D01*
G37*
%LPD*%
X48297311Y36473437D02*
G36*
X48407190Y36465363D01*
X48526758Y36480511D01*
X48616646Y36525955D01*
X48676007Y36601694D01*
X48703995Y36707729D01*
X47899699Y36707729D01*
X47899699Y36805536D01*
X47937761Y37035599D01*
X48051946Y37213990D01*
X48229568Y37328637D01*
X48457939Y37366852D01*
X48706917Y37329098D01*
X48895919Y37215835D01*
X49015180Y37036983D01*
X49054933Y36801845D01*
X49014488Y36563555D01*
X48893151Y36385088D01*
X48698536Y36273670D01*
X48438870Y36236531D01*
X48316764Y36242452D01*
X48194659Y36260214D01*
X48072554Y36289510D01*
X47950448Y36330033D01*
X47950448Y36595158D01*
X48069170Y36538181D01*
X48184817Y36497658D01*
X48297311Y36473437D01*
G37*
%LPC*%
X48310613Y37078044D02*
G36*
X48267707Y37008533D01*
X48253405Y36919952D01*
X48700305Y36919952D01*
X48673162Y37013377D01*
X48622489Y37082042D01*
X48550672Y37124256D01*
X48460092Y37138327D01*
X48376587Y37123256D01*
X48310613Y37078044D01*
G37*
%LPD*%
X43238394Y36538181D02*
G36*
X43354040Y36497658D01*
X43466534Y36473437D01*
X43576413Y36465363D01*
X43695981Y36480511D01*
X43785869Y36525955D01*
X43845230Y36601694D01*
X43873219Y36707729D01*
X43068922Y36707729D01*
X43068922Y36805536D01*
X43106984Y37035599D01*
X43221170Y37213990D01*
X43398791Y37328637D01*
X43627162Y37366852D01*
X43876141Y37329098D01*
X44065143Y37215835D01*
X44184403Y37036983D01*
X44224157Y36801845D01*
X44183711Y36563555D01*
X44062375Y36385088D01*
X43867759Y36273670D01*
X43608093Y36236531D01*
X43485988Y36242452D01*
X43363882Y36260214D01*
X43241777Y36289510D01*
X43119671Y36330033D01*
X43119671Y36595158D01*
X43238394Y36538181D01*
G37*
%LPC*%
X43791713Y37082042D02*
G36*
X43719895Y37124256D01*
X43629315Y37138327D01*
X43545810Y37123256D01*
X43479836Y37078044D01*
X43436930Y37008533D01*
X43422628Y36919952D01*
X43869528Y36919952D01*
X43842385Y37013377D01*
X43791713Y37082042D01*
G37*
%LPD*%
X49632358Y36473437D02*
G36*
X49742238Y36465363D01*
X49861806Y36480511D01*
X49951693Y36525955D01*
X50011054Y36601694D01*
X50039043Y36707729D01*
X49234747Y36707729D01*
X49234747Y36805536D01*
X49272808Y37035599D01*
X49386994Y37213990D01*
X49564616Y37328637D01*
X49792987Y37366852D01*
X50041965Y37329098D01*
X50230967Y37215835D01*
X50350227Y37036983D01*
X50389981Y36801845D01*
X50349535Y36563555D01*
X50228199Y36385088D01*
X50033584Y36273670D01*
X49773917Y36236531D01*
X49651812Y36242452D01*
X49529707Y36260214D01*
X49407601Y36289510D01*
X49285496Y36330033D01*
X49285496Y36595158D01*
X49404218Y36538181D01*
X49519864Y36497658D01*
X49632358Y36473437D01*
G37*
%LPC*%
X49711634Y37123256D02*
G36*
X49645661Y37078044D01*
X49602754Y37008533D01*
X49588452Y36919952D01*
X50035352Y36919952D01*
X50008209Y37013377D01*
X49957537Y37082042D01*
X49885719Y37124256D01*
X49795140Y37138327D01*
X49711634Y37123256D01*
G37*
%LPD*%
X46904517Y36883890D02*
G36*
X46902979Y36264520D01*
X46556962Y36264520D01*
X46556962Y36919952D01*
X46581107Y37112261D01*
X46653539Y37252436D01*
X46772569Y37338248D01*
X46936504Y37366852D01*
X47037772Y37355703D01*
X47129966Y37322254D01*
X47214932Y37265277D01*
X47295131Y37183540D01*
X47295131Y37341016D01*
X47638995Y37341016D01*
X47638995Y36264520D01*
X47295131Y36264520D01*
X47295131Y36794156D01*
X47279753Y36925181D01*
X47233617Y37024219D01*
X47160569Y37086732D01*
X47064453Y37107570D01*
X47022624Y37102880D01*
X46985715Y37088809D01*
X46954574Y37066279D01*
X46930660Y37036214D01*
X46917588Y37004304D01*
X46909130Y36958399D01*
X46904517Y36883890D01*
G37*
%LPD*%
X51659747Y36766167D02*
G36*
X51659747Y36264520D01*
X51313730Y36264520D01*
X51313730Y36919952D01*
X51337874Y37112261D01*
X51410307Y37252436D01*
X51529337Y37338248D01*
X51693272Y37366852D01*
X51794539Y37355703D01*
X51886733Y37322254D01*
X51971700Y37265277D01*
X52051899Y37183540D01*
X52051899Y37341016D01*
X52395762Y37341016D01*
X52395762Y36264520D01*
X52051899Y36264520D01*
X52051899Y36794156D01*
X52036520Y36925181D01*
X51990385Y37024219D01*
X51917337Y37086732D01*
X51821221Y37107570D01*
X51779391Y37102880D01*
X51742483Y37088809D01*
X51711341Y37066279D01*
X51687428Y37036214D01*
X51674356Y37004304D01*
X51665898Y36958399D01*
X51659747Y36766167D01*
G37*
%LPD*%
X42464354Y36264520D02*
G36*
X42464354Y37760235D01*
X42808218Y37760235D01*
X42808218Y36264520D01*
X42464354Y36264520D01*
G37*
%LPD*%
X48155161Y40487958D02*
G36*
X47958747Y40331489D01*
X47716386Y40279333D01*
X47574302Y40294235D01*
X47450224Y40338940D01*
X47339702Y40415312D01*
X47239115Y40525213D01*
X47239115Y40425453D01*
X47265711Y40241561D01*
X47345497Y40113758D01*
X47481890Y40038938D01*
X47679132Y40013999D01*
X47796483Y40022588D01*
X47913421Y40048356D01*
X48030979Y40091612D01*
X48151021Y40152668D01*
X48151021Y39791714D01*
X48023425Y39754563D01*
X47896449Y39728381D01*
X47767197Y39712858D01*
X47633598Y39707684D01*
X47264262Y39753735D01*
X46994064Y39891887D01*
X46897538Y39994311D01*
X46787224Y40261094D01*
X46773434Y40425453D01*
X46773434Y41728118D01*
X47239115Y41728118D01*
X47239115Y41513284D01*
X47339702Y41624323D01*
X47450224Y41700798D01*
X47574302Y41745503D01*
X47716386Y41760405D01*
X47958747Y41708456D01*
X48155161Y41552608D01*
X48284931Y41315939D01*
X48328187Y41020697D01*
X48284931Y40725662D01*
X48155161Y40487958D01*
G37*
%LPC*%
X47319419Y41320388D02*
G36*
X47259191Y41192481D01*
X47239115Y41020697D01*
X47259191Y40849533D01*
X47319419Y40721833D01*
X47415867Y40642357D01*
X47544602Y40615865D01*
X47675510Y40641529D01*
X47771026Y40718522D01*
X47829081Y40845394D01*
X47848432Y41020697D01*
X47828460Y41192481D01*
X47768542Y41320388D01*
X47672405Y41400175D01*
X47544602Y41426771D01*
X47415867Y41400175D01*
X47319419Y41320388D01*
G37*
%LPD*%
X42797556Y40570021D02*
G36*
X42918529Y40631181D01*
X42998419Y40733113D01*
X43036088Y40875818D01*
X41953639Y40875818D01*
X41953639Y41007451D01*
X42004864Y41317077D01*
X42158538Y41557161D01*
X42397588Y41711457D01*
X42704937Y41762889D01*
X43040020Y41712078D01*
X43294385Y41559645D01*
X43454890Y41318940D01*
X43508392Y41002484D01*
X43453959Y40681785D01*
X43290660Y40441597D01*
X43028740Y40291648D01*
X42679273Y40241665D01*
X42514939Y40249633D01*
X42350606Y40273538D01*
X42186272Y40312966D01*
X42021939Y40367502D01*
X42021939Y40724317D01*
X42181719Y40647635D01*
X42337360Y40593099D01*
X42488758Y40560501D01*
X42636637Y40549635D01*
X42797556Y40570021D01*
G37*
%LPC*%
X42707835Y41455332D02*
G36*
X42595450Y41435049D01*
X42506661Y41374200D01*
X42448916Y41280650D01*
X42429668Y41161436D01*
X43031121Y41161436D01*
X42994591Y41287170D01*
X42926394Y41379582D01*
X42829740Y41436395D01*
X42707835Y41455332D01*
G37*
%LPD*%
X51431587Y40241665D02*
G36*
X51277395Y40256670D01*
X51148453Y40301686D01*
X51037621Y40380024D01*
X50938586Y40494167D01*
X50938586Y40279333D01*
X50471664Y40279333D01*
X50471664Y41105968D01*
X50515231Y41405660D01*
X50645932Y41608489D01*
X50874322Y41724289D01*
X51211786Y41762889D01*
X51361735Y41758232D01*
X51511891Y41744261D01*
X51661530Y41721184D01*
X51810755Y41689207D01*
X51810755Y41336118D01*
X51696197Y41388274D01*
X51572740Y41425529D01*
X51439348Y41447881D01*
X51295815Y41455332D01*
X51136345Y41442500D01*
X51025513Y41404004D01*
X50960318Y41338291D01*
X50938586Y41242982D01*
X50938586Y41206969D01*
X51211786Y41206969D01*
X51536934Y41177166D01*
X51762324Y41087755D01*
X51893646Y40934908D01*
X51937420Y40713969D01*
X51902338Y40523971D01*
X51797095Y40372883D01*
X51635555Y40274469D01*
X51431587Y40241665D01*
G37*
%LPC*%
X50960939Y40748946D02*
G36*
X51027997Y40643185D01*
X51127653Y40573023D01*
X51247798Y40549635D01*
X51341141Y40562053D01*
X51411718Y40599308D01*
X51455802Y40658811D01*
X51470497Y40737149D01*
X51452284Y40821386D01*
X51397644Y40882028D01*
X51306474Y40918972D01*
X51179498Y40931286D01*
X50938586Y40931286D01*
X50938586Y40878302D01*
X50960939Y40748946D01*
G37*
%LPD*%
X49132780Y40279333D02*
G36*
X48669997Y40279333D01*
X48669997Y41728118D01*
X49132780Y41728118D01*
X49132780Y40279333D01*
G37*
%LPD*%
X53852972Y40279333D02*
G36*
X52170312Y40279333D01*
X52170312Y40655603D01*
X53236203Y40655603D01*
X52200115Y41909423D01*
X52200115Y42210770D01*
X53823582Y42210770D01*
X53823582Y41834086D01*
X52816884Y41834086D01*
X53852972Y40580680D01*
X53852972Y40279333D01*
G37*
%LPD*%
X43495715Y40279333D02*
G36*
X44521454Y41295966D01*
X43591335Y42210770D01*
X44169607Y42210770D01*
X44887376Y41505833D01*
X44887376Y42210770D01*
X45385344Y42210770D01*
X45385344Y40279333D01*
X44887376Y40279333D01*
X44887376Y41040152D01*
X44119106Y40279333D01*
X43495715Y40279333D01*
G37*
%LPD*%
X49578074Y42292316D02*
G36*
X50040857Y42292316D01*
X50040857Y40279333D01*
X49578074Y40279333D01*
X49578074Y42292316D01*
G37*
%LPD*%
X48669997Y42292316D02*
G36*
X49132780Y42292316D01*
X49132780Y41914390D01*
X48669997Y41914390D01*
X48669997Y42292316D01*
G37*
%LPD*%
X57393467Y61591438D02*
G36*
X57081995Y62274315D01*
X57081995Y62390411D01*
X57684050Y62390411D01*
X57684050Y62238870D01*
X57299289Y62238870D01*
X57594152Y61591438D01*
X57393467Y61591438D01*
G37*
%LPD*%
X57218275Y64653767D02*
G36*
X57020672Y64653767D01*
X57020672Y64790753D01*
X57218275Y64790753D01*
X57218275Y64960959D01*
X57409713Y64960959D01*
X57409713Y64790753D01*
X57505090Y64790753D01*
X57505090Y64653767D01*
X57409713Y64653767D01*
X57409713Y64399658D01*
X57397898Y64302654D01*
X57362453Y64238699D01*
X57298540Y64203253D01*
X57201665Y64191438D01*
X57037282Y64191438D01*
X57037282Y64328425D01*
X57176879Y64332106D01*
X57201665Y64343151D01*
X57214122Y64364640D01*
X57218275Y64399658D01*
X57218275Y64653767D01*
G37*
%LPD*%
X71367875Y58288784D02*
G36*
X71427635Y58284846D01*
X71532301Y58302098D01*
X71609998Y58353853D01*
X71658157Y58437414D01*
X71674210Y58549743D01*
X71657558Y58662842D01*
X71607601Y58746318D01*
X71526907Y58797945D01*
X71418046Y58815154D01*
X71351693Y58810445D01*
X71285512Y58796318D01*
X71219244Y58772860D01*
X71152635Y58739812D01*
X71152635Y58905051D01*
X71219458Y58930865D01*
X71290477Y58949401D01*
X71365092Y58960702D01*
X71443046Y58964469D01*
X71540895Y58957545D01*
X71703652Y58902151D01*
X71768560Y58853682D01*
X71820475Y58793140D01*
X71879807Y58641171D01*
X71887224Y58549743D01*
X71879936Y58459236D01*
X71821631Y58307952D01*
X71770614Y58247175D01*
X71707119Y58198330D01*
X71548985Y58142509D01*
X71454347Y58135531D01*
X71367361Y58140197D01*
X71283114Y58154195D01*
X71201693Y58177697D01*
X71123183Y58210531D01*
X71123183Y58594777D01*
X71444244Y58594777D01*
X71444244Y58456592D01*
X71318388Y58456592D01*
X71318388Y58301455D01*
X71367875Y58288784D01*
G37*
%LPD*%
X65517188Y58355394D02*
G36*
X65564448Y58439341D01*
X65580201Y58549743D01*
X65564448Y58660488D01*
X65517188Y58744435D01*
X65442230Y58797474D01*
X65343729Y58815154D01*
X65283711Y58810616D01*
X65226605Y58797003D01*
X65170527Y58773630D01*
X65113592Y58739812D01*
X65113592Y58905051D01*
X65171597Y58930865D01*
X65231914Y58949401D01*
X65294756Y58960702D01*
X65360338Y58964469D01*
X65454976Y58957491D01*
X65613110Y58901670D01*
X65676605Y58852825D01*
X65727622Y58792080D01*
X65785927Y58640539D01*
X65793215Y58549743D01*
X65785927Y58459236D01*
X65727622Y58307952D01*
X65676605Y58247175D01*
X65613110Y58198330D01*
X65454976Y58142509D01*
X65360338Y58135531D01*
X65294756Y58139298D01*
X65231914Y58150599D01*
X65171597Y58169135D01*
X65113592Y58194949D01*
X65113592Y58360360D01*
X65170527Y58326498D01*
X65226605Y58302997D01*
X65283711Y58289384D01*
X65343729Y58284846D01*
X65442230Y58302483D01*
X65517188Y58355394D01*
G37*
%LPD*%
X64637971Y58302483D02*
G36*
X64712928Y58355394D01*
X64760188Y58439341D01*
X64775942Y58549743D01*
X64760188Y58660488D01*
X64712928Y58744435D01*
X64637971Y58797474D01*
X64539469Y58815154D01*
X64479452Y58810616D01*
X64422346Y58797003D01*
X64366267Y58773630D01*
X64309332Y58739812D01*
X64309332Y58905051D01*
X64367337Y58930865D01*
X64427654Y58949401D01*
X64490497Y58960702D01*
X64556079Y58964469D01*
X64650717Y58957491D01*
X64808851Y58901670D01*
X64872346Y58852825D01*
X64923363Y58792080D01*
X64981667Y58640539D01*
X64988955Y58549743D01*
X64981667Y58459236D01*
X64923363Y58307952D01*
X64872346Y58247175D01*
X64808851Y58198330D01*
X64650717Y58142509D01*
X64556079Y58135531D01*
X64490497Y58139298D01*
X64427654Y58150599D01*
X64367337Y58169135D01*
X64309332Y58194949D01*
X64309332Y58360360D01*
X64366267Y58326498D01*
X64422346Y58302997D01*
X64479452Y58289384D01*
X64539469Y58284846D01*
X64637971Y58302483D01*
G37*
%LPD*%
X70421107Y58950086D02*
G36*
X70421107Y58402140D01*
X70711689Y58950086D01*
X70941655Y58950086D01*
X70941655Y58151113D01*
X70746449Y58151113D01*
X70746449Y58699058D01*
X70455867Y58151113D01*
X70225730Y58151113D01*
X70225730Y58950086D01*
X70421107Y58950086D01*
G37*
%LPD*%
X69334634Y58323330D02*
G36*
X69300173Y58389983D01*
X69279625Y58465796D01*
X69272776Y58551455D01*
X69279625Y58636002D01*
X69300173Y58711216D01*
X69334634Y58777783D01*
X69383564Y58836045D01*
X69453598Y58889127D01*
X69536304Y58924058D01*
X69648589Y58943579D01*
X69807365Y58950086D01*
X70024488Y58950086D01*
X70024488Y58151113D01*
X69807365Y58151113D01*
X69650045Y58157577D01*
X69537673Y58176969D01*
X69454197Y58212029D01*
X69383564Y58265154D01*
X69334634Y58323330D01*
G37*
%LPC*%
X69551886Y58369435D02*
G36*
X69633393Y58322432D01*
X69744694Y58306764D01*
X69818495Y58306764D01*
X69818495Y58794264D01*
X69744694Y58794264D01*
X69632964Y58778724D01*
X69551543Y58732106D01*
X69501714Y58655950D01*
X69485105Y58551455D01*
X69501800Y58446276D01*
X69551886Y58369435D01*
G37*
%LPD*%
X66483476Y58950086D02*
G36*
X66690668Y58950086D01*
X66394777Y58151113D01*
X66149058Y58151113D01*
X65853168Y58950086D01*
X66060188Y58950086D01*
X66271661Y58360360D01*
X66483476Y58950086D01*
G37*
%LPD*%
X62347748Y61596575D02*
G36*
X62195993Y61575856D01*
X62043896Y61596575D01*
X61936575Y61658733D01*
X61872748Y61763442D01*
X61851473Y61911473D01*
X61851473Y62390411D01*
X62057466Y62390411D01*
X62057466Y61911473D01*
X62065557Y61826584D01*
X62089829Y61769863D01*
X62132551Y61738014D01*
X62195993Y61727397D01*
X62259050Y61738014D01*
X62301644Y61769863D01*
X62325916Y61826584D01*
X62334007Y61911473D01*
X62334007Y62390411D01*
X62540000Y62390411D01*
X62540000Y61911473D01*
X62518767Y61763442D01*
X62455068Y61658733D01*
X62347748Y61596575D01*
G37*
%LPD*%
X59937260Y62390411D02*
G36*
X59937260Y61591438D01*
X59731267Y61591438D01*
X59731267Y62390411D01*
X59937260Y62390411D01*
G37*
%LPD*%
X58845244Y61591438D02*
G36*
X58650381Y61591438D01*
X58650381Y61736986D01*
X58536511Y61736986D01*
X58536511Y61886301D01*
X58650381Y61886301D01*
X58650381Y62390411D01*
X58879491Y62390411D01*
X59199354Y61913527D01*
X59199354Y61736986D01*
X58845244Y61736986D01*
X58845244Y61591438D01*
G37*
%LPC*%
X58845244Y61886301D02*
G36*
X59070929Y61886301D01*
X58845244Y62220719D01*
X58845244Y61886301D01*
G37*
%LPD*%
X61308343Y61868664D02*
G36*
X61173540Y61885574D01*
X61074268Y61936301D01*
X61013009Y62018493D01*
X60992590Y62129795D01*
X61013009Y62240582D01*
X61074268Y62322603D01*
X61173540Y62373459D01*
X61308343Y62390411D01*
X61650124Y62390411D01*
X61650124Y61591438D01*
X61444131Y61591438D01*
X61444131Y61868664D01*
X61308343Y61868664D01*
G37*
%LPC*%
X61213095Y62082320D02*
G36*
X61237624Y62047089D01*
X61277136Y62025257D01*
X61330261Y62017979D01*
X61444131Y62017979D01*
X61444131Y62241096D01*
X61330261Y62241096D01*
X61277136Y62233861D01*
X61237624Y62212158D01*
X61213095Y62177098D01*
X61204919Y62129795D01*
X61213095Y62082320D01*
G37*
%LPD*%
X60360120Y61617295D02*
G36*
X60276644Y61652354D01*
X60206010Y61705479D01*
X60157080Y61763656D01*
X60122620Y61830308D01*
X60102072Y61906122D01*
X60095223Y61991781D01*
X60102072Y62076327D01*
X60122620Y62151541D01*
X60157080Y62218108D01*
X60206010Y62276370D01*
X60276045Y62329452D01*
X60358750Y62364384D01*
X60471036Y62383904D01*
X60629812Y62390411D01*
X60846935Y62390411D01*
X60846935Y61591438D01*
X60629812Y61591438D01*
X60472491Y61597902D01*
X60360120Y61617295D01*
G37*
%LPC*%
X60307551Y61991781D02*
G36*
X60324247Y61886601D01*
X60374332Y61809760D01*
X60455839Y61762757D01*
X60567140Y61747089D01*
X60640942Y61747089D01*
X60640942Y62234589D01*
X60567140Y62234589D01*
X60455411Y62219050D01*
X60373990Y62172432D01*
X60324161Y62096276D01*
X60307551Y61991781D01*
G37*
%LPD*%
X57968682Y61591438D02*
G36*
X57736490Y61591438D01*
X58052243Y61915753D01*
X57759435Y62190753D01*
X57982038Y62190753D01*
X58202586Y61970890D01*
X58202586Y62424144D01*
X58394024Y62424144D01*
X58394024Y61591438D01*
X58202586Y61591438D01*
X58202586Y61841267D01*
X57968682Y61591438D01*
G37*
%LPD*%
X64508943Y64398459D02*
G36*
X64702093Y64398459D01*
X64702093Y64191438D01*
X64508943Y64191438D01*
X64508943Y64398459D01*
G37*
%LPD*%
X57671143Y64655308D02*
G36*
X57631845Y64638998D01*
X57592718Y64615753D01*
X57592718Y64772089D01*
X57683985Y64796918D01*
X57776794Y64805137D01*
X57921314Y64784332D01*
X58030561Y64721918D01*
X58099140Y64622560D01*
X58121999Y64490582D01*
X58099140Y64358562D01*
X58030561Y64259075D01*
X57921314Y64196661D01*
X57776794Y64175856D01*
X57683985Y64184247D01*
X57592718Y64209075D01*
X57592718Y64365925D01*
X57628506Y64342894D01*
X57667376Y64326199D01*
X57708943Y64316182D01*
X57752821Y64312842D01*
X57824097Y64324529D01*
X57877650Y64359589D01*
X57911169Y64415796D01*
X57922342Y64490582D01*
X57911169Y64565325D01*
X57877650Y64621404D01*
X57824097Y64656464D01*
X57752821Y64668151D01*
X57711254Y64664940D01*
X57671143Y64655308D01*
G37*
%LPD*%
X58654298Y64379152D02*
G36*
X58669880Y64438185D01*
X58222106Y64438185D01*
X58222106Y64492637D01*
X58243296Y64620719D01*
X58306866Y64720034D01*
X58405753Y64783861D01*
X58532894Y64805137D01*
X58671507Y64784118D01*
X58776729Y64721062D01*
X58843125Y64621490D01*
X58865257Y64490582D01*
X58842740Y64357920D01*
X58775188Y64258562D01*
X58666841Y64196533D01*
X58522277Y64175856D01*
X58454298Y64179152D01*
X58386318Y64189041D01*
X58318339Y64205351D01*
X58250360Y64227911D01*
X58250360Y64375514D01*
X58316455Y64343793D01*
X58380839Y64321233D01*
X58443467Y64307748D01*
X58504640Y64303253D01*
X58571207Y64311687D01*
X58621250Y64336986D01*
X58654298Y64379152D01*
G37*
%LPC*%
X58450873Y64644349D02*
G36*
X58426986Y64605651D01*
X58419024Y64556336D01*
X58667825Y64556336D01*
X58652714Y64608348D01*
X58624503Y64646575D01*
X58584521Y64670077D01*
X58534092Y64677911D01*
X58487603Y64669521D01*
X58450873Y64644349D01*
G37*
%LPD*%
X59736318Y64191438D02*
G36*
X59544880Y64191438D01*
X59544880Y64790753D01*
X59736318Y64790753D01*
X59736318Y64191438D01*
G37*
%LPD*%
X58940599Y64637800D02*
G36*
X58915471Y64627568D01*
X58916156Y64800856D01*
X58969580Y64805137D01*
X59031781Y64798373D01*
X59084478Y64778082D01*
X59129555Y64743193D01*
X59169238Y64692295D01*
X59169238Y64790753D01*
X59360676Y64790753D01*
X59360676Y64191438D01*
X59169238Y64191438D01*
X59169238Y64467637D01*
X59159264Y64545591D01*
X59129341Y64603082D01*
X59080967Y64638656D01*
X59015642Y64650514D01*
X58940599Y64637800D01*
G37*
%LPD*%
X63623283Y64338014D02*
G36*
X63665878Y64369863D01*
X63690150Y64426584D01*
X63698241Y64511473D01*
X63698241Y64990411D01*
X63904234Y64990411D01*
X63904234Y64511473D01*
X63883001Y64363442D01*
X63819302Y64258733D01*
X63711982Y64196575D01*
X63560227Y64175856D01*
X63408129Y64196575D01*
X63300809Y64258733D01*
X63236982Y64363442D01*
X63215706Y64511473D01*
X63215706Y64990411D01*
X63421699Y64990411D01*
X63421699Y64511473D01*
X63429790Y64426584D01*
X63454063Y64369863D01*
X63496785Y64338014D01*
X63560227Y64327397D01*
X63623283Y64338014D01*
G37*
%LPD*%
X61095501Y64191438D02*
G36*
X61095501Y64990411D01*
X61301494Y64990411D01*
X61301494Y64191438D01*
X61095501Y64191438D01*
G37*
%LPD*%
X61486854Y64751541D02*
G36*
X61521314Y64818108D01*
X61570244Y64876370D01*
X61640278Y64929452D01*
X61722984Y64964384D01*
X61835270Y64983904D01*
X61994045Y64990411D01*
X62211169Y64990411D01*
X62211169Y64191438D01*
X61994045Y64191438D01*
X61836725Y64197902D01*
X61724354Y64217295D01*
X61640878Y64252354D01*
X61570244Y64305479D01*
X61521314Y64363656D01*
X61486854Y64430308D01*
X61466306Y64506122D01*
X61459456Y64591781D01*
X61466306Y64676327D01*
X61486854Y64751541D01*
G37*
%LPC*%
X62005176Y64347089D02*
G36*
X62005176Y64834589D01*
X61931374Y64834589D01*
X61819645Y64819050D01*
X61738223Y64772432D01*
X61688395Y64696276D01*
X61671785Y64591781D01*
X61688480Y64486601D01*
X61738566Y64409760D01*
X61820073Y64362757D01*
X61931374Y64347089D01*
X62005176Y64347089D01*
G37*
%LPD*%
X62377243Y64618493D02*
G36*
X62356824Y64729795D01*
X62377243Y64840582D01*
X62438502Y64922603D01*
X62537774Y64973459D01*
X62672577Y64990411D01*
X63014358Y64990411D01*
X63014358Y64191438D01*
X62808365Y64191438D01*
X62808365Y64468664D01*
X62672577Y64468664D01*
X62537774Y64485574D01*
X62438502Y64536301D01*
X62377243Y64618493D01*
G37*
%LPC*%
X62601858Y64812158D02*
G36*
X62577329Y64777098D01*
X62569152Y64729795D01*
X62577329Y64682320D01*
X62601858Y64647089D01*
X62641370Y64625257D01*
X62694495Y64617979D01*
X62808365Y64617979D01*
X62808365Y64841096D01*
X62694495Y64841096D01*
X62641370Y64833861D01*
X62601858Y64812158D01*
G37*
%LPD*%
X64780711Y64990411D02*
G36*
X64987731Y64990411D01*
X65199204Y64400685D01*
X65411019Y64990411D01*
X65618211Y64990411D01*
X65322320Y64191438D01*
X65076601Y64191438D01*
X64780711Y64990411D01*
G37*
%LPD*%
X65724075Y64191438D02*
G36*
X65724075Y64990411D01*
X65930068Y64990411D01*
X65930068Y64685959D01*
X66234007Y64685959D01*
X66234007Y64990411D01*
X66440000Y64990411D01*
X66440000Y64191438D01*
X66234007Y64191438D01*
X66234007Y64530137D01*
X65930068Y64530137D01*
X65930068Y64191438D01*
X65724075Y64191438D01*
G37*
%LPD*%
X60154683Y64232235D02*
G36*
X60113074Y64278082D01*
X60113074Y64191438D01*
X59920437Y64191438D01*
X59920437Y65024144D01*
X60113074Y65024144D01*
X60113074Y64703082D01*
X60154726Y64748587D01*
X60200574Y64780308D01*
X60252029Y64798930D01*
X60310505Y64805137D01*
X60411404Y64783134D01*
X60492526Y64717123D01*
X60545822Y64616481D01*
X60563587Y64490582D01*
X60545822Y64364640D01*
X60492526Y64263870D01*
X60411404Y64197860D01*
X60310505Y64175856D01*
X60251729Y64182021D01*
X60200402Y64200514D01*
X60154683Y64232235D01*
G37*
%LPC*%
X60332765Y64359932D02*
G36*
X60357038Y64415111D01*
X60365128Y64490582D01*
X60357038Y64566010D01*
X60332765Y64621062D01*
X60293253Y64654837D01*
X60239443Y64666096D01*
X60185120Y64654837D01*
X60145437Y64621062D01*
X60121164Y64566010D01*
X60113074Y64490582D01*
X60121164Y64415111D01*
X60145437Y64359932D01*
X60185120Y64326284D01*
X60239443Y64315068D01*
X60293253Y64326284D01*
X60332765Y64359932D01*
G37*
%LPD*%
X64702093Y64583733D02*
G36*
X64508943Y64583733D01*
X64508943Y64790753D01*
X64702093Y64790753D01*
X64702093Y64583733D01*
G37*
%LPD*%
X59544880Y64867808D02*
G36*
X59544880Y65024144D01*
X59736318Y65024144D01*
X59736318Y64867808D01*
X59544880Y64867808D01*
G37*
%LPD*%
M02*
