G04 Bottom copper*
%FSLAX46Y46*%
%MOMM*%
%TF.GenerationSoftware,kerstkaart2026-gen2*%
G01*
%LPD*%
X11201903Y7059682D02*
G36*
X11160318Y7018097D01*
X11111419Y6985424D01*
X11057085Y6962918D01*
X10999405Y6951445D01*
X10940595Y6951445D01*
X10882915Y6962918D01*
X10828581Y6985424D01*
X10779682Y7018097D01*
X10738097Y7059682D01*
X10705424Y7108581D01*
X10682918Y7162915D01*
X10671445Y7220595D01*
X10671445Y7279405D01*
X10682918Y7337085D01*
X10705424Y7391419D01*
X10738097Y7440318D01*
X10779682Y7481903D01*
X10828581Y7514576D01*
X10882915Y7537082D01*
X10940595Y7548555D01*
X10999405Y7548555D01*
X11057085Y7537082D01*
X11111419Y7514576D01*
X11160318Y7481903D01*
X11201903Y7440318D01*
X11234576Y7391419D01*
X11257082Y7337085D01*
X11268555Y7279405D01*
X11268555Y7220595D01*
X11257082Y7162915D01*
X11234576Y7108581D01*
X11201903Y7059682D01*
G37*
%LPD*%
X23101903Y7059682D02*
G36*
X23060318Y7018097D01*
X23011419Y6985424D01*
X22957085Y6962918D01*
X22899405Y6951445D01*
X22840595Y6951445D01*
X22782915Y6962918D01*
X22728581Y6985424D01*
X22679682Y7018097D01*
X22638097Y7059682D01*
X22605424Y7108581D01*
X22582918Y7162915D01*
X22571445Y7220595D01*
X22571445Y7279405D01*
X22582918Y7337085D01*
X22605424Y7391419D01*
X22638097Y7440318D01*
X22679682Y7481903D01*
X22728581Y7514576D01*
X22782915Y7537082D01*
X22840595Y7548555D01*
X22899405Y7548555D01*
X22957085Y7537082D01*
X23011419Y7514576D01*
X23060318Y7481903D01*
X23101903Y7440318D01*
X23134576Y7391419D01*
X23157082Y7337085D01*
X23168555Y7279405D01*
X23168555Y7220595D01*
X23157082Y7162915D01*
X23134576Y7108581D01*
X23101903Y7059682D01*
G37*
%LPD*%
X25040789Y8060113D02*
G36*
X25003480Y8014652D01*
X24958019Y7977343D01*
X24906153Y7949620D01*
X24849875Y7932549D01*
X24791348Y7926784D01*
X24732821Y7932549D01*
X24676543Y7949620D01*
X24624677Y7977343D01*
X24579216Y8014652D01*
X24541907Y8060113D01*
X24514184Y8111979D01*
X24497113Y8168257D01*
X24491348Y8226784D01*
X24497113Y8285311D01*
X24514184Y8341589D01*
X24541907Y8393455D01*
X24579216Y8438916D01*
X24624677Y8476225D01*
X24676543Y8503948D01*
X24732821Y8521020D01*
X24791348Y8526784D01*
X24849875Y8521020D01*
X24906153Y8503948D01*
X24958019Y8476225D01*
X25003480Y8438916D01*
X25040789Y8393455D01*
X25068512Y8341589D01*
X25085584Y8285311D01*
X25091348Y8226784D01*
X25085584Y8168257D01*
X25068512Y8111979D01*
X25040789Y8060113D01*
G37*
%LPD*%
X13123565Y8036488D02*
G36*
X13081980Y7994903D01*
X13033081Y7962230D01*
X12978747Y7939724D01*
X12921067Y7928250D01*
X12862257Y7928250D01*
X12804577Y7939724D01*
X12750243Y7962230D01*
X12701344Y7994903D01*
X12659759Y8036488D01*
X12627086Y8085387D01*
X12604580Y8139721D01*
X12593107Y8197401D01*
X12593107Y8256211D01*
X12604580Y8313891D01*
X12627086Y8368225D01*
X12659759Y8417124D01*
X12701344Y8458709D01*
X12750243Y8491382D01*
X12804577Y8513888D01*
X12862257Y8525361D01*
X12921067Y8525361D01*
X12978747Y8513888D01*
X13033081Y8491382D01*
X13081980Y8458709D01*
X13123565Y8417124D01*
X13156238Y8368225D01*
X13178744Y8313891D01*
X13190217Y8256211D01*
X13190217Y8197401D01*
X13178744Y8139721D01*
X13156238Y8085387D01*
X13123565Y8036488D01*
G37*
%LPD*%
X11341175Y19755330D02*
G36*
X11299590Y19713745D01*
X11250691Y19681071D01*
X11196357Y19658566D01*
X11138677Y19647092D01*
X11079867Y19647092D01*
X11022186Y19658566D01*
X10967853Y19681071D01*
X10918954Y19713745D01*
X10877369Y19755330D01*
X10844695Y19804229D01*
X10822190Y19858562D01*
X10810716Y19916243D01*
X10810716Y19975053D01*
X10822190Y20032733D01*
X10844695Y20087067D01*
X10877369Y20135966D01*
X10918954Y20177551D01*
X10967853Y20210224D01*
X11022186Y20232730D01*
X11079867Y20244203D01*
X11138677Y20244203D01*
X11196357Y20232730D01*
X11250691Y20210224D01*
X11299590Y20177551D01*
X11341175Y20135966D01*
X11373848Y20087067D01*
X11396354Y20032733D01*
X11407827Y19975053D01*
X11407827Y19916243D01*
X11396354Y19858562D01*
X11373848Y19804229D01*
X11341175Y19755330D01*
G37*
%LPD*%
X23241806Y19779640D02*
G36*
X23204497Y19734179D01*
X23159036Y19696871D01*
X23107170Y19669148D01*
X23050892Y19652076D01*
X22992365Y19646312D01*
X22933838Y19652076D01*
X22877560Y19669148D01*
X22825694Y19696871D01*
X22780233Y19734179D01*
X22742924Y19779640D01*
X22715201Y19831506D01*
X22698129Y19887784D01*
X22692365Y19946312D01*
X22698129Y20004839D01*
X22715201Y20061117D01*
X22742924Y20112983D01*
X22780233Y20158444D01*
X22825694Y20195752D01*
X22877560Y20223475D01*
X22933838Y20240547D01*
X22992365Y20246312D01*
X23050892Y20240547D01*
X23107170Y20223475D01*
X23159036Y20195752D01*
X23204497Y20158444D01*
X23241806Y20112983D01*
X23269529Y20061117D01*
X23286601Y20004839D01*
X23292365Y19946312D01*
X23286601Y19887784D01*
X23269529Y19831506D01*
X23241806Y19779640D01*
G37*
%LPD*%
X12345878Y20259682D02*
G36*
X12304293Y20218097D01*
X12255394Y20185424D01*
X12201060Y20162918D01*
X12143380Y20151445D01*
X12084569Y20151445D01*
X12026889Y20162918D01*
X11972556Y20185424D01*
X11923657Y20218097D01*
X11882071Y20259682D01*
X11849398Y20308581D01*
X11826892Y20362915D01*
X11815419Y20420595D01*
X11815419Y20479405D01*
X11826892Y20537085D01*
X11849398Y20591419D01*
X11882071Y20640318D01*
X11923657Y20681903D01*
X11972556Y20714576D01*
X12026889Y20737082D01*
X12084569Y20748555D01*
X12143380Y20748555D01*
X12201060Y20737082D01*
X12255394Y20714576D01*
X12304293Y20681903D01*
X12345878Y20640318D01*
X12378551Y20591419D01*
X12401057Y20537085D01*
X12412530Y20479405D01*
X12412530Y20420595D01*
X12401057Y20362915D01*
X12378551Y20308581D01*
X12345878Y20259682D01*
G37*
%LPD*%
X24245878Y20259682D02*
G36*
X24204293Y20218097D01*
X24155394Y20185424D01*
X24101060Y20162918D01*
X24043380Y20151445D01*
X23984569Y20151445D01*
X23926889Y20162918D01*
X23872556Y20185424D01*
X23823657Y20218097D01*
X23782071Y20259682D01*
X23749398Y20308581D01*
X23726892Y20362915D01*
X23715419Y20420595D01*
X23715419Y20479405D01*
X23726892Y20537085D01*
X23749398Y20591419D01*
X23782071Y20640318D01*
X23823657Y20681903D01*
X23872556Y20714576D01*
X23926889Y20737082D01*
X23984569Y20748555D01*
X24043380Y20748555D01*
X24101060Y20737082D01*
X24155394Y20714576D01*
X24204293Y20681903D01*
X24245878Y20640318D01*
X24278551Y20591419D01*
X24301057Y20537085D01*
X24312530Y20479405D01*
X24312530Y20420595D01*
X24301057Y20362915D01*
X24278551Y20308581D01*
X24245878Y20259682D01*
G37*
%LPD*%
X19106903Y30434682D02*
G36*
X19065318Y30393097D01*
X19016419Y30360424D01*
X18962085Y30337918D01*
X18904405Y30326445D01*
X18845595Y30326445D01*
X18787915Y30337918D01*
X18733581Y30360424D01*
X18684682Y30393097D01*
X18643097Y30434682D01*
X18610424Y30483581D01*
X18587918Y30537915D01*
X18576445Y30595595D01*
X18576445Y30654405D01*
X18587918Y30712085D01*
X18610424Y30766419D01*
X18643097Y30815318D01*
X18684682Y30856903D01*
X18733581Y30889576D01*
X18787915Y30912082D01*
X18845595Y30923555D01*
X18904405Y30923555D01*
X18962085Y30912082D01*
X19016419Y30889576D01*
X19065318Y30856903D01*
X19106903Y30815318D01*
X19139576Y30766419D01*
X19162082Y30712085D01*
X19173555Y30654405D01*
X19173555Y30595595D01*
X19162082Y30537915D01*
X19139576Y30483581D01*
X19106903Y30434682D01*
G37*
%LPD*%
X19131903Y42409682D02*
G36*
X19090318Y42368097D01*
X19041419Y42335424D01*
X18987085Y42312918D01*
X18900000Y42300000D01*
X18812915Y42312918D01*
X18758581Y42335424D01*
X18687868Y42387868D01*
X18640567Y42450000D01*
X17500000Y42450000D01*
X17500000Y40700000D01*
X12900000Y40700000D01*
X12900000Y44500000D01*
X17500000Y44500000D01*
X17500000Y42750000D01*
X18640567Y42750000D01*
X18668097Y42790318D01*
X18709682Y42831903D01*
X18785195Y42877164D01*
X18870595Y42898555D01*
X18958527Y42894236D01*
X19041419Y42864576D01*
X19090318Y42831903D01*
X19131903Y42790318D01*
X19177164Y42714805D01*
X19198555Y42629405D01*
X19194236Y42541473D01*
X19164576Y42458581D01*
X19131903Y42409682D01*
G37*
%LPD*%
X18448042Y44027526D02*
G36*
X18406457Y43985940D01*
X18357558Y43953267D01*
X18303224Y43930761D01*
X18245544Y43919288D01*
X18186734Y43919288D01*
X18129054Y43930761D01*
X18074720Y43953267D01*
X18025821Y43985940D01*
X17984236Y44027526D01*
X17951563Y44076425D01*
X17929057Y44130758D01*
X17917584Y44188438D01*
X17917584Y44247249D01*
X17929057Y44304929D01*
X17951563Y44359263D01*
X17984236Y44408162D01*
X18025821Y44449747D01*
X18074720Y44482420D01*
X18129054Y44504926D01*
X18186734Y44516399D01*
X18245544Y44516399D01*
X18303224Y44504926D01*
X18357558Y44482420D01*
X18406457Y44449747D01*
X18448042Y44408162D01*
X18480715Y44359263D01*
X18503221Y44304929D01*
X18514694Y44247249D01*
X18514694Y44188438D01*
X18503221Y44130758D01*
X18480715Y44076425D01*
X18448042Y44027526D01*
G37*
%LPD*%
X25481903Y45259682D02*
G36*
X25440318Y45218097D01*
X25391419Y45185424D01*
X25337085Y45162918D01*
X25279405Y45151445D01*
X25220595Y45151445D01*
X25162915Y45162918D01*
X25108581Y45185424D01*
X25059682Y45218097D01*
X25018097Y45259682D01*
X24985424Y45308581D01*
X24962918Y45362915D01*
X24951445Y45420595D01*
X24951445Y45479405D01*
X24962918Y45537085D01*
X24985424Y45591419D01*
X25018097Y45640318D01*
X25059682Y45681903D01*
X25108581Y45714576D01*
X25162915Y45737082D01*
X25220595Y45748555D01*
X25279405Y45748555D01*
X25337085Y45737082D01*
X25391419Y45714576D01*
X25440318Y45681903D01*
X25481903Y45640318D01*
X25514576Y45591419D01*
X25537082Y45537085D01*
X25548555Y45479405D01*
X25548555Y45420595D01*
X25537082Y45362915D01*
X25514576Y45308581D01*
X25481903Y45259682D01*
G37*
%LPD*%
X56597781Y7062577D02*
G36*
X56556196Y7020992D01*
X56507297Y6988318D01*
X56452963Y6965813D01*
X56395283Y6954339D01*
X56336473Y6954339D01*
X56278792Y6965813D01*
X56224459Y6988318D01*
X56175560Y7020992D01*
X56133975Y7062577D01*
X56101301Y7111476D01*
X56078796Y7165809D01*
X56067322Y7223490D01*
X56067322Y7282300D01*
X56078796Y7339980D01*
X56101301Y7394314D01*
X56133975Y7443213D01*
X56175560Y7484798D01*
X56224459Y7517471D01*
X56278792Y7539977D01*
X56336473Y7551450D01*
X56395283Y7551450D01*
X56452963Y7539977D01*
X56507297Y7517471D01*
X56556196Y7484798D01*
X56597781Y7443213D01*
X56630454Y7394314D01*
X56652960Y7339980D01*
X56664433Y7282300D01*
X56664433Y7223490D01*
X56652960Y7165809D01*
X56630454Y7111476D01*
X56597781Y7062577D01*
G37*
%LPD*%
X44056903Y7925707D02*
G36*
X44015318Y7884122D01*
X43966419Y7851449D01*
X43912085Y7828943D01*
X43854405Y7817470D01*
X43795595Y7817470D01*
X43737915Y7828943D01*
X43683581Y7851449D01*
X43634682Y7884122D01*
X43593097Y7925707D01*
X43560424Y7974606D01*
X43537918Y8028940D01*
X43526445Y8086620D01*
X43526445Y8145431D01*
X43537918Y8203111D01*
X43560424Y8257444D01*
X43593097Y8306343D01*
X43634682Y8347929D01*
X43683581Y8380602D01*
X43737915Y8403108D01*
X43795595Y8414581D01*
X43854405Y8414581D01*
X43912085Y8403108D01*
X43966419Y8380602D01*
X44015318Y8347929D01*
X44056903Y8306343D01*
X44089576Y8257444D01*
X44112082Y8203111D01*
X44123555Y8145431D01*
X44123555Y8086620D01*
X44112082Y8028940D01*
X44089576Y7974606D01*
X44056903Y7925707D01*
G37*
%LPD*%
X47142654Y8066185D02*
G36*
X47105345Y8020724D01*
X47059884Y7983415D01*
X47008018Y7955692D01*
X46951740Y7938620D01*
X46893213Y7932856D01*
X46834686Y7938620D01*
X46778408Y7955692D01*
X46726542Y7983415D01*
X46681081Y8020724D01*
X46643772Y8066185D01*
X46616049Y8118051D01*
X46598977Y8174329D01*
X46593213Y8232856D01*
X46598977Y8291383D01*
X46616049Y8347661D01*
X46643772Y8399527D01*
X46681081Y8444988D01*
X46726542Y8482297D01*
X46778408Y8510020D01*
X46834686Y8527091D01*
X46893213Y8532856D01*
X46951740Y8527091D01*
X47008018Y8510020D01*
X47059884Y8482297D01*
X47105345Y8444988D01*
X47142654Y8399527D01*
X47170377Y8347661D01*
X47187448Y8291383D01*
X47193213Y8232856D01*
X47187448Y8174329D01*
X47170377Y8118051D01*
X47142654Y8066185D01*
G37*
%LPD*%
X45456903Y19759682D02*
G36*
X45415318Y19718097D01*
X45366419Y19685424D01*
X45312085Y19662918D01*
X45254405Y19651445D01*
X45195595Y19651445D01*
X45137915Y19662918D01*
X45083581Y19685424D01*
X45034682Y19718097D01*
X44993097Y19759682D01*
X44960424Y19808581D01*
X44937918Y19862915D01*
X44926445Y19920595D01*
X44926445Y19979405D01*
X44937918Y20037085D01*
X44960424Y20091419D01*
X44993097Y20140318D01*
X45034682Y20181903D01*
X45083581Y20214576D01*
X45137915Y20237082D01*
X45195595Y20248555D01*
X45254405Y20248555D01*
X45312085Y20237082D01*
X45366419Y20214576D01*
X45415318Y20181903D01*
X45456903Y20140318D01*
X45489576Y20091419D01*
X45512082Y20037085D01*
X45523555Y19979405D01*
X45523555Y19920595D01*
X45512082Y19862915D01*
X45489576Y19808581D01*
X45456903Y19759682D01*
G37*
%LPD*%
X46515878Y20259682D02*
G36*
X46474293Y20218097D01*
X46425394Y20185424D01*
X46371060Y20162918D01*
X46313380Y20151445D01*
X46254569Y20151445D01*
X46196889Y20162918D01*
X46142556Y20185424D01*
X46093657Y20218097D01*
X46052071Y20259682D01*
X46019398Y20308581D01*
X45996892Y20362915D01*
X45985419Y20420595D01*
X45985419Y20479405D01*
X45996892Y20537085D01*
X46019398Y20591419D01*
X46052071Y20640318D01*
X46093657Y20681903D01*
X46142556Y20714576D01*
X46196889Y20737082D01*
X46254569Y20748555D01*
X46313380Y20748555D01*
X46371060Y20737082D01*
X46425394Y20714576D01*
X46474293Y20681903D01*
X46515878Y20640318D01*
X46548551Y20591419D01*
X46571057Y20537085D01*
X46582530Y20479405D01*
X46582530Y20420595D01*
X46571057Y20362915D01*
X46548551Y20308581D01*
X46515878Y20259682D01*
G37*
%LPD*%
X56506903Y20659682D02*
G36*
X56465318Y20618097D01*
X56416419Y20585424D01*
X56362085Y20562918D01*
X56304405Y20551445D01*
X56245595Y20551445D01*
X56187915Y20562918D01*
X56133581Y20585424D01*
X56084682Y20618097D01*
X56043097Y20659682D01*
X56010424Y20708581D01*
X55987918Y20762915D01*
X55976445Y20820595D01*
X55976445Y20879405D01*
X55987918Y20937085D01*
X56010424Y20991419D01*
X56043097Y21040318D01*
X56084682Y21081903D01*
X56133581Y21114576D01*
X56187915Y21137082D01*
X56245595Y21148555D01*
X56304405Y21148555D01*
X56362085Y21137082D01*
X56416419Y21114576D01*
X56465318Y21081903D01*
X56506903Y21040318D01*
X56539576Y20991419D01*
X56562082Y20937085D01*
X56573555Y20879405D01*
X56573555Y20820595D01*
X56562082Y20762915D01*
X56539576Y20708581D01*
X56506903Y20659682D01*
G37*
%LPD*%
X36524037Y26822954D02*
G36*
X36482452Y26781368D01*
X36433553Y26748695D01*
X36379219Y26726189D01*
X36321539Y26714716D01*
X36262729Y26714716D01*
X36205048Y26726189D01*
X36150715Y26748695D01*
X36101816Y26781368D01*
X36060231Y26822954D01*
X36027557Y26871852D01*
X36005052Y26926186D01*
X35993578Y26983866D01*
X35993578Y27042677D01*
X36005052Y27100357D01*
X36027557Y27154691D01*
X36060231Y27203589D01*
X36101816Y27245175D01*
X36150715Y27277848D01*
X36205048Y27300354D01*
X36262729Y27311827D01*
X36321539Y27311827D01*
X36379219Y27300354D01*
X36433553Y27277848D01*
X36482452Y27245175D01*
X36524037Y27203589D01*
X36556710Y27154691D01*
X36579216Y27100357D01*
X36590689Y27042677D01*
X36590689Y26983866D01*
X36579216Y26926186D01*
X36556710Y26871852D01*
X36524037Y26822954D01*
G37*
%LPD*%
X29690045Y26862649D02*
G36*
X29652736Y26817188D01*
X29607276Y26779879D01*
X29555409Y26752156D01*
X29499132Y26735085D01*
X29440604Y26729320D01*
X29382077Y26735085D01*
X29325799Y26752156D01*
X29273933Y26779879D01*
X29228472Y26817188D01*
X29191164Y26862649D01*
X29163441Y26914515D01*
X29146369Y26970793D01*
X29140604Y27029320D01*
X29146369Y27087847D01*
X29163441Y27144125D01*
X29191164Y27195991D01*
X29228472Y27241452D01*
X29273933Y27278761D01*
X29325799Y27306484D01*
X29382077Y27323556D01*
X29440604Y27329320D01*
X29499132Y27323556D01*
X29555409Y27306484D01*
X29607276Y27278761D01*
X29652736Y27241452D01*
X29690045Y27195991D01*
X29717768Y27144125D01*
X29734840Y27087847D01*
X29740604Y27029320D01*
X29734840Y26970793D01*
X29717768Y26914515D01*
X29690045Y26862649D01*
G37*
%LPD*%
X47365878Y44484682D02*
G36*
X47324293Y44443097D01*
X47275394Y44410424D01*
X47221060Y44387918D01*
X47163380Y44376445D01*
X47104569Y44376445D01*
X47046889Y44387918D01*
X46992556Y44410424D01*
X46943657Y44443097D01*
X46902071Y44484682D01*
X46869398Y44533581D01*
X46846892Y44587915D01*
X46835419Y44645595D01*
X46835419Y44704405D01*
X46846892Y44762085D01*
X46869398Y44816419D01*
X46902071Y44865318D01*
X46943657Y44906903D01*
X46992556Y44939576D01*
X47046889Y44962082D01*
X47104569Y44973555D01*
X47163380Y44973555D01*
X47221060Y44962082D01*
X47275394Y44939576D01*
X47324293Y44906903D01*
X47365878Y44865318D01*
X47398551Y44816419D01*
X47421057Y44762085D01*
X47432530Y44704405D01*
X47432530Y44645595D01*
X47421057Y44587915D01*
X47398551Y44533581D01*
X47365878Y44484682D01*
G37*
%LPD*%
X33999441Y46558329D02*
G36*
X33962132Y46512868D01*
X33916671Y46475559D01*
X33864805Y46447836D01*
X33808527Y46430764D01*
X33750000Y46425000D01*
X33691473Y46430764D01*
X33635195Y46447836D01*
X33583329Y46475559D01*
X33537868Y46512868D01*
X33500559Y46558329D01*
X33472836Y46610195D01*
X33455764Y46666473D01*
X33450000Y46725000D01*
X33455764Y46783527D01*
X33472836Y46839805D01*
X33500559Y46891671D01*
X33537868Y46937132D01*
X33583329Y46974441D01*
X33635195Y47002164D01*
X33691473Y47019236D01*
X33750000Y47025000D01*
X33808527Y47019236D01*
X33864805Y47002164D01*
X33916671Y46974441D01*
X33962132Y46937132D01*
X33999441Y46891671D01*
X34027164Y46839805D01*
X34044236Y46783527D01*
X34050000Y46725000D01*
X34044236Y46666473D01*
X34027164Y46610195D01*
X33999441Y46558329D01*
G37*
%LPD*%
X39615977Y46793501D02*
G36*
X39574392Y46751916D01*
X39525493Y46719243D01*
X39471160Y46696737D01*
X39413479Y46685264D01*
X39354669Y46685264D01*
X39296989Y46696737D01*
X39242655Y46719243D01*
X39193756Y46751916D01*
X39152171Y46793501D01*
X39119498Y46842400D01*
X39096992Y46896734D01*
X39085519Y46954414D01*
X39085519Y47013224D01*
X39096992Y47070904D01*
X39119498Y47125238D01*
X39152171Y47174137D01*
X39193756Y47215722D01*
X39242655Y47248395D01*
X39296989Y47270901D01*
X39354669Y47282374D01*
X39413479Y47282374D01*
X39471160Y47270901D01*
X39525493Y47248395D01*
X39574392Y47215722D01*
X39615977Y47174137D01*
X39648651Y47125238D01*
X39671156Y47070904D01*
X39682630Y47013224D01*
X39682630Y46954414D01*
X39671156Y46896734D01*
X39648651Y46842400D01*
X39615977Y46793501D01*
G37*
%LPD*%
X8604482Y37380895D02*
G36*
X8236388Y37846513D01*
X8183792Y37898594D01*
X276131Y44058043D01*
X-125128Y44457463D01*
X-502272Y44991258D01*
X-786899Y45621335D01*
X-942973Y46294019D01*
X-964814Y46984225D01*
X-851583Y47665431D01*
X-607630Y48311457D01*
X-242332Y48897477D01*
X230274Y49400971D01*
X789056Y49800309D01*
X1582817Y50136007D01*
X2438620Y50269752D01*
X3301167Y50190383D01*
X4114055Y49905700D01*
X4738219Y49513745D01*
X11124221Y44551058D01*
X11592661Y44313333D01*
X11675473Y44285566D01*
X12192946Y44196041D01*
X12245326Y44196478D01*
X12600410Y44229407D01*
X12638552Y44221678D01*
X12663618Y44206562D01*
X12688252Y44176435D01*
X12700000Y44129408D01*
X12700843Y40682848D01*
X12708015Y40644324D01*
X12722566Y40607940D01*
X12760398Y40556930D01*
X12790992Y40532444D01*
X12825775Y40514397D01*
X12863410Y40503483D01*
X12898774Y40500060D01*
X17498773Y40500000D01*
X17560368Y40509439D01*
X17613086Y40535168D01*
X17656064Y40575093D01*
X17683726Y40621244D01*
X17698677Y40677968D01*
X17700000Y42150000D01*
X17707612Y42188268D01*
X17729289Y42220711D01*
X17761732Y42242388D01*
X17800000Y42250000D01*
X18512784Y42249577D01*
X18556052Y42235136D01*
X18615209Y42189236D01*
X18671988Y42155204D01*
X18763144Y42119268D01*
X18862007Y42101625D01*
X18937993Y42101625D01*
X18986659Y42107749D01*
X19055619Y42125023D01*
X19128012Y42155204D01*
X19186797Y42190649D01*
X19247312Y42240546D01*
X19293276Y42291528D01*
X19336701Y42356843D01*
X19365886Y42418973D01*
X19387944Y42491686D01*
X19399699Y42588961D01*
X19396211Y42659965D01*
X19375747Y42753289D01*
X19335491Y42845292D01*
X19280872Y42923681D01*
X19210407Y42991766D01*
X19128012Y43044796D01*
X19053289Y43075747D01*
X18986659Y43092251D01*
X18911039Y43099699D01*
X18842470Y43096511D01*
X18791686Y43087944D01*
X18718973Y43065886D01*
X18674179Y43045899D01*
X18615209Y43010764D01*
X18556052Y42964864D01*
X18512784Y42950423D01*
X17790198Y42950482D01*
X17744443Y42966853D01*
X17722699Y42986561D01*
X17707612Y43011732D01*
X17700000Y43050000D01*
X17700000Y43785844D01*
X17707456Y43823734D01*
X17728713Y43855974D01*
X17769702Y43881143D01*
X17817700Y43884265D01*
X17853672Y43870220D01*
X17907667Y43824568D01*
X17970847Y43782352D01*
X18062850Y43742096D01*
X18127062Y43726012D01*
X18178146Y43719469D01*
X18254132Y43719469D01*
X18302798Y43725593D01*
X18352995Y43737111D01*
X18417564Y43760407D01*
X18484578Y43796226D01*
X18526546Y43826077D01*
X18575593Y43870532D01*
X18609415Y43909371D01*
X18651630Y43972551D01*
X18674570Y44018661D01*
X18704620Y44111924D01*
X18715898Y44209257D01*
X18707970Y44306920D01*
X18681142Y44401160D01*
X18636444Y44488356D01*
X18575593Y44565155D01*
X18500929Y44628608D01*
X18415321Y44676275D01*
X18350630Y44699230D01*
X18256579Y44716038D01*
X18178146Y44716218D01*
X18107825Y44705787D01*
X18035111Y44683730D01*
X17972982Y44654544D01*
X17905732Y44609610D01*
X17825054Y44536757D01*
X17797941Y44525527D01*
X17768737Y44522651D01*
X17730888Y44532131D01*
X17706487Y44548435D01*
X17687870Y44571120D01*
X17656064Y44624907D01*
X17609008Y44667556D01*
X17555676Y44691985D01*
X17501226Y44699940D01*
X13976672Y44700495D01*
X13947842Y44707819D01*
X13922443Y44723300D01*
X13902720Y44745567D01*
X13890420Y44772650D01*
X13886630Y44802153D01*
X13891687Y44831465D01*
X13905141Y44857994D01*
X13925804Y44879391D01*
X15248380Y45697779D01*
X17003331Y46575341D01*
X18911518Y47358426D01*
X20456132Y47888157D01*
X22611451Y48498255D01*
X24882607Y49001459D01*
X27248051Y49391893D01*
X29663665Y49662985D01*
X32132450Y49815373D01*
X34617512Y49845901D01*
X38945804Y49605890D01*
X43123860Y48999964D01*
X45934337Y48356673D01*
X48399154Y47613120D01*
X48457123Y47601577D01*
X49219297Y47589398D01*
X49276156Y47593880D01*
X49333443Y47609757D01*
X49869159Y47820285D01*
X49928047Y47851180D01*
X50391406Y48250219D01*
X50428409Y48288317D01*
X61640122Y61995518D01*
X61863973Y62351882D01*
X61886580Y62395181D01*
X62032673Y62849371D01*
X62039559Y62897086D01*
X62129379Y64279215D01*
X62374144Y65351055D01*
X62703994Y66177413D01*
X63279786Y67248871D01*
X63526922Y68024702D01*
X63950984Y68979509D01*
X63963506Y69035834D01*
X64037606Y69628027D01*
X64039226Y69681966D01*
X64031801Y69733203D01*
X63897145Y70312462D01*
X63879422Y70366128D01*
X60974035Y77059287D01*
X60944527Y77111421D01*
X60922172Y77139616D01*
X60621728Y77473631D01*
X60583462Y77504014D01*
X60233587Y77738956D01*
X60184763Y77765660D01*
X60136155Y77782056D01*
X59402549Y77962834D01*
X59366798Y77969404D01*
X59306300Y77970905D01*
X52924810Y77447914D01*
X52179084Y77499063D01*
X52150980Y77505181D01*
X51527679Y77739261D01*
X51019717Y78106559D01*
X51000274Y78125173D01*
X50591063Y78639370D01*
X50576637Y78664064D01*
X50311695Y79318616D01*
X50242739Y79940607D01*
X50243474Y79967513D01*
X50352071Y80628256D01*
X50613213Y81198114D01*
X50627676Y81220815D01*
X51057622Y81728933D01*
X51481315Y82036289D01*
X52029686Y82264914D01*
X53826239Y82468701D01*
X54331794Y82612544D01*
X54382232Y82631988D01*
X54432146Y82662766D01*
X55024834Y83111754D01*
X55080665Y83166616D01*
X55111147Y83213953D01*
X55454584Y83873352D01*
X55477665Y83931470D01*
X55488049Y83988175D01*
X55538415Y84565552D01*
X55537903Y84624190D01*
X55527516Y84677239D01*
X55343635Y85312925D01*
X55323483Y85364566D01*
X55291470Y85415470D01*
X53138913Y88192216D01*
X52774848Y88938726D01*
X52608586Y89640101D01*
X52620703Y90638669D01*
X52872910Y91507678D01*
X53397162Y92355328D01*
X54170899Y93045127D01*
X54970193Y93435109D01*
X55817741Y93610184D01*
X56682458Y93573557D01*
X58112674Y93184477D01*
X58168375Y93174703D01*
X58220506Y93174928D01*
X58751787Y93224385D01*
X58807353Y93241053D01*
X59300836Y93443652D01*
X59349100Y93475840D01*
X59761773Y93813881D01*
X59798516Y93858775D01*
X60095465Y94304976D01*
X60118281Y94363257D01*
X60573673Y96000927D01*
X60860577Y96571542D01*
X61417659Y97159170D01*
X62084922Y97518204D01*
X62801729Y97655609D01*
X63518786Y97578398D01*
X64182554Y97296361D01*
X64741454Y96829899D01*
X65017445Y96451801D01*
X65248339Y95931455D01*
X65349888Y95422614D01*
X65346352Y94947257D01*
X63539983Y87598312D01*
X63531898Y87513021D01*
X63568817Y86701444D01*
X63578747Y86636771D01*
X63599907Y86580284D01*
X63851662Y86068180D01*
X63886286Y86013203D01*
X65646094Y83809668D01*
X66052372Y83173421D01*
X70080531Y73821262D01*
X70344123Y73455732D01*
X70379194Y73415400D01*
X70821729Y73065554D01*
X70869067Y73040737D01*
X71282087Y72869632D01*
X71329448Y72858720D01*
X71789439Y72793888D01*
X72822867Y72799273D01*
X73265838Y72885840D01*
X73321662Y72902620D01*
X73867706Y73195301D01*
X73913843Y73225886D01*
X73950841Y73261024D01*
X74363023Y73726757D01*
X74393583Y73781426D01*
X78447543Y83173295D01*
X78853906Y83809668D01*
X80613632Y86013075D01*
X80645015Y86061555D01*
X80871584Y86495571D01*
X80893090Y86548125D01*
X80998019Y87090256D01*
X80998509Y87142319D01*
X80967688Y87549465D01*
X80960047Y87598247D01*
X79150564Y94988320D01*
X79164705Y95545048D01*
X79290381Y96045802D01*
X79546046Y96553143D01*
X79867777Y96945208D01*
X80454561Y97374314D01*
X81136265Y97613641D01*
X81827167Y97647265D01*
X82527845Y97475418D01*
X83171089Y97089471D01*
X83659450Y96542507D01*
X83926054Y96002043D01*
X84381719Y94363257D01*
X84404535Y94304976D01*
X84721569Y93832140D01*
X84762910Y93791442D01*
X85175646Y93457695D01*
X85222387Y93432302D01*
X85604727Y93265733D01*
X85655151Y93248796D01*
X86180663Y93173804D01*
X86236458Y93171142D01*
X86296433Y93179784D01*
X87998949Y93599619D01*
X88546077Y93620042D01*
X89193725Y93532133D01*
X89848755Y93310901D01*
X90447334Y92966566D01*
X90969477Y92510229D01*
X91311924Y92082397D01*
X91695127Y91343916D01*
X91880783Y90640523D01*
X91919233Y89954788D01*
X91787203Y89132503D01*
X91596194Y88617980D01*
X91259284Y88040835D01*
X89250273Y85490567D01*
X89217490Y85439158D01*
X89001825Y84863737D01*
X88986776Y84807062D01*
X88982730Y84753157D01*
X88991525Y84091593D01*
X88998447Y84030747D01*
X89019501Y83967747D01*
X89330097Y83292343D01*
X89358217Y83243566D01*
X89411286Y83186027D01*
X89981202Y82708465D01*
X90029543Y82675272D01*
X90078965Y82653373D01*
X90549322Y82492859D01*
X90611155Y82478627D01*
X92507442Y82253841D01*
X93049641Y82017193D01*
X93578278Y81596364D01*
X94011779Y80970726D01*
X94227448Y80283627D01*
X94232916Y79552740D01*
X94027148Y78860421D01*
X93659605Y78291902D01*
X93211992Y77886760D01*
X92680499Y77604008D01*
X92093336Y77458034D01*
X91564954Y77448545D01*
X85252871Y77971049D01*
X84717520Y77910161D01*
X84660234Y77897809D01*
X84166685Y77681530D01*
X84115602Y77652812D01*
X83707931Y77300433D01*
X83667606Y77257911D01*
X83382011Y76800597D01*
X83360366Y76758986D01*
X81037093Y71332540D01*
X81020949Y71282961D01*
X80919790Y70846244D01*
X80916825Y70797606D01*
X80927133Y70344025D01*
X80940011Y70287019D01*
X81136833Y69695222D01*
X81169270Y69640872D01*
X81493199Y69210488D01*
X81539120Y69170445D01*
X83861123Y67520116D01*
X84691973Y66764533D01*
X85580347Y65776970D01*
X86476928Y64460475D01*
X86915480Y63580210D01*
X87415605Y62197653D01*
X87451875Y62141943D01*
X87916781Y61573667D01*
X87960513Y61530037D01*
X88007841Y61498368D01*
X88511033Y61225591D01*
X88572314Y61200365D01*
X93891269Y59645736D01*
X95075983Y58999728D01*
X95939201Y58242796D01*
X96452265Y57602944D01*
X96853063Y56922544D01*
X97326485Y55563892D01*
X97435307Y54781753D01*
X97430878Y53965346D01*
X97139219Y52560812D01*
X96699323Y51589678D01*
X96236147Y50903509D01*
X95680257Y50295680D01*
X95030554Y49766666D01*
X94279269Y49324817D01*
X93511196Y49017335D01*
X92461252Y48790720D01*
X91641981Y48754563D01*
X90213935Y48977073D01*
X78368653Y52361439D01*
X77204749Y52763991D01*
X77150615Y52771839D01*
X74787693Y52901759D01*
X72404477Y53288625D01*
X72342084Y53286695D01*
X71673193Y53197290D01*
X71611272Y53182340D01*
X71198597Y52980949D01*
X71152530Y52952905D01*
X70751902Y52593156D01*
X70719491Y52559116D01*
X59576971Y38935471D01*
X59550243Y38888775D01*
X59264188Y38268374D01*
X59245427Y38215379D01*
X59237003Y38164246D01*
X59083658Y36228649D01*
X58531565Y34499818D01*
X58519063Y34438904D01*
X58466305Y33908702D01*
X58475552Y33832170D01*
X58639174Y33182170D01*
X58657028Y33130915D01*
X59384633Y31865091D01*
X59615169Y30838450D01*
X60472429Y3328201D01*
X60346121Y2468951D01*
X60015889Y1667276D01*
X59530420Y1003452D01*
X58867844Y445977D01*
X58223592Y116229D01*
X57421537Y-90393D01*
X56697320Y-113025D01*
X55883929Y43114D01*
X55219569Y332298D01*
X54550340Y821683D01*
X54095394Y1336208D01*
X53731137Y1969289D01*
X53513714Y2624548D01*
X53426681Y3298969D01*
X52983305Y17170857D01*
X52972143Y17222106D01*
X52801826Y17772595D01*
X52775227Y17833922D01*
X52409248Y18327309D01*
X52363617Y18376158D01*
X51853323Y18718168D01*
X51793947Y18748877D01*
X51198487Y18899868D01*
X51132251Y18908878D01*
X50520366Y18851321D01*
X50463130Y18840137D01*
X50413138Y18820367D01*
X49824707Y18525664D01*
X49772211Y18492320D01*
X49730723Y18452751D01*
X49299017Y17956032D01*
X49267442Y17912521D01*
X49242383Y17859861D01*
X49045348Y17318275D01*
X49030179Y17258383D01*
X48564949Y3152926D01*
X48433008Y2418537D01*
X48179259Y1784359D01*
X47598021Y970125D01*
X46933716Y424752D01*
X46150479Y54853D01*
X45304694Y-112291D01*
X44440381Y-68109D01*
X43587076Y196990D01*
X42849885Y650354D01*
X42242278Y1272520D01*
X41965050Y1698287D01*
X41708805Y2286948D01*
X41526811Y3382667D01*
X42139829Y23450633D01*
X42130110Y23507340D01*
X41957669Y24146152D01*
X41935299Y24204554D01*
X41904541Y24253316D01*
X41500505Y24777309D01*
X41461166Y24819455D01*
X41410373Y24855940D01*
X40836339Y25185183D01*
X40787257Y25207843D01*
X40730405Y25222232D01*
X40117196Y25313487D01*
X37110418Y25045984D01*
X34614446Y24953907D01*
X32127556Y24984811D01*
X28985881Y25177905D01*
X28924937Y25168522D01*
X28280473Y25001602D01*
X28217966Y24977883D01*
X28166183Y24944454D01*
X27581604Y24477596D01*
X27524942Y24418260D01*
X27256766Y23959436D01*
X27230954Y23902143D01*
X27103148Y23296104D01*
X27096912Y23244608D01*
X26474385Y3325256D01*
X26331954Y2418270D01*
X26012390Y1661097D01*
X25500190Y971622D01*
X24828112Y420559D01*
X24179502Y99467D01*
X23377564Y-95597D01*
X22514586Y-94492D01*
X21675680Y116635D01*
X21032156Y445977D01*
X20370241Y1002939D01*
X19865115Y1701606D01*
X19544547Y2502835D01*
X19427495Y3327529D01*
X20104310Y25792961D01*
X20101132Y25847196D01*
X20086890Y25904383D01*
X19836806Y26610651D01*
X19810452Y26666471D01*
X19769823Y26719692D01*
X19309783Y27202347D01*
X19265086Y27240993D01*
X19209181Y27272342D01*
X17932320Y27820783D01*
X17881412Y27833498D01*
X17307917Y27925514D01*
X17253896Y27929340D01*
X17195531Y27922643D01*
X16547137Y27784321D01*
X16495378Y27768391D01*
X16443364Y27741079D01*
X15957385Y27423063D01*
X15917508Y27391989D01*
X15880680Y27351349D01*
X15530729Y26887836D01*
X15499984Y26837776D01*
X15480612Y26787203D01*
X15299001Y26149445D01*
X15289027Y26098186D01*
X14574388Y3325265D01*
X14430820Y2415138D01*
X14092709Y1627155D01*
X13570277Y940281D01*
X12931073Y422824D01*
X12147882Y53505D01*
X11441499Y-100158D01*
X10572458Y-88903D01*
X9742801Y130093D01*
X8986705Y546086D01*
X8381058Y1102444D01*
X7900818Y1822968D01*
X7645171Y2499158D01*
X7526730Y3368245D01*
X8384828Y30838443D01*
X8615367Y31865091D01*
X9342972Y33130915D01*
X9360826Y33182170D01*
X9524448Y33832170D01*
X9533067Y33886942D01*
X9532125Y33938044D01*
X9473978Y34479376D01*
X9056942Y35640678D01*
X8643992Y37289676D01*
X8622723Y37348418D01*
X8604482Y37380895D01*
G37*
%LPC*%
X92348375Y55778032D02*
G36*
X92346511Y55873555D01*
X92325747Y55969314D01*
X92286701Y56059183D01*
X92230872Y56139707D01*
X92160407Y56207791D01*
X92078012Y56260821D01*
X91986856Y56296758D01*
X91890440Y56314220D01*
X91792470Y56312536D01*
X91696711Y56291773D01*
X91606843Y56252726D01*
X91526319Y56196897D01*
X91458234Y56126432D01*
X91405204Y56044038D01*
X91369268Y55952881D01*
X91351806Y55856465D01*
X91353489Y55758496D01*
X91374253Y55662736D01*
X91413299Y55572868D01*
X91469128Y55492344D01*
X91539593Y55424259D01*
X91621988Y55371230D01*
X91713144Y55335293D01*
X91809560Y55317831D01*
X91907530Y55319514D01*
X92003289Y55340278D01*
X92093157Y55379325D01*
X92173681Y55435153D01*
X92241766Y55505619D01*
X92294796Y55588013D01*
X92330732Y55679170D01*
X92348375Y55778032D01*
G37*
%LPC*%
X90698375Y54462007D02*
G36*
X90696511Y54557530D01*
X90675747Y54653289D01*
X90636701Y54743157D01*
X90580872Y54823681D01*
X90510407Y54891766D01*
X90428012Y54944796D01*
X90336856Y54980732D01*
X90240440Y54998194D01*
X90142470Y54996511D01*
X90046711Y54975747D01*
X89956843Y54936701D01*
X89876319Y54880872D01*
X89808234Y54810407D01*
X89755204Y54728012D01*
X89719268Y54636856D01*
X89701806Y54540440D01*
X89703489Y54442470D01*
X89724253Y54346711D01*
X89763299Y54256843D01*
X89819128Y54176319D01*
X89889593Y54108234D01*
X89971988Y54055204D01*
X90063144Y54019268D01*
X90159560Y54001806D01*
X90257530Y54003489D01*
X90353289Y54024253D01*
X90443157Y54063299D01*
X90523681Y54119128D01*
X90591766Y54189593D01*
X90644796Y54271988D01*
X90680732Y54363144D01*
X90698375Y54462007D01*
G37*
%LPC*%
X88857349Y80337007D02*
G36*
X88855486Y80432530D01*
X88834722Y80528289D01*
X88795675Y80618157D01*
X88739847Y80698681D01*
X88669381Y80766766D01*
X88586987Y80819796D01*
X88495830Y80855732D01*
X88399415Y80873194D01*
X88301445Y80871511D01*
X88205686Y80850747D01*
X88115817Y80811701D01*
X88035293Y80755872D01*
X87967209Y80685407D01*
X87914179Y80603012D01*
X87878242Y80511856D01*
X87860780Y80415440D01*
X87862464Y80317470D01*
X87883227Y80221711D01*
X87922274Y80131843D01*
X87978103Y80051319D01*
X88048568Y79983234D01*
X88130962Y79930204D01*
X88222119Y79894268D01*
X88318535Y79876806D01*
X88416504Y79878489D01*
X88512264Y79899253D01*
X88602132Y79938299D01*
X88682656Y79994128D01*
X88750741Y80064593D01*
X88803770Y80146988D01*
X88839707Y80238144D01*
X88857349Y80337007D01*
G37*
%LPC*%
X87968375Y85447007D02*
G36*
X87966511Y85542530D01*
X87945747Y85638289D01*
X87906701Y85728157D01*
X87850872Y85808681D01*
X87780407Y85876766D01*
X87698012Y85929796D01*
X87606856Y85965732D01*
X87510440Y85983194D01*
X87412470Y85981511D01*
X87316711Y85960747D01*
X87226843Y85921701D01*
X87146319Y85865872D01*
X87078234Y85795407D01*
X87025204Y85713012D01*
X86989268Y85621856D01*
X86971806Y85525440D01*
X86973489Y85427470D01*
X86994253Y85331711D01*
X87033299Y85241843D01*
X87089128Y85161319D01*
X87159593Y85093234D01*
X87241988Y85040204D01*
X87333144Y85004268D01*
X87429560Y84986806D01*
X87527530Y84988489D01*
X87623289Y85009253D01*
X87713157Y85048299D01*
X87793681Y85104128D01*
X87861766Y85174593D01*
X87914796Y85256988D01*
X87950732Y85348144D01*
X87968375Y85447007D01*
G37*
%LPC*%
X81633867Y54061231D02*
G36*
X81632004Y54156754D01*
X81611240Y54252513D01*
X81572193Y54342381D01*
X81516365Y54422905D01*
X81445899Y54490990D01*
X81363505Y54544020D01*
X81272348Y54579956D01*
X81175933Y54597418D01*
X81077963Y54595735D01*
X80982204Y54574971D01*
X80892335Y54535925D01*
X80811812Y54480096D01*
X80743727Y54409631D01*
X80690697Y54327237D01*
X80654761Y54236080D01*
X80637298Y54139664D01*
X80638982Y54041694D01*
X80659745Y53945935D01*
X80698792Y53856067D01*
X80754621Y53775543D01*
X80825086Y53707458D01*
X80907480Y53654429D01*
X80998637Y53618492D01*
X81095053Y53601030D01*
X81193023Y53602713D01*
X81288782Y53623477D01*
X81378650Y53662524D01*
X81459174Y53718352D01*
X81527259Y53788818D01*
X81580288Y53871212D01*
X81616225Y53962368D01*
X81633867Y54061231D01*
G37*
%LPC*%
X81593375Y80857007D02*
G36*
X81591511Y80952530D01*
X81570747Y81048289D01*
X81531701Y81138157D01*
X81475872Y81218681D01*
X81405407Y81286766D01*
X81323012Y81339796D01*
X81231856Y81375732D01*
X81135440Y81393194D01*
X81037470Y81391511D01*
X80941711Y81370747D01*
X80851843Y81331701D01*
X80771319Y81275872D01*
X80703234Y81205407D01*
X80650204Y81123012D01*
X80614268Y81031856D01*
X80596806Y80935440D01*
X80598489Y80837470D01*
X80619253Y80741711D01*
X80658299Y80651843D01*
X80714128Y80571319D01*
X80784593Y80503234D01*
X80866988Y80450204D01*
X80958144Y80414268D01*
X81054560Y80396806D01*
X81152530Y80398489D01*
X81248289Y80419253D01*
X81338157Y80458299D01*
X81418681Y80514128D01*
X81486766Y80584593D01*
X81539796Y80666988D01*
X81575732Y80758144D01*
X81593375Y80857007D01*
G37*
%LPC*%
X80832794Y76842372D02*
G36*
X80830931Y76937895D01*
X80810167Y77033654D01*
X80771120Y77123522D01*
X80715292Y77204046D01*
X80644826Y77272131D01*
X80562432Y77325161D01*
X80471275Y77361097D01*
X80374860Y77378559D01*
X80276890Y77376876D01*
X80181131Y77356112D01*
X80091262Y77317066D01*
X80010739Y77261237D01*
X79942654Y77190772D01*
X79889624Y77108377D01*
X79853688Y77017221D01*
X79836225Y76920805D01*
X79837909Y76822835D01*
X79858672Y76727076D01*
X79897719Y76637208D01*
X79953548Y76556684D01*
X80024013Y76488599D01*
X80106407Y76435569D01*
X80197564Y76399633D01*
X80293980Y76382171D01*
X80391950Y76383854D01*
X80487709Y76404618D01*
X80577577Y76443664D01*
X80658101Y76499493D01*
X80726186Y76569959D01*
X80779215Y76652353D01*
X80815152Y76743509D01*
X80832794Y76842372D01*
G37*
%LPC*%
X79916817Y71255707D02*
G36*
X79914953Y71351230D01*
X79894189Y71446989D01*
X79855143Y71536857D01*
X79799314Y71617381D01*
X79728849Y71685466D01*
X79646455Y71738495D01*
X79555298Y71774432D01*
X79458882Y71791894D01*
X79360912Y71790211D01*
X79265153Y71769447D01*
X79175285Y71730400D01*
X79094761Y71674572D01*
X79026676Y71604106D01*
X78973647Y71521712D01*
X78937710Y71430556D01*
X78920248Y71334140D01*
X78921931Y71236170D01*
X78942695Y71140411D01*
X78981742Y71050543D01*
X79037570Y70970019D01*
X79108036Y70901934D01*
X79190430Y70848904D01*
X79281586Y70812968D01*
X79378002Y70795506D01*
X79475972Y70797189D01*
X79571731Y70817953D01*
X79661599Y70856999D01*
X79742123Y70912828D01*
X79810208Y70983293D01*
X79863238Y71065687D01*
X79899174Y71156844D01*
X79916817Y71255707D01*
G37*
%LPC*%
X78167266Y73484903D02*
G36*
X78165402Y73580425D01*
X78144638Y73676184D01*
X78105591Y73766053D01*
X78049763Y73846577D01*
X77979297Y73914662D01*
X77896903Y73967691D01*
X77805747Y74003628D01*
X77709331Y74021090D01*
X77611361Y74019407D01*
X77515602Y73998643D01*
X77425734Y73959596D01*
X77345210Y73903767D01*
X77277125Y73833302D01*
X77224095Y73750908D01*
X77188159Y73659751D01*
X77170697Y73563336D01*
X77172380Y73465366D01*
X77193144Y73369607D01*
X77232190Y73279738D01*
X77288019Y73199214D01*
X77358484Y73131129D01*
X77440878Y73078100D01*
X77532035Y73042163D01*
X77628451Y73024701D01*
X77726421Y73026385D01*
X77822180Y73047148D01*
X77912048Y73086195D01*
X77992572Y73142024D01*
X78060657Y73212489D01*
X78113687Y73294883D01*
X78149623Y73386040D01*
X78167266Y73484903D01*
G37*
%LPC*%
X72398375Y66062007D02*
G36*
X72396511Y66157530D01*
X72375747Y66253289D01*
X72336701Y66343157D01*
X72280872Y66423681D01*
X72210407Y66491766D01*
X72128012Y66544796D01*
X72036856Y66580732D01*
X71940440Y66598194D01*
X71842470Y66596511D01*
X71746711Y66575747D01*
X71656843Y66536701D01*
X71576319Y66480872D01*
X71508234Y66410407D01*
X71455204Y66328012D01*
X71419268Y66236856D01*
X71401806Y66140440D01*
X71403489Y66042470D01*
X71424253Y65946711D01*
X71463299Y65856843D01*
X71519128Y65776319D01*
X71589593Y65708234D01*
X71671988Y65655204D01*
X71763144Y65619268D01*
X71859560Y65601806D01*
X71957530Y65603489D01*
X72053289Y65624253D01*
X72143157Y65663299D01*
X72223681Y65719128D01*
X72291766Y65789593D01*
X72344796Y65871988D01*
X72380732Y65963144D01*
X72398375Y66062007D01*
G37*
%LPC*%
X70225062Y60165372D02*
G36*
X70144509Y60045292D01*
X70105023Y59955619D01*
X70083489Y59857530D01*
X70081625Y59762007D01*
X70099268Y59663144D01*
X70135204Y59571988D01*
X70188234Y59489593D01*
X70254461Y59420731D01*
X70336843Y59363299D01*
X70426711Y59324253D01*
X70522470Y59303489D01*
X70620440Y59301806D01*
X70716856Y59319268D01*
X70808012Y59355204D01*
X70890407Y59408234D01*
X70959269Y59474461D01*
X71001618Y59531561D01*
X71045886Y59618973D01*
X71071831Y59710923D01*
X71079759Y59808586D01*
X71071831Y59889077D01*
X71045003Y59983317D01*
X71001618Y60068439D01*
X70943515Y60146205D01*
X70930553Y60185908D01*
X70930000Y60850000D01*
X70937612Y60888268D01*
X70966561Y60927301D01*
X70991732Y60942388D01*
X71020198Y60949518D01*
X71528773Y60950000D01*
X71585676Y60958015D01*
X71626385Y60974878D01*
X71673070Y61010398D01*
X71707434Y61057940D01*
X71726517Y61113410D01*
X71730000Y61151227D01*
X71729157Y62867152D01*
X71720561Y62910368D01*
X71694832Y62963086D01*
X71658698Y63002954D01*
X71622060Y63027434D01*
X71571399Y63045561D01*
X71528773Y63050000D01*
X69628774Y63049940D01*
X69574324Y63041985D01*
X69520992Y63017556D01*
X69477046Y62978698D01*
X69452566Y62942060D01*
X69434439Y62891399D01*
X69430000Y62848773D01*
X69430000Y61151227D01*
X69438015Y61094324D01*
X69454878Y61053615D01*
X69490398Y61006930D01*
X69533615Y60974878D01*
X69588601Y60954439D01*
X69631227Y60950000D01*
X70139802Y60949518D01*
X70177140Y60938192D01*
X70207301Y60913439D01*
X70222388Y60888268D01*
X70230000Y60850000D01*
X70230000Y60196407D01*
X70225062Y60165372D01*
G37*
%LPC*%
X67689577Y66512784D02*
G36*
X67690000Y65750000D01*
X67685694Y65720972D01*
X67667301Y65686561D01*
X67637140Y65661808D01*
X67599802Y65650482D01*
X67091227Y65650000D01*
X67048601Y65645561D01*
X66993615Y65625122D01*
X66950398Y65593070D01*
X66922444Y65559008D01*
X66898015Y65505676D01*
X66890000Y65448773D01*
X66890000Y63751227D01*
X66894439Y63708601D01*
X66906274Y63671244D01*
X66937046Y63621302D01*
X66980992Y63582444D01*
X67034324Y63558015D01*
X67088774Y63550060D01*
X68988773Y63550000D01*
X69031399Y63554439D01*
X69068756Y63566274D01*
X69118698Y63597046D01*
X69154832Y63636914D01*
X69175603Y63675775D01*
X69188677Y63727968D01*
X69190000Y64694030D01*
X69201263Y64740136D01*
X69232515Y64775856D01*
X69258077Y64788798D01*
X69286261Y64793960D01*
X69314751Y64790918D01*
X69400752Y64756393D01*
X69469712Y64739120D01*
X69547785Y64731612D01*
X69643030Y64739120D01*
X69709660Y64755624D01*
X69757796Y64773934D01*
X69824810Y64809753D01*
X69880052Y64850499D01*
X69935640Y64905832D01*
X69977988Y64962932D01*
X70021374Y65048054D01*
X70044314Y65123057D01*
X70054746Y65193378D01*
X70052882Y65288901D01*
X70037757Y65365862D01*
X70013808Y65432796D01*
X69991862Y65476663D01*
X69949647Y65539843D01*
X69915825Y65578682D01*
X69866777Y65623137D01*
X69824810Y65652988D01*
X69757796Y65688808D01*
X69709660Y65707118D01*
X69643030Y65723622D01*
X69594364Y65729746D01*
X69518378Y65729746D01*
X69419515Y65712103D01*
X69373054Y65696374D01*
X69313214Y65668071D01*
X69217467Y65602061D01*
X69172164Y65589951D01*
X69135032Y65596126D01*
X69068756Y65633726D01*
X69012032Y65648677D01*
X68480198Y65650482D01*
X68451732Y65657612D01*
X68419289Y65679289D01*
X68397612Y65711732D01*
X68390000Y65750000D01*
X68390423Y66512784D01*
X68404864Y66556052D01*
X68449351Y66613203D01*
X68476701Y66656843D01*
X68515747Y66746711D01*
X68536511Y66842470D01*
X68539759Y66891414D01*
X68536511Y66957530D01*
X68527944Y67008314D01*
X68505886Y67081027D01*
X68484796Y67128012D01*
X68449351Y67186797D01*
X68401146Y67245534D01*
X68350407Y67291766D01*
X68308439Y67321618D01*
X68241425Y67357437D01*
X68148314Y67387944D01*
X68077993Y67398375D01*
X67982470Y67396511D01*
X67903144Y67380732D01*
X67814179Y67345899D01*
X67753203Y67309351D01*
X67680546Y67247312D01*
X67619695Y67170512D01*
X67581569Y67099182D01*
X67552056Y67008314D01*
X67541625Y66937993D01*
X67543489Y66842470D01*
X67558613Y66765509D01*
X67581569Y66700818D01*
X67619695Y66629488D01*
X67675136Y66556052D01*
X67689577Y66512784D01*
G37*
%LPC*%
X67685062Y60165372D02*
G36*
X67604509Y60045292D01*
X67565023Y59955619D01*
X67543489Y59857530D01*
X67541625Y59762007D01*
X67559268Y59663144D01*
X67595204Y59571988D01*
X67648234Y59489593D01*
X67714461Y59420731D01*
X67796843Y59363299D01*
X67886711Y59324253D01*
X67982470Y59303489D01*
X68080440Y59301806D01*
X68176856Y59319268D01*
X68268012Y59355204D01*
X68350407Y59408234D01*
X68419269Y59474461D01*
X68461618Y59531561D01*
X68505886Y59618973D01*
X68531831Y59710923D01*
X68539759Y59808586D01*
X68531831Y59889077D01*
X68505003Y59983317D01*
X68461618Y60068439D01*
X68403515Y60146205D01*
X68390553Y60185908D01*
X68390000Y60850000D01*
X68397612Y60888268D01*
X68426561Y60927301D01*
X68451732Y60942388D01*
X68480198Y60949518D01*
X68988773Y60950000D01*
X69045676Y60958015D01*
X69086385Y60974878D01*
X69133070Y61010398D01*
X69167434Y61057940D01*
X69186517Y61113410D01*
X69190000Y61151227D01*
X69189157Y62867152D01*
X69180561Y62910368D01*
X69154832Y62963086D01*
X69118698Y63002954D01*
X69082060Y63027434D01*
X69031399Y63045561D01*
X68988773Y63050000D01*
X67088774Y63049940D01*
X67034324Y63041985D01*
X66980992Y63017556D01*
X66937046Y62978698D01*
X66912566Y62942060D01*
X66894439Y62891399D01*
X66890000Y62848773D01*
X66890000Y61151227D01*
X66898015Y61094324D01*
X66914878Y61053615D01*
X66950398Y61006930D01*
X66993615Y60974878D01*
X67048601Y60954439D01*
X67091227Y60950000D01*
X67599802Y60949518D01*
X67637140Y60938192D01*
X67667301Y60913439D01*
X67682388Y60888268D01*
X67690000Y60850000D01*
X67690000Y60196407D01*
X67685062Y60165372D01*
G37*
%LPC*%
X68099343Y52490607D02*
G36*
X68097479Y52586130D01*
X68076715Y52681889D01*
X68037669Y52771757D01*
X67981840Y52852281D01*
X67911375Y52920366D01*
X67828980Y52973396D01*
X67737824Y53009332D01*
X67641408Y53026794D01*
X67543438Y53025111D01*
X67447679Y53004347D01*
X67357811Y52965300D01*
X67277287Y52909472D01*
X67209202Y52839006D01*
X67156172Y52756612D01*
X67120236Y52665456D01*
X67102774Y52569040D01*
X67104457Y52471070D01*
X67125221Y52375311D01*
X67164267Y52285443D01*
X67220096Y52204919D01*
X67290562Y52136834D01*
X67372956Y52083804D01*
X67464112Y52047868D01*
X67560528Y52030406D01*
X67658498Y52032089D01*
X67754257Y52052853D01*
X67844125Y52091899D01*
X67924649Y52147728D01*
X67992734Y52218193D01*
X68045764Y52300587D01*
X68081700Y52391744D01*
X68099343Y52490607D01*
G37*
%LPC*%
X67454734Y73981319D02*
G36*
X67452870Y74076842D01*
X67432106Y74172601D01*
X67393060Y74262469D01*
X67337231Y74342993D01*
X67266765Y74411078D01*
X67184371Y74464108D01*
X67093215Y74500044D01*
X66996799Y74517506D01*
X66898829Y74515823D01*
X66803070Y74495059D01*
X66713202Y74456013D01*
X66632678Y74400184D01*
X66564593Y74329719D01*
X66511563Y74247325D01*
X66475627Y74156168D01*
X66458165Y74059752D01*
X66459848Y73961782D01*
X66480612Y73866023D01*
X66519658Y73776155D01*
X66575487Y73695631D01*
X66645952Y73627546D01*
X66728347Y73574516D01*
X66819503Y73538580D01*
X66915919Y73521118D01*
X67013889Y73522801D01*
X67109648Y73543565D01*
X67199516Y73582612D01*
X67280040Y73638440D01*
X67348125Y73708906D01*
X67401155Y73791300D01*
X67437091Y73882456D01*
X67454734Y73981319D01*
G37*
%LPC*%
X64770327Y76332609D02*
G36*
X64768463Y76428132D01*
X64747699Y76523891D01*
X64708653Y76613759D01*
X64652824Y76694283D01*
X64582359Y76762368D01*
X64499964Y76815398D01*
X64408808Y76851334D01*
X64312392Y76868796D01*
X64214422Y76867113D01*
X64118663Y76846349D01*
X64028795Y76807303D01*
X63948271Y76751474D01*
X63880186Y76681009D01*
X63827156Y76598614D01*
X63791220Y76507458D01*
X63773758Y76411042D01*
X63775441Y76313072D01*
X63796205Y76217313D01*
X63835251Y76127445D01*
X63891080Y76046921D01*
X63961546Y75978836D01*
X64043940Y75925806D01*
X64135096Y75889870D01*
X64231512Y75872408D01*
X64329482Y75874091D01*
X64425241Y75894855D01*
X64515109Y75933901D01*
X64595633Y75989730D01*
X64663718Y76060195D01*
X64716748Y76142590D01*
X64752684Y76233746D01*
X64770327Y76332609D01*
G37*
%LPC*%
X64037349Y81357007D02*
G36*
X64035486Y81452530D01*
X64014722Y81548289D01*
X63975675Y81638157D01*
X63919847Y81718681D01*
X63849381Y81786766D01*
X63766987Y81839796D01*
X63675830Y81875732D01*
X63579415Y81893194D01*
X63481445Y81891511D01*
X63385686Y81870747D01*
X63295817Y81831701D01*
X63215293Y81775872D01*
X63147209Y81705407D01*
X63094179Y81623012D01*
X63058242Y81531856D01*
X63040780Y81435440D01*
X63042464Y81337470D01*
X63063227Y81241711D01*
X63102274Y81151843D01*
X63158103Y81071319D01*
X63228568Y81003234D01*
X63310962Y80950204D01*
X63402119Y80914268D01*
X63498535Y80896806D01*
X63596504Y80898489D01*
X63692264Y80919253D01*
X63782132Y80958299D01*
X63862656Y81014128D01*
X63930741Y81084593D01*
X63983770Y81166988D01*
X64019707Y81258144D01*
X64037349Y81357007D01*
G37*
%LPC*%
X63998375Y57312007D02*
G36*
X63996511Y57407530D01*
X63975747Y57503289D01*
X63936701Y57593157D01*
X63880872Y57673681D01*
X63810407Y57741766D01*
X63728012Y57794796D01*
X63636856Y57830732D01*
X63540440Y57848194D01*
X63442470Y57846511D01*
X63346711Y57825747D01*
X63256843Y57786701D01*
X63176319Y57730872D01*
X63108234Y57660407D01*
X63055204Y57578012D01*
X63019268Y57486856D01*
X63001806Y57390440D01*
X63003489Y57292470D01*
X63024253Y57196711D01*
X63063299Y57106843D01*
X63119128Y57026319D01*
X63189593Y56958234D01*
X63271988Y56905204D01*
X63363144Y56869268D01*
X63459560Y56851806D01*
X63557530Y56853489D01*
X63653289Y56874253D01*
X63743157Y56913299D01*
X63823681Y56969128D01*
X63891766Y57039593D01*
X63944796Y57121988D01*
X63980732Y57213144D01*
X63998375Y57312007D01*
G37*
%LPC*%
X62723794Y45946537D02*
G36*
X62715867Y46044201D01*
X62689038Y46138441D01*
X62644340Y46225636D01*
X62583490Y46302435D01*
X62508826Y46365888D01*
X62423217Y46413555D01*
X62329955Y46443605D01*
X62232622Y46454883D01*
X62134958Y46446955D01*
X62040718Y46420127D01*
X61953523Y46375428D01*
X61876724Y46314578D01*
X61813271Y46239914D01*
X61765604Y46154306D01*
X61735554Y46061043D01*
X61724276Y45963710D01*
X61732204Y45866047D01*
X61759032Y45771807D01*
X61803730Y45684612D01*
X61864581Y45607812D01*
X61939245Y45544359D01*
X62024853Y45496692D01*
X62118116Y45466642D01*
X62215449Y45455365D01*
X62313112Y45463292D01*
X62407352Y45490121D01*
X62494547Y45534819D01*
X62571347Y45595669D01*
X62634799Y45670333D01*
X62682467Y45755941D01*
X62712516Y45849204D01*
X62723794Y45946537D01*
G37*
%LPC*%
X58928375Y84580982D02*
G36*
X58926511Y84676504D01*
X58905747Y84772264D01*
X58866701Y84862132D01*
X58810872Y84942656D01*
X58740407Y85010741D01*
X58658012Y85063770D01*
X58566856Y85099707D01*
X58470440Y85117169D01*
X58372470Y85115486D01*
X58276711Y85094722D01*
X58186843Y85055675D01*
X58106319Y84999847D01*
X58038234Y84929381D01*
X57985204Y84846987D01*
X57949268Y84755830D01*
X57931806Y84659415D01*
X57933489Y84561445D01*
X57954253Y84465686D01*
X57993299Y84375817D01*
X58049128Y84295293D01*
X58119593Y84227209D01*
X58201988Y84174179D01*
X58293144Y84138242D01*
X58389560Y84120780D01*
X58487530Y84122464D01*
X58583289Y84143227D01*
X58673157Y84182274D01*
X58753681Y84238103D01*
X58821766Y84308568D01*
X58874796Y84390962D01*
X58910732Y84482119D01*
X58928375Y84580982D01*
G37*
%LPC*%
X57993950Y37635016D02*
G36*
X57992086Y37730539D01*
X57971323Y37826298D01*
X57932276Y37916166D01*
X57876447Y37996690D01*
X57805982Y38064775D01*
X57723588Y38117805D01*
X57632431Y38153741D01*
X57536015Y38171203D01*
X57438046Y38169520D01*
X57342287Y38148756D01*
X57252418Y38109710D01*
X57171894Y38053881D01*
X57103809Y37983416D01*
X57050780Y37901021D01*
X57014843Y37809865D01*
X56997381Y37713449D01*
X56999064Y37615479D01*
X57019828Y37519720D01*
X57058875Y37429852D01*
X57114704Y37349328D01*
X57185169Y37281243D01*
X57267563Y37228213D01*
X57358720Y37192277D01*
X57455135Y37174815D01*
X57553105Y37176498D01*
X57648864Y37197262D01*
X57738733Y37236308D01*
X57819257Y37292137D01*
X57887342Y37362603D01*
X57940371Y37444997D01*
X57976308Y37536153D01*
X57993950Y37635016D01*
G37*
%LPC*%
X56739643Y6882407D02*
G36*
X56786090Y6870081D01*
X56821425Y6837513D01*
X56833728Y6811236D01*
X56858227Y6696711D01*
X56888076Y6624179D01*
X56924623Y6563203D01*
X56986663Y6490546D01*
X57049184Y6439236D01*
X57132549Y6392563D01*
X57199484Y6368613D01*
X57295982Y6351625D01*
X57391504Y6353489D01*
X57487264Y6374253D01*
X57577132Y6413299D01*
X57657656Y6469128D01*
X57725741Y6539593D01*
X57778770Y6621988D01*
X57814707Y6713144D01*
X57832349Y6812007D01*
X57832169Y6890440D01*
X57815361Y6984491D01*
X57791412Y7051425D01*
X57755592Y7118439D01*
X57713244Y7175539D01*
X57657656Y7230872D01*
X57602414Y7271618D01*
X57533157Y7308431D01*
X57468466Y7331387D01*
X57393940Y7346211D01*
X57342561Y7349759D01*
X57274009Y7346211D01*
X57199484Y7331387D01*
X57134792Y7308431D01*
X57088682Y7285491D01*
X57015555Y7236098D01*
X56989342Y7224318D01*
X56951268Y7221039D01*
X56923426Y7228164D01*
X56898761Y7242914D01*
X56874276Y7272255D01*
X56864180Y7299162D01*
X56846610Y7389751D01*
X56823315Y7454320D01*
X56786182Y7523407D01*
X56727024Y7598429D01*
X56674350Y7646171D01*
X56609035Y7689595D01*
X56546905Y7718781D01*
X56454955Y7744726D01*
X56403871Y7751270D01*
X56327885Y7751270D01*
X56276801Y7744726D01*
X56212589Y7728642D01*
X56164452Y7710332D01*
X56097439Y7674512D01*
X56055471Y7644661D01*
X56006423Y7600206D01*
X55945573Y7523407D01*
X55900875Y7436212D01*
X55874046Y7341972D01*
X55866119Y7244309D01*
X55877396Y7146975D01*
X55907446Y7053713D01*
X55955113Y6968104D01*
X56018566Y6893440D01*
X56095366Y6832590D01*
X56182561Y6787892D01*
X56276801Y6761063D01*
X56357291Y6753136D01*
X56452537Y6760644D01*
X56521497Y6777917D01*
X56609035Y6816194D01*
X56692809Y6871643D01*
X56739643Y6882407D01*
G37*
%LPC*%
X56485609Y20367920D02*
G36*
X56510780Y20352833D01*
X56530488Y20331089D01*
X56579298Y20212327D01*
X56630818Y20131867D01*
X56678559Y20079193D01*
X56737297Y20030988D01*
X56824912Y19981908D01*
X56915780Y19952396D01*
X57013054Y19940640D01*
X57084059Y19944129D01*
X57177383Y19964592D01*
X57267251Y20003639D01*
X57347775Y20059467D01*
X57415860Y20129933D01*
X57468890Y20212327D01*
X57504826Y20303483D01*
X57522288Y20399899D01*
X57520304Y20500304D01*
X57505480Y20574830D01*
X57489980Y20621367D01*
X57468890Y20668352D01*
X57434858Y20725130D01*
X57403363Y20765878D01*
X57349633Y20819608D01*
X57267251Y20877040D01*
X57177383Y20916086D01*
X57081624Y20936850D01*
X56983654Y20938533D01*
X56851753Y20914807D01*
X56804613Y20926615D01*
X56768606Y20959250D01*
X56719796Y21078012D01*
X56685764Y21134791D01*
X56654269Y21175539D01*
X56600539Y21229269D01*
X56561797Y21259351D01*
X56518157Y21286701D01*
X56456027Y21315886D01*
X56364077Y21341831D01*
X56266414Y21349759D01*
X56169081Y21338481D01*
X56075818Y21308431D01*
X55990209Y21260764D01*
X55915546Y21197312D01*
X55854695Y21120512D01*
X55809997Y21033317D01*
X55783169Y20939077D01*
X55775241Y20841414D01*
X55786519Y20744081D01*
X55816569Y20650818D01*
X55864236Y20565209D01*
X55915546Y20502688D01*
X55990209Y20439236D01*
X56075818Y20391569D01*
X56166686Y20362056D01*
X56237007Y20351625D01*
X56332530Y20353489D01*
X56437539Y20375051D01*
X56485609Y20367920D01*
G37*
%LPC*%
X57198375Y49662007D02*
G36*
X57196511Y49757530D01*
X57175747Y49853289D01*
X57136701Y49943157D01*
X57080872Y50023681D01*
X57010407Y50091766D01*
X56928012Y50144796D01*
X56836856Y50180732D01*
X56740440Y50198194D01*
X56642470Y50196511D01*
X56546711Y50175747D01*
X56456843Y50136701D01*
X56376319Y50080872D01*
X56308234Y50010407D01*
X56255204Y49928012D01*
X56219268Y49836856D01*
X56201806Y49740440D01*
X56203489Y49642470D01*
X56224253Y49546711D01*
X56263299Y49456843D01*
X56319128Y49376319D01*
X56389593Y49308234D01*
X56471988Y49255204D01*
X56563144Y49219268D01*
X56659560Y49201806D01*
X56757530Y49203489D01*
X56853289Y49224253D01*
X56943157Y49263299D01*
X57023681Y49319128D01*
X57091766Y49389593D01*
X57144796Y49471988D01*
X57180732Y49563144D01*
X57198375Y49662007D01*
G37*
%LPC*%
X56774759Y80766414D02*
G36*
X56766831Y80864077D01*
X56740003Y80958317D01*
X56695305Y81045512D01*
X56634454Y81122312D01*
X56559791Y81185764D01*
X56474182Y81233431D01*
X56380919Y81263481D01*
X56283586Y81274759D01*
X56185923Y81266831D01*
X56091683Y81240003D01*
X56004488Y81195305D01*
X55927688Y81134454D01*
X55864236Y81059791D01*
X55816569Y80974182D01*
X55786519Y80880919D01*
X55775241Y80783586D01*
X55783169Y80685923D01*
X55809997Y80591683D01*
X55854695Y80504488D01*
X55915546Y80427688D01*
X55990209Y80364236D01*
X56075818Y80316569D01*
X56169081Y80286519D01*
X56266414Y80275241D01*
X56364077Y80283169D01*
X56458317Y80309997D01*
X56545512Y80354695D01*
X56622312Y80415546D01*
X56685764Y80490209D01*
X56733431Y80575818D01*
X56763481Y80669081D01*
X56774759Y80766414D01*
G37*
%LPC*%
X47632349Y44637007D02*
G36*
X47630486Y44732530D01*
X47609722Y44828289D01*
X47570675Y44918157D01*
X47514847Y44998681D01*
X47444381Y45066766D01*
X47361987Y45119796D01*
X47270830Y45155732D01*
X47174415Y45173194D01*
X47076445Y45171511D01*
X46980686Y45150747D01*
X46890817Y45111701D01*
X46810293Y45055872D01*
X46742209Y44985407D01*
X46689179Y44903012D01*
X46653242Y44811856D01*
X46635780Y44715440D01*
X46637464Y44617470D01*
X46658227Y44521711D01*
X46697274Y44431843D01*
X46753103Y44351319D01*
X46823568Y44283234D01*
X46905962Y44230204D01*
X46997119Y44194268D01*
X47093535Y44176806D01*
X47191504Y44178489D01*
X47287264Y44199253D01*
X47377132Y44238299D01*
X47457656Y44294128D01*
X47525741Y44364593D01*
X47578770Y44446988D01*
X47614707Y44538144D01*
X47632349Y44637007D01*
G37*
%LPC*%
X47392972Y8224269D02*
G36*
X47385044Y8321933D01*
X47358216Y8416173D01*
X47313518Y8503368D01*
X47252667Y8580167D01*
X47178003Y8643620D01*
X47092395Y8691287D01*
X46999132Y8721337D01*
X46901799Y8732615D01*
X46804136Y8724687D01*
X46709896Y8697859D01*
X46622701Y8653160D01*
X46545901Y8592310D01*
X46482449Y8517646D01*
X46434781Y8432038D01*
X46404732Y8338775D01*
X46393454Y8241442D01*
X46401381Y8143779D01*
X46428210Y8049539D01*
X46472908Y7962344D01*
X46533758Y7885544D01*
X46608422Y7822091D01*
X46694031Y7774424D01*
X46787293Y7744374D01*
X46884627Y7733097D01*
X46982290Y7741024D01*
X47076530Y7767853D01*
X47163725Y7812551D01*
X47240524Y7873401D01*
X47303977Y7948065D01*
X47351644Y8033673D01*
X47381694Y8126936D01*
X47392972Y8224269D01*
G37*
%LPC*%
X45719575Y20125258D02*
G36*
X45742818Y20156598D01*
X45776285Y20176657D01*
X45805067Y20182382D01*
X45843663Y20176657D01*
X45877130Y20156598D01*
X45960293Y20069128D01*
X46038682Y20014509D01*
X46130686Y19974253D01*
X46224009Y19953789D01*
X46295014Y19950301D01*
X46373051Y19958169D01*
X46465002Y19984114D01*
X46529267Y20014509D01*
X46607656Y20069128D01*
X46675741Y20139593D01*
X46728770Y20221988D01*
X46764707Y20313144D01*
X46782169Y20409560D01*
X46780486Y20507530D01*
X46759722Y20603289D01*
X46719466Y20695292D01*
X46664847Y20773681D01*
X46607656Y20830872D01*
X46527132Y20886701D01*
X46439593Y20924977D01*
X46370634Y20942251D01*
X46272935Y20949699D01*
X46178055Y20938481D01*
X46082549Y20907437D01*
X46013463Y20870305D01*
X45938440Y20811146D01*
X45874623Y20736797D01*
X45838076Y20675821D01*
X45803242Y20586856D01*
X45787464Y20507530D01*
X45784276Y20438961D01*
X45798880Y20322404D01*
X45796004Y20293199D01*
X45773096Y20250341D01*
X45741756Y20227098D01*
X45703907Y20217618D01*
X45656245Y20227098D01*
X45631845Y20243402D01*
X45548681Y20330872D01*
X45470292Y20385491D01*
X45378289Y20425747D01*
X45284965Y20446211D01*
X45184560Y20448194D01*
X45088144Y20430732D01*
X45025818Y20408431D01*
X44981843Y20386701D01*
X44901319Y20330872D01*
X44845731Y20275539D01*
X44804695Y20220512D01*
X44767563Y20151425D01*
X44744268Y20086856D01*
X44728789Y20009965D01*
X44725241Y19941414D01*
X44732749Y19863341D01*
X44750023Y19794381D01*
X44788299Y19706843D01*
X44844128Y19626319D01*
X44914593Y19558234D01*
X44996988Y19505204D01*
X45088144Y19469268D01*
X45184560Y19451806D01*
X45282530Y19453489D01*
X45380619Y19475023D01*
X45468157Y19513299D01*
X45548681Y19569128D01*
X45616766Y19639593D01*
X45669796Y19721988D01*
X45700747Y19796711D01*
X45721211Y19890035D01*
X45723375Y19987993D01*
X45710094Y20077596D01*
X45719575Y20125258D01*
G37*
%LPC*%
X44323375Y8078032D02*
G36*
X44321511Y8173555D01*
X44300747Y8269314D01*
X44261701Y8359183D01*
X44205872Y8439707D01*
X44135407Y8507791D01*
X44053012Y8560821D01*
X43961856Y8596758D01*
X43865440Y8614220D01*
X43767470Y8612536D01*
X43671711Y8591773D01*
X43581843Y8552726D01*
X43501319Y8496897D01*
X43433234Y8426432D01*
X43380204Y8344038D01*
X43344268Y8252881D01*
X43326806Y8156465D01*
X43328489Y8058496D01*
X43349253Y7962736D01*
X43388299Y7872868D01*
X43444128Y7792344D01*
X43514593Y7724259D01*
X43596988Y7671230D01*
X43688144Y7635293D01*
X43784560Y7617831D01*
X43882530Y7619514D01*
X43978289Y7640278D01*
X44068157Y7679325D01*
X44148681Y7735153D01*
X44216766Y7805619D01*
X44269796Y7888013D01*
X44305732Y7979170D01*
X44323375Y8078032D01*
G37*
%LPC*%
X39882449Y46945826D02*
G36*
X39880585Y47041349D01*
X39859821Y47137108D01*
X39820775Y47226976D01*
X39764946Y47307500D01*
X39694481Y47375585D01*
X39612087Y47428615D01*
X39520930Y47464551D01*
X39424514Y47482013D01*
X39326544Y47480330D01*
X39230785Y47459566D01*
X39140917Y47420520D01*
X39060393Y47364691D01*
X38992308Y47294226D01*
X38939278Y47211831D01*
X38903342Y47120675D01*
X38885880Y47024259D01*
X38887563Y46926289D01*
X38908327Y46830530D01*
X38947374Y46740662D01*
X39003202Y46660138D01*
X39073668Y46592053D01*
X39156062Y46539023D01*
X39247218Y46503087D01*
X39343634Y46485625D01*
X39441604Y46487308D01*
X39537363Y46508072D01*
X39627231Y46547118D01*
X39707755Y46602947D01*
X39775840Y46673413D01*
X39828870Y46755807D01*
X39864806Y46846963D01*
X39882449Y46945826D01*
G37*
%LPC*%
X36790509Y26975279D02*
G36*
X36788645Y27070801D01*
X36767881Y27166560D01*
X36728834Y27256429D01*
X36673006Y27336953D01*
X36602540Y27405038D01*
X36520146Y27458067D01*
X36428990Y27494004D01*
X36332574Y27511466D01*
X36234604Y27509783D01*
X36138845Y27489019D01*
X36048977Y27449972D01*
X35968453Y27394143D01*
X35900368Y27323678D01*
X35847338Y27241284D01*
X35811402Y27150127D01*
X35793940Y27053712D01*
X35795623Y26955742D01*
X35816387Y26859983D01*
X35855433Y26770114D01*
X35911262Y26689590D01*
X35981727Y26621505D01*
X36064121Y26568476D01*
X36155278Y26532539D01*
X36251694Y26515077D01*
X36349664Y26516760D01*
X36445423Y26537524D01*
X36535291Y26576571D01*
X36615815Y26632400D01*
X36683900Y26702865D01*
X36736930Y26785259D01*
X36772866Y26876416D01*
X36790509Y26975279D01*
G37*
%LPC*%
X34248375Y46687007D02*
G36*
X34246511Y46782530D01*
X34225747Y46878289D01*
X34186701Y46968157D01*
X34130872Y47048681D01*
X34060407Y47116766D01*
X33978012Y47169796D01*
X33886856Y47205732D01*
X33790440Y47223194D01*
X33692470Y47221511D01*
X33596711Y47200747D01*
X33506843Y47161701D01*
X33426319Y47105872D01*
X33358234Y47035407D01*
X33305204Y46953012D01*
X33269268Y46861856D01*
X33251806Y46765440D01*
X33253489Y46667470D01*
X33274253Y46571711D01*
X33313299Y46481843D01*
X33369128Y46401319D01*
X33439593Y46333234D01*
X33521988Y46280204D01*
X33613144Y46244268D01*
X33709560Y46226806D01*
X33807530Y46228489D01*
X33903289Y46249253D01*
X33993157Y46288299D01*
X34073681Y46344128D01*
X34141766Y46414593D01*
X34194796Y46496988D01*
X34230732Y46588144D01*
X34248375Y46687007D01*
G37*
%LPC*%
X29938979Y26991327D02*
G36*
X29937115Y27086850D01*
X29916352Y27182609D01*
X29877305Y27272478D01*
X29821476Y27353001D01*
X29751011Y27421086D01*
X29668617Y27474116D01*
X29577460Y27510052D01*
X29481044Y27527515D01*
X29383075Y27525831D01*
X29287315Y27505067D01*
X29197447Y27466021D01*
X29116923Y27410192D01*
X29048838Y27339727D01*
X28995809Y27257333D01*
X28959872Y27166176D01*
X28942410Y27069760D01*
X28944093Y26971790D01*
X28964857Y26876031D01*
X29003904Y26786163D01*
X29059733Y26705639D01*
X29130198Y26637554D01*
X29212592Y26584525D01*
X29303749Y26548588D01*
X29400164Y26531126D01*
X29498134Y26532809D01*
X29593893Y26553573D01*
X29683762Y26592620D01*
X29764286Y26648448D01*
X29832371Y26718914D01*
X29885400Y26801308D01*
X29921337Y26892464D01*
X29938979Y26991327D01*
G37*
%LPC*%
X25748375Y45412007D02*
G36*
X25746511Y45507530D01*
X25725747Y45603289D01*
X25686701Y45693157D01*
X25630872Y45773681D01*
X25560407Y45841766D01*
X25478012Y45894796D01*
X25386856Y45930732D01*
X25290440Y45948194D01*
X25192470Y45946511D01*
X25096711Y45925747D01*
X25006843Y45886701D01*
X24926319Y45830872D01*
X24858234Y45760407D01*
X24805204Y45678012D01*
X24769268Y45586856D01*
X24751806Y45490440D01*
X24753489Y45392470D01*
X24774253Y45296711D01*
X24813299Y45206843D01*
X24869128Y45126319D01*
X24939593Y45058234D01*
X25021988Y45005204D01*
X25113144Y44969268D01*
X25209560Y44951806D01*
X25307530Y44953489D01*
X25403289Y44974253D01*
X25493157Y45013299D01*
X25573681Y45069128D01*
X25641766Y45139593D01*
X25694796Y45221988D01*
X25730732Y45313144D01*
X25748375Y45412007D01*
G37*
%LPC*%
X25289723Y8188791D02*
G36*
X25287859Y8284314D01*
X25267095Y8380073D01*
X25228049Y8469942D01*
X25172220Y8550465D01*
X25101755Y8618550D01*
X25019360Y8671580D01*
X24928204Y8707516D01*
X24831788Y8724979D01*
X24733818Y8723295D01*
X24638059Y8702531D01*
X24548191Y8663485D01*
X24467667Y8607656D01*
X24399582Y8537191D01*
X24346552Y8454797D01*
X24310616Y8363640D01*
X24293154Y8267224D01*
X24294837Y8169254D01*
X24315601Y8073495D01*
X24354647Y7983627D01*
X24410476Y7903103D01*
X24480942Y7835018D01*
X24563336Y7781989D01*
X24654492Y7746052D01*
X24750908Y7728590D01*
X24848878Y7730273D01*
X24944637Y7751037D01*
X25034505Y7790084D01*
X25115029Y7845912D01*
X25183114Y7916378D01*
X25236144Y7998772D01*
X25272080Y8089928D01*
X25289723Y8188791D01*
G37*
%LPC*%
X23506570Y20316466D02*
G36*
X23488668Y20293924D01*
X23465087Y20277416D01*
X23437779Y20268309D01*
X23399507Y20268887D01*
X23364255Y20283802D01*
X23277156Y20357076D01*
X23193791Y20403749D01*
X23098285Y20434793D01*
X23003404Y20446010D01*
X22932400Y20442522D01*
X22839076Y20422059D01*
X22766544Y20392210D01*
X22705568Y20355663D01*
X22632911Y20293623D01*
X22572060Y20216824D01*
X22527362Y20129628D01*
X22500534Y20035388D01*
X22492606Y19937725D01*
X22503884Y19840392D01*
X22533934Y19747129D01*
X22583014Y19659515D01*
X22645053Y19586857D01*
X22721853Y19526007D01*
X22793183Y19487880D01*
X22884051Y19458368D01*
X22954372Y19447937D01*
X23052330Y19450101D01*
X23129221Y19465579D01*
X23218186Y19500413D01*
X23279162Y19536960D01*
X23339677Y19586857D01*
X23401716Y19659515D01*
X23437161Y19718299D01*
X23467343Y19790693D01*
X23484616Y19859652D01*
X23492124Y19937725D01*
X23486344Y20024478D01*
X23489030Y20053138D01*
X23505003Y20087923D01*
X23541253Y20118895D01*
X23587725Y20129562D01*
X23625179Y20121669D01*
X23649799Y20106754D01*
X23727178Y20040649D01*
X23788154Y20004101D01*
X23877119Y19969268D01*
X23975982Y19951625D01*
X24071504Y19953489D01*
X24167264Y19974253D01*
X24257132Y20013299D01*
X24337656Y20069128D01*
X24393244Y20124461D01*
X24434279Y20179488D01*
X24471412Y20248575D01*
X24489722Y20296711D01*
X24506226Y20363341D01*
X24513734Y20441414D01*
X24510185Y20509965D01*
X24495361Y20584491D01*
X24458770Y20678012D01*
X24405741Y20760407D01*
X24337656Y20830872D01*
X24257132Y20886701D01*
X24167264Y20925747D01*
X24071504Y20946511D01*
X23973535Y20948194D01*
X23879484Y20931387D01*
X23788154Y20895899D01*
X23727178Y20859351D01*
X23654520Y20797312D01*
X23592357Y20718439D01*
X23548972Y20633317D01*
X23525493Y20555919D01*
X23514276Y20461039D01*
X23520023Y20362209D01*
X23506570Y20316466D01*
G37*
%LPC*%
X23368375Y7212007D02*
G36*
X23366511Y7307530D01*
X23345747Y7403289D01*
X23306701Y7493157D01*
X23250872Y7573681D01*
X23180407Y7641766D01*
X23098012Y7694796D01*
X23006856Y7730732D01*
X22910440Y7748194D01*
X22812470Y7746511D01*
X22716711Y7725747D01*
X22626843Y7686701D01*
X22546319Y7630872D01*
X22478234Y7560407D01*
X22425204Y7478012D01*
X22389268Y7386856D01*
X22371806Y7290440D01*
X22373489Y7192470D01*
X22394253Y7096711D01*
X22433299Y7006843D01*
X22489128Y6926319D01*
X22559593Y6858234D01*
X22641988Y6805204D01*
X22733144Y6769268D01*
X22829560Y6751806D01*
X22927530Y6753489D01*
X23023289Y6774253D01*
X23113157Y6813299D01*
X23193681Y6869128D01*
X23261766Y6939593D01*
X23314796Y7021988D01*
X23350732Y7113144D01*
X23368375Y7212007D01*
G37*
%LPC*%
X19373375Y30587007D02*
G36*
X19371511Y30682530D01*
X19350747Y30778289D01*
X19311701Y30868157D01*
X19255872Y30948681D01*
X19185407Y31016766D01*
X19103012Y31069796D01*
X19011856Y31105732D01*
X18915440Y31123194D01*
X18817470Y31121511D01*
X18721711Y31100747D01*
X18631843Y31061701D01*
X18551319Y31005872D01*
X18483234Y30935407D01*
X18430204Y30853012D01*
X18394268Y30761856D01*
X18376806Y30665440D01*
X18378489Y30567470D01*
X18399253Y30471711D01*
X18438299Y30381843D01*
X18494128Y30301319D01*
X18564593Y30233234D01*
X18646988Y30180204D01*
X18738144Y30144268D01*
X18834560Y30126806D01*
X18932530Y30128489D01*
X19028289Y30149253D01*
X19118157Y30188299D01*
X19198681Y30244128D01*
X19266766Y30314593D01*
X19319796Y30396988D01*
X19355732Y30488144D01*
X19373375Y30587007D01*
G37*
%LPC*%
X13390037Y8188813D02*
G36*
X13388173Y8284336D01*
X13367409Y8380095D01*
X13328363Y8469963D01*
X13272534Y8550487D01*
X13202068Y8618572D01*
X13119674Y8671602D01*
X13028518Y8707538D01*
X12932102Y8725000D01*
X12834132Y8723317D01*
X12738373Y8702553D01*
X12648505Y8663507D01*
X12567981Y8607678D01*
X12499896Y8537212D01*
X12446866Y8454818D01*
X12410930Y8363662D01*
X12393468Y8267246D01*
X12395151Y8169276D01*
X12415915Y8073517D01*
X12454961Y7983649D01*
X12510790Y7903125D01*
X12581255Y7835040D01*
X12663650Y7782010D01*
X12754806Y7746074D01*
X12851222Y7728612D01*
X12949192Y7730295D01*
X13044951Y7751059D01*
X13134819Y7790105D01*
X13215343Y7845934D01*
X13283428Y7916399D01*
X13336458Y7998794D01*
X13372394Y8089950D01*
X13390037Y8188813D01*
G37*
%LPC*%
X11601646Y20330304D02*
G36*
X11582689Y20308672D01*
X11549391Y20289852D01*
X11521081Y20284768D01*
X11492495Y20287953D01*
X11458016Y20304509D01*
X11377711Y20367265D01*
X11308454Y20404079D01*
X11215191Y20434129D01*
X11117858Y20445407D01*
X11022612Y20437899D01*
X10953653Y20420625D01*
X10866114Y20382348D01*
X10798865Y20337414D01*
X10728400Y20269329D01*
X10672571Y20188805D01*
X10633524Y20098937D01*
X10612761Y20003178D01*
X10611077Y19905208D01*
X10628540Y19808792D01*
X10664476Y19717635D01*
X10717506Y19635241D01*
X10783733Y19566379D01*
X10840833Y19524030D01*
X10925955Y19480645D01*
X11003352Y19457167D01*
X11098232Y19445949D01*
X11169237Y19449437D01*
X11246127Y19464916D01*
X11335092Y19499749D01*
X11396068Y19536296D01*
X11456583Y19586193D01*
X11502547Y19637176D01*
X11545972Y19702491D01*
X11584249Y19790029D01*
X11601103Y19856571D01*
X11608971Y19934608D01*
X11605503Y20010739D01*
X11609583Y20039211D01*
X11627214Y20073153D01*
X11656298Y20097992D01*
X11702165Y20110880D01*
X11739930Y20104822D01*
X11765230Y20091139D01*
X11843463Y20029695D01*
X11914792Y19991569D01*
X12008055Y19961519D01*
X12102935Y19950301D01*
X12200634Y19957749D01*
X12269593Y19975023D01*
X12357132Y20013299D01*
X12437656Y20069128D01*
X12475121Y20104466D01*
X12524739Y20165209D01*
X12559874Y20224179D01*
X12588952Y20294381D01*
X12606226Y20363341D01*
X12613673Y20438961D01*
X12612169Y20490440D01*
X12601918Y20558314D01*
X12572406Y20649182D01*
X12524739Y20734791D01*
X12461286Y20809454D01*
X12384487Y20870305D01*
X12297291Y20915003D01*
X12203051Y20941831D01*
X12105388Y20949759D01*
X12005661Y20937944D01*
X11914792Y20908431D01*
X11829184Y20860764D01*
X11754520Y20797312D01*
X11693670Y20720512D01*
X11655543Y20649182D01*
X11626031Y20558314D01*
X11614276Y20461039D01*
X11617300Y20375302D01*
X11601646Y20330304D01*
G37*
%LPC*%
X11469759Y7241414D02*
G36*
X11461831Y7339077D01*
X11435003Y7433317D01*
X11390305Y7520512D01*
X11329454Y7597312D01*
X11254791Y7660764D01*
X11169182Y7708431D01*
X11075919Y7738481D01*
X10978586Y7749759D01*
X10880923Y7741831D01*
X10786683Y7715003D01*
X10699488Y7670305D01*
X10622688Y7609454D01*
X10559236Y7534791D01*
X10511569Y7449182D01*
X10481519Y7355919D01*
X10470241Y7258586D01*
X10478169Y7160923D01*
X10504997Y7066683D01*
X10549695Y6979488D01*
X10610546Y6902688D01*
X10685209Y6839236D01*
X10770818Y6791569D01*
X10864081Y6761519D01*
X10961414Y6750241D01*
X11059077Y6758169D01*
X11153317Y6784997D01*
X11240512Y6829695D01*
X11317312Y6890546D01*
X11380764Y6965209D01*
X11428431Y7050818D01*
X11458481Y7144081D01*
X11469759Y7241414D01*
G37*
%LPD*%
X56524441Y80608329D02*
G36*
X56487132Y80562868D01*
X56441671Y80525559D01*
X56389805Y80497836D01*
X56333527Y80480764D01*
X56275000Y80475000D01*
X56216473Y80480764D01*
X56160195Y80497836D01*
X56108329Y80525559D01*
X56062868Y80562868D01*
X56025559Y80608329D01*
X55997836Y80660195D01*
X55980764Y80716473D01*
X55975000Y80775000D01*
X55980764Y80833527D01*
X55997836Y80889805D01*
X56025559Y80941671D01*
X56062868Y80987132D01*
X56108329Y81024441D01*
X56160195Y81052164D01*
X56216473Y81069236D01*
X56275000Y81075000D01*
X56333527Y81069236D01*
X56389805Y81052164D01*
X56441671Y81024441D01*
X56487132Y80987132D01*
X56524441Y80941671D01*
X56552164Y80889805D01*
X56569236Y80833527D01*
X56575000Y80775000D01*
X56569236Y80716473D01*
X56552164Y80660195D01*
X56524441Y80608329D01*
G37*
%LPD*%
X57565878Y6659682D02*
G36*
X57524293Y6618097D01*
X57475394Y6585424D01*
X57421060Y6562918D01*
X57363380Y6551445D01*
X57304569Y6551445D01*
X57246889Y6562918D01*
X57192556Y6585424D01*
X57143657Y6618097D01*
X57102071Y6659682D01*
X57069398Y6708581D01*
X57046892Y6762915D01*
X57035419Y6820595D01*
X57035419Y6879405D01*
X57046892Y6937085D01*
X57069398Y6991419D01*
X57102071Y7040318D01*
X57143657Y7081903D01*
X57192556Y7114576D01*
X57246889Y7137082D01*
X57304569Y7148555D01*
X57363380Y7148555D01*
X57421060Y7137082D01*
X57475394Y7114576D01*
X57524293Y7081903D01*
X57565878Y7040318D01*
X57598551Y6991419D01*
X57621057Y6937085D01*
X57632530Y6879405D01*
X57632530Y6820595D01*
X57621057Y6762915D01*
X57598551Y6708581D01*
X57565878Y6659682D01*
G37*
%LPD*%
X57273535Y20273668D02*
G36*
X57236226Y20228207D01*
X57190765Y20190898D01*
X57138899Y20163175D01*
X57082621Y20146104D01*
X57024094Y20140339D01*
X56965567Y20146104D01*
X56909289Y20163175D01*
X56857423Y20190898D01*
X56811962Y20228207D01*
X56774653Y20273668D01*
X56746930Y20325534D01*
X56729858Y20381812D01*
X56724094Y20440339D01*
X56729858Y20498866D01*
X56746930Y20555144D01*
X56774653Y20607010D01*
X56811962Y20652471D01*
X56857423Y20689780D01*
X56909289Y20717503D01*
X56965567Y20734575D01*
X57024094Y20740339D01*
X57082621Y20734575D01*
X57138899Y20717503D01*
X57190765Y20689780D01*
X57236226Y20652471D01*
X57273535Y20607010D01*
X57301258Y20555144D01*
X57318329Y20498866D01*
X57324094Y20440339D01*
X57318329Y20381812D01*
X57301258Y20325534D01*
X57273535Y20273668D01*
G37*
%LPD*%
X57745016Y37506338D02*
G36*
X57707708Y37460877D01*
X57662247Y37423568D01*
X57610381Y37395845D01*
X57554103Y37378773D01*
X57495575Y37373009D01*
X57437048Y37378773D01*
X57380770Y37395845D01*
X57328904Y37423568D01*
X57283443Y37460877D01*
X57246135Y37506338D01*
X57218412Y37558204D01*
X57201340Y37614482D01*
X57195575Y37673009D01*
X57201340Y37731536D01*
X57218412Y37787814D01*
X57246135Y37839680D01*
X57283443Y37885141D01*
X57328904Y37922450D01*
X57380770Y37950173D01*
X57437048Y37967245D01*
X57495575Y37973009D01*
X57554103Y37967245D01*
X57610381Y37950173D01*
X57662247Y37922450D01*
X57707708Y37885141D01*
X57745016Y37839680D01*
X57772739Y37787814D01*
X57789811Y37731536D01*
X57795575Y37673009D01*
X57789811Y37614482D01*
X57772739Y37558204D01*
X57745016Y37506338D01*
G37*
%LPD*%
X62455938Y45764806D02*
G36*
X62414353Y45723221D01*
X62365454Y45690547D01*
X62311121Y45668042D01*
X62253440Y45656568D01*
X62194630Y45656568D01*
X62136950Y45668042D01*
X62082616Y45690547D01*
X62033717Y45723221D01*
X61992132Y45764806D01*
X61959459Y45813705D01*
X61936953Y45868038D01*
X61925480Y45925719D01*
X61925480Y45984529D01*
X61936953Y46042209D01*
X61959459Y46096543D01*
X61992132Y46145442D01*
X62033717Y46187027D01*
X62082616Y46219700D01*
X62136950Y46242206D01*
X62194630Y46253679D01*
X62253440Y46253679D01*
X62311121Y46242206D01*
X62365454Y46219700D01*
X62414353Y46187027D01*
X62455938Y46145442D01*
X62488612Y46096543D01*
X62511117Y46042209D01*
X62522591Y45984529D01*
X62522591Y45925719D01*
X62511117Y45868038D01*
X62488612Y45813705D01*
X62455938Y45764806D01*
G37*
%LPD*%
X56931903Y49509682D02*
G36*
X56890318Y49468097D01*
X56841419Y49435424D01*
X56787085Y49412918D01*
X56729405Y49401445D01*
X56670595Y49401445D01*
X56612915Y49412918D01*
X56558581Y49435424D01*
X56509682Y49468097D01*
X56468097Y49509682D01*
X56435424Y49558581D01*
X56412918Y49612915D01*
X56401445Y49670595D01*
X56401445Y49729405D01*
X56412918Y49787085D01*
X56435424Y49841419D01*
X56468097Y49890318D01*
X56509682Y49931903D01*
X56558581Y49964576D01*
X56612915Y49987082D01*
X56670595Y49998555D01*
X56729405Y49998555D01*
X56787085Y49987082D01*
X56841419Y49964576D01*
X56890318Y49931903D01*
X56931903Y49890318D01*
X56964576Y49841419D01*
X56987082Y49787085D01*
X56998555Y49729405D01*
X56998555Y49670595D01*
X56987082Y49612915D01*
X56964576Y49558581D01*
X56931903Y49509682D01*
G37*
%LPD*%
X67832871Y52338282D02*
G36*
X67791286Y52296697D01*
X67742387Y52264023D01*
X67688053Y52241518D01*
X67630373Y52230044D01*
X67571563Y52230044D01*
X67513883Y52241518D01*
X67459549Y52264023D01*
X67410650Y52296697D01*
X67369065Y52338282D01*
X67336392Y52387181D01*
X67313886Y52441514D01*
X67302413Y52499195D01*
X67302413Y52558005D01*
X67313886Y52615685D01*
X67336392Y52670019D01*
X67369065Y52718918D01*
X67410650Y52760503D01*
X67459549Y52793176D01*
X67513883Y52815682D01*
X67571563Y52827155D01*
X67630373Y52827155D01*
X67688053Y52815682D01*
X67742387Y52793176D01*
X67791286Y52760503D01*
X67832871Y52718918D01*
X67865544Y52670019D01*
X67888050Y52615685D01*
X67899524Y52558005D01*
X67899524Y52499195D01*
X67888050Y52441514D01*
X67865544Y52387181D01*
X67832871Y52338282D01*
G37*
%LPD*%
X63731903Y57159682D02*
G36*
X63690318Y57118097D01*
X63641419Y57085424D01*
X63587085Y57062918D01*
X63529405Y57051445D01*
X63470595Y57051445D01*
X63412915Y57062918D01*
X63358581Y57085424D01*
X63309682Y57118097D01*
X63268097Y57159682D01*
X63235424Y57208581D01*
X63212918Y57262915D01*
X63201445Y57320595D01*
X63201445Y57379405D01*
X63212918Y57437085D01*
X63235424Y57491419D01*
X63268097Y57540318D01*
X63309682Y57581903D01*
X63358581Y57614576D01*
X63412915Y57637082D01*
X63470595Y57648555D01*
X63529405Y57648555D01*
X63587085Y57637082D01*
X63641419Y57614576D01*
X63690318Y57581903D01*
X63731903Y57540318D01*
X63764576Y57491419D01*
X63787082Y57437085D01*
X63798555Y57379405D01*
X63798555Y57320595D01*
X63787082Y57262915D01*
X63764576Y57208581D01*
X63731903Y57159682D01*
G37*
%LPD*%
X68289441Y59633329D02*
G36*
X68230318Y59568097D01*
X68154805Y59522836D01*
X68069405Y59501445D01*
X68010595Y59501445D01*
X67925195Y59522836D01*
X67849682Y59568097D01*
X67790559Y59633329D01*
X67752918Y59712915D01*
X67740000Y59800000D01*
X67745764Y59858527D01*
X67762836Y59914805D01*
X67808097Y59990318D01*
X67849682Y60031903D01*
X67890000Y60059433D01*
X67890000Y61150000D01*
X67090000Y61150000D01*
X67090000Y62850000D01*
X68990000Y62850000D01*
X68990000Y61150000D01*
X68190000Y61150000D01*
X68190000Y60059433D01*
X68252132Y60012132D01*
X68289441Y59966671D01*
X68317164Y59914805D01*
X68334236Y59858527D01*
X68340000Y59800000D01*
X68334236Y59741473D01*
X68317164Y59685195D01*
X68289441Y59633329D01*
G37*
%LPD*%
X67890000Y66640567D02*
G36*
X67827868Y66687868D01*
X67790559Y66733329D01*
X67762836Y66785195D01*
X67745764Y66841473D01*
X67740000Y66900000D01*
X67745764Y66958527D01*
X67762836Y67014805D01*
X67790559Y67066671D01*
X67827868Y67112132D01*
X67873329Y67149441D01*
X67925195Y67177164D01*
X67981473Y67194236D01*
X68040000Y67200000D01*
X68098527Y67194236D01*
X68154805Y67177164D01*
X68206671Y67149441D01*
X68271903Y67090318D01*
X68304576Y67041419D01*
X68334236Y66958527D01*
X68340000Y66900000D01*
X68334236Y66841473D01*
X68304576Y66758581D01*
X68252132Y66687868D01*
X68190000Y66640567D01*
X68190000Y65450000D01*
X68990000Y65450000D01*
X68990000Y63750000D01*
X67090000Y63750000D01*
X67090000Y65450000D01*
X67890000Y65450000D01*
X67890000Y66640567D01*
G37*
%LPD*%
X67188262Y73828994D02*
G36*
X67146677Y73787409D01*
X67097778Y73754736D01*
X67043444Y73732230D01*
X66985764Y73720757D01*
X66926954Y73720757D01*
X66869273Y73732230D01*
X66814940Y73754736D01*
X66766041Y73787409D01*
X66724456Y73828994D01*
X66691783Y73877893D01*
X66669277Y73932227D01*
X66657803Y73989907D01*
X66657803Y74048717D01*
X66669277Y74106398D01*
X66691783Y74160731D01*
X66724456Y74209630D01*
X66766041Y74251215D01*
X66814940Y74283889D01*
X66869273Y74306394D01*
X66926954Y74317868D01*
X66985764Y74317868D01*
X67043444Y74306394D01*
X67097778Y74283889D01*
X67146677Y74251215D01*
X67188262Y74209630D01*
X67220935Y74160731D01*
X67243441Y74106398D01*
X67254914Y74048717D01*
X67254914Y73989907D01*
X67243441Y73932227D01*
X67220935Y73877893D01*
X67188262Y73828994D01*
G37*
%LPD*%
X64503855Y76180284D02*
G36*
X64462270Y76138699D01*
X64413371Y76106026D01*
X64359038Y76083520D01*
X64301357Y76072047D01*
X64242547Y76072047D01*
X64184867Y76083520D01*
X64130533Y76106026D01*
X64081634Y76138699D01*
X64040049Y76180284D01*
X64007376Y76229183D01*
X63984870Y76283517D01*
X63973397Y76341197D01*
X63973397Y76400007D01*
X63984870Y76457687D01*
X64007376Y76512021D01*
X64040049Y76560920D01*
X64081634Y76602505D01*
X64130533Y76635178D01*
X64184867Y76657684D01*
X64242547Y76669157D01*
X64301357Y76669157D01*
X64359038Y76657684D01*
X64413371Y76635178D01*
X64462270Y76602505D01*
X64503855Y76560920D01*
X64536528Y76512021D01*
X64559034Y76457687D01*
X64570508Y76400007D01*
X64570508Y76341197D01*
X64559034Y76283517D01*
X64536528Y76229183D01*
X64503855Y76180284D01*
G37*
%LPD*%
X63770878Y81204682D02*
G36*
X63729293Y81163097D01*
X63680394Y81130424D01*
X63626060Y81107918D01*
X63568380Y81096445D01*
X63509569Y81096445D01*
X63451889Y81107918D01*
X63397556Y81130424D01*
X63348657Y81163097D01*
X63307071Y81204682D01*
X63274398Y81253581D01*
X63251892Y81307915D01*
X63240419Y81365595D01*
X63240419Y81424405D01*
X63251892Y81482085D01*
X63274398Y81536419D01*
X63307071Y81585318D01*
X63348657Y81626903D01*
X63397556Y81659576D01*
X63451889Y81682082D01*
X63509569Y81693555D01*
X63568380Y81693555D01*
X63626060Y81682082D01*
X63680394Y81659576D01*
X63729293Y81626903D01*
X63770878Y81585318D01*
X63803551Y81536419D01*
X63826057Y81482085D01*
X63837530Y81424405D01*
X63837530Y81365595D01*
X63826057Y81307915D01*
X63803551Y81253581D01*
X63770878Y81204682D01*
G37*
%LPD*%
X58661903Y84428657D02*
G36*
X58620318Y84387071D01*
X58571419Y84354398D01*
X58517085Y84331892D01*
X58459405Y84320419D01*
X58400595Y84320419D01*
X58342915Y84331892D01*
X58288581Y84354398D01*
X58239682Y84387071D01*
X58198097Y84428657D01*
X58165424Y84477556D01*
X58142918Y84531889D01*
X58131445Y84589569D01*
X58131445Y84648380D01*
X58142918Y84706060D01*
X58165424Y84760394D01*
X58198097Y84809293D01*
X58239682Y84850878D01*
X58288581Y84883551D01*
X58342915Y84906057D01*
X58400595Y84917530D01*
X58459405Y84917530D01*
X58517085Y84906057D01*
X58571419Y84883551D01*
X58620318Y84850878D01*
X58661903Y84809293D01*
X58694576Y84760394D01*
X58717082Y84706060D01*
X58728555Y84648380D01*
X58728555Y84589569D01*
X58717082Y84531889D01*
X58694576Y84477556D01*
X58661903Y84428657D01*
G37*
%LPD*%
X81367396Y53908906D02*
G36*
X81325811Y53867321D01*
X81276912Y53834648D01*
X81222578Y53812142D01*
X81164898Y53800669D01*
X81106087Y53800669D01*
X81048407Y53812142D01*
X80994074Y53834648D01*
X80945175Y53867321D01*
X80903590Y53908906D01*
X80870916Y53957805D01*
X80848411Y54012139D01*
X80836937Y54069819D01*
X80836937Y54128629D01*
X80848411Y54186310D01*
X80870916Y54240643D01*
X80903590Y54289542D01*
X80945175Y54331127D01*
X80994074Y54363801D01*
X81048407Y54386306D01*
X81106087Y54397780D01*
X81164898Y54397780D01*
X81222578Y54386306D01*
X81276912Y54363801D01*
X81325811Y54331127D01*
X81367396Y54289542D01*
X81400069Y54240643D01*
X81422575Y54186310D01*
X81434048Y54128629D01*
X81434048Y54069819D01*
X81422575Y54012139D01*
X81400069Y53957805D01*
X81367396Y53908906D01*
G37*
%LPD*%
X90431903Y54309682D02*
G36*
X90390318Y54268097D01*
X90341419Y54235424D01*
X90287085Y54212918D01*
X90229405Y54201445D01*
X90170595Y54201445D01*
X90112915Y54212918D01*
X90058581Y54235424D01*
X90009682Y54268097D01*
X89968097Y54309682D01*
X89935424Y54358581D01*
X89912918Y54412915D01*
X89901445Y54470595D01*
X89901445Y54529405D01*
X89912918Y54587085D01*
X89935424Y54641419D01*
X89968097Y54690318D01*
X90009682Y54731903D01*
X90058581Y54764576D01*
X90112915Y54787082D01*
X90170595Y54798555D01*
X90229405Y54798555D01*
X90287085Y54787082D01*
X90341419Y54764576D01*
X90390318Y54731903D01*
X90431903Y54690318D01*
X90464576Y54641419D01*
X90487082Y54587085D01*
X90498555Y54529405D01*
X90498555Y54470595D01*
X90487082Y54412915D01*
X90464576Y54358581D01*
X90431903Y54309682D01*
G37*
%LPD*%
X92099441Y55649354D02*
G36*
X92062132Y55603893D01*
X92016671Y55566585D01*
X91964805Y55538862D01*
X91908527Y55521790D01*
X91850000Y55516025D01*
X91791473Y55521790D01*
X91735195Y55538862D01*
X91683329Y55566585D01*
X91637868Y55603893D01*
X91600559Y55649354D01*
X91572836Y55701220D01*
X91555764Y55757498D01*
X91550000Y55816025D01*
X91555764Y55874553D01*
X91572836Y55930830D01*
X91600559Y55982696D01*
X91637868Y56028157D01*
X91683329Y56065466D01*
X91735195Y56093189D01*
X91791473Y56110261D01*
X91850000Y56116025D01*
X91908527Y56110261D01*
X91964805Y56093189D01*
X92016671Y56065466D01*
X92062132Y56028157D01*
X92099441Y55982696D01*
X92127164Y55930830D01*
X92144236Y55874553D01*
X92150000Y55816025D01*
X92144236Y55757498D01*
X92127164Y55701220D01*
X92099441Y55649354D01*
G37*
%LPD*%
X70811903Y59609682D02*
G36*
X70746671Y59550559D01*
X70667085Y59512918D01*
X70580000Y59500000D01*
X70492915Y59512918D01*
X70413329Y59550559D01*
X70348097Y59609682D01*
X70302836Y59685195D01*
X70285764Y59741473D01*
X70281445Y59829405D01*
X70302836Y59914805D01*
X70348097Y59990318D01*
X70389682Y60031903D01*
X70430000Y60059433D01*
X70430000Y61150000D01*
X69630000Y61150000D01*
X69630000Y62850000D01*
X71530000Y62850000D01*
X71530000Y61150000D01*
X70730000Y61150000D01*
X70730000Y60059433D01*
X70792132Y60012132D01*
X70829441Y59966671D01*
X70857164Y59914805D01*
X70878555Y59829405D01*
X70878555Y59770595D01*
X70867082Y59712915D01*
X70844576Y59658581D01*
X70811903Y59609682D01*
G37*
%LPD*%
X69788274Y65041053D02*
G36*
X69746689Y64999468D01*
X69697790Y64966794D01*
X69643456Y64944289D01*
X69585776Y64932815D01*
X69526966Y64932815D01*
X69469285Y64944289D01*
X69414952Y64966794D01*
X69366053Y64999468D01*
X69324468Y65041053D01*
X69291794Y65089952D01*
X69269289Y65144285D01*
X69257815Y65201966D01*
X69257815Y65260776D01*
X69269289Y65318456D01*
X69291794Y65372790D01*
X69324468Y65421689D01*
X69366053Y65463274D01*
X69414952Y65495947D01*
X69469285Y65518453D01*
X69526966Y65529926D01*
X69585776Y65529926D01*
X69643456Y65518453D01*
X69697790Y65495947D01*
X69746689Y65463274D01*
X69788274Y65421689D01*
X69820947Y65372790D01*
X69843453Y65318456D01*
X69854926Y65260776D01*
X69854926Y65201966D01*
X69843453Y65144285D01*
X69820947Y65089952D01*
X69788274Y65041053D01*
G37*
%LPD*%
X72131903Y65909682D02*
G36*
X72090318Y65868097D01*
X72041419Y65835424D01*
X71987085Y65812918D01*
X71929405Y65801445D01*
X71870595Y65801445D01*
X71812915Y65812918D01*
X71758581Y65835424D01*
X71709682Y65868097D01*
X71668097Y65909682D01*
X71635424Y65958581D01*
X71612918Y66012915D01*
X71601445Y66070595D01*
X71601445Y66129405D01*
X71612918Y66187085D01*
X71635424Y66241419D01*
X71668097Y66290318D01*
X71709682Y66331903D01*
X71758581Y66364576D01*
X71812915Y66387082D01*
X71870595Y66398555D01*
X71929405Y66398555D01*
X71987085Y66387082D01*
X72041419Y66364576D01*
X72090318Y66331903D01*
X72131903Y66290318D01*
X72164576Y66241419D01*
X72187082Y66187085D01*
X72198555Y66129405D01*
X72198555Y66070595D01*
X72187082Y66012915D01*
X72164576Y65958581D01*
X72131903Y65909682D01*
G37*
%LPD*%
X79650345Y71103382D02*
G36*
X79608760Y71061797D01*
X79559861Y71029123D01*
X79505528Y71006618D01*
X79447847Y70995144D01*
X79389037Y70995144D01*
X79331357Y71006618D01*
X79277023Y71029123D01*
X79228124Y71061797D01*
X79186539Y71103382D01*
X79153866Y71152281D01*
X79131360Y71206614D01*
X79119887Y71264295D01*
X79119887Y71323105D01*
X79131360Y71380785D01*
X79153866Y71435119D01*
X79186539Y71484018D01*
X79228124Y71525603D01*
X79277023Y71558276D01*
X79331357Y71580782D01*
X79389037Y71592255D01*
X79447847Y71592255D01*
X79505528Y71580782D01*
X79559861Y71558276D01*
X79608760Y71525603D01*
X79650345Y71484018D01*
X79683019Y71435119D01*
X79705524Y71380785D01*
X79716998Y71323105D01*
X79716998Y71264295D01*
X79705524Y71206614D01*
X79683019Y71152281D01*
X79650345Y71103382D01*
G37*
%LPD*%
X77900794Y73332578D02*
G36*
X77859209Y73290992D01*
X77810310Y73258319D01*
X77755976Y73235813D01*
X77698296Y73224340D01*
X77639486Y73224340D01*
X77581805Y73235813D01*
X77527472Y73258319D01*
X77478573Y73290992D01*
X77436988Y73332578D01*
X77404314Y73381476D01*
X77381809Y73435810D01*
X77370335Y73493490D01*
X77370335Y73552301D01*
X77381809Y73609981D01*
X77404314Y73664315D01*
X77436988Y73713214D01*
X77478573Y73754799D01*
X77527472Y73787472D01*
X77581805Y73809978D01*
X77639486Y73821451D01*
X77698296Y73821451D01*
X77755976Y73809978D01*
X77810310Y73787472D01*
X77859209Y73754799D01*
X77900794Y73713214D01*
X77933467Y73664315D01*
X77955973Y73609981D01*
X77967446Y73552301D01*
X77967446Y73493490D01*
X77955973Y73435810D01*
X77933467Y73381476D01*
X77900794Y73332578D01*
G37*
%LPD*%
X80566323Y76690047D02*
G36*
X80524738Y76648462D01*
X80475839Y76615789D01*
X80421505Y76593283D01*
X80363825Y76581810D01*
X80305015Y76581810D01*
X80247334Y76593283D01*
X80193001Y76615789D01*
X80144102Y76648462D01*
X80102517Y76690047D01*
X80069843Y76738946D01*
X80047338Y76793280D01*
X80035864Y76850960D01*
X80035864Y76909770D01*
X80047338Y76967451D01*
X80069843Y77021784D01*
X80102517Y77070683D01*
X80144102Y77112268D01*
X80193001Y77144941D01*
X80247334Y77167447D01*
X80305015Y77178921D01*
X80363825Y77178921D01*
X80421505Y77167447D01*
X80475839Y77144941D01*
X80524738Y77112268D01*
X80566323Y77070683D01*
X80598996Y77021784D01*
X80621502Y76967451D01*
X80632975Y76909770D01*
X80632975Y76850960D01*
X80621502Y76793280D01*
X80598996Y76738946D01*
X80566323Y76690047D01*
G37*
%LPD*%
X88590878Y80184682D02*
G36*
X88549293Y80143097D01*
X88500394Y80110424D01*
X88446060Y80087918D01*
X88388380Y80076445D01*
X88329569Y80076445D01*
X88271889Y80087918D01*
X88217556Y80110424D01*
X88168657Y80143097D01*
X88127071Y80184682D01*
X88094398Y80233581D01*
X88071892Y80287915D01*
X88060419Y80345595D01*
X88060419Y80404405D01*
X88071892Y80462085D01*
X88094398Y80516419D01*
X88127071Y80565318D01*
X88168657Y80606903D01*
X88217556Y80639576D01*
X88271889Y80662082D01*
X88329569Y80673555D01*
X88388380Y80673555D01*
X88446060Y80662082D01*
X88500394Y80639576D01*
X88549293Y80606903D01*
X88590878Y80565318D01*
X88623551Y80516419D01*
X88646057Y80462085D01*
X88657530Y80404405D01*
X88657530Y80345595D01*
X88646057Y80287915D01*
X88623551Y80233581D01*
X88590878Y80184682D01*
G37*
%LPD*%
X81326903Y80704682D02*
G36*
X81285318Y80663097D01*
X81236419Y80630424D01*
X81182085Y80607918D01*
X81124405Y80596445D01*
X81065595Y80596445D01*
X81007915Y80607918D01*
X80953581Y80630424D01*
X80904682Y80663097D01*
X80863097Y80704682D01*
X80830424Y80753581D01*
X80807918Y80807915D01*
X80796445Y80865595D01*
X80796445Y80924405D01*
X80807918Y80982085D01*
X80830424Y81036419D01*
X80863097Y81085318D01*
X80904682Y81126903D01*
X80953581Y81159576D01*
X81007915Y81182082D01*
X81065595Y81193555D01*
X81124405Y81193555D01*
X81182085Y81182082D01*
X81236419Y81159576D01*
X81285318Y81126903D01*
X81326903Y81085318D01*
X81359576Y81036419D01*
X81382082Y80982085D01*
X81393555Y80924405D01*
X81393555Y80865595D01*
X81382082Y80807915D01*
X81359576Y80753581D01*
X81326903Y80704682D01*
G37*
%LPD*%
X87701903Y85294682D02*
G36*
X87660318Y85253097D01*
X87611419Y85220424D01*
X87557085Y85197918D01*
X87499405Y85186445D01*
X87440595Y85186445D01*
X87382915Y85197918D01*
X87328581Y85220424D01*
X87279682Y85253097D01*
X87238097Y85294682D01*
X87205424Y85343581D01*
X87182918Y85397915D01*
X87171445Y85455595D01*
X87171445Y85514405D01*
X87182918Y85572085D01*
X87205424Y85626419D01*
X87238097Y85675318D01*
X87279682Y85716903D01*
X87328581Y85749576D01*
X87382915Y85772082D01*
X87440595Y85783555D01*
X87499405Y85783555D01*
X87557085Y85772082D01*
X87611419Y85749576D01*
X87660318Y85716903D01*
X87701903Y85675318D01*
X87734576Y85626419D01*
X87757082Y85572085D01*
X87768555Y85514405D01*
X87768555Y85455595D01*
X87757082Y85397915D01*
X87734576Y85343581D01*
X87701903Y85294682D01*
G37*
%LPD*%
M02*
